<?xml version="1.0" encoding="UTF-8" standalone="no"?><!-- Generator: Gravit.io --><svg xmlns="http://www.w3.org/2000/svg" xmlns:xlink="http://www.w3.org/1999/xlink" style="isolation:isolate" viewBox="0 0 140 60" width="140pt" height="60pt"><defs><clipPath id="_clipPath_HiJEn7SHHcx0pLEUdOiIyEJoulOXteDK"><rect width="140" height="60"/></clipPath></defs><g clip-path="url(#_clipPath_HiJEn7SHHcx0pLEUdOiIyEJoulOXteDK)"><rect width="140" height="60" style="fill:rgb(0,0,0)"/><path d="M 53.034 8.34 L 86.106 8.34 C 88.388 8.34 90.24 10.192 90.24 12.473 L 90.24 45.537 C 90.24 47.818 88.388 49.67 86.106 49.67 L 53.034 49.67 C 50.752 49.67 48.9 47.818 48.9 45.537 L 48.9 12.473 C 48.9 10.192 50.752 8.34 53.034 8.34 Z" style="stroke:none;fill:#3B3B3B;stroke-miterlimit:10;"/><path d="M 64.856 17.98 L 74.284 17.98 C 76.247 17.98 77.84 19.573 77.84 21.536 L 77.84 30.964 C 77.84 32.927 76.247 34.52 74.284 34.52 L 64.856 34.52 C 62.893 34.52 61.3 32.927 61.3 30.964 L 61.3 21.536 C 61.3 19.573 62.893 17.98 64.856 17.98 Z" style="stroke:none;fill:#E3E3E3;stroke-miterlimit:10;"/><line x1="53.727" y1="44.161" x2="85.416" y2="44.161" vector-effect="non-scaling-stroke" stroke-width="2" stroke="rgb(166,166,166)" stroke-linejoin="miter" stroke-linecap="round" stroke-miterlimit="3"/><line x1="24.429" y1="26.25" x2="42.571" y2="26.25" vector-effect="non-scaling-stroke" stroke-width="1.5" stroke="rgb(189,189,189)" stroke-linejoin="miter" stroke-linecap="square" stroke-miterlimit="3"/><circle vector-effect="non-scaling-stroke" cx="11.928762435913086" cy="26.250000000000014" r="7.5" fill="rgb(189,189,189)"/><g clip-path="url(#_clipPath_MJM8moayhS5931MtNxKBr1xxH47XVDYJ)"><text transform="matrix(1,0,0,1,8.429,30.129)" style="font-family:'Open Sans';font-weight:700;font-size:10px;font-style:normal;fill:#000000;stroke:none;">a</text></g><defs><clipPath id="_clipPath_MJM8moayhS5931MtNxKBr1xxH47XVDYJ"><rect x="0" y="0" width="8" height="13.618" transform="matrix(1,0,0,1,8.429,19.441)"/></clipPath></defs><line x1="96.429" y1="44.161" x2="114.571" y2="44.161" vector-effect="non-scaling-stroke" stroke-width="1.5" stroke="rgb(189,189,189)" stroke-linejoin="miter" stroke-linecap="square" stroke-miterlimit="3"/><circle vector-effect="non-scaling-stroke" cx="128.0712375640869" cy="44.16111111111108" r="7.5" fill="rgb(189,189,189)"/><g clip-path="url(#_clipPath_d3HoTqPwQaH4lYSCOKqAJfqNx84HcJ7r)"><text transform="matrix(1,0,0,1,124.571,48.041)" style="font-family:'Open Sans';font-weight:700;font-size:10px;font-style:normal;fill:#000000;stroke:none;">b</text></g><defs><clipPath id="_clipPath_d3HoTqPwQaH4lYSCOKqAJfqNx84HcJ7r"><rect x="0" y="0" width="8" height="13.618" transform="matrix(1,0,0,1,124.571,37.352)"/></clipPath></defs></g></svg>