<?xml version="1.0" encoding="UTF-8" standalone="no"?><!-- Generator: Gravit.io --><svg xmlns="http://www.w3.org/2000/svg" xmlns:xlink="http://www.w3.org/1999/xlink" style="isolation:isolate" viewBox="0 0 250 200" width="250pt" height="200pt"><defs><clipPath id="_clipPath_IG3YgLM0EM5jScdDdRgQsTiiOTSFNqbW"><rect width="250" height="200"/></clipPath></defs><g clip-path="url(#_clipPath_IG3YgLM0EM5jScdDdRgQsTiiOTSFNqbW)"><rect width="250" height="200" style="fill:rgb(0,0,0)"/><path d="M 89.919 14 L 160.081 14 C 166.107 14 171 18.893 171 24.919 L 171 175.081 C 171 181.107 166.107 186 160.081 186 L 89.919 186 C 83.893 186 79 181.107 79 175.081 L 79 24.919 C 79 18.893 83.893 14 89.919 14 Z" style="fill:none;stroke:#999989;stroke-width:2;stroke-linecap:square;stroke-miterlimit:2;"/><circle vector-effect="non-scaling-stroke" cx="120.49999999999999" cy="66.49999999999999" r="6.5" fill="rgb(255,131,0)"/><line x1="120.5" y1="66.5" x2="136" y2="66.5" vector-effect="non-scaling-stroke" stroke-width="6" stroke="rgb(255,131,0)" stroke-linejoin="miter" stroke-linecap="round" stroke-miterlimit="3"/><line x1="133.437" y1="88" x2="156" y2="88" vector-effect="non-scaling-stroke" stroke-width="8" stroke="rgb(157,84,6)" stroke-linejoin="miter" stroke-linecap="round" stroke-miterlimit="3"/><line x1="95" y1="88" x2="136" y2="88" vector-effect="non-scaling-stroke" stroke-width="8" stroke="rgb(255,131,0)" stroke-linejoin="miter" stroke-linecap="round" stroke-miterlimit="3"/><line x1="116.921" y1="88" x2="133.954" y2="88" vector-effect="non-scaling-stroke" stroke-width="2" stroke="rgb(166,166,166)" stroke-linejoin="miter" stroke-linecap="round" stroke-miterlimit="3"/><path d="M 99.229 102 L 151.651 102 C 152.638 102 153.44 102.802 153.44 103.789 L 153.44 108.211 C 153.44 109.198 152.638 110 151.651 110 L 99.229 110 C 98.242 110 97.44 109.198 97.44 108.211 L 97.44 103.789 C 97.44 102.802 98.242 102 99.229 102 Z" style="stroke:none;fill:#FF8300;stroke-miterlimit:10;"/><path d="M 114.08 104 L 116.36 104 C 116.835 104 117.22 104.385 117.22 104.86 L 117.22 107.14 C 117.22 107.615 116.835 108 116.36 108 L 114.08 108 C 113.605 108 113.22 107.615 113.22 107.14 L 113.22 104.86 C 113.22 104.385 113.605 104 114.08 104 Z" style="stroke:none;fill:#EBEBEB;stroke-miterlimit:10;"/><line x1="120.624" y1="106" x2="137.656" y2="106" vector-effect="non-scaling-stroke" stroke-width="2" stroke="rgb(166,166,166)" stroke-linejoin="miter" stroke-linecap="round" stroke-miterlimit="3"/><path d="M 99.229 114 L 151.651 114 C 152.638 114 153.44 114.802 153.44 115.789 L 153.44 120.211 C 153.44 121.198 152.638 122 151.651 122 L 99.229 122 C 98.242 122 97.44 121.198 97.44 120.211 L 97.44 115.789 C 97.44 114.802 98.242 114 99.229 114 Z" style="stroke:none;fill:#FF8300;stroke-miterlimit:10;"/><path d="M 114.08 116 L 116.36 116 C 116.835 116 117.22 116.385 117.22 116.86 L 117.22 119.14 C 117.22 119.615 116.835 120 116.36 120 L 114.08 120 C 113.605 120 113.22 119.615 113.22 119.14 L 113.22 116.86 C 113.22 116.385 113.605 116 114.08 116 Z" style="stroke:none;fill:#EBEBEB;stroke-miterlimit:10;"/><line x1="120.624" y1="118" x2="137.656" y2="118" vector-effect="non-scaling-stroke" stroke-width="2" stroke="rgb(166,166,166)" stroke-linejoin="miter" stroke-linecap="round" stroke-miterlimit="3"/><path d="M 99.229 126 L 151.651 126 C 152.638 126 153.44 126.802 153.44 127.789 L 153.44 132.211 C 153.44 133.198 152.638 134 151.651 134 L 99.229 134 C 98.242 134 97.44 133.198 97.44 132.211 L 97.44 127.789 C 97.44 126.802 98.242 126 99.229 126 Z" style="stroke:none;fill:#FF8300;stroke-miterlimit:10;"/><path d="M 114.08 128 L 116.36 128 C 116.835 128 117.22 128.385 117.22 128.86 L 117.22 131.14 C 117.22 131.615 116.835 132 116.36 132 L 114.08 132 C 113.605 132 113.22 131.615 113.22 131.14 L 113.22 128.86 C 113.22 128.385 113.605 128 114.08 128 Z" style="stroke:none;fill:#EBEBEB;stroke-miterlimit:10;"/><line x1="120.624" y1="130" x2="137.656" y2="130" vector-effect="non-scaling-stroke" stroke-width="2" stroke="rgb(166,166,166)" stroke-linejoin="miter" stroke-linecap="round" stroke-miterlimit="3"/><path d="M 99.229 145 L 151.651 145 C 152.638 145 153.44 145.802 153.44 146.789 L 153.44 151.211 C 153.44 152.198 152.638 153 151.651 153 L 99.229 153 C 98.242 153 97.44 152.198 97.44 151.211 L 97.44 146.789 C 97.44 145.802 98.242 145 99.229 145 Z" style="stroke:none;fill:#D50000;stroke-miterlimit:10;"/><path d="M 114.08 147 L 116.36 147 C 116.835 147 117.22 147.385 117.22 147.86 L 117.22 150.14 C 117.22 150.615 116.835 151 116.36 151 L 114.08 151 C 113.605 151 113.22 150.615 113.22 150.14 L 113.22 147.86 C 113.22 147.385 113.605 147 114.08 147 Z" style="stroke:none;fill:#EBEBEB;stroke-miterlimit:10;"/><line x1="120.624" y1="149" x2="137.656" y2="149" vector-effect="non-scaling-stroke" stroke-width="2" stroke="rgb(166,166,166)" stroke-linejoin="miter" stroke-linecap="round" stroke-miterlimit="3"/><line x1="45.114" y1="66" x2="73" y2="66" vector-effect="non-scaling-stroke" stroke-width="1.5" stroke="rgb(189,189,189)" stroke-linejoin="miter" stroke-linecap="square" stroke-miterlimit="3"/><circle vector-effect="non-scaling-stroke" cx="32.5" cy="66.49999999999999" r="7.5" fill="rgb(189,189,189)"/><g clip-path="url(#_clipPath_Zd6bIMu4unNtmHJdhtUCvTNBf95iHB6g)"><text transform="matrix(1,0,0,1,29.146,70.379)" style="font-family:'Open Sans';font-weight:700;font-size:10px;font-style:normal;fill:#000000;stroke:none;">1</text></g><defs><clipPath id="_clipPath_Zd6bIMu4unNtmHJdhtUCvTNBf95iHB6g"><rect x="0" y="0" width="8" height="13.618" transform="matrix(1,0,0,1,29,59.691)"/></clipPath></defs><line x1="45.114" y1="105.5" x2="73" y2="105.5" vector-effect="non-scaling-stroke" stroke-width="1.5" stroke="rgb(189,189,189)" stroke-linejoin="miter" stroke-linecap="square" stroke-miterlimit="3"/><circle vector-effect="non-scaling-stroke" cx="32.5" cy="106" r="7.5" fill="rgb(189,189,189)"/><g clip-path="url(#_clipPath_BbYQlVm7BhuEWRqix9Qo28ITPCavaX7h)"><text transform="matrix(1,0,0,1,29.146,109.879)" style="font-family:'Open Sans';font-weight:700;font-size:10px;font-style:normal;fill:#000000;stroke:none;">3</text></g><defs><clipPath id="_clipPath_BbYQlVm7BhuEWRqix9Qo28ITPCavaX7h"><rect x="0" y="0" width="8" height="13.618" transform="matrix(1,0,0,1,29,99.191)"/></clipPath></defs><line x1="45.114" y1="129.5" x2="73" y2="129.5" vector-effect="non-scaling-stroke" stroke-width="1.5" stroke="rgb(189,189,189)" stroke-linejoin="miter" stroke-linecap="square" stroke-miterlimit="3"/><circle vector-effect="non-scaling-stroke" cx="32.5" cy="130" r="7.5" fill="rgb(189,189,189)"/><g clip-path="url(#_clipPath_vOhOFOmjWMpwPQSoD0IIPnwhjUclUXuD)"><text transform="matrix(1,0,0,1,29.146,133.879)" style="font-family:'Open Sans';font-weight:700;font-size:10px;font-style:normal;fill:#000000;stroke:none;">5</text></g><defs><clipPath id="_clipPath_vOhOFOmjWMpwPQSoD0IIPnwhjUclUXuD"><rect x="0" y="0" width="8" height="13.618" transform="matrix(1,0,0,1,29,123.191)"/></clipPath></defs><line x1="177.114" y1="87.5" x2="205" y2="87.5" vector-effect="non-scaling-stroke" stroke-width="1.5" stroke="rgb(189,189,189)" stroke-linejoin="miter" stroke-linecap="square" stroke-miterlimit="3"/><circle vector-effect="non-scaling-stroke" cx="217.5" cy="88" r="7.5" fill="rgb(189,189,189)"/><g clip-path="url(#_clipPath_fLN43DMWIfSc3c1HSSJ2g1IDQJXWWKRH)"><text transform="matrix(1,0,0,1,214.146,91.879)" style="font-family:'Open Sans';font-weight:700;font-size:10px;font-style:normal;fill:#000000;stroke:none;">2</text></g><defs><clipPath id="_clipPath_fLN43DMWIfSc3c1HSSJ2g1IDQJXWWKRH"><rect x="0" y="0" width="8" height="13.618" transform="matrix(1,0,0,1,214,81.191)"/></clipPath></defs><line x1="177.114" y1="117.5" x2="205" y2="117.5" vector-effect="non-scaling-stroke" stroke-width="1.5" stroke="rgb(189,189,189)" stroke-linejoin="miter" stroke-linecap="square" stroke-miterlimit="3"/><circle vector-effect="non-scaling-stroke" cx="217.5" cy="118" r="7.5" fill="rgb(189,189,189)"/><g clip-path="url(#_clipPath_4ZFiftq4HIGKsw2eHsR6OL60yNx1zsiQ)"><text transform="matrix(1,0,0,1,214.146,121.879)" style="font-family:'Open Sans';font-weight:700;font-size:10px;font-style:normal;fill:#000000;stroke:none;">4</text></g><defs><clipPath id="_clipPath_4ZFiftq4HIGKsw2eHsR6OL60yNx1zsiQ"><rect x="0" y="0" width="8" height="13.618" transform="matrix(1,0,0,1,214,111.191)"/></clipPath></defs><line x1="177.114" y1="148.5" x2="205" y2="148.5" vector-effect="non-scaling-stroke" stroke-width="1.5" stroke="rgb(189,189,189)" stroke-linejoin="miter" stroke-linecap="square" stroke-miterlimit="3"/><circle vector-effect="non-scaling-stroke" cx="217.5" cy="149" r="7.5" fill="rgb(189,189,189)"/><g clip-path="url(#_clipPath_2TYoKGK8MtIWLhvvxvOtqYSCqftu3XxS)"><text transform="matrix(1,0,0,1,214.146,152.879)" style="font-family:'Open Sans';font-weight:700;font-size:10px;font-style:normal;fill:#000000;stroke:none;">6</text></g><defs><clipPath id="_clipPath_2TYoKGK8MtIWLhvvxvOtqYSCqftu3XxS"><rect x="0" y="0" width="8" height="13.618" transform="matrix(1,0,0,1,214,142.191)"/></clipPath></defs></g></svg>