<?xml version="1.0" encoding="UTF-8" standalone="no"?><!-- Generator: Gravit.io --><svg xmlns="http://www.w3.org/2000/svg" xmlns:xlink="http://www.w3.org/1999/xlink" style="isolation:isolate" viewBox="0 0 250 200" width="250pt" height="200pt"><defs><clipPath id="_clipPath_lkr8FVbVLYmSZyw1qHkpDgl64yY6hz4g"><rect width="250" height="200"/></clipPath></defs><g clip-path="url(#_clipPath_lkr8FVbVLYmSZyw1qHkpDgl64yY6hz4g)"><rect width="250" height="200" style="fill:rgb(0,0,0)"/><path d="M 89.919 14 L 160.081 14 C 166.107 14 171 18.893 171 24.919 L 171 175.081 C 171 181.107 166.107 186 160.081 186 L 89.919 186 C 83.893 186 79 181.107 79 175.081 L 79 24.919 C 79 18.893 83.893 14 89.919 14 Z" style="fill:none;stroke:#999989;stroke-width:2;stroke-linecap:square;stroke-miterlimit:2;"/><path d="M 87.86 20 L 106.64 20 C 108.494 20 110 21.506 110 23.36 L 110 24.64 C 110 26.494 108.494 28 106.64 28 L 87.86 28 C 86.006 28 84.5 26.494 84.5 24.64 L 84.5 23.36 C 84.5 21.506 86.006 20 87.86 20 Z" style="stroke:none;fill:#FF8300;stroke-miterlimit:10;"/><line x1="87.384" y1="24" x2="107.137" y2="24" vector-effect="non-scaling-stroke" stroke-width="2" stroke="rgb(255,255,255)" stroke-linejoin="miter" stroke-linecap="round" stroke-miterlimit="3"/><path d="M 143.36 20 L 161.64 20 C 163.494 20 165 21.506 165 23.36 L 165 24.64 C 165 26.494 163.494 28 161.64 28 L 143.36 28 C 141.506 28 140 26.494 140 24.64 L 140 23.36 C 140 21.506 141.506 20 143.36 20 Z" style="stroke:none;fill:#FF8300;stroke-miterlimit:10;"/><line x1="143" y1="24" x2="162" y2="24" vector-effect="non-scaling-stroke" stroke-width="2" stroke="rgb(255,255,255)" stroke-linejoin="miter" stroke-linecap="round" stroke-miterlimit="3"/><path d="M 115.86 20 L 134.14 20 C 135.994 20 137.5 21.506 137.5 23.36 L 137.5 24.64 C 137.5 26.494 135.994 28 134.14 28 L 115.86 28 C 114.006 28 112.5 26.494 112.5 24.64 L 112.5 23.36 C 112.5 21.506 114.006 20 115.86 20 Z" style="stroke:none;fill:#FF8300;stroke-miterlimit:10;"/><line x1="115.511" y1="24" x2="134.489" y2="24" vector-effect="non-scaling-stroke" stroke-width="2" stroke="rgb(255,255,255)" stroke-linejoin="miter" stroke-linecap="round" stroke-miterlimit="3"/><path d="M 153.237 163 L 158.763 163 C 161.653 163 164 165.347 164 168.237 L 164 173.763 C 164 176.653 161.653 179 158.763 179 L 153.237 179 C 150.347 179 148 176.653 148 173.763 L 148 168.237 C 148 165.347 150.347 163 153.237 163 Z" style="stroke:none;fill:#FF8300;stroke-miterlimit:10;"/><path d="M 153.857 167.24 L 158.143 167.24 C 159.036 167.24 159.76 167.964 159.76 168.857 L 159.76 173.143 C 159.76 174.036 159.036 174.76 158.143 174.76 L 153.857 174.76 C 152.964 174.76 152.24 174.036 152.24 173.143 L 152.24 168.857 C 152.24 167.964 152.964 167.24 153.857 167.24 Z" style="stroke:none;fill:#EBEBEB;stroke-miterlimit:10;"/><path d="M 89.129 32 L 160.871 32 C 163.426 32 165.5 34.074 165.5 36.629 L 165.5 39.371 C 165.5 41.926 163.426 44 160.871 44 L 89.129 44 C 86.574 44 84.5 41.926 84.5 39.371 L 84.5 36.629 C 84.5 34.074 86.574 32 89.129 32 Z" style="stroke:none;fill:#3B3B3B;stroke-miterlimit:10;"/><path d="M 88.344 34.75 L 91.906 34.75 C 92.648 34.75 93.25 35.352 93.25 36.094 L 93.25 39.656 C 93.25 40.398 92.648 41 91.906 41 L 88.344 41 C 87.602 41 87 40.398 87 39.656 L 87 36.094 C 87 35.352 87.602 34.75 88.344 34.75 Z" style="stroke:none;fill:#EBEBEB;stroke-miterlimit:10;"/><line x1="98" y1="36.125" x2="132.672" y2="36.125" vector-effect="non-scaling-stroke" stroke-width="2" stroke="rgb(166,166,166)" stroke-linejoin="miter" stroke-linecap="round" stroke-miterlimit="3"/><line x1="157" y1="38" x2="162" y2="38" vector-effect="non-scaling-stroke" stroke-width="2" stroke="rgb(166,166,166)" stroke-linejoin="miter" stroke-linecap="round" stroke-miterlimit="3"/><line x1="98" y1="39.625" x2="123.312" y2="39.625" vector-effect="non-scaling-stroke" stroke-width="2" stroke="rgb(166,166,166)" stroke-linejoin="miter" stroke-linecap="round" stroke-miterlimit="3"/><path d="M 89.129 47 L 160.871 47 C 163.426 47 165.5 49.074 165.5 51.629 L 165.5 54.371 C 165.5 56.926 163.426 59 160.871 59 L 89.129 59 C 86.574 59 84.5 56.926 84.5 54.371 L 84.5 51.629 C 84.5 49.074 86.574 47 89.129 47 Z" style="stroke:none;fill:#3B3B3B;stroke-miterlimit:10;"/><path d="M 88.344 49.88 L 91.906 49.88 C 92.648 49.88 93.25 50.482 93.25 51.224 L 93.25 54.786 C 93.25 55.528 92.648 56.13 91.906 56.13 L 88.344 56.13 C 87.602 56.13 87 55.528 87 54.786 L 87 51.224 C 87 50.482 87.602 49.88 88.344 49.88 Z" style="stroke:none;fill:#EBEBEB;stroke-miterlimit:10;"/><line x1="98" y1="51.125" x2="132.672" y2="51.125" vector-effect="non-scaling-stroke" stroke-width="2" stroke="rgb(166,166,166)" stroke-linejoin="miter" stroke-linecap="round" stroke-miterlimit="3"/><line x1="157" y1="53" x2="162" y2="53" vector-effect="non-scaling-stroke" stroke-width="2" stroke="rgb(166,166,166)" stroke-linejoin="miter" stroke-linecap="round" stroke-miterlimit="3"/><line x1="98" y1="54.625" x2="123.312" y2="54.625" vector-effect="non-scaling-stroke" stroke-width="2" stroke="rgb(166,166,166)" stroke-linejoin="miter" stroke-linecap="round" stroke-miterlimit="3"/><path d="M 89.129 62 L 160.871 62 C 163.426 62 165.5 64.074 165.5 66.629 L 165.5 69.371 C 165.5 71.926 163.426 74 160.871 74 L 89.129 74 C 86.574 74 84.5 71.926 84.5 69.371 L 84.5 66.629 C 84.5 64.074 86.574 62 89.129 62 Z" style="stroke:none;fill:#3B3B3B;stroke-miterlimit:10;"/><path d="M 88.344 64.75 L 91.906 64.75 C 92.648 64.75 93.25 65.352 93.25 66.094 L 93.25 69.656 C 93.25 70.398 92.648 71 91.906 71 L 88.344 71 C 87.602 71 87 70.398 87 69.656 L 87 66.094 C 87 65.352 87.602 64.75 88.344 64.75 Z" style="stroke:none;fill:#EBEBEB;stroke-miterlimit:10;"/><line x1="98" y1="66.125" x2="132.672" y2="66.125" vector-effect="non-scaling-stroke" stroke-width="2" stroke="rgb(166,166,166)" stroke-linejoin="miter" stroke-linecap="round" stroke-miterlimit="3"/><line x1="157" y1="68" x2="162" y2="68" vector-effect="non-scaling-stroke" stroke-width="2" stroke="rgb(166,166,166)" stroke-linejoin="miter" stroke-linecap="round" stroke-miterlimit="3"/><line x1="98" y1="69.625" x2="123.312" y2="69.625" vector-effect="non-scaling-stroke" stroke-width="2" stroke="rgb(166,166,166)" stroke-linejoin="miter" stroke-linecap="round" stroke-miterlimit="3"/><path d="M 89.129 77 L 160.871 77 C 163.426 77 165.5 79.074 165.5 81.629 L 165.5 84.371 C 165.5 86.926 163.426 89 160.871 89 L 89.129 89 C 86.574 89 84.5 86.926 84.5 84.371 L 84.5 81.629 C 84.5 79.074 86.574 77 89.129 77 Z" style="stroke:none;fill:#3B3B3B;stroke-miterlimit:10;"/><path d="M 88.344 79.88 L 91.906 79.88 C 92.648 79.88 93.25 80.482 93.25 81.224 L 93.25 84.786 C 93.25 85.528 92.648 86.13 91.906 86.13 L 88.344 86.13 C 87.602 86.13 87 85.528 87 84.786 L 87 81.224 C 87 80.482 87.602 79.88 88.344 79.88 Z" style="stroke:none;fill:#EBEBEB;stroke-miterlimit:10;"/><line x1="98" y1="81.125" x2="132.672" y2="81.125" vector-effect="non-scaling-stroke" stroke-width="2" stroke="rgb(166,166,166)" stroke-linejoin="miter" stroke-linecap="round" stroke-miterlimit="3"/><line x1="157" y1="83" x2="162" y2="83" vector-effect="non-scaling-stroke" stroke-width="2" stroke="rgb(166,166,166)" stroke-linejoin="miter" stroke-linecap="round" stroke-miterlimit="3"/><line x1="98" y1="84.625" x2="123.312" y2="84.625" vector-effect="non-scaling-stroke" stroke-width="2" stroke="rgb(166,166,166)" stroke-linejoin="miter" stroke-linecap="round" stroke-miterlimit="3"/><line x1="55" y1="23" x2="73.142" y2="23" vector-effect="non-scaling-stroke" stroke-width="1.5" stroke="rgb(189,189,189)" stroke-linejoin="miter" stroke-linecap="square" stroke-miterlimit="3"/><circle vector-effect="non-scaling-stroke" cx="42.5" cy="22.999999999999993" r="7.5" fill="rgb(189,189,189)"/><g clip-path="url(#_clipPath_lHWsG47DRpwzgdX0ZukO9FZYM7VP5zAw)"><text transform="matrix(1,0,0,1,39.146,26.879)" style="font-family:'Open Sans';font-weight:700;font-size:10px;font-style:normal;fill:#000000;stroke:none;">1</text></g><defs><clipPath id="_clipPath_lHWsG47DRpwzgdX0ZukO9FZYM7VP5zAw"><rect x="0" y="0" width="8" height="13.618" transform="matrix(1,0,0,1,39,16.191)"/></clipPath></defs><line x1="55" y1="52.5" x2="73.142" y2="52.5" vector-effect="non-scaling-stroke" stroke-width="1.5" stroke="rgb(189,189,189)" stroke-linejoin="miter" stroke-linecap="square" stroke-miterlimit="3"/><circle vector-effect="non-scaling-stroke" cx="42.5" cy="52.50000000000003" r="7.5" fill="rgb(189,189,189)"/><g clip-path="url(#_clipPath_whwUhNvYSnAmQflhqBOmj66XBQIaur3r)"><text transform="matrix(1,0,0,1,39.146,56.379)" style="font-family:'Open Sans';font-weight:700;font-size:10px;font-style:normal;fill:#000000;stroke:none;">2</text></g><defs><clipPath id="_clipPath_whwUhNvYSnAmQflhqBOmj66XBQIaur3r"><rect x="0" y="0" width="8" height="13.618" transform="matrix(1,0,0,1,39,45.691)"/></clipPath></defs><line x1="176.858" y1="170.5" x2="195" y2="170.5" vector-effect="non-scaling-stroke" stroke-width="1.5" stroke="rgb(189,189,189)" stroke-linejoin="miter" stroke-linecap="square" stroke-miterlimit="3"/><circle vector-effect="non-scaling-stroke" cx="208.5" cy="170.49999999999997" r="7.5" fill="rgb(189,189,189)"/><g clip-path="url(#_clipPath_XlV3J7VE1CbsHwpnNVEq0X84NHAiHEQx)"><text transform="matrix(1,0,0,1,205.146,174.379)" style="font-family:'Open Sans';font-weight:700;font-size:10px;font-style:normal;fill:#000000;stroke:none;">3</text></g><defs><clipPath id="_clipPath_XlV3J7VE1CbsHwpnNVEq0X84NHAiHEQx"><rect x="0" y="0" width="8" height="13.618" transform="matrix(1,0,0,1,205,163.691)"/></clipPath></defs></g></svg>