<?xml version="1.0" encoding="UTF-8" standalone="no"?><!-- Generator: Gravit.io --><svg xmlns="http://www.w3.org/2000/svg" xmlns:xlink="http://www.w3.org/1999/xlink" style="isolation:isolate" viewBox="0 0 400 200" width="400pt" height="200pt"><defs><clipPath id="_clipPath_QyT2NnfhKDECimhtmdxSbMQ4qgervq0u"><rect width="400" height="200"/></clipPath></defs><g clip-path="url(#_clipPath_QyT2NnfhKDECimhtmdxSbMQ4qgervq0u)"><rect width="400" height="200" style="fill:rgb(0,0,0)"/><path d="M 243 171 L 333 171 L 333 175 C 333 180.519 328.519 185 323 185 L 253 185 C 247.481 185 243 180.519 243 175 L 243 171 Z" style="stroke:none;fill:#3B3B3B;stroke-miterlimit:10;"/><line x1="259.5" y1="181" x2="277.5" y2="181" vector-effect="non-scaling-stroke" stroke-width="2" stroke="rgb(166,166,166)" stroke-linejoin="miter" stroke-linecap="round" stroke-miterlimit="3"/><path d="M 267.075 173 L 269.925 173 C 270.518 173 271 173.482 271 174.075 L 271 176.925 C 271 177.518 270.518 178 269.925 178 L 267.075 178 C 266.482 178 266 177.518 266 176.925 L 266 174.075 C 266 173.482 266.482 173 267.075 173 Z" style="stroke:none;fill:#EBEBEB;stroke-miterlimit:10;"/><line x1="298.5" y1="181" x2="316.5" y2="181" vector-effect="non-scaling-stroke" stroke-width="2" stroke="rgb(255,133,0)" stroke-linejoin="miter" stroke-linecap="round" stroke-miterlimit="3"/><path d="M 306.075 173 L 308.925 173 C 309.518 173 310 173.482 310 174.075 L 310 176.925 C 310 177.518 309.518 178 308.925 178 L 306.075 178 C 305.482 178 305 177.518 305 176.925 L 305 174.075 C 305 173.482 305.482 173 306.075 173 Z" style="stroke:none;fill:#FF8500;stroke-miterlimit:10;"/><path d="M 70 171 L 160 171 L 160 175 C 160 180.519 155.519 185 150 185 L 80 185 C 74.481 185 70 180.519 70 175 L 70 171 Z" style="stroke:none;fill:#3B3B3B;stroke-miterlimit:10;"/><path d="M 252.919 14 L 323.081 14 C 329.107 14 334 18.893 334 24.919 L 334 175.081 C 334 181.107 329.107 186 323.081 186 L 252.919 186 C 246.893 186 242 181.107 242 175.081 L 242 24.919 C 242 18.893 246.893 14 252.919 14 Z" style="fill:none;stroke:#999989;stroke-width:2;stroke-linecap:square;stroke-miterlimit:2;"/><path d="M 79.919 14 L 150.081 14 C 156.107 14 161 18.893 161 24.919 L 161 175.081 C 161 181.107 156.107 186 150.081 186 L 79.919 186 C 73.893 186 69 181.107 69 175.081 L 69 24.919 C 69 18.893 73.893 14 79.919 14 Z" style="fill:none;stroke:#999989;stroke-width:2;stroke-linecap:square;stroke-miterlimit:2;"/><path d="M 81.664 20 L 148.336 20 C 152.014 20 155 22.986 155 26.664 L 155 42.336 C 155 46.014 152.014 49 148.336 49 L 81.664 49 C 77.986 49 75 46.014 75 42.336 L 75 26.664 C 75 22.986 77.986 20 81.664 20 Z" style="stroke:none;fill:#3B3B3B;stroke-miterlimit:10;"/><path d="M 255 20 L 321 20 C 324.863 20 328 23.137 328 27 L 328 44 C 328 47.863 324.863 51 321 51 L 255 51 C 251.137 51 248 47.863 248 44 L 248 27 C 248 23.137 251.137 20 255 20 Z" style="stroke:none;fill:#3B3B3B;stroke-miterlimit:10;"/><path d="M 80 53 L 150 53 C 152.76 53 155 55.24 155 58 L 155 64 C 155 66.76 152.76 69 150 69 L 80 69 C 77.24 69 75 66.76 75 64 L 75 58 C 75 55.24 77.24 53 80 53 Z" style="stroke:none;fill:#3B3B3B;stroke-miterlimit:10;"/><line x1="80" y1="26" x2="131" y2="26" vector-effect="non-scaling-stroke" stroke-width="2" stroke="rgb(166,166,166)" stroke-linejoin="miter" stroke-linecap="round" stroke-miterlimit="3"/><line x1="265.5" y1="26.5" x2="310.5" y2="26.5" vector-effect="non-scaling-stroke" stroke-width="2" stroke="rgb(166,166,166)" stroke-linejoin="miter" stroke-linecap="round" stroke-miterlimit="3"/><line x1="90" y1="58.5" x2="124" y2="58.5" vector-effect="non-scaling-stroke" stroke-width="2" stroke="rgb(166,166,166)" stroke-linejoin="miter" stroke-linecap="round" stroke-miterlimit="3"/><line x1="139" y1="58.5" x2="151" y2="58.5" vector-effect="non-scaling-stroke" stroke-width="2" stroke="rgb(166,166,166)" stroke-linejoin="miter" stroke-linecap="round" stroke-miterlimit="3"/><line x1="144" y1="63" x2="152" y2="63" vector-effect="non-scaling-stroke" stroke-width="2" stroke="rgb(166,166,166)" stroke-linejoin="miter" stroke-linecap="round" stroke-miterlimit="3"/><line x1="90" y1="63" x2="114" y2="63" vector-effect="non-scaling-stroke" stroke-width="2" stroke="rgb(166,166,166)" stroke-linejoin="miter" stroke-linecap="round" stroke-miterlimit="3"/><line x1="80" y1="33" x2="124" y2="33" vector-effect="non-scaling-stroke" stroke-width="2" stroke="rgb(166,166,166)" stroke-linejoin="miter" stroke-linecap="round" stroke-miterlimit="3"/><line x1="253" y1="34.5" x2="297" y2="34.5" vector-effect="non-scaling-stroke" stroke-width="2" stroke="rgb(166,166,166)" stroke-linejoin="miter" stroke-linecap="round" stroke-miterlimit="3"/><line x1="253" y1="39.5" x2="297" y2="39.5" vector-effect="non-scaling-stroke" stroke-width="2" stroke="rgb(166,166,166)" stroke-linejoin="miter" stroke-linecap="round" stroke-miterlimit="3"/><line x1="253" y1="44.5" x2="297" y2="44.5" vector-effect="non-scaling-stroke" stroke-width="2" stroke="rgb(166,166,166)" stroke-linejoin="miter" stroke-linecap="round" stroke-miterlimit="3"/><line x1="80" y1="38" x2="124" y2="38" vector-effect="non-scaling-stroke" stroke-width="2" stroke="rgb(166,166,166)" stroke-linejoin="miter" stroke-linecap="round" stroke-miterlimit="3"/><line x1="80" y1="43" x2="124" y2="43" vector-effect="non-scaling-stroke" stroke-width="2" stroke="rgb(166,166,166)" stroke-linejoin="miter" stroke-linecap="round" stroke-miterlimit="3"/><path d="M 146.29 23 L 149.71 23 C 150.422 23 151 23.578 151 24.29 L 151 27.71 C 151 28.422 150.422 29 149.71 29 L 146.29 29 C 145.578 29 145 28.422 145 27.71 L 145 24.29 C 145 23.578 145.578 23 146.29 23 Z" style="stroke:none;fill:#EBEBEB;stroke-miterlimit:10;"/><path d="M 254.505 23 L 258.495 23 C 259.326 23 260 23.674 260 24.505 L 260 28.495 C 260 29.326 259.326 30 258.495 30 L 254.505 30 C 253.674 30 253 29.326 253 28.495 L 253 24.505 C 253 23.674 253.674 23 254.505 23 Z" style="stroke:none;fill:#EBEBEB;stroke-miterlimit:10;"/><path d="M 255 54 L 321 54 C 324.863 54 328 57.137 328 61 L 328 78 C 328 81.863 324.863 85 321 85 L 255 85 C 251.137 85 248 81.863 248 78 L 248 61 C 248 57.137 251.137 54 255 54 Z" style="stroke:none;fill:#3B3B3B;stroke-miterlimit:10;"/><line x1="265.5" y1="60.5" x2="310.5" y2="60.5" vector-effect="non-scaling-stroke" stroke-width="2" stroke="rgb(166,166,166)" stroke-linejoin="miter" stroke-linecap="round" stroke-miterlimit="3"/><line x1="253" y1="68.5" x2="297" y2="68.5" vector-effect="non-scaling-stroke" stroke-width="2" stroke="rgb(166,166,166)" stroke-linejoin="miter" stroke-linecap="round" stroke-miterlimit="3"/><line x1="253" y1="73.5" x2="297" y2="73.5" vector-effect="non-scaling-stroke" stroke-width="2" stroke="rgb(166,166,166)" stroke-linejoin="miter" stroke-linecap="round" stroke-miterlimit="3"/><line x1="253" y1="78.5" x2="297" y2="78.5" vector-effect="non-scaling-stroke" stroke-width="2" stroke="rgb(166,166,166)" stroke-linejoin="miter" stroke-linecap="round" stroke-miterlimit="3"/><path d="M 254.505 57 L 258.495 57 C 259.326 57 260 57.674 260 58.505 L 260 62.495 C 260 63.326 259.326 64 258.495 64 L 254.505 64 C 253.674 64 253 63.326 253 62.495 L 253 58.505 C 253 57.674 253.674 57 254.505 57 Z" style="stroke:none;fill:#EBEBEB;stroke-miterlimit:10;"/><path d="M 255 88 L 321 88 C 324.863 88 328 91.137 328 95 L 328 112 C 328 115.863 324.863 119 321 119 L 255 119 C 251.137 119 248 115.863 248 112 L 248 95 C 248 91.137 251.137 88 255 88 Z" style="stroke:none;fill:#3B3B3B;stroke-miterlimit:10;"/><line x1="265.5" y1="94.5" x2="310.5" y2="94.5" vector-effect="non-scaling-stroke" stroke-width="2" stroke="rgb(166,166,166)" stroke-linejoin="miter" stroke-linecap="round" stroke-miterlimit="3"/><line x1="253" y1="102.5" x2="297" y2="102.5" vector-effect="non-scaling-stroke" stroke-width="2" stroke="rgb(166,166,166)" stroke-linejoin="miter" stroke-linecap="round" stroke-miterlimit="3"/><line x1="253" y1="107.5" x2="297" y2="107.5" vector-effect="non-scaling-stroke" stroke-width="2" stroke="rgb(166,166,166)" stroke-linejoin="miter" stroke-linecap="round" stroke-miterlimit="3"/><line x1="253" y1="112.5" x2="297" y2="112.5" vector-effect="non-scaling-stroke" stroke-width="2" stroke="rgb(166,166,166)" stroke-linejoin="miter" stroke-linecap="round" stroke-miterlimit="3"/><path d="M 254.505 91 L 258.495 91 C 259.326 91 260 91.674 260 92.505 L 260 96.495 C 260 97.326 259.326 98 258.495 98 L 254.505 98 C 253.674 98 253 97.326 253 96.495 L 253 92.505 C 253 91.674 253.674 91 254.505 91 Z" style="stroke:none;fill:#EBEBEB;stroke-miterlimit:10;"/><path d="M 80.505 57.5 L 84.495 57.5 C 85.326 57.5 86 58.174 86 59.005 L 86 62.995 C 86 63.826 85.326 64.5 84.495 64.5 L 80.505 64.5 C 79.674 64.5 79 63.826 79 62.995 L 79 59.005 C 79 58.174 79.674 57.5 80.505 57.5 Z" style="stroke:none;fill:#EBEBEB;stroke-miterlimit:10;"/><path d="M 80 72 L 150 72 C 152.76 72 155 74.24 155 77 L 155 83 C 155 85.76 152.76 88 150 88 L 80 88 C 77.24 88 75 85.76 75 83 L 75 77 C 75 74.24 77.24 72 80 72 Z" style="stroke:none;fill:#3B3B3B;stroke-miterlimit:10;"/><line x1="90" y1="77.5" x2="124" y2="77.5" vector-effect="non-scaling-stroke" stroke-width="2" stroke="rgb(166,166,166)" stroke-linejoin="miter" stroke-linecap="round" stroke-miterlimit="3"/><line x1="139" y1="77.5" x2="151" y2="77.5" vector-effect="non-scaling-stroke" stroke-width="2" stroke="rgb(166,166,166)" stroke-linejoin="miter" stroke-linecap="round" stroke-miterlimit="3"/><line x1="144" y1="82" x2="152" y2="82" vector-effect="non-scaling-stroke" stroke-width="2" stroke="rgb(166,166,166)" stroke-linejoin="miter" stroke-linecap="round" stroke-miterlimit="3"/><line x1="90" y1="82" x2="114" y2="82" vector-effect="non-scaling-stroke" stroke-width="2" stroke="rgb(166,166,166)" stroke-linejoin="miter" stroke-linecap="round" stroke-miterlimit="3"/><path d="M 80.505 76.5 L 84.495 76.5 C 85.326 76.5 86 77.174 86 78.005 L 86 81.995 C 86 82.826 85.326 83.5 84.495 83.5 L 80.505 83.5 C 79.674 83.5 79 82.826 79 81.995 L 79 78.005 C 79 77.174 79.674 76.5 80.505 76.5 Z" style="stroke:none;fill:#EBEBEB;stroke-miterlimit:10;"/><path d="M 80 91 L 150 91 C 152.76 91 155 93.24 155 96 L 155 102 C 155 104.76 152.76 107 150 107 L 80 107 C 77.24 107 75 104.76 75 102 L 75 96 C 75 93.24 77.24 91 80 91 Z" style="stroke:none;fill:#3B3B3B;stroke-miterlimit:10;"/><line x1="90" y1="96.5" x2="124" y2="96.5" vector-effect="non-scaling-stroke" stroke-width="2" stroke="rgb(166,166,166)" stroke-linejoin="miter" stroke-linecap="round" stroke-miterlimit="3"/><line x1="86.5" y1="181" x2="104.5" y2="181" vector-effect="non-scaling-stroke" stroke-width="2" stroke="rgb(255,133,0)" stroke-linejoin="miter" stroke-linecap="round" stroke-miterlimit="3"/><line x1="139" y1="96.5" x2="151" y2="96.5" vector-effect="non-scaling-stroke" stroke-width="2" stroke="rgb(166,166,166)" stroke-linejoin="miter" stroke-linecap="round" stroke-miterlimit="3"/><line x1="144" y1="101" x2="152" y2="101" vector-effect="non-scaling-stroke" stroke-width="2" stroke="rgb(166,166,166)" stroke-linejoin="miter" stroke-linecap="round" stroke-miterlimit="3"/><line x1="90" y1="101" x2="114" y2="101" vector-effect="non-scaling-stroke" stroke-width="2" stroke="rgb(166,166,166)" stroke-linejoin="miter" stroke-linecap="round" stroke-miterlimit="3"/><path d="M 80.505 95.5 L 84.495 95.5 C 85.326 95.5 86 96.174 86 97.005 L 86 100.995 C 86 101.826 85.326 102.5 84.495 102.5 L 80.505 102.5 C 79.674 102.5 79 101.826 79 100.995 L 79 97.005 C 79 96.174 79.674 95.5 80.505 95.5 Z" style="stroke:none;fill:#EBEBEB;stroke-miterlimit:10;"/><path d="M 94.075 173 L 96.925 173 C 97.518 173 98 173.482 98 174.075 L 98 176.925 C 98 177.518 97.518 178 96.925 178 L 94.075 178 C 93.482 178 93 177.518 93 176.925 L 93 174.075 C 93 173.482 93.482 173 94.075 173 Z" style="stroke:none;fill:#FF8500;stroke-miterlimit:10;"/><line x1="125.5" y1="181" x2="143.5" y2="181" vector-effect="non-scaling-stroke" stroke-width="2" stroke="rgb(166,166,166)" stroke-linejoin="miter" stroke-linecap="round" stroke-miterlimit="3"/><path d="M 133.075 173 L 135.925 173 C 136.518 173 137 173.482 137 174.075 L 137 176.925 C 137 177.518 136.518 178 135.925 178 L 133.075 178 C 132.482 178 132 177.518 132 176.925 L 132 174.075 C 132 173.482 132.482 173 133.075 173 Z" style="stroke:none;fill:#EBEBEB;stroke-miterlimit:10;"/><line x1="37.858" y1="34.5" x2="56" y2="34.5" vector-effect="non-scaling-stroke" stroke-width="1.5" stroke="rgb(189,189,189)" stroke-linejoin="miter" stroke-linecap="square" stroke-miterlimit="3"/><circle vector-effect="non-scaling-stroke" cx="25.357524871826172" cy="34.49999999999999" r="7.5" fill="rgb(189,189,189)"/><g clip-path="url(#_clipPath_TNPXhsGKtVg96jAhNZNjAjjb21XnesUl)"><text transform="matrix(1,0,0,1,22.004,38.379)" style="font-family:'Open Sans';font-weight:700;font-size:10px;font-style:normal;fill:#000000;stroke:none;">1</text></g><defs><clipPath id="_clipPath_TNPXhsGKtVg96jAhNZNjAjjb21XnesUl"><rect x="0" y="0" width="8" height="13.618" transform="matrix(1,0,0,1,21.858,27.691)"/></clipPath></defs><line x1="37.858" y1="60.5" x2="56" y2="60.5" vector-effect="non-scaling-stroke" stroke-width="1.5" stroke="rgb(189,189,189)" stroke-linejoin="miter" stroke-linecap="square" stroke-miterlimit="3"/><circle vector-effect="non-scaling-stroke" cx="25.357524871826172" cy="60.499999999999986" r="7.5" fill="rgb(189,189,189)"/><g clip-path="url(#_clipPath_I70B1U2FltePR4oJDuB84wTMwvvHSWyF)"><text transform="matrix(1,0,0,1,22.004,64.379)" style="font-family:'Open Sans';font-weight:700;font-size:10px;font-style:normal;fill:#000000;stroke:none;">2</text></g><defs><clipPath id="_clipPath_I70B1U2FltePR4oJDuB84wTMwvvHSWyF"><rect x="0" y="0" width="8" height="13.618" transform="matrix(1,0,0,1,21.858,53.691)"/></clipPath></defs><line x1="37.858" y1="178.5" x2="56" y2="178.5" vector-effect="non-scaling-stroke" stroke-width="1.5" stroke="rgb(189,189,189)" stroke-linejoin="miter" stroke-linecap="square" stroke-miterlimit="3"/><circle vector-effect="non-scaling-stroke" cx="25.357524871826172" cy="178.5" r="7.5" fill="rgb(189,189,189)"/><g clip-path="url(#_clipPath_sB58BB2koGbUd0iDYjYDpNNxvND6XvKq)"><text transform="matrix(1,0,0,1,22.004,182.379)" style="font-family:'Open Sans';font-weight:700;font-size:10px;font-style:normal;fill:#000000;stroke:none;">3</text></g><defs><clipPath id="_clipPath_sB58BB2koGbUd0iDYjYDpNNxvND6XvKq"><rect x="0" y="0" width="8" height="13.618" transform="matrix(1,0,0,1,21.858,171.691)"/></clipPath></defs><line x1="346" y1="35.5" x2="364.142" y2="35.5" vector-effect="non-scaling-stroke" stroke-width="1.5" stroke="rgb(189,189,189)" stroke-linejoin="miter" stroke-linecap="square" stroke-miterlimit="3"/><circle vector-effect="non-scaling-stroke" cx="376.5" cy="35.5" r="7.5" fill="rgb(189,189,189)"/><g clip-path="url(#_clipPath_GTulwBcpeJkiYUNWzEG9thclH5eYjuOs)"><text transform="matrix(1,0,0,1,373.146,39.379)" style="font-family:'Open Sans';font-weight:700;font-size:10px;font-style:normal;fill:#000000;stroke:none;">4</text></g><defs><clipPath id="_clipPath_GTulwBcpeJkiYUNWzEG9thclH5eYjuOs"><rect x="0" y="0" width="8" height="13.618" transform="matrix(1,0,0,1,373,28.691)"/></clipPath></defs><line x1="346" y1="179.191" x2="364.142" y2="179.191" vector-effect="non-scaling-stroke" stroke-width="1.5" stroke="rgb(189,189,189)" stroke-linejoin="miter" stroke-linecap="square" stroke-miterlimit="3"/><circle vector-effect="non-scaling-stroke" cx="376.5" cy="179.19091796875" r="7.5" fill="rgb(189,189,189)"/><g clip-path="url(#_clipPath_vWDS5ZMsN7sW5f6stdUodd8GUx6nAnUc)"><text transform="matrix(1,0,0,1,373.146,183.07)" style="font-family:'Open Sans';font-weight:700;font-size:10px;font-style:normal;fill:#000000;stroke:none;">5</text></g><defs><clipPath id="_clipPath_vWDS5ZMsN7sW5f6stdUodd8GUx6nAnUc"><rect x="0" y="0" width="8" height="13.618" transform="matrix(1,0,0,1,373,172.382)"/></clipPath></defs></g></svg>