<?xml version="1.0" encoding="UTF-8" standalone="no"?><!-- Generator: Gravit.io --><svg xmlns="http://www.w3.org/2000/svg" xmlns:xlink="http://www.w3.org/1999/xlink" style="isolation:isolate" viewBox="0 0 145 60" width="145pt" height="60pt"><defs><clipPath id="_clipPath_UN7RQfUV3qiqjX991B5zVCTDfZEQDGvO"><rect width="145" height="60"/></clipPath></defs><g clip-path="url(#_clipPath_UN7RQfUV3qiqjX991B5zVCTDfZEQDGvO)"><rect width="145" height="60" style="fill:rgb(0,0,0)"/><clipPath id="_clipPath_KJlfXqBstNI1ctfZT987nd3aalDI9kM4"><rect x="86" y="28" width="24" height="24" transform="matrix(1,0,0,1,0,0)" fill="rgb(255,255,255)"/></clipPath><g clip-path="url(#_clipPath_KJlfXqBstNI1ctfZT987nd3aalDI9kM4)"><g><path d=" M 94.062 36.145 L 94.062 37.551 L 93.031 37.551 L 93.031 39.326 L 91.261 39.326 L 91.261 37.551 L 87.605 37.551 L 87.605 36.291 L 91.361 30.76 L 93.031 30.76 L 93.031 36.145 L 94.062 36.145 L 94.062 36.145 Z  M 89.199 36.145 L 91.261 36.145 L 91.261 34.691 L 91.261 34.691 Q 91.261 34.328 91.291 33.637 L 91.291 33.637 L 91.291 33.637 Q 91.32 32.945 91.338 32.834 L 91.338 32.834 L 91.291 32.834 L 91.291 32.834 Q 91.074 33.314 90.769 33.771 L 90.769 33.771 L 89.199 36.145 L 89.199 36.145 Z  M 95.328 39.326 L 95.328 30.76 L 97.994 30.76 L 97.994 30.76 Q 99.816 30.76 100.639 31.278 L 100.639 31.278 L 100.639 31.278 Q 101.463 31.797 101.463 32.928 L 101.463 32.928 L 101.463 32.928 Q 101.463 33.695 101.102 34.188 L 101.102 34.188 L 101.102 34.188 Q 100.742 34.68 100.144 34.779 L 100.144 34.779 L 100.144 34.838 L 100.144 34.838 Q 100.959 35.02 101.319 35.518 L 101.319 35.518 L 101.319 35.518 Q 101.679 36.016 101.679 36.842 L 101.679 36.842 L 101.679 36.842 Q 101.679 38.014 100.833 38.67 L 100.833 38.67 L 100.833 38.67 Q 99.986 39.326 98.533 39.326 L 98.533 39.326 L 95.328 39.326 L 95.328 39.326 Z  M 97.144 32.248 L 97.144 34.152 L 98.199 34.152 L 98.199 34.152 Q 98.937 34.152 99.268 33.924 L 99.268 33.924 L 99.268 33.924 Q 99.599 33.695 99.599 33.168 L 99.599 33.168 L 99.599 33.168 Q 99.599 32.676 99.239 32.462 L 99.239 32.462 L 99.239 32.462 Q 98.879 32.248 98.099 32.248 L 98.099 32.248 L 97.144 32.248 L 97.144 32.248 Z  M 98.269 35.594 L 97.144 35.594 L 97.144 37.826 L 98.328 37.826 L 98.328 37.826 Q 99.078 37.826 99.435 37.539 L 99.435 37.539 L 99.435 37.539 Q 99.793 37.252 99.793 36.66 L 99.793 36.66 L 99.793 36.66 Q 99.793 35.594 98.269 35.594 L 98.269 35.594 L 98.269 35.594 Z  M 108.447 36.947 L 108.447 36.947 L 108.447 36.947 Q 108.447 38.107 107.612 38.775 L 107.612 38.775 L 107.612 38.775 Q 106.777 39.443 105.289 39.443 L 105.289 39.443 L 105.289 39.443 Q 103.918 39.443 102.863 38.928 L 102.863 38.928 L 102.863 37.24 L 102.863 37.24 Q 103.73 37.627 104.331 37.785 L 104.331 37.785 L 104.331 37.785 Q 104.931 37.943 105.429 37.943 L 105.429 37.943 L 105.429 37.943 Q 106.027 37.943 106.346 37.715 L 106.346 37.715 L 106.346 37.715 Q 106.666 37.486 106.666 37.035 L 106.666 37.035 L 106.666 37.035 Q 106.666 36.783 106.525 36.587 L 106.525 36.587 L 106.525 36.587 Q 106.384 36.391 106.112 36.209 L 106.112 36.209 L 106.112 36.209 Q 105.839 36.027 105.002 35.629 L 105.002 35.629 L 105.002 35.629 Q 104.216 35.26 103.824 34.92 L 103.824 34.92 L 103.824 34.92 Q 103.431 34.58 103.197 34.129 L 103.197 34.129 L 103.197 34.129 Q 102.963 33.678 102.963 33.074 L 102.963 33.074 L 102.963 33.074 Q 102.963 31.938 103.733 31.287 L 103.733 31.287 L 103.733 31.287 Q 104.504 30.637 105.863 30.637 L 105.863 30.637 L 105.863 30.637 Q 106.531 30.637 107.137 30.795 L 107.137 30.795 L 107.137 30.795 Q 107.744 30.953 108.406 31.24 L 108.406 31.24 L 107.82 32.652 L 107.82 32.652 Q 107.134 32.371 106.686 32.26 L 106.686 32.26 L 106.686 32.26 Q 106.238 32.148 105.804 32.148 L 105.804 32.148 L 105.804 32.148 Q 105.289 32.148 105.013 32.389 L 105.013 32.389 L 105.013 32.389 Q 104.738 32.629 104.738 33.016 L 104.738 33.016 L 104.738 33.016 Q 104.738 33.256 104.849 33.435 L 104.849 33.435 L 104.849 33.435 Q 104.961 33.613 105.204 33.78 L 105.204 33.78 L 105.204 33.78 Q 105.447 33.947 106.355 34.381 L 106.355 34.381 L 106.355 34.381 Q 107.556 34.955 108.002 35.532 L 108.002 35.532 L 108.002 35.532 Q 108.447 36.109 108.447 36.947 Z " fill="rgb(255,255,255)"/><polygon points="108.5,46.237,96.5,52,96.5,40.474" fill="rgb(255,255,255)"/><rect x="88" y="44" width="10" height="4" transform="matrix(1,0,0,1,0,0)" fill="rgb(255,255,255)"/></g></g><clipPath id="_clipPath_gECeo5KMSGqyO0jyZOZLW6iDaUQNrCSW"><rect x="58" y="28" width="24" height="24" transform="matrix(1,0,0,1,0,0)" fill="rgb(255,255,255)"/></clipPath><g clip-path="url(#_clipPath_gECeo5KMSGqyO0jyZOZLW6iDaUQNrCSW)"><g><path d=" M 63.757 30.76 L 63.757 39.326 L 61.946 39.326 L 61.946 34.369 L 61.964 33.555 L 61.993 32.664 L 61.993 32.664 Q 61.542 33.115 61.366 33.256 L 61.366 33.256 L 60.382 34.047 L 59.509 32.957 L 62.269 30.76 L 63.757 30.76 L 63.757 30.76 Z  M 66.728 39.326 L 66.728 30.76 L 69.394 30.76 L 69.394 30.76 Q 71.216 30.76 72.039 31.278 L 72.039 31.278 L 72.039 31.278 Q 72.863 31.797 72.863 32.928 L 72.863 32.928 L 72.863 32.928 Q 72.863 33.695 72.502 34.188 L 72.502 34.188 L 72.502 34.188 Q 72.142 34.68 71.544 34.779 L 71.544 34.779 L 71.544 34.838 L 71.544 34.838 Q 72.359 35.02 72.719 35.518 L 72.719 35.518 L 72.719 35.518 Q 73.079 36.016 73.079 36.842 L 73.079 36.842 L 73.079 36.842 Q 73.079 38.014 72.233 38.67 L 72.233 38.67 L 72.233 38.67 Q 71.386 39.326 69.933 39.326 L 69.933 39.326 L 66.728 39.326 L 66.728 39.326 Z  M 68.544 32.248 L 68.544 34.152 L 69.599 34.152 L 69.599 34.152 Q 70.337 34.152 70.668 33.924 L 70.668 33.924 L 70.668 33.924 Q 70.999 33.695 70.999 33.168 L 70.999 33.168 L 70.999 33.168 Q 70.999 32.676 70.639 32.462 L 70.639 32.462 L 70.639 32.462 Q 70.279 32.248 69.499 32.248 L 69.499 32.248 L 68.544 32.248 L 68.544 32.248 Z  M 69.669 35.594 L 68.544 35.594 L 68.544 37.826 L 69.728 37.826 L 69.728 37.826 Q 70.478 37.826 70.835 37.539 L 70.835 37.539 L 70.835 37.539 Q 71.193 37.252 71.193 36.66 L 71.193 36.66 L 71.193 36.66 Q 71.193 35.594 69.669 35.594 L 69.669 35.594 L 69.669 35.594 Z  M 79.847 36.947 L 79.847 36.947 L 79.847 36.947 Q 79.847 38.107 79.012 38.775 L 79.012 38.775 L 79.012 38.775 Q 78.177 39.443 76.689 39.443 L 76.689 39.443 L 76.689 39.443 Q 75.318 39.443 74.263 38.928 L 74.263 38.928 L 74.263 37.24 L 74.263 37.24 Q 75.13 37.627 75.731 37.785 L 75.731 37.785 L 75.731 37.785 Q 76.331 37.943 76.829 37.943 L 76.829 37.943 L 76.829 37.943 Q 77.427 37.943 77.746 37.715 L 77.746 37.715 L 77.746 37.715 Q 78.066 37.486 78.066 37.035 L 78.066 37.035 L 78.066 37.035 Q 78.066 36.783 77.925 36.587 L 77.925 36.587 L 77.925 36.587 Q 77.784 36.391 77.512 36.209 L 77.512 36.209 L 77.512 36.209 Q 77.239 36.027 76.402 35.629 L 76.402 35.629 L 76.402 35.629 Q 75.616 35.26 75.224 34.92 L 75.224 34.92 L 75.224 34.92 Q 74.831 34.58 74.597 34.129 L 74.597 34.129 L 74.597 34.129 Q 74.363 33.678 74.363 33.074 L 74.363 33.074 L 74.363 33.074 Q 74.363 31.938 75.133 31.287 L 75.133 31.287 L 75.133 31.287 Q 75.904 30.637 77.263 30.637 L 77.263 30.637 L 77.263 30.637 Q 77.931 30.637 78.537 30.795 L 78.537 30.795 L 78.537 30.795 Q 79.144 30.953 79.806 31.24 L 79.806 31.24 L 79.22 32.652 L 79.22 32.652 Q 78.534 32.371 78.086 32.26 L 78.086 32.26 L 78.086 32.26 Q 77.638 32.148 77.204 32.148 L 77.204 32.148 L 77.204 32.148 Q 76.689 32.148 76.413 32.389 L 76.413 32.389 L 76.413 32.389 Q 76.138 32.629 76.138 33.016 L 76.138 33.016 L 76.138 33.016 Q 76.138 33.256 76.249 33.435 L 76.249 33.435 L 76.249 33.435 Q 76.361 33.613 76.604 33.78 L 76.604 33.78 L 76.604 33.78 Q 76.847 33.947 77.755 34.381 L 77.755 34.381 L 77.755 34.381 Q 78.956 34.955 79.402 35.532 L 79.402 35.532 L 79.402 35.532 Q 79.847 36.109 79.847 36.947 Z " fill="rgb(255,255,255)"/><polygon points="81.5,46.237,69.5,52,69.5,40.474" fill="rgb(255,255,255)"/><rect x="61" y="44" width="10" height="4" transform="matrix(1,0,0,1,0,0)" fill="rgb(255,255,255)"/></g></g><clipPath id="_clipPath_hjoNLNhgFJhYEFOzBctVHUOTO48430SN"><rect x="114" y="28" width="24" height="24" transform="matrix(1,0,0,1,0,0)" fill="rgb(255,255,255)"/></clipPath><g clip-path="url(#_clipPath_hjoNLNhgFJhYEFOzBctVHUOTO48430SN)"><g><path d=" M 121.512 37.826 L 121.512 39.326 L 116.578 39.326 L 116.578 30.76 L 121.512 30.76 L 121.512 32.248 L 118.395 32.248 L 118.395 34.129 L 121.295 34.129 L 121.295 35.617 L 118.395 35.617 L 118.395 37.826 L 121.512 37.826 L 121.512 37.826 Z  M 128.232 37.826 L 128.232 39.326 L 123.299 39.326 L 123.299 30.76 L 128.232 30.76 L 128.232 32.248 L 125.115 32.248 L 125.115 34.129 L 128.016 34.129 L 128.016 35.617 L 125.115 35.617 L 125.115 37.826 L 128.232 37.826 L 128.232 37.826 Z  M 131.836 32.248 L 131.836 34.791 L 132.434 34.791 L 132.434 34.791 Q 133.271 34.791 133.688 34.46 L 133.688 34.46 L 133.688 34.46 Q 134.104 34.129 134.104 33.496 L 134.104 33.496 L 134.104 33.496 Q 134.104 32.857 133.755 32.553 L 133.755 32.553 L 133.755 32.553 Q 133.406 32.248 132.662 32.248 L 132.662 32.248 L 131.836 32.248 L 131.836 32.248 Z  M 135.938 33.432 L 135.938 33.432 L 135.938 33.432 Q 135.938 34.814 135.073 35.547 L 135.073 35.547 L 135.073 35.547 Q 134.209 36.279 132.615 36.279 L 132.615 36.279 L 131.836 36.279 L 131.836 39.326 L 130.02 39.326 L 130.02 30.76 L 132.756 30.76 L 132.756 30.76 Q 134.314 30.76 135.126 31.431 L 135.126 31.431 L 135.126 31.431 Q 135.938 32.102 135.938 33.432 Z " fill="rgb(255,255,255)"/><polygon points="136.5,46.237,124.5,52,124.5,40.474" fill="rgb(255,255,255)"/><rect x="116" y="44" width="10" height="4" transform="matrix(1,0,0,1,0,0)" fill="rgb(255,255,255)"/></g></g><path d=" M 17 50 L 7 40 L 17 30 L 18.781 31.75 L 11.781 38.75 L 27 38.75 L 27 41.25 L 11.781 41.25 L 18.781 48.25 L 17 50 Z " fill="rgb(255,255,255)"/><path d=" M 43 50 L 41.219 48.25 L 48.219 41.25 L 33 41.25 L 33 38.75 L 48.219 38.75 L 41.219 31.75 L 43 30 L 53 40 L 43 50 Z " fill="rgb(255,255,255)"/><circle vector-effect="non-scaling-stroke" cx="17" cy="15.5" r="7.5" fill="rgb(189,189,189)"/><g clip-path="url(#_clipPath_pDU0S0GKVJibJV4ZSZh4vk3f7bPYHDxR)"><text transform="matrix(1,0,0,1,10.921,19.379)" style="font-family:'Open Sans';font-weight:700;font-size:10px;font-style:normal;fill:#000000;stroke:none;">*1</text></g><defs><clipPath id="_clipPath_pDU0S0GKVJibJV4ZSZh4vk3f7bPYHDxR"><rect x="0" y="0" width="14" height="13.618" transform="matrix(1,0,0,1,10.5,8.691)"/></clipPath></defs><circle vector-effect="non-scaling-stroke" cx="41.21875" cy="15.5" r="7.5" fill="rgb(189,189,189)"/><g clip-path="url(#_clipPath_xeBB1PFBnHNJNAlV1ZBAbJxIS7RwXJ9m)"><text transform="matrix(1,0,0,1,35.14,19.379)" style="font-family:'Open Sans';font-weight:700;font-size:10px;font-style:normal;fill:#000000;stroke:none;">*2</text></g><defs><clipPath id="_clipPath_xeBB1PFBnHNJNAlV1ZBAbJxIS7RwXJ9m"><rect x="0" y="0" width="14" height="13.618" transform="matrix(1,0,0,1,34.719,8.691)"/></clipPath></defs><circle vector-effect="non-scaling-stroke" cx="70" cy="15.500000000000004" r="7.5" fill="rgb(189,189,189)"/><g clip-path="url(#_clipPath_IjeaDL7sXiLOCXI8pQJmeep9qpQGE5Rp)"><text transform="matrix(1,0,0,1,63.921,19.379)" style="font-family:'Open Sans';font-weight:700;font-size:10px;font-style:normal;fill:#000000;stroke:none;">*3</text></g><defs><clipPath id="_clipPath_IjeaDL7sXiLOCXI8pQJmeep9qpQGE5Rp"><rect x="0" y="0" width="14" height="13.618" transform="matrix(1,0,0,1,63.5,8.691)"/></clipPath></defs><circle vector-effect="non-scaling-stroke" cx="98.00000000000001" cy="15.500000000000007" r="7.5" fill="rgb(189,189,189)"/><g clip-path="url(#_clipPath_k6ITcCU8FcH0rE2hRBmjBiAiRU2WAape)"><text transform="matrix(1,0,0,1,91.921,19.379)" style="font-family:'Open Sans';font-weight:700;font-size:10px;font-style:normal;fill:#000000;stroke:none;">*4</text></g><defs><clipPath id="_clipPath_k6ITcCU8FcH0rE2hRBmjBiAiRU2WAape"><rect x="0" y="0" width="14" height="13.618" transform="matrix(1,0,0,1,91.5,8.691)"/></clipPath></defs><circle vector-effect="non-scaling-stroke" cx="126" cy="15.5" r="7.5" fill="rgb(189,189,189)"/><g clip-path="url(#_clipPath_VkQ306wWvPOXchwQ86IMsyKewhqwtAnc)"><text transform="matrix(1,0,0,1,119.921,19.379)" style="font-family:'Open Sans';font-weight:700;font-size:10px;font-style:normal;fill:#000000;stroke:none;">*5</text></g><defs><clipPath id="_clipPath_VkQ306wWvPOXchwQ86IMsyKewhqwtAnc"><rect x="0" y="0" width="14" height="13.618" transform="matrix(1,0,0,1,119.5,8.691)"/></clipPath></defs></g></svg>