<?xml version="1.0" encoding="UTF-8" standalone="no"?><!-- Generator: Gravit.io --><svg xmlns="http://www.w3.org/2000/svg" xmlns:xlink="http://www.w3.org/1999/xlink" style="isolation:isolate" viewBox="0 0 250 200" width="250pt" height="200pt"><defs><clipPath id="_clipPath_RHMfGaR9FYdyQtrCKuOHBha4QG0nFdQz"><rect width="250" height="200"/></clipPath></defs><g clip-path="url(#_clipPath_RHMfGaR9FYdyQtrCKuOHBha4QG0nFdQz)"><rect width="250" height="200" style="fill:rgb(0,0,0)"/><path d="M 89.919 14 L 160.081 14 C 166.107 14 171 18.893 171 24.919 L 171 175.081 C 171 181.107 166.107 186 160.081 186 L 89.919 186 C 83.893 186 79 181.107 79 175.081 L 79 24.919 C 79 18.893 83.893 14 89.919 14 Z" style="fill:none;stroke:#999989;stroke-width:2;stroke-linecap:square;stroke-miterlimit:2;"/><path d="M 87.86 20 L 106.64 20 C 108.494 20 110 21.506 110 23.36 L 110 24.64 C 110 26.494 108.494 28 106.64 28 L 87.86 28 C 86.006 28 84.5 26.494 84.5 24.64 L 84.5 23.36 C 84.5 21.506 86.006 20 87.86 20 Z" style="stroke:none;fill:#FF8300;stroke-miterlimit:10;"/><line x1="87.384" y1="24" x2="107.137" y2="24" vector-effect="non-scaling-stroke" stroke-width="2" stroke="rgb(255,255,255)" stroke-linejoin="miter" stroke-linecap="round" stroke-miterlimit="3"/><path d="M 143.36 20 L 161.64 20 C 163.494 20 165 21.506 165 23.36 L 165 24.64 C 165 26.494 163.494 28 161.64 28 L 143.36 28 C 141.506 28 140 26.494 140 24.64 L 140 23.36 C 140 21.506 141.506 20 143.36 20 Z" style="stroke:none;fill:#FF8300;stroke-miterlimit:10;"/><line x1="143" y1="24" x2="162" y2="24" vector-effect="non-scaling-stroke" stroke-width="2" stroke="rgb(255,255,255)" stroke-linejoin="miter" stroke-linecap="round" stroke-miterlimit="3"/><path d="M 115.86 20 L 134.14 20 C 135.994 20 137.5 21.506 137.5 23.36 L 137.5 24.64 C 137.5 26.494 135.994 28 134.14 28 L 115.86 28 C 114.006 28 112.5 26.494 112.5 24.64 L 112.5 23.36 C 112.5 21.506 114.006 20 115.86 20 Z" style="stroke:none;fill:#FF8300;stroke-miterlimit:10;"/><line x1="115.511" y1="24" x2="134.489" y2="24" vector-effect="non-scaling-stroke" stroke-width="2" stroke="rgb(255,255,255)" stroke-linejoin="miter" stroke-linecap="round" stroke-miterlimit="3"/><line x1="55" y1="23" x2="73.142" y2="23" vector-effect="non-scaling-stroke" stroke-width="1.5" stroke="rgb(189,189,189)" stroke-linejoin="miter" stroke-linecap="square" stroke-miterlimit="3"/><circle vector-effect="non-scaling-stroke" cx="42.5" cy="22.999999999999993" r="7.5" fill="rgb(189,189,189)"/><g clip-path="url(#_clipPath_rG5gDgiTUU5KxkBVomudoEKfJiU78oUF)"><text transform="matrix(1,0,0,1,39.146,26.879)" style="font-family:'Open Sans';font-weight:700;font-size:10px;font-style:normal;fill:#000000;stroke:none;">1</text></g><defs><clipPath id="_clipPath_rG5gDgiTUU5KxkBVomudoEKfJiU78oUF"><rect x="0" y="0" width="8" height="13.618" transform="matrix(1,0,0,1,39,16.191)"/></clipPath></defs><line x1="176.858" y1="170.5" x2="195" y2="170.5" vector-effect="non-scaling-stroke" stroke-width="1.5" stroke="rgb(189,189,189)" stroke-linejoin="miter" stroke-linecap="square" stroke-miterlimit="3"/><circle vector-effect="non-scaling-stroke" cx="208.5" cy="170.49999999999997" r="7.5" fill="rgb(189,189,189)"/><g clip-path="url(#_clipPath_su9NzjC0pj1AZZ06UEaRMHDY4pQCRSp5)"><text transform="matrix(1,0,0,1,205.146,174.379)" style="font-family:'Open Sans';font-weight:700;font-size:10px;font-style:normal;fill:#000000;stroke:none;">3</text></g><defs><clipPath id="_clipPath_su9NzjC0pj1AZZ06UEaRMHDY4pQCRSp5"><rect x="0" y="0" width="8" height="13.618" transform="matrix(1,0,0,1,205,163.691)"/></clipPath></defs><path d="M 141.499 166 L 158.831 166 C 162.418 166 165.33 168.913 165.33 172.5 L 165.33 172.5 C 165.33 176.087 162.418 179 158.831 179 L 141.499 179 C 137.912 179 135 176.087 135 172.5 L 135 172.5 C 135 168.913 137.912 166 141.499 166 Z" style="stroke:none;fill:#FF8300;stroke-miterlimit:10;"/><path d="M 141.05 168.5 L 145.61 168.5 C 146.559 168.5 147.33 169.271 147.33 170.22 L 147.33 174.78 C 147.33 175.729 146.559 176.5 145.61 176.5 L 141.05 176.5 C 140.101 176.5 139.33 175.729 139.33 174.78 L 139.33 170.22 C 139.33 169.271 140.101 168.5 141.05 168.5 Z" style="stroke:none;fill:#EBEBEB;stroke-miterlimit:10;"/><line x1="151.333" y1="172.5" x2="161.066" y2="172.5" vector-effect="non-scaling-stroke" stroke-width="2" stroke="rgb(235,235,235)" stroke-linejoin="miter" stroke-linecap="round" stroke-miterlimit="3"/><path d="M 87.5 31 L 111.5 31 C 113.156 31 114.5 32.344 114.5 34 L 114.5 58 C 114.5 59.656 113.156 61 111.5 61 L 87.5 61 C 85.844 61 84.5 59.656 84.5 58 L 84.5 34 C 84.5 32.344 85.844 31 87.5 31 Z" style="stroke:none;fill:#3B3B3B;stroke-miterlimit:10;"/><path d="M 96.08 38 L 102.92 38 C 104.344 38 105.5 39.156 105.5 40.58 L 105.5 47.42 C 105.5 48.844 104.344 50 102.92 50 L 96.08 50 C 94.656 50 93.5 48.844 93.5 47.42 L 93.5 40.58 C 93.5 39.156 94.656 38 96.08 38 Z" style="stroke:none;fill:#E3E3E3;stroke-miterlimit:10;"/><line x1="88" y1="57" x2="111" y2="57" vector-effect="non-scaling-stroke" stroke-width="2" stroke="rgb(166,166,166)" stroke-linejoin="miter" stroke-linecap="round" stroke-miterlimit="3"/><path d="M 120.33 31 L 144.33 31 C 145.986 31 147.33 32.344 147.33 34 L 147.33 58 C 147.33 59.656 145.986 61 144.33 61 L 120.33 61 C 118.674 61 117.33 59.656 117.33 58 L 117.33 34 C 117.33 32.344 118.674 31 120.33 31 Z" style="stroke:none;fill:#3B3B3B;stroke-miterlimit:10;"/><path d="M 128.91 38 L 135.75 38 C 137.174 38 138.33 39.156 138.33 40.58 L 138.33 47.42 C 138.33 48.844 137.174 50 135.75 50 L 128.91 50 C 127.486 50 126.33 48.844 126.33 47.42 L 126.33 40.58 C 126.33 39.156 127.486 38 128.91 38 Z" style="stroke:none;fill:#E3E3E3;stroke-miterlimit:10;"/><line x1="120.833" y1="57" x2="143.833" y2="57" vector-effect="non-scaling-stroke" stroke-width="2" stroke="rgb(166,166,166)" stroke-linejoin="miter" stroke-linecap="round" stroke-miterlimit="3"/><line x1="55" y1="46" x2="73.142" y2="46" vector-effect="non-scaling-stroke" stroke-width="1.5" stroke="rgb(189,189,189)" stroke-linejoin="miter" stroke-linecap="square" stroke-miterlimit="3"/><circle vector-effect="non-scaling-stroke" cx="42.5" cy="46.00000000000001" r="7.5" fill="rgb(189,189,189)"/><g clip-path="url(#_clipPath_vcm3sOXliC09u7iRlk7N6Yc1iQTrdpM9)"><text transform="matrix(1,0,0,1,39.146,49.879)" style="font-family:'Open Sans';font-weight:700;font-size:10px;font-style:normal;fill:#000000;stroke:none;">2</text></g><defs><clipPath id="_clipPath_vcm3sOXliC09u7iRlk7N6Yc1iQTrdpM9"><rect x="0" y="0" width="8" height="13.618" transform="matrix(1,0,0,1,39,39.191)"/></clipPath></defs></g></svg>