<?xml version="1.0" encoding="UTF-8" standalone="no"?><!-- Generator: Gravit.io --><svg xmlns="http://www.w3.org/2000/svg" xmlns:xlink="http://www.w3.org/1999/xlink" style="isolation:isolate" viewBox="0 0 250 200" width="250pt" height="200pt"><defs><clipPath id="_clipPath_SVT8RQ0YlF21PTTzNdsY4S8F4v6FwlOC"><rect width="250" height="200"/></clipPath></defs><g clip-path="url(#_clipPath_SVT8RQ0YlF21PTTzNdsY4S8F4v6FwlOC)"><rect width="250" height="200" style="fill:rgb(0,0,0)"/><path d="M 89.919 14 L 160.081 14 C 166.107 14 171 18.893 171 24.919 L 171 175.081 C 171 181.107 166.107 186 160.081 186 L 89.919 186 C 83.893 186 79 181.107 79 175.081 L 79 24.919 C 79 18.893 83.893 14 89.919 14 Z" style="fill:none;stroke:#999989;stroke-width:2;stroke-linecap:square;stroke-miterlimit:2;"/><path d="M 87.682 19 L 162.318 19 C 164.256 19 165.83 20.574 165.83 22.514 L 165.83 27.196 C 165.83 29.136 164.256 30.71 162.318 30.71 L 87.682 30.71 C 85.744 30.71 84.17 29.136 84.17 27.196 L 84.17 22.514 C 84.17 20.574 85.744 19 87.682 19 Z" style="stroke:none;fill:#3B3B3B;stroke-miterlimit:10;"/><path d="M 87.682 19 L 162.318 19 C 164.256 19 165.83 20.574 165.83 22.514 L 165.83 27.196 C 165.83 29.136 164.256 30.71 162.318 30.71 L 87.682 30.71 C 85.744 30.71 84.17 29.136 84.17 27.196 L 84.17 22.514 C 84.17 20.574 85.744 19 87.682 19 Z" style="fill:none;stroke:#999989;stroke-width:2;stroke-linecap:square;stroke-miterlimit:2;"/><path d="M 87.682 32 L 162.318 32 C 164.256 32 165.83 33.574 165.83 35.514 L 165.83 40.196 C 165.83 42.136 164.256 43.71 162.318 43.71 L 87.682 43.71 C 85.744 43.71 84.17 42.136 84.17 40.196 L 84.17 35.514 C 84.17 33.574 85.744 32 87.682 32 Z" style="stroke:none;fill:#3B3B3B;stroke-miterlimit:10;"/><path d="M 87.682 32 L 162.318 32 C 164.256 32 165.83 33.574 165.83 35.514 L 165.83 40.196 C 165.83 42.136 164.256 43.71 162.318 43.71 L 87.682 43.71 C 85.744 43.71 84.17 42.136 84.17 40.196 L 84.17 35.514 C 84.17 33.574 85.744 32 87.682 32 Z" style="fill:none;stroke:#999989;stroke-width:2;stroke-linecap:square;stroke-miterlimit:2;"/><path d="M 159.271 22.48 L 161.979 22.48 C 162.542 22.48 163 22.938 163 23.501 L 163 26.209 C 163 26.772 162.542 27.23 161.979 27.23 L 159.271 27.23 C 158.708 27.23 158.25 26.772 158.25 26.209 L 158.25 23.501 C 158.25 22.938 158.708 22.48 159.271 22.48 Z" style="stroke:none;fill:#EBEBEB;stroke-miterlimit:10;"/><line x1="89" y1="48.708" x2="108.676" y2="48.708" vector-effect="non-scaling-stroke" stroke-width="2" stroke="rgb(255,131,0)" stroke-linejoin="miter" stroke-linecap="round" stroke-miterlimit="3"/><line x1="140.949" y1="48.708" x2="160.625" y2="48.708" vector-effect="non-scaling-stroke" stroke-width="2" stroke="rgb(255,131,0)" stroke-linejoin="miter" stroke-linecap="round" stroke-miterlimit="3"/><line x1="83" y1="52.708" x2="167" y2="52.708" vector-effect="non-scaling-stroke" stroke-width="1" stroke="rgb(235,235,235)" stroke-linejoin="miter" stroke-linecap="round" stroke-miterlimit="3"/><path d="M 88.58 56.71 L 161.42 56.71 C 164.179 56.71 166.42 58.95 166.42 61.71 L 166.42 72.71 C 166.42 75.47 164.179 77.71 161.42 77.71 L 88.58 77.71 C 85.821 77.71 83.58 75.47 83.58 72.71 L 83.58 61.71 C 83.58 58.95 85.821 56.71 88.58 56.71 Z" style="stroke:none;fill:#3B3B3B;stroke-miterlimit:10;"/><path d="M 159.271 64.83 L 161.979 64.83 C 162.542 64.83 163 65.288 163 65.851 L 163 68.559 C 163 69.122 162.542 69.58 161.979 69.58 L 159.271 69.58 C 158.708 69.58 158.25 69.122 158.25 68.559 L 158.25 65.851 C 158.25 65.288 158.708 64.83 159.271 64.83 Z" style="stroke:none;fill:#EBEBEB;stroke-miterlimit:10;"/><line x1="89" y1="61.708" x2="135.707" y2="61.708" vector-effect="non-scaling-stroke" stroke-width="2" stroke="rgb(166,166,166)" stroke-linejoin="miter" stroke-linecap="round" stroke-miterlimit="3"/><line x1="89" y1="67.208" x2="124.142" y2="67.208" vector-effect="non-scaling-stroke" stroke-width="2" stroke="rgb(166,166,166)" stroke-linejoin="miter" stroke-linecap="round" stroke-miterlimit="3"/><line x1="89" y1="72.708" x2="124.142" y2="72.708" vector-effect="non-scaling-stroke" stroke-width="2" stroke="rgb(166,166,166)" stroke-linejoin="miter" stroke-linecap="round" stroke-miterlimit="3"/><path d="M 88.58 80 L 161.42 80 C 164.179 80 166.42 82.24 166.42 85 L 166.42 96 C 166.42 98.76 164.179 101 161.42 101 L 88.58 101 C 85.821 101 83.58 98.76 83.58 96 L 83.58 85 C 83.58 82.24 85.821 80 88.58 80 Z" style="stroke:none;fill:#3B3B3B;stroke-miterlimit:10;"/><path d="M 159.271 88.13 L 161.979 88.13 C 162.542 88.13 163 88.588 163 89.151 L 163 91.859 C 163 92.422 162.542 92.88 161.979 92.88 L 159.271 92.88 C 158.708 92.88 158.25 92.422 158.25 91.859 L 158.25 89.151 C 158.25 88.588 158.708 88.13 159.271 88.13 Z" style="stroke:none;fill:#EBEBEB;stroke-miterlimit:10;"/><line x1="89" y1="85" x2="135.707" y2="85" vector-effect="non-scaling-stroke" stroke-width="2" stroke="rgb(166,166,166)" stroke-linejoin="miter" stroke-linecap="round" stroke-miterlimit="3"/><line x1="89" y1="90.5" x2="124.142" y2="90.5" vector-effect="non-scaling-stroke" stroke-width="2" stroke="rgb(166,166,166)" stroke-linejoin="miter" stroke-linecap="round" stroke-miterlimit="3"/><line x1="89" y1="96" x2="124.142" y2="96" vector-effect="non-scaling-stroke" stroke-width="2" stroke="rgb(166,166,166)" stroke-linejoin="miter" stroke-linecap="round" stroke-miterlimit="3"/><path d="M 88.58 103 L 161.42 103 C 164.179 103 166.42 105.24 166.42 108 L 166.42 119 C 166.42 121.76 164.179 124 161.42 124 L 88.58 124 C 85.821 124 83.58 121.76 83.58 119 L 83.58 108 C 83.58 105.24 85.821 103 88.58 103 Z" style="stroke:none;fill:#3B3B3B;stroke-miterlimit:10;"/><path d="M 159.271 111.13 L 161.979 111.13 C 162.542 111.13 163 111.588 163 112.151 L 163 114.859 C 163 115.422 162.542 115.88 161.979 115.88 L 159.271 115.88 C 158.708 115.88 158.25 115.422 158.25 114.859 L 158.25 112.151 C 158.25 111.588 158.708 111.13 159.271 111.13 Z" style="stroke:none;fill:#EBEBEB;stroke-miterlimit:10;"/><line x1="89" y1="108" x2="135.707" y2="108" vector-effect="non-scaling-stroke" stroke-width="2" stroke="rgb(166,166,166)" stroke-linejoin="miter" stroke-linecap="round" stroke-miterlimit="3"/><line x1="89" y1="113.5" x2="124.142" y2="113.5" vector-effect="non-scaling-stroke" stroke-width="2" stroke="rgb(166,166,166)" stroke-linejoin="miter" stroke-linecap="round" stroke-miterlimit="3"/><line x1="89" y1="119" x2="124.142" y2="119" vector-effect="non-scaling-stroke" stroke-width="2" stroke="rgb(166,166,166)" stroke-linejoin="miter" stroke-linecap="round" stroke-miterlimit="3"/><line x1="48.858" y1="24.854" x2="67" y2="24.854" vector-effect="non-scaling-stroke" stroke-width="1.5" stroke="rgb(189,189,189)" stroke-linejoin="miter" stroke-linecap="square" stroke-miterlimit="3"/><circle vector-effect="non-scaling-stroke" cx="36.35752487182617" cy="24.853764145462605" r="7.5" fill="rgb(189,189,189)"/><g clip-path="url(#_clipPath_aPxnEfjB4eymrRO0e5yGKrYJMH3sSpTM)"><text transform="matrix(1,0,0,1,33.004,28.733)" style="font-family:'Open Sans';font-weight:700;font-size:10px;font-style:normal;fill:#000000;stroke:none;">1</text></g><defs><clipPath id="_clipPath_aPxnEfjB4eymrRO0e5yGKrYJMH3sSpTM"><rect x="0" y="0" width="8" height="13.618" transform="matrix(1,0,0,1,32.858,18.045)"/></clipPath></defs><line x1="48.858" y1="48.708" x2="67" y2="48.708" vector-effect="non-scaling-stroke" stroke-width="1.5" stroke="rgb(189,189,189)" stroke-linejoin="miter" stroke-linecap="square" stroke-miterlimit="3"/><circle vector-effect="non-scaling-stroke" cx="36.35752487182617" cy="48.70752829092521" r="7.5" fill="rgb(189,189,189)"/><g clip-path="url(#_clipPath_KPJbyBK6XrLhlMLkSjEByGuz0Got96er)"><text transform="matrix(1,0,0,1,33.004,52.587)" style="font-family:'Open Sans';font-weight:700;font-size:10px;font-style:normal;fill:#000000;stroke:none;">2</text></g><defs><clipPath id="_clipPath_KPJbyBK6XrLhlMLkSjEByGuz0Got96er"><rect x="0" y="0" width="8" height="13.618" transform="matrix(1,0,0,1,32.858,41.898)"/></clipPath></defs><line x1="182" y1="37.854" x2="200.142" y2="37.854" vector-effect="non-scaling-stroke" stroke-width="1.5" stroke="rgb(189,189,189)" stroke-linejoin="miter" stroke-linecap="square" stroke-miterlimit="3"/><circle vector-effect="non-scaling-stroke" cx="212.50000000000003" cy="37.85376414546261" r="7.5" fill="rgb(189,189,189)"/><g clip-path="url(#_clipPath_wBjRLzprsgXppu7LRHqii2CBc6BZIjbK)"><text transform="matrix(1,0,0,1,209.146,41.733)" style="font-family:'Open Sans';font-weight:700;font-size:10px;font-style:normal;fill:#000000;stroke:none;">3</text></g><defs><clipPath id="_clipPath_wBjRLzprsgXppu7LRHqii2CBc6BZIjbK"><rect x="0" y="0" width="8" height="13.618" transform="matrix(1,0,0,1,209,31.045)"/></clipPath></defs><line x1="182" y1="67.208" x2="200.142" y2="67.208" vector-effect="non-scaling-stroke" stroke-width="1.5" stroke="rgb(189,189,189)" stroke-linejoin="miter" stroke-linecap="square" stroke-miterlimit="3"/><circle vector-effect="non-scaling-stroke" cx="212.50000000000003" cy="67.20752829092521" r="7.5" fill="rgb(189,189,189)"/><g clip-path="url(#_clipPath_9Dh8JBJBN4EcsVKdrwYcufHcLZabtETc)"><text transform="matrix(1,0,0,1,209.146,71.087)" style="font-family:'Open Sans';font-weight:700;font-size:10px;font-style:normal;fill:#000000;stroke:none;">4</text></g><defs><clipPath id="_clipPath_9Dh8JBJBN4EcsVKdrwYcufHcLZabtETc"><rect x="0" y="0" width="8" height="13.618" transform="matrix(1,0,0,1,209,60.398)"/></clipPath></defs></g></svg>