<?xml version="1.0" encoding="UTF-8" standalone="no"?><!-- Generator: Gravit.io --><svg xmlns="http://www.w3.org/2000/svg" xmlns:xlink="http://www.w3.org/1999/xlink" style="isolation:isolate" viewBox="0 0 250 200" width="250pt" height="200pt"><defs><clipPath id="_clipPath_bFN1ZALqw0EHIg43sQ2lyaeZQDlPA2WY"><rect width="250" height="200"/></clipPath></defs><g clip-path="url(#_clipPath_bFN1ZALqw0EHIg43sQ2lyaeZQDlPA2WY)"><rect width="250" height="200" style="fill:rgb(0,0,0)"/><path d="M 89.919 14 L 160.081 14 C 166.107 14 171 18.893 171 24.919 L 171 175.081 C 171 181.107 166.107 186 160.081 186 L 89.919 186 C 83.893 186 79 181.107 79 175.081 L 79 24.919 C 79 18.893 83.893 14 89.919 14 Z" style="fill:none;stroke:#999989;stroke-width:2;stroke-linecap:square;stroke-miterlimit:2;"/><path d="M 141.499 166 L 158.831 166 C 162.418 166 165.33 168.913 165.33 172.5 L 165.33 172.5 C 165.33 176.087 162.418 179 158.831 179 L 141.499 179 C 137.912 179 135 176.087 135 172.5 L 135 172.5 C 135 168.913 137.912 166 141.499 166 Z" style="stroke:none;fill:#FF8300;stroke-miterlimit:10;"/><path d="M 141.05 168.5 L 145.61 168.5 C 146.559 168.5 147.33 169.271 147.33 170.22 L 147.33 174.78 C 147.33 175.729 146.559 176.5 145.61 176.5 L 141.05 176.5 C 140.101 176.5 139.33 175.729 139.33 174.78 L 139.33 170.22 C 139.33 169.271 140.101 168.5 141.05 168.5 Z" style="stroke:none;fill:#EBEBEB;stroke-miterlimit:10;"/><line x1="151.333" y1="172.5" x2="161.066" y2="172.5" vector-effect="non-scaling-stroke" stroke-width="2" stroke="rgb(235,235,235)" stroke-linejoin="miter" stroke-linecap="round" stroke-miterlimit="3"/><line x1="177" y1="172.5" x2="195.142" y2="172.5" vector-effect="non-scaling-stroke" stroke-width="1.5" stroke="rgb(189,189,189)" stroke-linejoin="miter" stroke-linecap="square" stroke-miterlimit="3"/><circle vector-effect="non-scaling-stroke" cx="207.5" cy="172.49999999999994" r="7.5" fill="rgb(189,189,189)"/><g clip-path="url(#_clipPath_uEQuuvQaNtwbEOwEG0H0U3NMHJEkLL6C)"><text transform="matrix(1,0,0,1,204.146,176.379)" style="font-family:'Open Sans';font-weight:700;font-size:10px;font-style:normal;fill:#000000;stroke:none;">2</text></g><defs><clipPath id="_clipPath_uEQuuvQaNtwbEOwEG0H0U3NMHJEkLL6C"><rect x="0" y="0" width="8" height="13.618" transform="matrix(1,0,0,1,204,165.691)"/></clipPath></defs><line x1="56.858" y1="27.5" x2="75" y2="27.5" vector-effect="non-scaling-stroke" stroke-width="1.5" stroke="rgb(189,189,189)" stroke-linejoin="miter" stroke-linecap="square" stroke-miterlimit="3"/><circle vector-effect="non-scaling-stroke" cx="44.35752487182617" cy="27.5" r="7.5" fill="rgb(189,189,189)"/><g clip-path="url(#_clipPath_EVgfMRo9SRvvQaARWtTi58kSrJDr2HMw)"><text transform="matrix(1,0,0,1,41.004,31.379)" style="font-family:'Open Sans';font-weight:700;font-size:10px;font-style:normal;fill:#000000;stroke:none;">1</text></g><defs><clipPath id="_clipPath_EVgfMRo9SRvvQaARWtTi58kSrJDr2HMw"><rect x="0" y="0" width="8" height="13.618" transform="matrix(1,0,0,1,40.858,20.691)"/></clipPath></defs><path d="M 88.625 19.31 L 161.375 19.31 C 163.652 19.31 165.5 21.158 165.5 23.435 L 165.5 30.185 C 165.5 32.462 163.652 34.31 161.375 34.31 L 88.625 34.31 C 86.348 34.31 84.5 32.462 84.5 30.185 L 84.5 23.435 C 84.5 21.158 86.348 19.31 88.625 19.31 Z" style="stroke:none;fill:#3B3B3B;stroke-miterlimit:10;"/><path d="M 89.612 23.06 L 93.887 23.06 C 94.777 23.06 95.5 23.783 95.5 24.673 L 95.5 28.947 C 95.5 29.837 94.777 30.56 93.887 30.56 L 89.612 30.56 C 88.723 30.56 88 29.837 88 28.947 L 88 24.673 C 88 23.783 88.723 23.06 89.612 23.06 Z" style="stroke:none;fill:#EBEBEB;stroke-miterlimit:10;"/><line x1="100" y1="25" x2="144" y2="25" vector-effect="non-scaling-stroke" stroke-width="2" stroke="rgb(166,166,166)" stroke-linejoin="miter" stroke-linecap="round" stroke-miterlimit="3"/><line x1="100" y1="29" x2="122" y2="29" vector-effect="non-scaling-stroke" stroke-width="2" stroke="rgb(166,166,166)" stroke-linejoin="miter" stroke-linecap="round" stroke-miterlimit="3"/><path d="M 88.625 37 L 161.375 37 C 163.652 37 165.5 38.848 165.5 41.125 L 165.5 47.875 C 165.5 50.152 163.652 52 161.375 52 L 88.625 52 C 86.348 52 84.5 50.152 84.5 47.875 L 84.5 41.125 C 84.5 38.848 86.348 37 88.625 37 Z" style="stroke:none;fill:#3B3B3B;stroke-miterlimit:10;"/><path d="M 89.612 40.75 L 93.887 40.75 C 94.777 40.75 95.5 41.473 95.5 42.363 L 95.5 46.638 C 95.5 47.527 94.777 48.25 93.887 48.25 L 89.612 48.25 C 88.723 48.25 88 47.527 88 46.638 L 88 42.363 C 88 41.473 88.723 40.75 89.612 40.75 Z" style="stroke:none;fill:#EBEBEB;stroke-miterlimit:10;"/><line x1="100" y1="42.691" x2="144" y2="42.691" vector-effect="non-scaling-stroke" stroke-width="2" stroke="rgb(166,166,166)" stroke-linejoin="miter" stroke-linecap="round" stroke-miterlimit="3"/><line x1="100" y1="46.691" x2="122" y2="46.691" vector-effect="non-scaling-stroke" stroke-width="2" stroke="rgb(166,166,166)" stroke-linejoin="miter" stroke-linecap="round" stroke-miterlimit="3"/><path d="M 88.625 55 L 161.375 55 C 163.652 55 165.5 56.848 165.5 59.125 L 165.5 65.875 C 165.5 68.152 163.652 70 161.375 70 L 88.625 70 C 86.348 70 84.5 68.152 84.5 65.875 L 84.5 59.125 C 84.5 56.848 86.348 55 88.625 55 Z" style="stroke:none;fill:#3B3B3B;stroke-miterlimit:10;"/><path d="M 89.612 58.75 L 93.887 58.75 C 94.777 58.75 95.5 59.473 95.5 60.363 L 95.5 64.638 C 95.5 65.527 94.777 66.25 93.887 66.25 L 89.612 66.25 C 88.723 66.25 88 65.527 88 64.638 L 88 60.363 C 88 59.473 88.723 58.75 89.612 58.75 Z" style="stroke:none;fill:#EBEBEB;stroke-miterlimit:10;"/><line x1="100" y1="60.691" x2="144" y2="60.691" vector-effect="non-scaling-stroke" stroke-width="2" stroke="rgb(166,166,166)" stroke-linejoin="miter" stroke-linecap="round" stroke-miterlimit="3"/><line x1="100" y1="64.691" x2="122" y2="64.691" vector-effect="non-scaling-stroke" stroke-width="2" stroke="rgb(166,166,166)" stroke-linejoin="miter" stroke-linecap="round" stroke-miterlimit="3"/></g></svg>