<?xml version="1.0" encoding="UTF-8" standalone="no"?><!-- Generator: Gravit.io --><svg xmlns="http://www.w3.org/2000/svg" xmlns:xlink="http://www.w3.org/1999/xlink" style="isolation:isolate" viewBox="0 0 250 200" width="250pt" height="200pt"><defs><clipPath id="_clipPath_SuyCyQM1wTegFFOUAA5IeWW20Gy9X2vQ"><rect width="250" height="200"/></clipPath></defs><g clip-path="url(#_clipPath_SuyCyQM1wTegFFOUAA5IeWW20Gy9X2vQ)"><rect width="250" height="200" style="fill:rgb(0,0,0)"/><path d="M 89.919 14 L 160.081 14 C 166.107 14 171 18.893 171 24.919 L 171 175.081 C 171 181.107 166.107 186 160.081 186 L 89.919 186 C 83.893 186 79 181.107 79 175.081 L 79 24.919 C 79 18.893 83.893 14 89.919 14 Z" style="fill:none;stroke:#999989;stroke-width:2;stroke-linecap:square;stroke-miterlimit:2;"/><path d="M 141.499 166 L 158.831 166 C 162.418 166 165.33 168.913 165.33 172.5 L 165.33 172.5 C 165.33 176.087 162.418 179 158.831 179 L 141.499 179 C 137.912 179 135 176.087 135 172.5 L 135 172.5 C 135 168.913 137.912 166 141.499 166 Z" style="stroke:none;fill:#FF8300;stroke-miterlimit:10;"/><path d="M 141.05 168.5 L 145.61 168.5 C 146.559 168.5 147.33 169.271 147.33 170.22 L 147.33 174.78 C 147.33 175.729 146.559 176.5 145.61 176.5 L 141.05 176.5 C 140.101 176.5 139.33 175.729 139.33 174.78 L 139.33 170.22 C 139.33 169.271 140.101 168.5 141.05 168.5 Z" style="stroke:none;fill:#EBEBEB;stroke-miterlimit:10;"/><line x1="151.333" y1="172.5" x2="161.066" y2="172.5" vector-effect="non-scaling-stroke" stroke-width="2" stroke="rgb(235,235,235)" stroke-linejoin="miter" stroke-linecap="round" stroke-miterlimit="3"/><path d="M 88 20 L 112 20 C 113.656 20 115 21.344 115 23 L 115 47 C 115 48.656 113.656 50 112 50 L 88 50 C 86.344 50 85 48.656 85 47 L 85 23 C 85 21.344 86.344 20 88 20 Z" style="stroke:none;fill:#3B3B3B;stroke-miterlimit:10;"/><path d="M 96.58 27 L 103.42 27 C 104.844 27 106 28.156 106 29.58 L 106 36.42 C 106 37.844 104.844 39 103.42 39 L 96.58 39 C 95.156 39 94 37.844 94 36.42 L 94 29.58 C 94 28.156 95.156 27 96.58 27 Z" style="stroke:none;fill:#E3E3E3;stroke-miterlimit:10;"/><line x1="88.5" y1="46" x2="111.5" y2="46" vector-effect="non-scaling-stroke" stroke-width="2" stroke="rgb(166,166,166)" stroke-linejoin="miter" stroke-linecap="round" stroke-miterlimit="3"/><circle vector-effect="non-scaling-stroke" cx="88.5" cy="23.5" r="1.5" fill="rgb(0,255,0)"/><path d="M 121 20 L 145 20 C 146.656 20 148 21.344 148 23 L 148 47 C 148 48.656 146.656 50 145 50 L 121 50 C 119.344 50 118 48.656 118 47 L 118 23 C 118 21.344 119.344 20 121 20 Z" style="stroke:none;fill:#3B3B3B;stroke-miterlimit:10;"/><path d="M 129.58 27 L 136.42 27 C 137.844 27 139 28.156 139 29.58 L 139 36.42 C 139 37.844 137.844 39 136.42 39 L 129.58 39 C 128.156 39 127 37.844 127 36.42 L 127 29.58 C 127 28.156 128.156 27 129.58 27 Z" style="stroke:none;fill:#E3E3E3;stroke-miterlimit:10;"/><line x1="121.5" y1="46" x2="144.5" y2="46" vector-effect="non-scaling-stroke" stroke-width="2" stroke="rgb(166,166,166)" stroke-linejoin="miter" stroke-linecap="round" stroke-miterlimit="3"/><circle vector-effect="non-scaling-stroke" cx="121.5" cy="23.5" r="1.5" fill="rgb(0,255,0)"/><line x1="54" y1="33" x2="72.142" y2="33" vector-effect="non-scaling-stroke" stroke-width="1.5" stroke="rgb(189,189,189)" stroke-linejoin="miter" stroke-linecap="square" stroke-miterlimit="3"/><circle vector-effect="non-scaling-stroke" cx="41.5" cy="33" r="7.5" fill="rgb(189,189,189)"/><g clip-path="url(#_clipPath_JrP8wsGQD2YdppB3EAxKqgqLIvbhiNzu)"><text transform="matrix(1,0,0,1,38.146,36.879)" style="font-family:'Open Sans';font-weight:700;font-size:10px;font-style:normal;fill:#000000;stroke:none;">1</text></g><defs><clipPath id="_clipPath_JrP8wsGQD2YdppB3EAxKqgqLIvbhiNzu"><rect x="0" y="0" width="8" height="13.618" transform="matrix(1,0,0,1,38,26.191)"/></clipPath></defs><line x1="177" y1="172.5" x2="195.142" y2="172.5" vector-effect="non-scaling-stroke" stroke-width="1.5" stroke="rgb(189,189,189)" stroke-linejoin="miter" stroke-linecap="square" stroke-miterlimit="3"/><circle vector-effect="non-scaling-stroke" cx="207.5" cy="172.49999999999994" r="7.5" fill="rgb(189,189,189)"/><g clip-path="url(#_clipPath_EhD9SQ1apOyKNe3oaBv75bfCoNKUFAaZ)"><text transform="matrix(1,0,0,1,204.146,176.379)" style="font-family:'Open Sans';font-weight:700;font-size:10px;font-style:normal;fill:#000000;stroke:none;">2</text></g><defs><clipPath id="_clipPath_EhD9SQ1apOyKNe3oaBv75bfCoNKUFAaZ"><rect x="0" y="0" width="8" height="13.618" transform="matrix(1,0,0,1,204,165.691)"/></clipPath></defs></g></svg>