<?xml version="1.0" encoding="UTF-8" standalone="no"?><!-- Generator: Gravit.io --><svg xmlns="http://www.w3.org/2000/svg" xmlns:xlink="http://www.w3.org/1999/xlink" style="isolation:isolate" viewBox="0 0 250 200" width="250pt" height="200pt"><defs><clipPath id="_clipPath_z2iPENdOqBwUVUvqXndjYBjNGCIANh8A"><rect width="250" height="200"/></clipPath></defs><g clip-path="url(#_clipPath_z2iPENdOqBwUVUvqXndjYBjNGCIANh8A)"><rect width="250" height="200" style="fill:rgb(0,0,0)"/><path d="M 76.702 103.02 L 88.758 103.02 C 95.217 103.02 100.46 108.263 100.46 114.722 L 100.46 126.778 C 100.46 133.237 95.217 138.48 88.758 138.48 L 76.702 138.48 C 70.243 138.48 65 133.237 65 126.778 L 65 114.722 C 65 108.263 70.243 103.02 76.702 103.02 Z" style="stroke:none;fill:#FF8300;stroke-miterlimit:10;"/><path d="M 118.972 103.02 L 131.028 103.02 C 137.487 103.02 142.73 108.263 142.73 114.722 L 142.73 126.778 C 142.73 133.237 137.487 138.48 131.028 138.48 L 118.972 138.48 C 112.513 138.48 107.27 133.237 107.27 126.778 L 107.27 114.722 C 107.27 108.263 112.513 103.02 118.972 103.02 Z" style="stroke:none;fill:#FF8300;stroke-miterlimit:10;"/><path d="M 161.242 103.02 L 173.298 103.02 C 179.757 103.02 185 108.263 185 114.722 L 185 126.778 C 185 133.237 179.757 138.48 173.298 138.48 L 161.242 138.48 C 154.783 138.48 149.54 133.237 149.54 126.778 L 149.54 114.722 C 149.54 108.263 154.783 103.02 161.242 103.02 Z" style="stroke:none;fill:#FF8300;stroke-miterlimit:10;"/><path d="M 76.702 61.52 L 88.758 61.52 C 95.217 61.52 100.46 66.763 100.46 73.222 L 100.46 85.278 C 100.46 91.737 95.217 96.98 88.758 96.98 L 76.702 96.98 C 70.243 96.98 65 91.737 65 85.278 L 65 73.222 C 65 66.763 70.243 61.52 76.702 61.52 Z" style="stroke:none;fill:#FF8300;stroke-miterlimit:10;"/><path d="M 78.58 71.97 L 86.88 71.97 C 88.607 71.97 90.01 73.373 90.01 75.1 L 90.01 83.4 C 90.01 85.127 88.607 86.53 86.88 86.53 L 78.58 86.53 C 76.853 86.53 75.45 85.127 75.45 83.4 L 75.45 75.1 C 75.45 73.373 76.853 71.97 78.58 71.97 Z" style="stroke:none;fill:#EBEBEB;stroke-miterlimit:10;"/><path d="M 118.972 61.52 L 131.028 61.52 C 137.487 61.52 142.73 66.763 142.73 73.222 L 142.73 85.278 C 142.73 91.737 137.487 96.98 131.028 96.98 L 118.972 96.98 C 112.513 96.98 107.27 91.737 107.27 85.278 L 107.27 73.222 C 107.27 66.763 112.513 61.52 118.972 61.52 Z" style="stroke:none;fill:#FF8300;stroke-miterlimit:10;"/><path d="M 161.242 61.52 L 173.298 61.52 C 179.757 61.52 185 66.763 185 73.222 L 185 85.278 C 185 91.737 179.757 96.98 173.298 96.98 L 161.242 96.98 C 154.783 96.98 149.54 91.737 149.54 85.278 L 149.54 73.222 C 149.54 66.763 154.783 61.52 161.242 61.52 Z" style="stroke:none;fill:#FF8300;stroke-miterlimit:10;"/><path d="M 120.85 71.97 L 129.15 71.97 C 130.877 71.97 132.28 73.373 132.28 75.1 L 132.28 83.4 C 132.28 85.127 130.877 86.53 129.15 86.53 L 120.85 86.53 C 119.123 86.53 117.72 85.127 117.72 83.4 L 117.72 75.1 C 117.72 73.373 119.123 71.97 120.85 71.97 Z" style="stroke:none;fill:#EBEBEB;stroke-miterlimit:10;"/><path d="M 163.12 71.97 L 171.42 71.97 C 173.147 71.97 174.55 73.373 174.55 75.1 L 174.55 83.4 C 174.55 85.127 173.147 86.53 171.42 86.53 L 163.12 86.53 C 161.393 86.53 159.99 85.127 159.99 83.4 L 159.99 75.1 C 159.99 73.373 161.393 71.97 163.12 71.97 Z" style="stroke:none;fill:#EBEBEB;stroke-miterlimit:10;"/><path d="M 78.58 113.47 L 86.88 113.47 C 88.607 113.47 90.01 114.873 90.01 116.6 L 90.01 124.9 C 90.01 126.627 88.607 128.03 86.88 128.03 L 78.58 128.03 C 76.853 128.03 75.45 126.627 75.45 124.9 L 75.45 116.6 C 75.45 114.873 76.853 113.47 78.58 113.47 Z" style="stroke:none;fill:#EBEBEB;stroke-miterlimit:10;"/><path d="M 120.85 113.47 L 129.15 113.47 C 130.877 113.47 132.28 114.873 132.28 116.6 L 132.28 124.9 C 132.28 126.627 130.877 128.03 129.15 128.03 L 120.85 128.03 C 119.123 128.03 117.72 126.627 117.72 124.9 L 117.72 116.6 C 117.72 114.873 119.123 113.47 120.85 113.47 Z" style="stroke:none;fill:#EBEBEB;stroke-miterlimit:10;"/><path d="M 163.12 113.47 L 171.42 113.47 C 173.147 113.47 174.55 114.873 174.55 116.6 L 174.55 124.9 C 174.55 126.627 173.147 128.03 171.42 128.03 L 163.12 128.03 C 161.393 128.03 159.99 126.627 159.99 124.9 L 159.99 116.6 C 159.99 114.873 161.393 113.47 163.12 113.47 Z" style="stroke:none;fill:#EBEBEB;stroke-miterlimit:10;"/><line x1="42.301" y1="78.527" x2="82.732" y2="78.527" vector-effect="non-scaling-stroke" stroke-width="2.5" stroke="rgb(189,189,189)" stroke-linejoin="miter" stroke-linecap="square" stroke-miterlimit="3"/><circle vector-effect="non-scaling-stroke" cx="24.011549021565557" cy="79.25182208466454" r="10.874088957667713" fill="rgb(189,189,189)"/><g clip-path="url(#_clipPath_ozSabyJcmE9IU36PfMSWUcKRWSPeJcKa)"><text transform="matrix(1.45,0,0,1.45,19.149,84.876)" style="font-family:'Open Sans';font-weight:700;font-size:10px;font-style:normal;fill:#000000;stroke:none;">1</text></g><defs><clipPath id="_clipPath_ozSabyJcmE9IU36PfMSWUcKRWSPeJcKa"><rect x="0" y="0" width="8" height="13.618" transform="matrix(1.45,0,0,1.45,18.937,69.379)"/></clipPath></defs><line x1="167.268" y1="79.252" x2="207.699" y2="79.252" vector-effect="non-scaling-stroke" stroke-width="2.5" stroke="rgb(189,189,189)" stroke-linejoin="miter" stroke-linecap="square" stroke-miterlimit="3"/><circle vector-effect="non-scaling-stroke" cx="225.97933967890444" cy="79.25182208466455" r="10.874088957667709" fill="rgb(189,189,189)"/><g clip-path="url(#_clipPath_bebyKpBHmzTJgDVJEO9V1n44hqLQC8Dn)"><text transform="matrix(1.45,0,0,1.45,221.116,84.876)" style="font-family:'Open Sans';font-weight:700;font-size:10px;font-style:normal;fill:#000000;stroke:none;">3</text></g><defs><clipPath id="_clipPath_bebyKpBHmzTJgDVJEO9V1n44hqLQC8Dn"><rect x="0" y="0" width="8" height="13.618" transform="matrix(1.45,0,0,1.45,220.905,69.379)"/></clipPath></defs><line x1="124.855" y1="79.252" x2="125" y2="38.966" vector-effect="non-scaling-stroke" stroke-width="2.5" stroke="rgb(189,189,189)" stroke-linejoin="miter" stroke-linecap="square" stroke-miterlimit="3"/><circle vector-effect="non-scaling-stroke" cx="125.00000000000003" cy="20.09159581048877" r="10.874088957667709" fill="rgb(189,189,189)"/><g clip-path="url(#_clipPath_68Tx4Ji2yThvhHbGMrcR19C1cwuDRs0y)"><text transform="matrix(1.45,0,0,1.45,120.137,25.716)" style="font-family:'Open Sans';font-weight:700;font-size:10px;font-style:normal;fill:#000000;stroke:none;">2</text></g><defs><clipPath id="_clipPath_68Tx4Ji2yThvhHbGMrcR19C1cwuDRs0y"><rect x="0" y="0" width="8" height="13.618" transform="matrix(1.45,0,0,1.45,119.925,10.219)"/></clipPath></defs><line x1="124.71" y1="161.034" x2="124.855" y2="120.748" vector-effect="non-scaling-stroke" stroke-width="2.5" stroke="rgb(189,189,189)" stroke-linejoin="miter" stroke-linecap="square" stroke-miterlimit="3"/><circle vector-effect="non-scaling-stroke" cx="124.72493926384456" cy="177.87408895766765" r="10.874088957667716" fill="rgb(189,189,189)"/><g clip-path="url(#_clipPath_zlcG6nu8rzr6rPqB2A8VNiku7u8elHon)"><text transform="matrix(1.45,0,0,1.45,119.862,183.499)" style="font-family:'Open Sans';font-weight:700;font-size:10px;font-style:normal;fill:#000000;stroke:none;">5</text></g><defs><clipPath id="_clipPath_zlcG6nu8rzr6rPqB2A8VNiku7u8elHon"><rect x="0" y="0" width="8" height="13.618" transform="matrix(1.45,0,0,1.45,119.65,168.002)"/></clipPath></defs><line x1="167.268" y1="120.748" x2="207.699" y2="120.748" vector-effect="non-scaling-stroke" stroke-width="2.5" stroke="rgb(189,189,189)" stroke-linejoin="miter" stroke-linecap="square" stroke-miterlimit="3"/><circle vector-effect="non-scaling-stroke" cx="225.97933967890447" cy="120.74817791533542" r="10.874088957667709" fill="rgb(189,189,189)"/><g clip-path="url(#_clipPath_OJ2hstSkQ01ZUlYVAW46qRpCLR45251J)"><text transform="matrix(1.45,0,0,1.45,221.116,126.373)" style="font-family:'Open Sans';font-weight:700;font-size:10px;font-style:normal;fill:#000000;stroke:none;">6</text></g><defs><clipPath id="_clipPath_OJ2hstSkQ01ZUlYVAW46qRpCLR45251J"><rect x="0" y="0" width="8" height="13.618" transform="matrix(1.45,0,0,1.45,220.905,110.876)"/></clipPath></defs><line x1="42.301" y1="120.023" x2="82.732" y2="120.023" vector-effect="non-scaling-stroke" stroke-width="2.5" stroke="rgb(189,189,189)" stroke-linejoin="miter" stroke-linecap="square" stroke-miterlimit="3"/><circle vector-effect="non-scaling-stroke" cx="24.01154902156557" cy="120.74817791533545" r="10.874088957667716" fill="rgb(189,189,189)"/><g clip-path="url(#_clipPath_w0DuD6VgodBB5oTcWXP6zZIBVRw4U7mw)"><text transform="matrix(1.45,0,0,1.45,19.149,126.373)" style="font-family:'Open Sans';font-weight:700;font-size:10px;font-style:normal;fill:#000000;stroke:none;">4</text></g><defs><clipPath id="_clipPath_w0DuD6VgodBB5oTcWXP6zZIBVRw4U7mw"><rect x="0" y="0" width="8" height="13.618" transform="matrix(1.45,0,0,1.45,18.937,110.876)"/></clipPath></defs></g></svg>