<?xml version="1.0" encoding="UTF-8" standalone="no"?><!-- Generator: Gravit.io --><svg xmlns="http://www.w3.org/2000/svg" xmlns:xlink="http://www.w3.org/1999/xlink" style="isolation:isolate" viewBox="0 0 250 200" width="250pt" height="200pt"><defs><clipPath id="_clipPath_nADx8TQBsr6FqcwdK6iK5Jt8jjGUqyUR"><rect width="250" height="200"/></clipPath></defs><g clip-path="url(#_clipPath_nADx8TQBsr6FqcwdK6iK5Jt8jjGUqyUR)"><rect width="250" height="200" style="fill:rgb(0,0,0)"/><path d="M 89.919 14 L 160.081 14 C 166.107 14 171 18.893 171 24.919 L 171 175.081 C 171 181.107 166.107 186 160.081 186 L 89.919 186 C 83.893 186 79 181.107 79 175.081 L 79 24.919 C 79 18.893 83.893 14 89.919 14 Z" style="fill:none;stroke:#999989;stroke-width:2;stroke-linecap:square;stroke-miterlimit:2;"/><path d="M 89.954 21 L 160.046 21 C 163.056 21 165.5 23.444 165.5 26.454 L 165.5 32.546 C 165.5 35.556 163.056 38 160.046 38 L 89.954 38 C 86.944 38 84.5 35.556 84.5 32.546 L 84.5 26.454 C 84.5 23.444 86.944 21 89.954 21 Z" style="stroke:none;fill:#3B3B3B;stroke-miterlimit:10;"/><path d="M 89.72 25.5 L 94.28 25.5 C 95.229 25.5 96 26.271 96 27.22 L 96 31.78 C 96 32.729 95.229 33.5 94.28 33.5 L 89.72 33.5 C 88.771 33.5 88 32.729 88 31.78 L 88 27.22 C 88 26.271 88.771 25.5 89.72 25.5 Z" style="stroke:none;fill:#0091EA;stroke-miterlimit:10;"/><line x1="110" y1="26" x2="148.339" y2="26" vector-effect="non-scaling-stroke" stroke-width="2" stroke="rgb(166,166,166)" stroke-linejoin="miter" stroke-linecap="round" stroke-miterlimit="3"/><line x1="110" y1="33" x2="148.339" y2="33" vector-effect="non-scaling-stroke" stroke-width="2" stroke="rgb(166,166,166)" stroke-linejoin="miter" stroke-linecap="round" stroke-miterlimit="3"/><path d="M 101.075 23.5 L 103.925 23.5 C 104.518 23.5 105 23.982 105 24.575 L 105 27.425 C 105 28.018 104.518 28.5 103.925 28.5 L 101.075 28.5 C 100.482 28.5 100 28.018 100 27.425 L 100 24.575 C 100 23.982 100.482 23.5 101.075 23.5 Z" style="stroke:none;fill:#EBEBEB;stroke-miterlimit:10;"/><path d="M 101.075 30.5 L 103.925 30.5 C 104.518 30.5 105 30.982 105 31.575 L 105 34.425 C 105 35.018 104.518 35.5 103.925 35.5 L 101.075 35.5 C 100.482 35.5 100 35.018 100 34.425 L 100 31.575 C 100 30.982 100.482 30.5 101.075 30.5 Z" style="stroke:none;fill:#EBEBEB;stroke-miterlimit:10;"/><path d="M 89.954 42 L 160.046 42 C 163.056 42 165.5 44.444 165.5 47.454 L 165.5 53.546 C 165.5 56.556 163.056 59 160.046 59 L 89.954 59 C 86.944 59 84.5 56.556 84.5 53.546 L 84.5 47.454 C 84.5 44.444 86.944 42 89.954 42 Z" style="stroke:none;fill:#3B3B3B;stroke-miterlimit:10;"/><path d="M 89.72 46.5 L 94.28 46.5 C 95.229 46.5 96 47.271 96 48.22 L 96 52.78 C 96 53.729 95.229 54.5 94.28 54.5 L 89.72 54.5 C 88.771 54.5 88 53.729 88 52.78 L 88 48.22 C 88 47.271 88.771 46.5 89.72 46.5 Z" style="stroke:none;fill:#0091EA;stroke-miterlimit:10;"/><line x1="110" y1="47" x2="148.339" y2="47" vector-effect="non-scaling-stroke" stroke-width="2" stroke="rgb(166,166,166)" stroke-linejoin="miter" stroke-linecap="round" stroke-miterlimit="3"/><line x1="110" y1="54" x2="148.339" y2="54" vector-effect="non-scaling-stroke" stroke-width="2" stroke="rgb(166,166,166)" stroke-linejoin="miter" stroke-linecap="round" stroke-miterlimit="3"/><path d="M 101.075 44.5 L 103.925 44.5 C 104.518 44.5 105 44.982 105 45.575 L 105 48.425 C 105 49.018 104.518 49.5 103.925 49.5 L 101.075 49.5 C 100.482 49.5 100 49.018 100 48.425 L 100 45.575 C 100 44.982 100.482 44.5 101.075 44.5 Z" style="stroke:none;fill:#EBEBEB;stroke-miterlimit:10;"/><path d="M 101.075 51.5 L 103.925 51.5 C 104.518 51.5 105 51.982 105 52.575 L 105 55.425 C 105 56.018 104.518 56.5 103.925 56.5 L 101.075 56.5 C 100.482 56.5 100 56.018 100 55.425 L 100 52.575 C 100 51.982 100.482 51.5 101.075 51.5 Z" style="stroke:none;fill:#EBEBEB;stroke-miterlimit:10;"/><path d="M 89.954 63 L 160.046 63 C 163.056 63 165.5 65.444 165.5 68.454 L 165.5 74.546 C 165.5 77.556 163.056 80 160.046 80 L 89.954 80 C 86.944 80 84.5 77.556 84.5 74.546 L 84.5 68.454 C 84.5 65.444 86.944 63 89.954 63 Z" style="stroke:none;fill:#3B3B3B;stroke-miterlimit:10;"/><path d="M 89.72 67.5 L 94.28 67.5 C 95.229 67.5 96 68.271 96 69.22 L 96 73.78 C 96 74.729 95.229 75.5 94.28 75.5 L 89.72 75.5 C 88.771 75.5 88 74.729 88 73.78 L 88 69.22 C 88 68.271 88.771 67.5 89.72 67.5 Z" style="stroke:none;fill:#0091EA;stroke-miterlimit:10;"/><line x1="110" y1="68" x2="148.339" y2="68" vector-effect="non-scaling-stroke" stroke-width="2" stroke="rgb(166,166,166)" stroke-linejoin="miter" stroke-linecap="round" stroke-miterlimit="3"/><line x1="110" y1="75" x2="148.339" y2="75" vector-effect="non-scaling-stroke" stroke-width="2" stroke="rgb(166,166,166)" stroke-linejoin="miter" stroke-linecap="round" stroke-miterlimit="3"/><path d="M 101.075 65.5 L 103.925 65.5 C 104.518 65.5 105 65.982 105 66.575 L 105 69.425 C 105 70.018 104.518 70.5 103.925 70.5 L 101.075 70.5 C 100.482 70.5 100 70.018 100 69.425 L 100 66.575 C 100 65.982 100.482 65.5 101.075 65.5 Z" style="stroke:none;fill:#EBEBEB;stroke-miterlimit:10;"/><path d="M 101.075 72.5 L 103.925 72.5 C 104.518 72.5 105 72.982 105 73.575 L 105 76.425 C 105 77.018 104.518 77.5 103.925 77.5 L 101.075 77.5 C 100.482 77.5 100 77.018 100 76.425 L 100 73.575 C 100 72.982 100.482 72.5 101.075 72.5 Z" style="stroke:none;fill:#EBEBEB;stroke-miterlimit:10;"/><line x1="52.858" y1="29.5" x2="71" y2="29.5" vector-effect="non-scaling-stroke" stroke-width="1.5" stroke="rgb(189,189,189)" stroke-linejoin="miter" stroke-linecap="square" stroke-miterlimit="3"/><circle vector-effect="non-scaling-stroke" cx="40.35752487182617" cy="29.499999999999993" r="7.5" fill="rgb(189,189,189)"/><g clip-path="url(#_clipPath_Tdx0BpDGsjEreqQEsP1OyW9tNFpKj8MI)"><text transform="matrix(1,0,0,1,37.004,33.379)" style="font-family:'Open Sans';font-weight:700;font-size:10px;font-style:normal;fill:#000000;stroke:none;">1</text></g><defs><clipPath id="_clipPath_Tdx0BpDGsjEreqQEsP1OyW9tNFpKj8MI"><rect x="0" y="0" width="8" height="13.618" transform="matrix(1,0,0,1,36.858,22.691)"/></clipPath></defs></g></svg>