<?xml version="1.0" encoding="UTF-8" standalone="no"?><!-- Generator: Gravit.io --><svg xmlns="http://www.w3.org/2000/svg" xmlns:xlink="http://www.w3.org/1999/xlink" style="isolation:isolate" viewBox="0 0 200 100" width="200pt" height="100pt"><defs><clipPath id="_clipPath_OGXRCwRBtTTkxYtZ00nX6pNop7N1XvGJ"><rect width="200" height="100"/></clipPath></defs><g clip-path="url(#_clipPath_OGXRCwRBtTTkxYtZ00nX6pNop7N1XvGJ)"><rect width="200" height="100" style="fill:rgb(0,0,0)"/><path d="M 57.169 53.25 L 142.351 53.25 C 144.922 53.25 147.01 55.338 147.01 57.909 L 147.01 81.591 C 147.01 84.162 144.922 86.25 142.351 86.25 L 57.169 86.25 C 54.598 86.25 52.51 84.162 52.51 81.591 L 52.51 57.909 C 52.51 55.338 54.598 53.25 57.169 53.25 Z" style="stroke:none;fill:#3B3B3B;stroke-miterlimit:10;"/><path d="M 56.997 56.46 L 61.153 56.46 C 62.018 56.46 62.72 57.162 62.72 58.027 L 62.72 62.183 C 62.72 63.048 62.018 63.75 61.153 63.75 L 56.997 63.75 C 56.132 63.75 55.43 63.048 55.43 62.183 L 55.43 58.027 C 55.43 57.162 56.132 56.46 56.997 56.46 Z" style="stroke:none;fill:#EBEBEB;stroke-miterlimit:10;"/><path d="M 57.282 71.25 L 60.868 71.25 C 61.614 71.25 62.22 71.856 62.22 72.602 L 62.22 76.188 C 62.22 76.934 61.614 77.54 60.868 77.54 L 57.282 77.54 C 56.536 77.54 55.93 76.934 55.93 76.188 L 55.93 72.602 C 55.93 71.856 56.536 71.25 57.282 71.25 Z" style="stroke:none;fill:#FF0000;stroke-miterlimit:10;"/><line x1="68.26" y1="58.063" x2="108.711" y2="58.063" vector-effect="non-scaling-stroke" stroke-width="2" stroke="rgb(166,166,166)" stroke-linejoin="miter" stroke-linecap="round" stroke-miterlimit="3"/><line x1="68.26" y1="72.25" x2="108.711" y2="72.25" vector-effect="non-scaling-stroke" stroke-width="2" stroke="rgb(166,0,0)" stroke-linejoin="miter" stroke-linecap="round" stroke-miterlimit="3"/><line x1="68.26" y1="62.146" x2="97.791" y2="62.146" vector-effect="non-scaling-stroke" stroke-width="2" stroke="rgb(166,166,166)" stroke-linejoin="miter" stroke-linecap="round" stroke-miterlimit="3"/><line x1="68.26" y1="77.25" x2="97.791" y2="77.25" vector-effect="non-scaling-stroke" stroke-width="2" stroke="rgb(166,0,0)" stroke-linejoin="miter" stroke-linecap="round" stroke-miterlimit="3"/><line x1="68.26" y1="81.25" x2="97.791" y2="81.25" vector-effect="non-scaling-stroke" stroke-width="2" stroke="rgb(166,0,0)" stroke-linejoin="miter" stroke-linecap="round" stroke-miterlimit="3"/><line x1="55.427" y1="67.25" x2="143.76" y2="67.25" vector-effect="non-scaling-stroke" stroke-width="1" stroke="rgb(235,235,235)" stroke-linejoin="miter" stroke-linecap="round" stroke-miterlimit="3"/><line x1="153.76" y1="77.25" x2="171.903" y2="77.25" vector-effect="non-scaling-stroke" stroke-width="1.5" stroke="rgb(189,189,189)" stroke-linejoin="miter" stroke-linecap="square" stroke-miterlimit="3"/><circle vector-effect="non-scaling-stroke" cx="184.26041666666669" cy="77.25" r="7.5" fill="rgb(189,189,189)"/><g clip-path="url(#_clipPath_8B7nVfPrWGk3xz7IJtFZlAwYlBxYI2oK)"><text transform="matrix(1,0,0,1,180.76,81.129)" style="font-family:'Open Sans';font-weight:700;font-size:10px;font-style:normal;fill:#000000;stroke:none;">d</text></g><defs><clipPath id="_clipPath_8B7nVfPrWGk3xz7IJtFZlAwYlBxYI2oK"><rect x="0" y="0" width="8" height="13.618" transform="matrix(1,0,0,1,180.76,70.441)"/></clipPath></defs><line x1="27.139" y1="60.104" x2="45.281" y2="60.104" vector-effect="non-scaling-stroke" stroke-width="1.5" stroke="rgb(189,189,189)" stroke-linejoin="miter" stroke-linecap="square" stroke-miterlimit="3"/><circle vector-effect="non-scaling-stroke" cx="15.73958333333335" cy="60.104166666666686" r="7.500000000000001" fill="rgb(189,189,189)"/><g clip-path="url(#_clipPath_a4cLtSkcgEgHZ27nm1Q3zIzJfbTp0BAm)"><text transform="matrix(1,0,0,1,12.24,63.984)" style="font-family:'Open Sans';font-weight:700;font-size:10px;font-style:normal;fill:#000000;stroke:none;">a</text></g><defs><clipPath id="_clipPath_a4cLtSkcgEgHZ27nm1Q3zIzJfbTp0BAm"><rect x="0" y="0" width="8" height="13.618" transform="matrix(1,0,0,1,12.24,53.295)"/></clipPath></defs><line x1="74.26" y1="47.75" x2="74.26" y2="32.75" vector-effect="non-scaling-stroke" stroke-width="1.5" stroke="rgb(189,189,189)" stroke-linejoin="miter" stroke-linecap="square" stroke-miterlimit="3"/><circle vector-effect="non-scaling-stroke" cx="74.26041666666667" cy="21.25" r="7.5" fill="rgb(189,189,189)"/><g clip-path="url(#_clipPath_3CkvautGUDXFtbyXs1sUaUHV4VRn0jbe)"><text transform="matrix(1,0,0,1,70.76,25.129)" style="font-family:'Open Sans';font-weight:700;font-size:10px;font-style:normal;fill:#000000;stroke:none;">b</text></g><defs><clipPath id="_clipPath_3CkvautGUDXFtbyXs1sUaUHV4VRn0jbe"><rect x="0" y="0" width="8" height="13.618" transform="matrix(1,0,0,1,70.76,14.441)"/></clipPath></defs><line x1="96.26" y1="59.94" x2="96.26" y2="32.75" vector-effect="non-scaling-stroke" stroke-width="1.5" stroke="rgb(189,189,189)" stroke-linejoin="miter" stroke-linecap="square" stroke-miterlimit="3"/><circle vector-effect="non-scaling-stroke" cx="96.26041666666667" cy="21.25" r="7.5" fill="rgb(189,189,189)"/><g clip-path="url(#_clipPath_2ajX1p97abJNqg4a4eh0hi8O3iKZou7U)"><text transform="matrix(1,0,0,1,93.19,25.129)" style="font-family:'Open Sans';font-weight:700;font-size:10px;font-style:normal;fill:#000000;stroke:none;">c</text></g><defs><clipPath id="_clipPath_2ajX1p97abJNqg4a4eh0hi8O3iKZou7U"><rect x="0" y="0" width="8" height="13.618" transform="matrix(1,0,0,1,92.76,14.441)"/></clipPath></defs></g></svg>