<?xml version="1.0" encoding="UTF-8" standalone="no"?><!-- Generator: Gravit.io --><svg xmlns="http://www.w3.org/2000/svg" xmlns:xlink="http://www.w3.org/1999/xlink" style="isolation:isolate" viewBox="0 0 370 200" width="370pt" height="200pt"><defs><clipPath id="_clipPath_ymSE2qy8UZo075Lh4GK4DLoRMbkGobhG"><rect width="370" height="200"/></clipPath></defs><g clip-path="url(#_clipPath_ymSE2qy8UZo075Lh4GK4DLoRMbkGobhG)"><rect width="370" height="200" style="fill:rgb(0,0,0)"/><path d="M 77.919 14 L 148.081 14 C 154.107 14 159 18.893 159 24.919 L 159 175.081 C 159 181.107 154.107 186 148.081 186 L 77.919 186 C 71.893 186 67 181.107 67 175.081 L 67 24.919 C 67 18.893 71.893 14 77.919 14 Z" style="fill:none;stroke:#999989;stroke-width:2;stroke-linecap:square;stroke-miterlimit:2;"/><path d="M 128.499 165 L 145.831 165 C 149.418 165 152.33 167.913 152.33 171.5 L 152.33 171.5 C 152.33 175.087 149.418 178 145.831 178 L 128.499 178 C 124.912 178 122 175.087 122 171.5 L 122 171.5 C 122 167.913 124.912 165 128.499 165 Z" style="stroke:none;fill:#FF8300;stroke-miterlimit:10;"/><path d="M 128.05 167.5 L 132.61 167.5 C 133.559 167.5 134.33 168.271 134.33 169.22 L 134.33 173.78 C 134.33 174.729 133.559 175.5 132.61 175.5 L 128.05 175.5 C 127.101 175.5 126.33 174.729 126.33 173.78 L 126.33 169.22 C 126.33 168.271 127.101 167.5 128.05 167.5 Z" style="stroke:none;fill:#EBEBEB;stroke-miterlimit:10;"/><line x1="138.333" y1="171.5" x2="148.066" y2="171.5" vector-effect="non-scaling-stroke" stroke-width="2" stroke="rgb(235,235,235)" stroke-linejoin="miter" stroke-linecap="round" stroke-miterlimit="3"/><path d="M 78.415 20 L 147.585 20 C 150.849 20 153.5 22.651 153.5 25.915 L 153.5 34.085 C 153.5 37.349 150.849 40 147.585 40 L 78.415 40 C 75.151 40 72.5 37.349 72.5 34.085 L 72.5 25.915 C 72.5 22.651 75.151 20 78.415 20 Z" style="stroke:none;fill:#3B3B3B;stroke-miterlimit:10;"/><path d="M 77.828 25.75 L 82.673 25.75 C 83.681 25.75 84.5 26.569 84.5 27.578 L 84.5 32.423 C 84.5 33.431 83.681 34.25 82.673 34.25 L 77.828 34.25 C 76.819 34.25 76 33.431 76 32.423 L 76 27.578 C 76 26.569 76.819 25.75 77.828 25.75 Z" style="stroke:none;fill:#EBEBEB;stroke-miterlimit:10;"/><path d="M 145.29 27 L 148.71 27 C 149.422 27 150 27.578 150 28.29 L 150 31.71 C 150 32.422 149.422 33 148.71 33 L 145.29 33 C 144.578 33 144 32.422 144 31.71 L 144 28.29 C 144 27.578 144.578 27 145.29 27 Z" style="stroke:none;fill:#EBEBEB;stroke-miterlimit:10;"/><line x1="89" y1="25.75" x2="127.339" y2="25.75" vector-effect="non-scaling-stroke" stroke-width="2" stroke="rgb(166,166,166)" stroke-linejoin="miter" stroke-linecap="round" stroke-miterlimit="3"/><line x1="89" y1="30" x2="117" y2="30" vector-effect="non-scaling-stroke" stroke-width="2" stroke="rgb(166,166,166)" stroke-linejoin="miter" stroke-linecap="round" stroke-miterlimit="3"/><line x1="89" y1="34.25" x2="117" y2="34.25" vector-effect="non-scaling-stroke" stroke-width="2" stroke="rgb(166,166,166)" stroke-linejoin="miter" stroke-linecap="round" stroke-miterlimit="3"/><path d="M 78.415 43 L 147.585 43 C 150.849 43 153.5 45.651 153.5 48.915 L 153.5 57.085 C 153.5 60.349 150.849 63 147.585 63 L 78.415 63 C 75.151 63 72.5 60.349 72.5 57.085 L 72.5 48.915 C 72.5 45.651 75.151 43 78.415 43 Z" style="stroke:none;fill:#3B3B3B;stroke-miterlimit:10;"/><path d="M 77.828 48.75 L 82.673 48.75 C 83.681 48.75 84.5 49.569 84.5 50.578 L 84.5 55.423 C 84.5 56.431 83.681 57.25 82.673 57.25 L 77.828 57.25 C 76.819 57.25 76 56.431 76 55.423 L 76 50.578 C 76 49.569 76.819 48.75 77.828 48.75 Z" style="stroke:none;fill:#EBEBEB;stroke-miterlimit:10;"/><path d="M 145.29 50 L 148.71 50 C 149.422 50 150 50.578 150 51.29 L 150 54.71 C 150 55.422 149.422 56 148.71 56 L 145.29 56 C 144.578 56 144 55.422 144 54.71 L 144 51.29 C 144 50.578 144.578 50 145.29 50 Z" style="stroke:none;fill:#EBEBEB;stroke-miterlimit:10;"/><line x1="89" y1="48.75" x2="127.339" y2="48.75" vector-effect="non-scaling-stroke" stroke-width="2" stroke="rgb(166,166,166)" stroke-linejoin="miter" stroke-linecap="round" stroke-miterlimit="3"/><line x1="89" y1="53" x2="117" y2="53" vector-effect="non-scaling-stroke" stroke-width="2" stroke="rgb(166,166,166)" stroke-linejoin="miter" stroke-linecap="round" stroke-miterlimit="3"/><line x1="89" y1="57.25" x2="117" y2="57.25" vector-effect="non-scaling-stroke" stroke-width="2" stroke="rgb(166,166,166)" stroke-linejoin="miter" stroke-linecap="round" stroke-miterlimit="3"/><path d="M 78.415 66 L 147.585 66 C 150.849 66 153.5 68.651 153.5 71.915 L 153.5 80.085 C 153.5 83.349 150.849 86 147.585 86 L 78.415 86 C 75.151 86 72.5 83.349 72.5 80.085 L 72.5 71.915 C 72.5 68.651 75.151 66 78.415 66 Z" style="stroke:none;fill:#3B3B3B;stroke-miterlimit:10;"/><path d="M 77.828 71.75 L 82.673 71.75 C 83.681 71.75 84.5 72.569 84.5 73.578 L 84.5 78.423 C 84.5 79.431 83.681 80.25 82.673 80.25 L 77.828 80.25 C 76.819 80.25 76 79.431 76 78.423 L 76 73.578 C 76 72.569 76.819 71.75 77.828 71.75 Z" style="stroke:none;fill:#EBEBEB;stroke-miterlimit:10;"/><path d="M 145.29 73 L 148.71 73 C 149.422 73 150 73.578 150 74.29 L 150 77.71 C 150 78.422 149.422 79 148.71 79 L 145.29 79 C 144.578 79 144 78.422 144 77.71 L 144 74.29 C 144 73.578 144.578 73 145.29 73 Z" style="stroke:none;fill:#EBEBEB;stroke-miterlimit:10;"/><line x1="89" y1="71.75" x2="127.339" y2="71.75" vector-effect="non-scaling-stroke" stroke-width="2" stroke="rgb(166,166,166)" stroke-linejoin="miter" stroke-linecap="round" stroke-miterlimit="3"/><line x1="89" y1="76" x2="117" y2="76" vector-effect="non-scaling-stroke" stroke-width="2" stroke="rgb(166,166,166)" stroke-linejoin="miter" stroke-linecap="round" stroke-miterlimit="3"/><line x1="89" y1="80.25" x2="117" y2="80.25" vector-effect="non-scaling-stroke" stroke-width="2" stroke="rgb(166,166,166)" stroke-linejoin="miter" stroke-linecap="round" stroke-miterlimit="3"/><path d="M 78.415 89 L 147.585 89 C 150.849 89 153.5 91.651 153.5 94.915 L 153.5 103.085 C 153.5 106.349 150.849 109 147.585 109 L 78.415 109 C 75.151 109 72.5 106.349 72.5 103.085 L 72.5 94.915 C 72.5 91.651 75.151 89 78.415 89 Z" style="stroke:none;fill:#3B3B3B;stroke-miterlimit:10;"/><path d="M 77.828 94.75 L 82.673 94.75 C 83.681 94.75 84.5 95.569 84.5 96.578 L 84.5 101.422 C 84.5 102.431 83.681 103.25 82.673 103.25 L 77.828 103.25 C 76.819 103.25 76 102.431 76 101.422 L 76 96.578 C 76 95.569 76.819 94.75 77.828 94.75 Z" style="stroke:none;fill:#EBEBEB;stroke-miterlimit:10;"/><path d="M 145.29 96 L 148.71 96 C 149.422 96 150 96.578 150 97.29 L 150 100.71 C 150 101.422 149.422 102 148.71 102 L 145.29 102 C 144.578 102 144 101.422 144 100.71 L 144 97.29 C 144 96.578 144.578 96 145.29 96 Z" style="stroke:none;fill:#EBEBEB;stroke-miterlimit:10;"/><line x1="89" y1="94.75" x2="127.339" y2="94.75" vector-effect="non-scaling-stroke" stroke-width="2" stroke="rgb(166,166,166)" stroke-linejoin="miter" stroke-linecap="round" stroke-miterlimit="3"/><line x1="89" y1="99" x2="117" y2="99" vector-effect="non-scaling-stroke" stroke-width="2" stroke="rgb(166,166,166)" stroke-linejoin="miter" stroke-linecap="round" stroke-miterlimit="3"/><line x1="89" y1="103.25" x2="117" y2="103.25" vector-effect="non-scaling-stroke" stroke-width="2" stroke="rgb(166,166,166)" stroke-linejoin="miter" stroke-linecap="round" stroke-miterlimit="3"/><path d="M 257.915 27 L 327.085 27 C 330.349 27 333 29.651 333 32.915 L 333 41.085 C 333 44.349 330.349 47 327.085 47 L 257.915 47 C 254.651 47 252 44.349 252 41.085 L 252 32.915 C 252 29.651 254.651 27 257.915 27 Z" style="stroke:none;fill:#3B3B3B;stroke-miterlimit:10;"/><path d="M 257.328 32.75 L 262.173 32.75 C 263.181 32.75 264 33.569 264 34.578 L 264 39.423 C 264 40.431 263.181 41.25 262.173 41.25 L 257.328 41.25 C 256.319 41.25 255.5 40.431 255.5 39.423 L 255.5 34.578 C 255.5 33.569 256.319 32.75 257.328 32.75 Z" style="stroke:none;fill:#EBEBEB;stroke-miterlimit:10;"/><path d="M 324.79 34 L 328.21 34 C 328.922 34 329.5 34.578 329.5 35.29 L 329.5 38.71 C 329.5 39.422 328.922 40 328.21 40 L 324.79 40 C 324.078 40 323.5 39.422 323.5 38.71 L 323.5 35.29 C 323.5 34.578 324.078 34 324.79 34 Z" style="stroke:none;fill:#EBEBEB;stroke-miterlimit:10;"/><line x1="268.5" y1="32.75" x2="306.839" y2="32.75" vector-effect="non-scaling-stroke" stroke-width="2" stroke="rgb(166,166,166)" stroke-linejoin="miter" stroke-linecap="round" stroke-miterlimit="3"/><line x1="268.5" y1="37" x2="296.5" y2="37" vector-effect="non-scaling-stroke" stroke-width="2" stroke="rgb(166,166,166)" stroke-linejoin="miter" stroke-linecap="round" stroke-miterlimit="3"/><line x1="268.5" y1="41.25" x2="296.5" y2="41.25" vector-effect="non-scaling-stroke" stroke-width="2" stroke="rgb(166,166,166)" stroke-linejoin="miter" stroke-linecap="round" stroke-miterlimit="3"/><path d="M 257.915 56 L 327.085 56 C 330.349 56 333 58.651 333 61.915 L 333 70.085 C 333 73.349 330.349 76 327.085 76 L 257.915 76 C 254.651 76 252 73.349 252 70.085 L 252 61.915 C 252 58.651 254.651 56 257.915 56 Z" style="stroke:none;fill:#3B3B3B;stroke-miterlimit:10;"/><path d="M 257.328 61.75 L 262.173 61.75 C 263.181 61.75 264 62.569 264 63.578 L 264 68.423 C 264 69.431 263.181 70.25 262.173 70.25 L 257.328 70.25 C 256.319 70.25 255.5 69.431 255.5 68.423 L 255.5 63.578 C 255.5 62.569 256.319 61.75 257.328 61.75 Z" style="stroke:none;fill:#00C853;stroke-miterlimit:10;"/><path d="M 324.79 63 L 328.21 63 C 328.922 63 329.5 63.578 329.5 64.29 L 329.5 67.71 C 329.5 68.422 328.922 69 328.21 69 L 324.79 69 C 324.078 69 323.5 68.422 323.5 67.71 L 323.5 64.29 C 323.5 63.578 324.078 63 324.79 63 Z" style="stroke:none;fill:#EBEBEB;stroke-miterlimit:10;"/><line x1="268.5" y1="61.75" x2="306.839" y2="61.75" vector-effect="non-scaling-stroke" stroke-width="2" stroke="rgb(166,166,166)" stroke-linejoin="miter" stroke-linecap="round" stroke-miterlimit="3"/><line x1="268.5" y1="66" x2="296.5" y2="66" vector-effect="non-scaling-stroke" stroke-width="2" stroke="rgb(166,166,166)" stroke-linejoin="miter" stroke-linecap="round" stroke-miterlimit="3"/><line x1="268.5" y1="70.25" x2="296.5" y2="70.25" vector-effect="non-scaling-stroke" stroke-width="2" stroke="rgb(166,166,166)" stroke-linejoin="miter" stroke-linecap="round" stroke-miterlimit="3"/><path d="M 257.915 85 L 327.085 85 C 330.349 85 333 87.651 333 90.915 L 333 99.085 C 333 102.349 330.349 105 327.085 105 L 257.915 105 C 254.651 105 252 102.349 252 99.085 L 252 90.915 C 252 87.651 254.651 85 257.915 85 Z" style="stroke:none;fill:#3B3B3B;stroke-miterlimit:10;"/><path d="M 257.328 90.75 L 262.173 90.75 C 263.181 90.75 264 91.569 264 92.578 L 264 97.423 C 264 98.431 263.181 99.25 262.173 99.25 L 257.328 99.25 C 256.319 99.25 255.5 98.431 255.5 97.423 L 255.5 92.578 C 255.5 91.569 256.319 90.75 257.328 90.75 Z" style="stroke:none;fill:#0091EA;stroke-miterlimit:10;"/><path d="M 324.79 92 L 328.21 92 C 328.922 92 329.5 92.578 329.5 93.29 L 329.5 96.71 C 329.5 97.422 328.922 98 328.21 98 L 324.79 98 C 324.078 98 323.5 97.422 323.5 96.71 L 323.5 93.29 C 323.5 92.578 324.078 92 324.79 92 Z" style="stroke:none;fill:#EBEBEB;stroke-miterlimit:10;"/><line x1="268.5" y1="90.75" x2="306.839" y2="90.75" vector-effect="non-scaling-stroke" stroke-width="2" stroke="rgb(166,166,166)" stroke-linejoin="miter" stroke-linecap="round" stroke-miterlimit="3"/><line x1="268.5" y1="95" x2="296.5" y2="95" vector-effect="non-scaling-stroke" stroke-width="2" stroke="rgb(166,166,166)" stroke-linejoin="miter" stroke-linecap="round" stroke-miterlimit="3"/><line x1="268.5" y1="99.25" x2="296.5" y2="99.25" vector-effect="non-scaling-stroke" stroke-width="2" stroke="rgb(166,166,166)" stroke-linejoin="miter" stroke-linecap="round" stroke-miterlimit="3"/><line x1="41.858" y1="30" x2="60" y2="30" vector-effect="non-scaling-stroke" stroke-width="1.5" stroke="rgb(189,189,189)" stroke-linejoin="miter" stroke-linecap="square" stroke-miterlimit="3"/><circle vector-effect="non-scaling-stroke" cx="29.357524871826172" cy="30" r="7.5" fill="rgb(189,189,189)"/><g clip-path="url(#_clipPath_fIlYc0j3RxPb3g1NPBBmwt2jEDC1cpFT)"><text transform="matrix(1,0,0,1,26.004,33.879)" style="font-family:'Open Sans';font-weight:700;font-size:10px;font-style:normal;fill:#000000;stroke:none;">1</text></g><defs><clipPath id="_clipPath_fIlYc0j3RxPb3g1NPBBmwt2jEDC1cpFT"><rect x="0" y="0" width="8" height="13.618" transform="matrix(1,0,0,1,25.858,23.191)"/></clipPath></defs><line x1="165" y1="171.5" x2="183.142" y2="171.5" vector-effect="non-scaling-stroke" stroke-width="1.5" stroke="rgb(189,189,189)" stroke-linejoin="miter" stroke-linecap="square" stroke-miterlimit="3"/><circle vector-effect="non-scaling-stroke" cx="195.5" cy="171.49999999999994" r="7.5" fill="rgb(189,189,189)"/><g clip-path="url(#_clipPath_2QQI5LIp9dxNyoEJrOuGK8iYYwvB8q7L)"><text transform="matrix(1,0,0,1,192.146,175.379)" style="font-family:'Open Sans';font-weight:700;font-size:10px;font-style:normal;fill:#000000;stroke:none;">2</text></g><defs><clipPath id="_clipPath_2QQI5LIp9dxNyoEJrOuGK8iYYwvB8q7L"><rect x="0" y="0" width="8" height="13.618" transform="matrix(1,0,0,1,192,164.691)"/></clipPath></defs><line x1="226.858" y1="37" x2="245" y2="37" vector-effect="non-scaling-stroke" stroke-width="1.5" stroke="rgb(189,189,189)" stroke-linejoin="miter" stroke-linecap="square" stroke-miterlimit="3"/><circle vector-effect="non-scaling-stroke" cx="214.35752487182617" cy="36.999999999999964" r="7.5" fill="rgb(189,189,189)"/><g clip-path="url(#_clipPath_yqWwDAz2iT9Ix9mlOvWGSBwVGPfUwkDa)"><text transform="matrix(1,0,0,1,208.895,40.104)" style="font-family:'Open Sans';font-weight:700;font-size:8px;font-style:normal;fill:#000000;stroke:none;">*1</text></g><defs><clipPath id="_clipPath_yqWwDAz2iT9Ix9mlOvWGSBwVGPfUwkDa"><rect x="0" y="0" width="15" height="15" transform="matrix(1,0,0,1,206.858,29.5)"/></clipPath></defs><line x1="226.858" y1="66" x2="245" y2="66" vector-effect="non-scaling-stroke" stroke-width="1.5" stroke="rgb(189,189,189)" stroke-linejoin="miter" stroke-linecap="square" stroke-miterlimit="3"/><circle vector-effect="non-scaling-stroke" cx="214.35752487182617" cy="65.99999999999997" r="7.5" fill="rgb(189,189,189)"/><g clip-path="url(#_clipPath_9JqoKxcz4zOgFeKHWIwSFe1m8DRjQk9T)"><text transform="matrix(1,0,0,1,208.895,69.104)" style="font-family:'Open Sans';font-weight:700;font-size:8px;font-style:normal;fill:#000000;stroke:none;">*2</text></g><defs><clipPath id="_clipPath_9JqoKxcz4zOgFeKHWIwSFe1m8DRjQk9T"><rect x="0" y="0" width="15" height="15" transform="matrix(1,0,0,1,206.858,58.5)"/></clipPath></defs><line x1="226.858" y1="95" x2="245" y2="95" vector-effect="non-scaling-stroke" stroke-width="1.5" stroke="rgb(189,189,189)" stroke-linejoin="miter" stroke-linecap="square" stroke-miterlimit="3"/><circle vector-effect="non-scaling-stroke" cx="214.35752487182617" cy="94.99999999999997" r="7.5" fill="rgb(189,189,189)"/><g clip-path="url(#_clipPath_S2eZBTWhLCI9hC2Qqak5xAIglZyi7CeW)"><text transform="matrix(1,0,0,1,208.895,98.104)" style="font-family:'Open Sans';font-weight:700;font-size:8px;font-style:normal;fill:#000000;stroke:none;">*3</text></g><defs><clipPath id="_clipPath_S2eZBTWhLCI9hC2Qqak5xAIglZyi7CeW"><rect x="0" y="0" width="15" height="15" transform="matrix(1,0,0,1,206.858,87.5)"/></clipPath></defs></g></svg>