<?xml version="1.0" encoding="UTF-8" standalone="no"?><!-- Generator: Gravit.io --><svg xmlns="http://www.w3.org/2000/svg" xmlns:xlink="http://www.w3.org/1999/xlink" style="isolation:isolate" viewBox="0 0 250 200" width="250pt" height="200pt"><defs><clipPath id="_clipPath_xMdCLTACZYjcY2JDA1soTXGdhbiDSDQI"><rect width="250" height="200"/></clipPath></defs><g clip-path="url(#_clipPath_xMdCLTACZYjcY2JDA1soTXGdhbiDSDQI)"><rect width="250" height="200" style="fill:rgb(0,0,0)"/><path d="M 89.919 14 L 160.081 14 C 166.107 14 171 18.893 171 24.919 L 171 175.081 C 171 181.107 166.107 186 160.081 186 L 89.919 186 C 83.893 186 79 181.107 79 175.081 L 79 24.919 C 79 18.893 83.893 14 89.919 14 Z" style="fill:none;stroke:#999989;stroke-width:2;stroke-linecap:square;stroke-miterlimit:2;"/><line x1="87.484" y1="23" x2="162.516" y2="23" vector-effect="non-scaling-stroke" stroke-width="2" stroke="rgb(166,166,166)" stroke-linejoin="miter" stroke-linecap="round" stroke-miterlimit="3"/><line x1="87.484" y1="28" x2="162.516" y2="28" vector-effect="non-scaling-stroke" stroke-width="2" stroke="rgb(166,166,166)" stroke-linejoin="miter" stroke-linecap="round" stroke-miterlimit="3"/><line x1="87.484" y1="33" x2="162.516" y2="33" vector-effect="non-scaling-stroke" stroke-width="2" stroke="rgb(166,166,166)" stroke-linejoin="miter" stroke-linecap="round" stroke-miterlimit="3"/><line x1="83.864" y1="38" x2="166.136" y2="38" vector-effect="non-scaling-stroke" stroke-width="1" stroke="rgb(235,235,235)" stroke-linejoin="miter" stroke-linecap="round" stroke-miterlimit="3"/><path d="M 89.232 47 L 160.768 47 C 163.38 47 165.5 49.12 165.5 51.732 L 165.5 102.268 C 165.5 104.88 163.38 107 160.768 107 L 89.232 107 C 86.62 107 84.5 104.88 84.5 102.268 L 84.5 51.732 C 84.5 49.12 86.62 47 89.232 47 Z" style="stroke:none;fill:#3B3B3B;stroke-miterlimit:10;"/><path d=" M 90 102 L 102 85 L 116 97 L 127 65 L 141 85 L 157 52" fill="none" vector-effect="non-scaling-stroke" stroke-width="1.5" stroke="rgb(255,131,0)" stroke-linejoin="round" stroke-linecap="round" stroke-miterlimit="3"/><line x1="90" y1="102" x2="160" y2="102" vector-effect="non-scaling-stroke" stroke-width="1" stroke="rgb(235,235,235)" stroke-linejoin="miter" stroke-linecap="round" stroke-miterlimit="3"/><line x1="90" y1="102" x2="90" y2="52" vector-effect="non-scaling-stroke" stroke-width="1" stroke="rgb(235,235,235)" stroke-linejoin="miter" stroke-linecap="round" stroke-miterlimit="3"/><path d="M 89.232 120 L 160.768 120 C 163.38 120 165.5 122.12 165.5 124.732 L 165.5 175.268 C 165.5 177.88 163.38 180 160.768 180 L 89.232 180 C 86.62 180 84.5 177.88 84.5 175.268 L 84.5 124.732 C 84.5 122.12 86.62 120 89.232 120 Z" style="stroke:none;fill:#3B3B3B;stroke-miterlimit:10;"/><path d=" M 90 175 L 102 158 L 116 170 L 127 138 L 141 158 L 157 125" fill="none" vector-effect="non-scaling-stroke" stroke-width="1.5" stroke="rgb(255,131,0)" stroke-linejoin="round" stroke-linecap="round" stroke-miterlimit="3"/><line x1="90" y1="175" x2="160" y2="175" vector-effect="non-scaling-stroke" stroke-width="1" stroke="rgb(235,235,235)" stroke-linejoin="miter" stroke-linecap="round" stroke-miterlimit="3"/><line x1="90" y1="175" x2="90" y2="125" vector-effect="non-scaling-stroke" stroke-width="1" stroke="rgb(235,235,235)" stroke-linejoin="miter" stroke-linecap="round" stroke-miterlimit="3"/><line x1="94.082" y1="43" x2="162.516" y2="43" vector-effect="non-scaling-stroke" stroke-width="2" stroke="rgb(166,166,166)" stroke-linejoin="miter" stroke-linecap="round" stroke-miterlimit="3"/><path d="M 87.86 41 L 90.14 41 C 90.615 41 91 41.385 91 41.86 L 91 44.14 C 91 44.615 90.615 45 90.14 45 L 87.86 45 C 87.385 45 87 44.615 87 44.14 L 87 41.86 C 87 41.385 87.385 41 87.86 41 Z" style="stroke:none;fill:#EBEBEB;stroke-miterlimit:10;"/><line x1="83.864" y1="111" x2="166.136" y2="111" vector-effect="non-scaling-stroke" stroke-width="1" stroke="rgb(235,235,235)" stroke-linejoin="miter" stroke-linecap="round" stroke-miterlimit="3"/><line x1="94.082" y1="116" x2="162.516" y2="116" vector-effect="non-scaling-stroke" stroke-width="2" stroke="rgb(166,166,166)" stroke-linejoin="miter" stroke-linecap="round" stroke-miterlimit="3"/><path d="M 87.86 114 L 90.14 114 C 90.615 114 91 114.385 91 114.86 L 91 117.14 C 91 117.615 90.615 118 90.14 118 L 87.86 118 C 87.385 118 87 117.615 87 117.14 L 87 114.86 C 87 114.385 87.385 114 87.86 114 Z" style="stroke:none;fill:#EBEBEB;stroke-miterlimit:10;"/><line x1="45.114" y1="27.5" x2="73" y2="27.5" vector-effect="non-scaling-stroke" stroke-width="1.5" stroke="rgb(189,189,189)" stroke-linejoin="miter" stroke-linecap="square" stroke-miterlimit="3"/><circle vector-effect="non-scaling-stroke" cx="32.5" cy="28" r="7.5" fill="rgb(189,189,189)"/><g clip-path="url(#_clipPath_tLH7L07VPReOnL8CPAxRXFjYLQz0qSuj)"><text transform="matrix(1,0,0,1,29.146,31.879)" style="font-family:'Open Sans';font-weight:700;font-size:10px;font-style:normal;fill:#000000;stroke:none;">1</text></g><defs><clipPath id="_clipPath_tLH7L07VPReOnL8CPAxRXFjYLQz0qSuj"><rect x="0" y="0" width="8" height="13.618" transform="matrix(1,0,0,1,29,21.191)"/></clipPath></defs><line x1="45.114" y1="76.5" x2="73" y2="76.5" vector-effect="non-scaling-stroke" stroke-width="1.5" stroke="rgb(189,189,189)" stroke-linejoin="miter" stroke-linecap="square" stroke-miterlimit="3"/><circle vector-effect="non-scaling-stroke" cx="32.5" cy="77" r="7.5" fill="rgb(189,189,189)"/><g clip-path="url(#_clipPath_DBVk8sn7uOwb11aM65lyhKrDqhoOaZD1)"><text transform="matrix(1,0,0,1,29.146,80.879)" style="font-family:'Open Sans';font-weight:700;font-size:10px;font-style:normal;fill:#000000;stroke:none;">3</text></g><defs><clipPath id="_clipPath_DBVk8sn7uOwb11aM65lyhKrDqhoOaZD1"><rect x="0" y="0" width="8" height="13.618" transform="matrix(1,0,0,1,29,70.191)"/></clipPath></defs><line x1="45.114" y1="149.5" x2="73" y2="149.5" vector-effect="non-scaling-stroke" stroke-width="1.5" stroke="rgb(189,189,189)" stroke-linejoin="miter" stroke-linecap="square" stroke-miterlimit="3"/><circle vector-effect="non-scaling-stroke" cx="32.5" cy="150" r="7.5" fill="rgb(189,189,189)"/><g clip-path="url(#_clipPath_ILxk3DfOez5oiVgs05ZtBFiYmDa9xTKL)"><text transform="matrix(1,0,0,1,29.146,153.879)" style="font-family:'Open Sans';font-weight:700;font-size:10px;font-style:normal;fill:#000000;stroke:none;">5</text></g><defs><clipPath id="_clipPath_ILxk3DfOez5oiVgs05ZtBFiYmDa9xTKL"><rect x="0" y="0" width="8" height="13.618" transform="matrix(1,0,0,1,29,143.191)"/></clipPath></defs><line x1="176.114" y1="43.5" x2="204" y2="43.5" vector-effect="non-scaling-stroke" stroke-width="1.5" stroke="rgb(189,189,189)" stroke-linejoin="miter" stroke-linecap="square" stroke-miterlimit="3"/><circle vector-effect="non-scaling-stroke" cx="216.50000000000003" cy="43.99999999999998" r="7.5" fill="rgb(189,189,189)"/><g clip-path="url(#_clipPath_54A0U0QijCQ1stLlVxRMb1FzSYvsZEa8)"><text transform="matrix(1,0,0,1,213.146,47.879)" style="font-family:'Open Sans';font-weight:700;font-size:10px;font-style:normal;fill:#000000;stroke:none;">2</text></g><defs><clipPath id="_clipPath_54A0U0QijCQ1stLlVxRMb1FzSYvsZEa8"><rect x="0" y="0" width="8" height="13.618" transform="matrix(1,0,0,1,213,37.191)"/></clipPath></defs><line x1="176.114" y1="115.5" x2="204" y2="115.5" vector-effect="non-scaling-stroke" stroke-width="1.5" stroke="rgb(189,189,189)" stroke-linejoin="miter" stroke-linecap="square" stroke-miterlimit="3"/><circle vector-effect="non-scaling-stroke" cx="216.50000000000003" cy="116" r="7.5" fill="rgb(189,189,189)"/><g clip-path="url(#_clipPath_eH4qDF1A5BguyGG32aozIqaQS16p0an9)"><text transform="matrix(1,0,0,1,213.146,119.879)" style="font-family:'Open Sans';font-weight:700;font-size:10px;font-style:normal;fill:#000000;stroke:none;">4</text></g><defs><clipPath id="_clipPath_eH4qDF1A5BguyGG32aozIqaQS16p0an9"><rect x="0" y="0" width="8" height="13.618" transform="matrix(1,0,0,1,213,109.191)"/></clipPath></defs></g></svg>