<?xml version="1.0" encoding="UTF-8" standalone="no"?><!-- Generator: Gravit.io --><svg xmlns="http://www.w3.org/2000/svg" xmlns:xlink="http://www.w3.org/1999/xlink" style="isolation:isolate" viewBox="0 0 300 200" width="300pt" height="200pt"><defs><clipPath id="_clipPath_UcJTKvDoSbft0CUKU5hgNW1312nikYXn"><rect width="300" height="200"/></clipPath></defs><g clip-path="url(#_clipPath_UcJTKvDoSbft0CUKU5hgNW1312nikYXn)"><rect width="300" height="200" style="fill:rgb(0,0,0)"/><path d="M 67.091 22 L 136.909 22 C 139.719 22 142 24.281 142 27.091 L 142 31.909 C 142 34.719 139.719 37 136.909 37 L 67.091 37 C 64.281 37 62 34.719 62 31.909 L 62 27.091 C 62 24.281 64.281 22 67.091 22 Z" style="stroke:none;fill:#3B3B3B;stroke-miterlimit:10;"/><path d="M 117.169 165 L 134.501 165 C 138.088 165 141 167.913 141 171.5 L 141 171.5 C 141 175.087 138.088 178 134.501 178 L 117.169 178 C 113.582 178 110.67 175.087 110.67 171.5 L 110.67 171.5 C 110.67 167.913 113.582 165 117.169 165 Z" style="stroke:none;fill:#FF8300;stroke-miterlimit:10;"/><path d="M 67.935 25 L 73.065 25 C 74.133 25 75 25.867 75 26.935 L 75 32.065 C 75 33.133 74.133 34 73.065 34 L 67.935 34 C 66.867 34 66 33.133 66 32.065 L 66 26.935 C 66 25.867 66.867 25 67.935 25 Z" style="stroke:none;fill:#EBEBEB;stroke-miterlimit:10;"/><path d="M 116.72 167.5 L 121.28 167.5 C 122.229 167.5 123 168.271 123 169.22 L 123 173.78 C 123 174.729 122.229 175.5 121.28 175.5 L 116.72 175.5 C 115.771 175.5 115 174.729 115 173.78 L 115 169.22 C 115 168.271 115.771 167.5 116.72 167.5 Z" style="stroke:none;fill:#EBEBEB;stroke-miterlimit:10;"/><line x1="79" y1="27" x2="135.682" y2="27" vector-effect="non-scaling-stroke" stroke-width="2" stroke="rgb(166,166,166)" stroke-linejoin="miter" stroke-linecap="round" stroke-miterlimit="3"/><line x1="79" y1="32" x2="113.534" y2="32" vector-effect="non-scaling-stroke" stroke-width="2" stroke="rgb(166,166,166)" stroke-linejoin="miter" stroke-linecap="round" stroke-miterlimit="3"/><path d="M 175.091 22 L 244.909 22 C 247.719 22 250 24.281 250 27.091 L 250 31.909 C 250 34.719 247.719 37 244.909 37 L 175.091 37 C 172.281 37 170 34.719 170 31.909 L 170 27.091 C 170 24.281 172.281 22 175.091 22 Z" style="stroke:none;fill:#3B3B3B;stroke-miterlimit:10;"/><path d="M 175.935 25 L 181.065 25 C 182.133 25 183 25.867 183 26.935 L 183 32.065 C 183 33.133 182.133 34 181.065 34 L 175.935 34 C 174.867 34 174 33.133 174 32.065 L 174 26.935 C 174 25.867 174.867 25 175.935 25 Z" style="stroke:none;fill:#EBEBEB;stroke-miterlimit:10;"/><line x1="187" y1="27" x2="243.682" y2="27" vector-effect="non-scaling-stroke" stroke-width="2" stroke="rgb(166,166,166)" stroke-linejoin="miter" stroke-linecap="round" stroke-miterlimit="3"/><line x1="187" y1="32" x2="221.534" y2="32" vector-effect="non-scaling-stroke" stroke-width="2" stroke="rgb(166,166,166)" stroke-linejoin="miter" stroke-linecap="round" stroke-miterlimit="3"/><path d="M 67.091 40 L 136.909 40 C 139.719 40 142 42.281 142 45.091 L 142 49.909 C 142 52.719 139.719 55 136.909 55 L 67.091 55 C 64.281 55 62 52.719 62 49.909 L 62 45.091 C 62 42.281 64.281 40 67.091 40 Z" style="stroke:none;fill:#3B3B3B;stroke-miterlimit:10;"/><path d="M 67.935 43 L 73.065 43 C 74.133 43 75 43.867 75 44.935 L 75 50.065 C 75 51.133 74.133 52 73.065 52 L 67.935 52 C 66.867 52 66 51.133 66 50.065 L 66 44.935 C 66 43.867 66.867 43 67.935 43 Z" style="stroke:none;fill:#EBEBEB;stroke-miterlimit:10;"/><line x1="79" y1="45" x2="135.682" y2="45" vector-effect="non-scaling-stroke" stroke-width="2" stroke="rgb(166,166,166)" stroke-linejoin="miter" stroke-linecap="round" stroke-miterlimit="3"/><line x1="79" y1="50" x2="113.534" y2="50" vector-effect="non-scaling-stroke" stroke-width="2" stroke="rgb(166,166,166)" stroke-linejoin="miter" stroke-linecap="round" stroke-miterlimit="3"/><path d="M 67.091 58 L 136.909 58 C 139.719 58 142 60.281 142 63.091 L 142 67.909 C 142 70.719 139.719 73 136.909 73 L 67.091 73 C 64.281 73 62 70.719 62 67.909 L 62 63.091 C 62 60.281 64.281 58 67.091 58 Z" style="stroke:none;fill:#3B3B3B;stroke-miterlimit:10;"/><path d="M 67.935 61 L 73.065 61 C 74.133 61 75 61.867 75 62.935 L 75 68.065 C 75 69.133 74.133 70 73.065 70 L 67.935 70 C 66.867 70 66 69.133 66 68.065 L 66 62.935 C 66 61.867 66.867 61 67.935 61 Z" style="stroke:none;fill:#EBEBEB;stroke-miterlimit:10;"/><line x1="79" y1="63" x2="135.682" y2="63" vector-effect="non-scaling-stroke" stroke-width="2" stroke="rgb(166,166,166)" stroke-linejoin="miter" stroke-linecap="round" stroke-miterlimit="3"/><line x1="79" y1="68" x2="113.534" y2="68" vector-effect="non-scaling-stroke" stroke-width="2" stroke="rgb(166,166,166)" stroke-linejoin="miter" stroke-linecap="round" stroke-miterlimit="3"/><path d="M 67.091 76 L 136.909 76 C 139.719 76 142 78.281 142 81.091 L 142 85.909 C 142 88.719 139.719 91 136.909 91 L 67.091 91 C 64.281 91 62 88.719 62 85.909 L 62 81.091 C 62 78.281 64.281 76 67.091 76 Z" style="stroke:none;fill:#3B3B3B;stroke-miterlimit:10;"/><path d="M 67.935 79 L 73.065 79 C 74.133 79 75 79.867 75 80.935 L 75 86.065 C 75 87.133 74.133 88 73.065 88 L 67.935 88 C 66.867 88 66 87.133 66 86.065 L 66 80.935 C 66 79.867 66.867 79 67.935 79 Z" style="stroke:none;fill:#EBEBEB;stroke-miterlimit:10;"/><line x1="79" y1="81" x2="135.682" y2="81" vector-effect="non-scaling-stroke" stroke-width="2" stroke="rgb(166,166,166)" stroke-linejoin="miter" stroke-linecap="round" stroke-miterlimit="3"/><line x1="79" y1="86" x2="113.534" y2="86" vector-effect="non-scaling-stroke" stroke-width="2" stroke="rgb(166,166,166)" stroke-linejoin="miter" stroke-linecap="round" stroke-miterlimit="3"/><path d="M 67.091 94 L 136.909 94 C 139.719 94 142 96.281 142 99.091 L 142 103.909 C 142 106.719 139.719 109 136.909 109 L 67.091 109 C 64.281 109 62 106.719 62 103.909 L 62 99.091 C 62 96.281 64.281 94 67.091 94 Z" style="stroke:none;fill:#3B3B3B;stroke-miterlimit:10;"/><path d="M 67.935 97 L 73.065 97 C 74.133 97 75 97.867 75 98.935 L 75 104.065 C 75 105.133 74.133 106 73.065 106 L 67.935 106 C 66.867 106 66 105.133 66 104.065 L 66 98.935 C 66 97.867 66.867 97 67.935 97 Z" style="stroke:none;fill:#EBEBEB;stroke-miterlimit:10;"/><line x1="79" y1="99" x2="135.682" y2="99" vector-effect="non-scaling-stroke" stroke-width="2" stroke="rgb(166,166,166)" stroke-linejoin="miter" stroke-linecap="round" stroke-miterlimit="3"/><line x1="79" y1="104" x2="113.534" y2="104" vector-effect="non-scaling-stroke" stroke-width="2" stroke="rgb(166,166,166)" stroke-linejoin="miter" stroke-linecap="round" stroke-miterlimit="3"/><path d="M 67.091 112 L 136.909 112 C 139.719 112 142 114.281 142 117.091 L 142 121.909 C 142 124.719 139.719 127 136.909 127 L 67.091 127 C 64.281 127 62 124.719 62 121.909 L 62 117.091 C 62 114.281 64.281 112 67.091 112 Z" style="stroke:none;fill:#3B3B3B;stroke-miterlimit:10;"/><path d="M 67.935 115 L 73.065 115 C 74.133 115 75 115.867 75 116.935 L 75 122.065 C 75 123.133 74.133 124 73.065 124 L 67.935 124 C 66.867 124 66 123.133 66 122.065 L 66 116.935 C 66 115.867 66.867 115 67.935 115 Z" style="stroke:none;fill:#EBEBEB;stroke-miterlimit:10;"/><line x1="79" y1="117" x2="135.682" y2="117" vector-effect="non-scaling-stroke" stroke-width="2" stroke="rgb(166,166,166)" stroke-linejoin="miter" stroke-linecap="round" stroke-miterlimit="3"/><line x1="79" y1="122" x2="113.534" y2="122" vector-effect="non-scaling-stroke" stroke-width="2" stroke="rgb(166,166,166)" stroke-linejoin="miter" stroke-linecap="round" stroke-miterlimit="3"/><line x1="127" y1="171.5" x2="136.733" y2="171.5" vector-effect="non-scaling-stroke" stroke-width="2" stroke="rgb(235,235,235)" stroke-linejoin="miter" stroke-linecap="round" stroke-miterlimit="3"/><line x1="33" y1="29.5" x2="51.142" y2="29.5" vector-effect="non-scaling-stroke" stroke-width="1.5" stroke="rgb(189,189,189)" stroke-linejoin="miter" stroke-linecap="square" stroke-miterlimit="3"/><circle vector-effect="non-scaling-stroke" cx="20.5" cy="29.5" r="7.5" fill="rgb(189,189,189)"/><g clip-path="url(#_clipPath_orCVaJ73jgUOF9IbSbqEM9IyvO3XobWA)"><text transform="matrix(1,0,0,1,17.146,33.379)" style="font-family:'Open Sans';font-weight:700;font-size:10px;font-style:normal;fill:#000000;stroke:none;">1</text></g><defs><clipPath id="_clipPath_orCVaJ73jgUOF9IbSbqEM9IyvO3XobWA"><rect x="0" y="0" width="8" height="13.618" transform="matrix(1,0,0,1,17,22.691)"/></clipPath></defs><line x1="256" y1="29.5" x2="274.142" y2="29.5" vector-effect="non-scaling-stroke" stroke-width="1.5" stroke="rgb(189,189,189)" stroke-linejoin="miter" stroke-linecap="square" stroke-miterlimit="3"/><circle vector-effect="non-scaling-stroke" cx="285.49999999999983" cy="29.50000000000002" r="7.5" fill="rgb(189,189,189)"/><g clip-path="url(#_clipPath_biERubBv9qM7jutIUOd9q01xRWOzOAoE)"><text transform="matrix(1,0,0,1,282.146,33.379)" style="font-family:'Open Sans';font-weight:700;font-size:10px;font-style:normal;fill:#000000;stroke:none;">2</text></g><defs><clipPath id="_clipPath_biERubBv9qM7jutIUOd9q01xRWOzOAoE"><rect x="0" y="0" width="8" height="13.618" transform="matrix(1,0,0,1,282,22.691)"/></clipPath></defs><line x1="154" y1="171.5" x2="182" y2="171.5" vector-effect="non-scaling-stroke" stroke-width="1.5" stroke="rgb(189,189,189)" stroke-linejoin="miter" stroke-linecap="square" stroke-miterlimit="3"/><circle vector-effect="non-scaling-stroke" cx="194.49999999999997" cy="171.5" r="7.5" fill="rgb(189,189,189)"/><g clip-path="url(#_clipPath_8xvW54bzhjZviYIjwPjoQS9rZ5NRPr9H)"><text transform="matrix(1,0,0,1,191.146,175.379)" style="font-family:'Open Sans';font-weight:700;font-size:10px;font-style:normal;fill:#000000;stroke:none;">3</text></g><defs><clipPath id="_clipPath_8xvW54bzhjZviYIjwPjoQS9rZ5NRPr9H"><rect x="0" y="0" width="8" height="13.618" transform="matrix(1,0,0,1,191,164.691)"/></clipPath></defs><path d="M 67.04 12 L 136.96 12 C 143.053 12 148 16.947 148 23.04 L 148 172.96 C 148 179.053 143.053 184 136.96 184 L 67.04 184 C 60.947 184 56 179.053 56 172.96 L 56 23.04 C 56 16.947 60.947 12 67.04 12 Z" style="fill:none;stroke:#999989;stroke-width:2;stroke-linecap:square;stroke-miterlimit:2;"/></g></svg>