<?xml version="1.0" encoding="UTF-8" standalone="no"?><!-- Generator: Gravit.io --><svg xmlns="http://www.w3.org/2000/svg" xmlns:xlink="http://www.w3.org/1999/xlink" style="isolation:isolate" viewBox="0 0 250 100" width="250pt" height="100pt"><defs><clipPath id="_clipPath_rloWNU9T87NIPC73zTAb2svqA6tDiLm0"><rect width="250" height="100"/></clipPath></defs><g clip-path="url(#_clipPath_rloWNU9T87NIPC73zTAb2svqA6tDiLm0)"><rect width="250" height="100" style="fill:rgb(0,0,0)"/><path d="M 100.593 34 L 200.207 34 C 203.818 34 206.75 36.932 206.75 40.543 L 206.75 59.457 C 206.75 63.068 203.818 66 200.207 66 L 100.593 66 C 96.982 66 94.05 63.068 94.05 59.457 L 94.05 40.543 C 94.05 36.932 96.982 34 100.593 34 Z" style="stroke:none;fill:#3B3B3B;stroke-miterlimit:10;"/><line x1="102.158" y1="42.348" x2="181.006" y2="42.348" vector-effect="non-scaling-stroke" stroke-width="2" stroke="rgb(166,166,166)" stroke-linejoin="miter" stroke-linecap="round" stroke-miterlimit="3"/><line x1="102.158" y1="50.696" x2="162.919" y2="50.696" vector-effect="non-scaling-stroke" stroke-width="2" stroke="rgb(166,166,166)" stroke-linejoin="miter" stroke-linecap="round" stroke-miterlimit="3"/><line x1="102.158" y1="57.652" x2="162.919" y2="57.652" vector-effect="non-scaling-stroke" stroke-width="2" stroke="rgb(166,166,166)" stroke-linejoin="miter" stroke-linecap="round" stroke-miterlimit="3"/><line x1="63.255" y1="50" x2="81.397" y2="50" vector-effect="non-scaling-stroke" stroke-width="1.5" stroke="rgb(189,189,189)" stroke-linejoin="miter" stroke-linecap="square" stroke-miterlimit="3"/><circle vector-effect="non-scaling-stroke" cx="50.754849392434835" cy="50" r="7.5" fill="rgb(189,189,189)"/><g clip-path="url(#_clipPath_0ildg7wLUjxWTTt1MXAAZ4XW5w68Fvpt)"><text transform="matrix(1,0,0,1,47.255,53.879)" style="font-family:'Open Sans';font-weight:700;font-size:10px;font-style:normal;fill:#000000;stroke:none;">a</text></g><defs><clipPath id="_clipPath_0ildg7wLUjxWTTt1MXAAZ4XW5w68Fvpt"><rect x="0" y="0" width="8" height="13.618" transform="matrix(1,0,0,1,47.255,43.191)"/></clipPath></defs></g></svg>