<?xml version="1.0" encoding="UTF-8" standalone="no"?><!-- Generator: Gravit.io --><svg xmlns="http://www.w3.org/2000/svg" xmlns:xlink="http://www.w3.org/1999/xlink" style="isolation:isolate" viewBox="0 0 250 200" width="250pt" height="200pt"><defs><clipPath id="_clipPath_2Zf5rF29yFBoWDiD1o9FvYReOBO2gnPD"><rect width="250" height="200"/></clipPath></defs><g clip-path="url(#_clipPath_2Zf5rF29yFBoWDiD1o9FvYReOBO2gnPD)"><rect width="250" height="200" style="fill:rgb(0,0,0)"/><path d="M 89.919 14 L 160.081 14 C 166.107 14 171 18.893 171 24.919 L 171 175.081 C 171 181.107 166.107 186 160.081 186 L 89.919 186 C 83.893 186 79 181.107 79 175.081 L 79 24.919 C 79 18.893 83.893 14 89.919 14 Z" style="fill:none;stroke:#999989;stroke-width:2;stroke-linecap:square;stroke-miterlimit:2;"/><path d="M 90.434 24.57 L 118.516 24.57 C 120.963 24.57 122.95 26.557 122.95 29.003 L 122.95 44.767 C 122.95 47.213 120.963 49.2 118.516 49.2 L 90.434 49.2 C 87.987 49.2 86 47.213 86 44.767 L 86 29.003 C 86 26.557 87.987 24.57 90.434 24.57 Z" style="stroke:none;fill:#3B3B3B;stroke-miterlimit:10;"/><path d="M 90.434 82.04 L 124.676 82.04 C 127.123 82.04 129.11 84.027 129.11 86.473 L 129.11 102.237 C 129.11 104.683 127.123 106.67 124.676 106.67 L 90.434 106.67 C 87.987 106.67 86 104.683 86 102.237 L 86 86.473 C 86 84.027 87.987 82.04 90.434 82.04 Z" style="stroke:none;fill:#3B3B3B;stroke-miterlimit:10;"/><path d="M 92.712 110.78 L 157.288 110.78 C 160.993 110.78 164 113.787 164 117.491 L 164 145.119 C 164 148.823 160.993 151.83 157.288 151.83 L 92.712 151.83 C 89.007 151.83 86 148.823 86 145.119 L 86 117.491 C 86 113.787 89.007 110.78 92.712 110.78 Z" style="stroke:none;fill:#3B3B3B;stroke-miterlimit:10;"/><path d="M 90.746 154.91 L 159.254 154.91 C 161.873 154.91 164 157.036 164 159.655 L 164 170.685 C 164 173.304 161.873 175.43 159.254 175.43 L 90.746 175.43 C 88.127 175.43 86 173.304 86 170.685 L 86 159.655 C 86 157.036 88.127 154.91 90.746 154.91 Z" style="stroke:none;fill:#3B3B3B;stroke-miterlimit:10;"/><path d="M 137.644 82.04 L 159.566 82.04 C 162.013 82.04 164 84.027 164 86.473 L 164 102.237 C 164 104.683 162.013 106.67 159.566 106.67 L 137.644 106.67 C 135.197 106.67 133.21 104.683 133.21 102.237 L 133.21 86.473 C 133.21 84.027 135.197 82.04 137.644 82.04 Z" style="stroke:none;fill:#3B3B3B;stroke-miterlimit:10;"/><path d="M 131.484 24.57 L 159.566 24.57 C 162.013 24.57 164 26.557 164 29.003 L 164 44.767 C 164 47.213 162.013 49.2 159.566 49.2 L 131.484 49.2 C 129.037 49.2 127.05 47.213 127.05 44.767 L 127.05 29.003 C 127.05 26.557 129.037 24.57 131.484 24.57 Z" style="stroke:none;fill:#3B3B3B;stroke-miterlimit:10;"/><path d="M 90.253 53.3 L 105.377 53.3 C 107.724 53.3 109.63 55.206 109.63 57.554 L 109.63 73.676 C 109.63 76.024 107.724 77.93 105.377 77.93 L 90.253 77.93 C 87.906 77.93 86 76.024 86 73.676 L 86 57.554 C 86 55.206 87.906 53.3 90.253 53.3 Z" style="stroke:none;fill:#3B3B3B;stroke-miterlimit:10;"/><path d="M 117.435 53.3 L 132.565 53.3 C 134.913 53.3 136.82 55.206 136.82 57.554 L 136.82 73.676 C 136.82 76.024 134.913 77.93 132.565 77.93 L 117.435 77.93 C 115.087 77.93 113.18 76.024 113.18 73.676 L 113.18 57.554 C 113.18 55.206 115.087 53.3 117.435 53.3 Z" style="stroke:none;fill:#3B3B3B;stroke-miterlimit:10;"/><path d="M 144.623 53.3 L 159.747 53.3 C 162.094 53.3 164 55.206 164 57.554 L 164 73.676 C 164 76.024 162.094 77.93 159.747 77.93 L 144.623 77.93 C 142.276 77.93 140.37 76.024 140.37 73.676 L 140.37 57.554 C 140.37 55.206 142.276 53.3 144.623 53.3 Z" style="stroke:none;fill:#3B3B3B;stroke-miterlimit:10;"/><circle vector-effect="non-scaling-stroke" cx="104.47368421052627" cy="32.00657894736841" r="4.875" fill="rgb(34,166,82)"/><line x1="90.105" y1="40.474" x2="118.842" y2="40.474" vector-effect="non-scaling-stroke" stroke-width="2" stroke="rgb(166,166,166)" stroke-linejoin="miter" stroke-linecap="round" stroke-miterlimit="3"/><line x1="90.105" y1="44.579" x2="118.842" y2="44.579" vector-effect="non-scaling-stroke" stroke-width="2" stroke="rgb(166,166,166)" stroke-linejoin="miter" stroke-linecap="round" stroke-miterlimit="3"/><line x1="90.105" y1="73.316" x2="105.831" y2="73.316" vector-effect="non-scaling-stroke" stroke-width="2" stroke="rgb(166,166,166)" stroke-linejoin="miter" stroke-linecap="round" stroke-miterlimit="3"/><line x1="97.968" y1="89.737" x2="125.558" y2="89.737" vector-effect="non-scaling-stroke" stroke-width="2" stroke="rgb(166,166,166)" stroke-linejoin="miter" stroke-linecap="round" stroke-miterlimit="3"/><line x1="97.968" y1="98.974" x2="125.558" y2="98.974" vector-effect="non-scaling-stroke" stroke-width="2" stroke="rgb(166,166,166)" stroke-linejoin="miter" stroke-linecap="round" stroke-miterlimit="3"/><line x1="104.614" y1="120.013" x2="158.544" y2="120.013" vector-effect="non-scaling-stroke" stroke-width="2" stroke="rgb(166,166,166)" stroke-linejoin="miter" stroke-linecap="round" stroke-miterlimit="3"/><line x1="146.535" y1="89.737" x2="160.047" y2="89.737" vector-effect="non-scaling-stroke" stroke-width="2" stroke="rgb(166,166,166)" stroke-linejoin="miter" stroke-linecap="round" stroke-miterlimit="3"/><line x1="146.383" y1="98.974" x2="159.895" y2="98.974" vector-effect="non-scaling-stroke" stroke-width="2" stroke="rgb(166,166,166)" stroke-linejoin="miter" stroke-linecap="round" stroke-miterlimit="3"/><circle vector-effect="non-scaling-stroke" cx="145.52631578947367" cy="32.00657894736841" r="4.875" fill="rgb(255,153,0)"/><line x1="131.158" y1="40.474" x2="159.895" y2="40.474" vector-effect="non-scaling-stroke" stroke-width="2" stroke="rgb(166,166,166)" stroke-linejoin="miter" stroke-linecap="round" stroke-miterlimit="3"/><line x1="131.158" y1="44.579" x2="159.895" y2="44.579" vector-effect="non-scaling-stroke" stroke-width="2" stroke="rgb(166,166,166)" stroke-linejoin="miter" stroke-linecap="round" stroke-miterlimit="3"/><path d="M 95.184 58.95 L 100.446 58.95 C 101.541 58.95 102.43 59.839 102.43 60.934 L 102.43 66.196 C 102.43 67.291 101.541 68.18 100.446 68.18 L 95.184 68.18 C 94.089 68.18 93.2 67.291 93.2 66.196 L 93.2 60.934 C 93.2 59.839 94.089 58.95 95.184 58.95 Z" style="stroke:none;fill:#FF8300;stroke-miterlimit:10;"/><line x1="117.137" y1="73.316" x2="132.863" y2="73.316" vector-effect="non-scaling-stroke" stroke-width="2" stroke="rgb(166,166,166)" stroke-linejoin="miter" stroke-linecap="round" stroke-miterlimit="3"/><path d="M 122.217 58.95 L 127.483 58.95 C 128.58 58.95 129.47 59.839 129.47 60.934 L 129.47 66.196 C 129.47 67.291 128.58 68.18 127.483 68.18 L 122.217 68.18 C 121.12 68.18 120.23 67.291 120.23 66.196 L 120.23 60.934 C 120.23 59.839 121.12 58.95 122.217 58.95 Z" style="stroke:none;fill:#FF8300;stroke-miterlimit:10;"/><path d="M 138.614 86.66 L 142.126 86.66 C 142.857 86.66 143.45 87.253 143.45 87.984 L 143.45 91.496 C 143.45 92.227 142.857 92.82 142.126 92.82 L 138.614 92.82 C 137.883 92.82 137.29 92.227 137.29 91.496 L 137.29 87.984 C 137.29 87.253 137.883 86.66 138.614 86.66 Z" style="stroke:none;fill:#EBEBEB;stroke-miterlimit:10;"/><path d="M 138.614 95.89 L 142.126 95.89 C 142.857 95.89 143.45 96.483 143.45 97.214 L 143.45 100.726 C 143.45 101.457 142.857 102.05 142.126 102.05 L 138.614 102.05 C 137.883 102.05 137.29 101.457 137.29 100.726 L 137.29 97.214 C 137.29 96.483 137.883 95.89 138.614 95.89 Z" style="stroke:none;fill:#EBEBEB;stroke-miterlimit:10;"/><path d="M 90.404 86.66 L 93.916 86.66 C 94.647 86.66 95.24 87.253 95.24 87.984 L 95.24 91.496 C 95.24 92.227 94.647 92.82 93.916 92.82 L 90.404 92.82 C 89.673 92.82 89.08 92.227 89.08 91.496 L 89.08 87.984 C 89.08 87.253 89.673 86.66 90.404 86.66 Z" style="stroke:none;fill:#EBEBEB;stroke-miterlimit:10;"/><path d="M 90.404 95.89 L 93.916 95.89 C 94.647 95.89 95.24 96.483 95.24 97.214 L 95.24 100.726 C 95.24 101.457 94.647 102.05 93.916 102.05 L 90.404 102.05 C 89.673 102.05 89.08 101.457 89.08 100.726 L 89.08 97.214 C 89.08 96.483 89.673 95.89 90.404 95.89 Z" style="stroke:none;fill:#EBEBEB;stroke-miterlimit:10;"/><path d="M 92.915 115.91 L 97.595 115.91 C 98.569 115.91 99.36 116.701 99.36 117.675 L 99.36 122.355 C 99.36 123.329 98.569 124.12 97.595 124.12 L 92.915 124.12 C 91.941 124.12 91.15 123.329 91.15 122.355 L 91.15 117.675 C 91.15 116.701 91.941 115.91 92.915 115.91 Z" style="stroke:none;fill:#EBEBEB;stroke-miterlimit:10;"/><line x1="104.614" y1="131.303" x2="158.544" y2="131.303" vector-effect="non-scaling-stroke" stroke-width="2" stroke="rgb(166,166,166)" stroke-linejoin="miter" stroke-linecap="round" stroke-miterlimit="3"/><path d="M 92.915 127.2 L 97.595 127.2 C 98.569 127.2 99.36 127.991 99.36 128.965 L 99.36 133.645 C 99.36 134.619 98.569 135.41 97.595 135.41 L 92.915 135.41 C 91.941 135.41 91.15 134.619 91.15 133.645 L 91.15 128.965 C 91.15 127.991 91.941 127.2 92.915 127.2 Z" style="stroke:none;fill:#EBEBEB;stroke-miterlimit:10;"/><line x1="104.614" y1="142.592" x2="158.544" y2="142.592" vector-effect="non-scaling-stroke" stroke-width="2" stroke="rgb(166,166,166)" stroke-linejoin="miter" stroke-linecap="round" stroke-miterlimit="3"/><path d="M 92.915 138.49 L 97.595 138.49 C 98.569 138.49 99.36 139.281 99.36 140.255 L 99.36 144.935 C 99.36 145.909 98.569 146.7 97.595 146.7 L 92.915 146.7 C 91.941 146.7 91.15 145.909 91.15 144.935 L 91.15 140.255 C 91.15 139.281 91.941 138.49 92.915 138.49 Z" style="stroke:none;fill:#EBEBEB;stroke-miterlimit:10;"/><line x1="104.766" y1="165.171" x2="158.696" y2="165.171" vector-effect="non-scaling-stroke" stroke-width="2" stroke="rgb(166,166,166)" stroke-linejoin="miter" stroke-linecap="round" stroke-miterlimit="3"/><path d="M 93.065 161.07 L 97.745 161.07 C 98.719 161.07 99.51 161.861 99.51 162.835 L 99.51 167.515 C 99.51 168.489 98.719 169.28 97.745 169.28 L 93.065 169.28 C 92.091 169.28 91.3 168.489 91.3 167.515 L 91.3 162.835 C 91.3 161.861 92.091 161.07 93.065 161.07 Z" style="stroke:none;fill:#EBEBEB;stroke-miterlimit:10;"/><line x1="144.321" y1="73.316" x2="160.047" y2="73.316" vector-effect="non-scaling-stroke" stroke-width="2" stroke="rgb(166,166,166)" stroke-linejoin="miter" stroke-linecap="round" stroke-miterlimit="3"/><path d="M 149.397 58.95 L 154.663 58.95 C 155.76 58.95 156.65 59.839 156.65 60.934 L 156.65 66.196 C 156.65 67.291 155.76 68.18 154.663 68.18 L 149.397 68.18 C 148.3 68.18 147.41 67.291 147.41 66.196 L 147.41 60.934 C 147.41 59.839 148.3 58.95 149.397 58.95 Z" style="stroke:none;fill:#FF8300;stroke-miterlimit:10;"/><line x1="36" y1="38.5" x2="73" y2="38.5" vector-effect="non-scaling-stroke" stroke-width="1.5" stroke="rgb(189,189,189)" stroke-linejoin="miter" stroke-linecap="square" stroke-miterlimit="3"/><line x1="36" y1="66.5" x2="73" y2="66.5" vector-effect="non-scaling-stroke" stroke-width="1.5" stroke="rgb(189,189,189)" stroke-linejoin="miter" stroke-linecap="square" stroke-miterlimit="3"/><line x1="178" y1="39.191" x2="215" y2="39.191" vector-effect="non-scaling-stroke" stroke-width="1.5" stroke="rgb(189,189,189)" stroke-linejoin="miter" stroke-linecap="square" stroke-miterlimit="3"/><line x1="178" y1="95.191" x2="215" y2="95.191" vector-effect="non-scaling-stroke" stroke-width="1.5" stroke="rgb(189,189,189)" stroke-linejoin="miter" stroke-linecap="square" stroke-miterlimit="3"/><line x1="36" y1="96" x2="73" y2="96" vector-effect="non-scaling-stroke" stroke-width="1.5" stroke="rgb(189,189,189)" stroke-linejoin="miter" stroke-linecap="square" stroke-miterlimit="3"/><line x1="36" y1="130.5" x2="73" y2="130.5" vector-effect="non-scaling-stroke" stroke-width="1.5" stroke="rgb(189,189,189)" stroke-linejoin="miter" stroke-linecap="square" stroke-miterlimit="3"/><line x1="178" y1="164.191" x2="215" y2="164.191" vector-effect="non-scaling-stroke" stroke-width="1.5" stroke="rgb(189,189,189)" stroke-linejoin="miter" stroke-linecap="square" stroke-miterlimit="3"/><circle vector-effect="non-scaling-stroke" cx="23.5" cy="38.5" r="7.5" fill="rgb(189,189,189)"/><circle vector-effect="non-scaling-stroke" cx="23.5" cy="66.50000000000001" r="7.5" fill="rgb(189,189,189)"/><circle vector-effect="non-scaling-stroke" cx="226.99999999999997" cy="39.19091796875" r="7.5" fill="rgb(189,189,189)"/><circle vector-effect="non-scaling-stroke" cx="226.99999999999997" cy="95.19091796875" r="7.5" fill="rgb(189,189,189)"/><circle vector-effect="non-scaling-stroke" cx="23.5" cy="96.00000000000001" r="7.5" fill="rgb(189,189,189)"/><circle vector-effect="non-scaling-stroke" cx="23.5" cy="130.5" r="7.5" fill="rgb(189,189,189)"/><circle vector-effect="non-scaling-stroke" cx="226.99999999999997" cy="164.19091796875" r="7.5" fill="rgb(189,189,189)"/><g clip-path="url(#_clipPath_eoXy04j2DY2L01sOyvykfDs3YfPPID5M)"><text transform="matrix(1,0,0,1,20.146,42.379)" style="font-family:'Open Sans';font-weight:700;font-size:10px;font-style:normal;fill:#000000;stroke:none;">1</text></g><defs><clipPath id="_clipPath_eoXy04j2DY2L01sOyvykfDs3YfPPID5M"><rect x="0" y="0" width="8" height="13.618" transform="matrix(1,0,0,1,20,31.691)"/></clipPath></defs><g clip-path="url(#_clipPath_yxkNLsGqKd0AYnNltU2Vosvnadf8vO0N)"><text transform="matrix(1,0,0,1,20.146,70.379)" style="font-family:'Open Sans';font-weight:700;font-size:10px;font-style:normal;fill:#000000;stroke:none;">3</text></g><defs><clipPath id="_clipPath_yxkNLsGqKd0AYnNltU2Vosvnadf8vO0N"><rect x="0" y="0" width="8" height="13.618" transform="matrix(1,0,0,1,20,59.691)"/></clipPath></defs><g clip-path="url(#_clipPath_V9waiDBitTxvrrHKa4CtqALh5rGFUUFs)"><text transform="matrix(1,0,0,1,223.646,43.07)" style="font-family:'Open Sans';font-weight:700;font-size:10px;font-style:normal;fill:#000000;stroke:none;">2</text></g><defs><clipPath id="_clipPath_V9waiDBitTxvrrHKa4CtqALh5rGFUUFs"><rect x="0" y="0" width="8" height="13.618" transform="matrix(1,0,0,1,223.5,32.382)"/></clipPath></defs><g clip-path="url(#_clipPath_itKNrTNDF0lhyrwfaj50WmX05iyEpfBW)"><text transform="matrix(1,0,0,1,223.646,99.07)" style="font-family:'Open Sans';font-weight:700;font-size:10px;font-style:normal;fill:#000000;stroke:none;">5</text></g><defs><clipPath id="_clipPath_itKNrTNDF0lhyrwfaj50WmX05iyEpfBW"><rect x="0" y="0" width="8" height="13.618" transform="matrix(1,0,0,1,223.5,88.382)"/></clipPath></defs><g clip-path="url(#_clipPath_aviWtN7B7rb2x5cBEW0aq2rn7psz0HnI)"><text transform="matrix(1,0,0,1,20.146,99.879)" style="font-family:'Open Sans';font-weight:700;font-size:10px;font-style:normal;fill:#000000;stroke:none;">4</text></g><defs><clipPath id="_clipPath_aviWtN7B7rb2x5cBEW0aq2rn7psz0HnI"><rect x="0" y="0" width="8" height="13.618" transform="matrix(1,0,0,1,20,89.191)"/></clipPath></defs><g clip-path="url(#_clipPath_XMRF94mOdhBxAFKqvq9ogFkuBNmFQblw)"><text transform="matrix(1,0,0,1,20.146,134.379)" style="font-family:'Open Sans';font-weight:700;font-size:10px;font-style:normal;fill:#000000;stroke:none;">6</text></g><defs><clipPath id="_clipPath_XMRF94mOdhBxAFKqvq9ogFkuBNmFQblw"><rect x="0" y="0" width="8" height="13.618" transform="matrix(1,0,0,1,20,123.691)"/></clipPath></defs><g clip-path="url(#_clipPath_NKI99B6c047Rp7WDqtppprR7rtrxgj5s)"><text transform="matrix(1,0,0,1,223.646,168.07)" style="font-family:'Open Sans';font-weight:700;font-size:10px;font-style:normal;fill:#000000;stroke:none;">7</text></g><defs><clipPath id="_clipPath_NKI99B6c047Rp7WDqtppprR7rtrxgj5s"><rect x="0" y="0" width="8" height="13.618" transform="matrix(1,0,0,1,223.5,157.382)"/></clipPath></defs></g></svg>