<?xml version="1.0" encoding="UTF-8" standalone="no"?><!-- Generator: Gravit.io --><svg xmlns="http://www.w3.org/2000/svg" xmlns:xlink="http://www.w3.org/1999/xlink" style="isolation:isolate" viewBox="0 0 350 200" width="350pt" height="200pt"><defs><clipPath id="_clipPath_qLUFlnXK6CGxuLJx9AnhVDocGHV8zkOW"><rect width="350" height="200"/></clipPath></defs><g clip-path="url(#_clipPath_qLUFlnXK6CGxuLJx9AnhVDocGHV8zkOW)"><rect width="350" height="200" style="fill:rgb(0,0,0)"/><path d="M 81.919 14 L 152.081 14 C 158.107 14 163 18.893 163 24.919 L 163 175.081 C 163 181.107 158.107 186 152.081 186 L 81.919 186 C 75.893 186 71 181.107 71 175.081 L 71 24.919 C 71 18.893 75.893 14 81.919 14 Z" style="fill:none;stroke:#999989;stroke-width:2;stroke-linecap:square;stroke-miterlimit:2;"/><path d="M 80.241 20 L 153.759 20 C 155.824 20 157.5 21.676 157.5 23.741 L 157.5 24.259 C 157.5 26.324 155.824 28 153.759 28 L 80.241 28 C 78.176 28 76.5 26.324 76.5 24.259 L 76.5 23.741 C 76.5 21.676 78.176 20 80.241 20 Z" style="stroke:none;fill:#FF8300;stroke-miterlimit:10;"/><line x1="85.661" y1="24" x2="148.405" y2="24" vector-effect="non-scaling-stroke" stroke-width="2" stroke="rgb(255,255,255)" stroke-linejoin="miter" stroke-linecap="round" stroke-miterlimit="3"/><path d="M 81.5 31 L 152.5 31 C 155.26 31 157.5 33.24 157.5 36 L 157.5 40 C 157.5 42.76 155.26 45 152.5 45 L 81.5 45 C 78.74 45 76.5 42.76 76.5 40 L 76.5 36 C 76.5 33.24 78.74 31 81.5 31 Z" style="stroke:none;fill:#3B3B3B;stroke-miterlimit:10;"/><path d="M 81.72 34 L 86.28 34 C 87.229 34 88 34.771 88 35.72 L 88 40.28 C 88 41.229 87.229 42 86.28 42 L 81.72 42 C 80.771 42 80 41.229 80 40.28 L 80 35.72 C 80 34.771 80.771 34 81.72 34 Z" style="stroke:none;fill:#EBEBEB;stroke-miterlimit:10;"/><path d="M 149.7 35 L 153.12 35 C 153.832 35 154.41 35.578 154.41 36.29 L 154.41 39.71 C 154.41 40.422 153.832 41 153.12 41 L 149.7 41 C 148.988 41 148.41 40.422 148.41 39.71 L 148.41 36.29 C 148.41 35.578 148.988 35 149.7 35 Z" style="stroke:none;fill:#EBEBEB;stroke-miterlimit:10;"/><path d="M 91.86 38 L 94.14 38 C 94.615 38 95 38.385 95 38.86 L 95 41.14 C 95 41.615 94.615 42 94.14 42 L 91.86 42 C 91.385 42 91 41.615 91 41.14 L 91 38.86 C 91 38.385 91.385 38 91.86 38 Z" style="stroke:none;fill:#EBEBEB;stroke-miterlimit:10;"/><line x1="92" y1="35" x2="126.672" y2="35" vector-effect="non-scaling-stroke" stroke-width="2" stroke="rgb(166,166,166)" stroke-linejoin="miter" stroke-linecap="round" stroke-miterlimit="3"/><line x1="98" y1="40" x2="118" y2="40" vector-effect="non-scaling-stroke" stroke-width="2" stroke="rgb(166,166,166)" stroke-linejoin="miter" stroke-linecap="round" stroke-miterlimit="3"/><path d="M 204.39 22.75 L 275.39 22.75 C 278.15 22.75 280.39 24.99 280.39 27.75 L 280.39 31.75 C 280.39 34.51 278.15 36.75 275.39 36.75 L 204.39 36.75 C 201.63 36.75 199.39 34.51 199.39 31.75 L 199.39 27.75 C 199.39 24.99 201.63 22.75 204.39 22.75 Z" style="stroke:none;fill:#3B3B3B;stroke-miterlimit:10;"/><path d="M 204.61 25.75 L 209.17 25.75 C 210.119 25.75 210.89 26.521 210.89 27.47 L 210.89 32.03 C 210.89 32.979 210.119 33.75 209.17 33.75 L 204.61 33.75 C 203.661 33.75 202.89 32.979 202.89 32.03 L 202.89 27.47 C 202.89 26.521 203.661 25.75 204.61 25.75 Z" style="stroke:none;fill:#00C853;stroke-miterlimit:10;"/><path d="M 272.59 26.75 L 276.01 26.75 C 276.722 26.75 277.3 27.328 277.3 28.04 L 277.3 31.46 C 277.3 32.172 276.722 32.75 276.01 32.75 L 272.59 32.75 C 271.878 32.75 271.3 32.172 271.3 31.46 L 271.3 28.04 C 271.3 27.328 271.878 26.75 272.59 26.75 Z" style="stroke:none;fill:#EBEBEB;stroke-miterlimit:10;"/><path d="M 214.75 29.75 L 217.03 29.75 C 217.505 29.75 217.89 30.135 217.89 30.61 L 217.89 32.89 C 217.89 33.365 217.505 33.75 217.03 33.75 L 214.75 33.75 C 214.275 33.75 213.89 33.365 213.89 32.89 L 213.89 30.61 C 213.89 30.135 214.275 29.75 214.75 29.75 Z" style="stroke:none;fill:#EBEBEB;stroke-miterlimit:10;"/><line x1="214.891" y1="26.75" x2="249.563" y2="26.75" vector-effect="non-scaling-stroke" stroke-width="2" stroke="rgb(166,166,166)" stroke-linejoin="miter" stroke-linecap="round" stroke-miterlimit="3"/><line x1="220.891" y1="31.75" x2="240.891" y2="31.75" vector-effect="non-scaling-stroke" stroke-width="2" stroke="rgb(166,166,166)" stroke-linejoin="miter" stroke-linecap="round" stroke-miterlimit="3"/><path d="M 204.39 41.75 L 275.39 41.75 C 278.15 41.75 280.39 43.99 280.39 46.75 L 280.39 50.75 C 280.39 53.51 278.15 55.75 275.39 55.75 L 204.39 55.75 C 201.63 55.75 199.39 53.51 199.39 50.75 L 199.39 46.75 C 199.39 43.99 201.63 41.75 204.39 41.75 Z" style="stroke:none;fill:#3B3B3B;stroke-miterlimit:10;"/><path d="M 204.61 44.75 L 209.17 44.75 C 210.119 44.75 210.89 45.521 210.89 46.47 L 210.89 51.03 C 210.89 51.979 210.119 52.75 209.17 52.75 L 204.61 52.75 C 203.661 52.75 202.89 51.979 202.89 51.03 L 202.89 46.47 C 202.89 45.521 203.661 44.75 204.61 44.75 Z" style="stroke:none;fill:#FFD600;stroke-miterlimit:10;"/><path d="M 272.59 45.75 L 276.01 45.75 C 276.722 45.75 277.3 46.328 277.3 47.04 L 277.3 50.46 C 277.3 51.172 276.722 51.75 276.01 51.75 L 272.59 51.75 C 271.878 51.75 271.3 51.172 271.3 50.46 L 271.3 47.04 C 271.3 46.328 271.878 45.75 272.59 45.75 Z" style="stroke:none;fill:#EBEBEB;stroke-miterlimit:10;"/><path d="M 214.75 48.75 L 217.03 48.75 C 217.505 48.75 217.89 49.135 217.89 49.61 L 217.89 51.89 C 217.89 52.365 217.505 52.75 217.03 52.75 L 214.75 52.75 C 214.275 52.75 213.89 52.365 213.89 51.89 L 213.89 49.61 C 213.89 49.135 214.275 48.75 214.75 48.75 Z" style="stroke:none;fill:#EBEBEB;stroke-miterlimit:10;"/><line x1="214.891" y1="45.75" x2="249.563" y2="45.75" vector-effect="non-scaling-stroke" stroke-width="2" stroke="rgb(166,166,166)" stroke-linejoin="miter" stroke-linecap="round" stroke-miterlimit="3"/><line x1="220.891" y1="50.75" x2="240.891" y2="50.75" vector-effect="non-scaling-stroke" stroke-width="2" stroke="rgb(166,166,166)" stroke-linejoin="miter" stroke-linecap="round" stroke-miterlimit="3"/><path d="M 204 60.63 L 275 60.63 C 277.76 60.63 280 62.87 280 65.63 L 280 69.63 C 280 72.39 277.76 74.63 275 74.63 L 204 74.63 C 201.24 74.63 199 72.39 199 69.63 L 199 65.63 C 199 62.87 201.24 60.63 204 60.63 Z" style="stroke:none;fill:#3B3B3B;stroke-miterlimit:10;"/><path d="M 204.22 63.63 L 208.78 63.63 C 209.729 63.63 210.5 64.401 210.5 65.35 L 210.5 69.91 C 210.5 70.859 209.729 71.63 208.78 71.63 L 204.22 71.63 C 203.271 71.63 202.5 70.859 202.5 69.91 L 202.5 65.35 C 202.5 64.401 203.271 63.63 204.22 63.63 Z" style="stroke:none;fill:#D50000;stroke-miterlimit:10;"/><path d="M 272.2 64.63 L 275.62 64.63 C 276.332 64.63 276.91 65.208 276.91 65.92 L 276.91 69.34 C 276.91 70.052 276.332 70.63 275.62 70.63 L 272.2 70.63 C 271.488 70.63 270.91 70.052 270.91 69.34 L 270.91 65.92 C 270.91 65.208 271.488 64.63 272.2 64.63 Z" style="stroke:none;fill:#EBEBEB;stroke-miterlimit:10;"/><path d="M 214.36 67.63 L 216.64 67.63 C 217.115 67.63 217.5 68.015 217.5 68.49 L 217.5 70.77 C 217.5 71.245 217.115 71.63 216.64 71.63 L 214.36 71.63 C 213.885 71.63 213.5 71.245 213.5 70.77 L 213.5 68.49 C 213.5 68.015 213.885 67.63 214.36 67.63 Z" style="stroke:none;fill:#EBEBEB;stroke-miterlimit:10;"/><line x1="214.5" y1="64.631" x2="249.172" y2="64.631" vector-effect="non-scaling-stroke" stroke-width="2" stroke="rgb(166,166,166)" stroke-linejoin="miter" stroke-linecap="round" stroke-miterlimit="3"/><line x1="220.5" y1="69.631" x2="240.5" y2="69.631" vector-effect="non-scaling-stroke" stroke-width="2" stroke="rgb(166,166,166)" stroke-linejoin="miter" stroke-linecap="round" stroke-miterlimit="3"/><path d="M 81.5 107 L 152.5 107 C 155.26 107 157.5 109.24 157.5 112 L 157.5 116 C 157.5 118.76 155.26 121 152.5 121 L 81.5 121 C 78.74 121 76.5 118.76 76.5 116 L 76.5 112 C 76.5 109.24 78.74 107 81.5 107 Z" style="stroke:none;fill:#3B3B3B;stroke-miterlimit:10;"/><path d="M 81.72 110 L 86.28 110 C 87.229 110 88 110.771 88 111.72 L 88 116.28 C 88 117.229 87.229 118 86.28 118 L 81.72 118 C 80.771 118 80 117.229 80 116.28 L 80 111.72 C 80 110.771 80.771 110 81.72 110 Z" style="stroke:none;fill:#EBEBEB;stroke-miterlimit:10;"/><path d="M 149.7 111 L 153.12 111 C 153.832 111 154.41 111.578 154.41 112.29 L 154.41 115.71 C 154.41 116.422 153.832 117 153.12 117 L 149.7 117 C 148.988 117 148.41 116.422 148.41 115.71 L 148.41 112.29 C 148.41 111.578 148.988 111 149.7 111 Z" style="stroke:none;fill:#EBEBEB;stroke-miterlimit:10;"/><path d="M 91.86 114 L 94.14 114 C 94.615 114 95 114.385 95 114.86 L 95 117.14 C 95 117.615 94.615 118 94.14 118 L 91.86 118 C 91.385 118 91 117.615 91 117.14 L 91 114.86 C 91 114.385 91.385 114 91.86 114 Z" style="stroke:none;fill:#EBEBEB;stroke-miterlimit:10;"/><line x1="92" y1="111" x2="126.672" y2="111" vector-effect="non-scaling-stroke" stroke-width="2" stroke="rgb(166,166,166)" stroke-linejoin="miter" stroke-linecap="round" stroke-miterlimit="3"/><line x1="98" y1="116" x2="118" y2="116" vector-effect="non-scaling-stroke" stroke-width="2" stroke="rgb(166,166,166)" stroke-linejoin="miter" stroke-linecap="round" stroke-miterlimit="3"/><path d="M 81.5 48 L 152.5 48 C 155.26 48 157.5 50.24 157.5 53 L 157.5 99 C 157.5 101.76 155.26 104 152.5 104 L 81.5 104 C 78.74 104 76.5 101.76 76.5 99 L 76.5 53 C 76.5 50.24 78.74 48 81.5 48 Z" style="stroke:none;fill:#3B3B3B;stroke-miterlimit:10;"/><line x1="78.723" y1="62" x2="155.277" y2="62" vector-effect="non-scaling-stroke" stroke-width="1" stroke="rgb(235,235,235)" stroke-linejoin="miter" stroke-linecap="round" stroke-miterlimit="3"/><path d="M 151.551 65.25 L 154.259 65.25 C 154.822 65.25 155.28 65.708 155.28 66.271 L 155.28 68.979 C 155.28 69.542 154.822 70 154.259 70 L 151.551 70 C 150.988 70 150.53 69.542 150.53 68.979 L 150.53 66.271 C 150.53 65.708 150.988 65.25 151.551 65.25 Z" style="stroke:none;fill:#EBEBEB;stroke-miterlimit:10;"/><path d="M 81.72 51 L 86.28 51 C 87.229 51 88 51.771 88 52.72 L 88 57.28 C 88 58.229 87.229 59 86.28 59 L 81.72 59 C 80.771 59 80 58.229 80 57.28 L 80 52.72 C 80 51.771 80.771 51 81.72 51 Z" style="stroke:none;fill:#EBEBEB;stroke-miterlimit:10;"/><path d="M 149.7 52 L 153.12 52 C 153.832 52 154.41 52.578 154.41 53.29 L 154.41 56.71 C 154.41 57.422 153.832 58 153.12 58 L 149.7 58 C 148.988 58 148.41 57.422 148.41 56.71 L 148.41 53.29 C 148.41 52.578 148.988 52 149.7 52 Z" style="stroke:none;fill:#EBEBEB;stroke-miterlimit:10;"/><path d="M 91.86 55 L 94.14 55 C 94.615 55 95 55.385 95 55.86 L 95 58.14 C 95 58.615 94.615 59 94.14 59 L 91.86 59 C 91.385 59 91 58.615 91 58.14 L 91 55.86 C 91 55.385 91.385 55 91.86 55 Z" style="stroke:none;fill:#EBEBEB;stroke-miterlimit:10;"/><line x1="92" y1="52" x2="126.672" y2="52" vector-effect="non-scaling-stroke" stroke-width="2" stroke="rgb(166,166,166)" stroke-linejoin="miter" stroke-linecap="round" stroke-miterlimit="3"/><line x1="80" y1="66" x2="123.624" y2="66" vector-effect="non-scaling-stroke" stroke-width="2" stroke="rgb(166,166,166)" stroke-linejoin="miter" stroke-linecap="round" stroke-miterlimit="3"/><line x1="80" y1="71" x2="117" y2="71" vector-effect="non-scaling-stroke" stroke-width="2" stroke="rgb(166,166,166)" stroke-linejoin="miter" stroke-linecap="round" stroke-miterlimit="3"/><line x1="80" y1="75" x2="117" y2="75" vector-effect="non-scaling-stroke" stroke-width="2" stroke="rgb(166,166,166)" stroke-linejoin="miter" stroke-linecap="round" stroke-miterlimit="3"/><line x1="80" y1="79" x2="117" y2="79" vector-effect="non-scaling-stroke" stroke-width="2" stroke="rgb(166,166,166)" stroke-linejoin="miter" stroke-linecap="round" stroke-miterlimit="3"/><line x1="80" y1="83" x2="117" y2="83" vector-effect="non-scaling-stroke" stroke-width="2" stroke="rgb(166,166,166)" stroke-linejoin="miter" stroke-linecap="round" stroke-miterlimit="3"/><line x1="80" y1="87" x2="117" y2="87" vector-effect="non-scaling-stroke" stroke-width="2" stroke="rgb(166,166,166)" stroke-linejoin="miter" stroke-linecap="round" stroke-miterlimit="3"/><line x1="80" y1="91" x2="117" y2="91" vector-effect="non-scaling-stroke" stroke-width="2" stroke="rgb(166,166,166)" stroke-linejoin="miter" stroke-linecap="round" stroke-miterlimit="3"/><line x1="80" y1="95" x2="117" y2="95" vector-effect="non-scaling-stroke" stroke-width="2" stroke="rgb(166,166,166)" stroke-linejoin="miter" stroke-linecap="round" stroke-miterlimit="3"/><line x1="80" y1="99" x2="117" y2="99" vector-effect="non-scaling-stroke" stroke-width="2" stroke="rgb(166,166,166)" stroke-linejoin="miter" stroke-linecap="round" stroke-miterlimit="3"/><line x1="98" y1="57" x2="118" y2="57" vector-effect="non-scaling-stroke" stroke-width="2" stroke="rgb(166,166,166)" stroke-linejoin="miter" stroke-linecap="round" stroke-miterlimit="3"/><path d="M 81.5 124 L 152.5 124 C 155.26 124 157.5 126.24 157.5 129 L 157.5 133 C 157.5 135.76 155.26 138 152.5 138 L 81.5 138 C 78.74 138 76.5 135.76 76.5 133 L 76.5 129 C 76.5 126.24 78.74 124 81.5 124 Z" style="stroke:none;fill:#3B3B3B;stroke-miterlimit:10;"/><path d="M 81.72 127 L 86.28 127 C 87.229 127 88 127.771 88 128.72 L 88 133.28 C 88 134.229 87.229 135 86.28 135 L 81.72 135 C 80.771 135 80 134.229 80 133.28 L 80 128.72 C 80 127.771 80.771 127 81.72 127 Z" style="stroke:none;fill:#EBEBEB;stroke-miterlimit:10;"/><path d="M 149.7 128 L 153.12 128 C 153.832 128 154.41 128.578 154.41 129.29 L 154.41 132.71 C 154.41 133.422 153.832 134 153.12 134 L 149.7 134 C 148.988 134 148.41 133.422 148.41 132.71 L 148.41 129.29 C 148.41 128.578 148.988 128 149.7 128 Z" style="stroke:none;fill:#EBEBEB;stroke-miterlimit:10;"/><path d="M 91.86 131 L 94.14 131 C 94.615 131 95 131.385 95 131.86 L 95 134.14 C 95 134.615 94.615 135 94.14 135 L 91.86 135 C 91.385 135 91 134.615 91 134.14 L 91 131.86 C 91 131.385 91.385 131 91.86 131 Z" style="stroke:none;fill:#EBEBEB;stroke-miterlimit:10;"/><line x1="92" y1="128" x2="126.672" y2="128" vector-effect="non-scaling-stroke" stroke-width="2" stroke="rgb(166,166,166)" stroke-linejoin="miter" stroke-linecap="round" stroke-miterlimit="3"/><line x1="98" y1="133" x2="118" y2="133" vector-effect="non-scaling-stroke" stroke-width="2" stroke="rgb(166,166,166)" stroke-linejoin="miter" stroke-linecap="round" stroke-miterlimit="3"/><line x1="44.858" y1="23.75" x2="63" y2="23.75" vector-effect="non-scaling-stroke" stroke-width="1.5" stroke="rgb(189,189,189)" stroke-linejoin="miter" stroke-linecap="square" stroke-miterlimit="3"/><circle vector-effect="non-scaling-stroke" cx="32.35752487182617" cy="23.749999999999993" r="7.5" fill="rgb(189,189,189)"/><g clip-path="url(#_clipPath_A0J6IsZAfvAtQY4OdkVmEfJFNM4SzWR7)"><text transform="matrix(1,0,0,1,29.004,27.629)" style="font-family:'Open Sans';font-weight:700;font-size:10px;font-style:normal;fill:#000000;stroke:none;">1</text></g><defs><clipPath id="_clipPath_A0J6IsZAfvAtQY4OdkVmEfJFNM4SzWR7"><rect x="0" y="0" width="8" height="13.618" transform="matrix(1,0,0,1,28.858,16.941)"/></clipPath></defs><line x1="44.858" y1="55.25" x2="63" y2="55.25" vector-effect="non-scaling-stroke" stroke-width="1.5" stroke="rgb(189,189,189)" stroke-linejoin="miter" stroke-linecap="square" stroke-miterlimit="3"/><circle vector-effect="non-scaling-stroke" cx="32.35752487182617" cy="55.25" r="7.5" fill="rgb(189,189,189)"/><g clip-path="url(#_clipPath_QYPfrS8c3tqIKalxXSGiCLxYwOMXzwr3)"><text transform="matrix(1,0,0,1,29.004,59.129)" style="font-family:'Open Sans';font-weight:700;font-size:10px;font-style:normal;fill:#000000;stroke:none;">2</text></g><defs><clipPath id="_clipPath_QYPfrS8c3tqIKalxXSGiCLxYwOMXzwr3"><rect x="0" y="0" width="8" height="13.618" transform="matrix(1,0,0,1,28.858,48.441)"/></clipPath></defs><line x1="288.142" y1="29.75" x2="306.285" y2="29.75" vector-effect="non-scaling-stroke" stroke-width="1.5" stroke="rgb(189,189,189)" stroke-linejoin="miter" stroke-linecap="square" stroke-miterlimit="3"/><circle vector-effect="non-scaling-stroke" cx="318.5" cy="29.249999999999986" r="7.5" fill="rgb(189,189,189)"/><g clip-path="url(#_clipPath_UneHWGiaUDBX5UT4heUwH95o6Taz9gCQ)"><text transform="matrix(1,0,0,1,313.037,32.354)" style="font-family:'Open Sans';font-weight:700;font-size:8px;font-style:normal;fill:#000000;stroke:none;">*1</text></g><defs><clipPath id="_clipPath_UneHWGiaUDBX5UT4heUwH95o6Taz9gCQ"><rect x="0" y="0" width="15" height="15" transform="matrix(1,0,0,1,311,21.75)"/></clipPath></defs><line x1="288.142" y1="49.25" x2="306.285" y2="49.25" vector-effect="non-scaling-stroke" stroke-width="1.5" stroke="rgb(189,189,189)" stroke-linejoin="miter" stroke-linecap="square" stroke-miterlimit="3"/><circle vector-effect="non-scaling-stroke" cx="318.5" cy="48.750000000000014" r="7.5" fill="rgb(189,189,189)"/><g clip-path="url(#_clipPath_MpC3lbzy4eCWnvvvorrSpcvBoXd0paLB)"><text transform="matrix(1,0,0,1,313.037,51.854)" style="font-family:'Open Sans';font-weight:700;font-size:8px;font-style:normal;fill:#000000;stroke:none;">*2</text></g><defs><clipPath id="_clipPath_MpC3lbzy4eCWnvvvorrSpcvBoXd0paLB"><rect x="0" y="0" width="15" height="15" transform="matrix(1,0,0,1,311,41.25)"/></clipPath></defs><line x1="288.142" y1="68.25" x2="306.285" y2="68.25" vector-effect="non-scaling-stroke" stroke-width="1.5" stroke="rgb(189,189,189)" stroke-linejoin="miter" stroke-linecap="square" stroke-miterlimit="3"/><circle vector-effect="non-scaling-stroke" cx="318.5" cy="67.75000000000003" r="7.5" fill="rgb(189,189,189)"/><g clip-path="url(#_clipPath_KK6cbEqYJw0JEtAJJzEHsVLLWlZTbZwF)"><text transform="matrix(1,0,0,1,313.037,70.854)" style="font-family:'Open Sans';font-weight:700;font-size:8px;font-style:normal;fill:#000000;stroke:none;">*3</text></g><defs><clipPath id="_clipPath_KK6cbEqYJw0JEtAJJzEHsVLLWlZTbZwF"><rect x="0" y="0" width="15" height="15" transform="matrix(1,0,0,1,311,60.25)"/></clipPath></defs></g></svg>