<?xml version="1.0" encoding="UTF-8" standalone="no"?><!-- Generator: Gravit.io --><svg xmlns="http://www.w3.org/2000/svg" xmlns:xlink="http://www.w3.org/1999/xlink" style="isolation:isolate" viewBox="0 0 250 170" width="250pt" height="170pt"><defs><clipPath id="_clipPath_1m0AtKQO696EuNqPpenUMiBz7Emke3sz"><rect width="250" height="170"/></clipPath></defs><g clip-path="url(#_clipPath_1m0AtKQO696EuNqPpenUMiBz7Emke3sz)"><rect width="250" height="170" style="fill:rgb(0,0,0)"/><path d="M 82.707 66.64 L 167.293 66.64 C 170.581 66.64 173.25 69.309 173.25 72.597 L 173.25 127.403 C 173.25 130.691 170.581 133.36 167.293 133.36 L 82.707 133.36 C 79.419 133.36 76.75 130.691 76.75 127.403 L 76.75 72.597 C 76.75 69.309 79.419 66.64 82.707 66.64 Z" style="stroke:none;fill:#3B3B3B;stroke-miterlimit:10;"/><line x1="79.399" y1="83.321" x2="170.601" y2="83.321" vector-effect="non-scaling-stroke" stroke-width="1" stroke="rgb(235,235,235)" stroke-linejoin="miter" stroke-linecap="round" stroke-miterlimit="3"/><path d="M 166.157 87.19 L 169.383 87.19 C 170.055 87.19 170.6 87.735 170.6 88.407 L 170.6 91.633 C 170.6 92.305 170.055 92.85 169.383 92.85 L 166.157 92.85 C 165.485 92.85 164.94 92.305 164.94 91.633 L 164.94 88.407 C 164.94 87.735 165.485 87.19 166.157 87.19 Z" style="stroke:none;fill:#EBEBEB;stroke-miterlimit:10;"/><path d="M 82.969 70.22 L 88.401 70.22 C 89.532 70.22 90.45 71.138 90.45 72.269 L 90.45 77.701 C 90.45 78.832 89.532 79.75 88.401 79.75 L 82.969 79.75 C 81.838 79.75 80.92 78.832 80.92 77.701 L 80.92 72.269 C 80.92 71.138 81.838 70.22 82.969 70.22 Z" style="stroke:none;fill:#EBEBEB;stroke-miterlimit:10;"/><path d="M 163.947 71.41 L 168.023 71.41 C 168.871 71.41 169.56 72.099 169.56 72.947 L 169.56 77.023 C 169.56 77.871 168.871 78.56 168.023 78.56 L 163.947 78.56 C 163.099 78.56 162.41 77.871 162.41 77.023 L 162.41 72.947 C 162.41 72.099 163.099 71.41 163.947 71.41 Z" style="stroke:none;fill:#EBEBEB;stroke-miterlimit:10;"/><path d="M 95.046 74.98 L 97.764 74.98 C 98.33 74.98 98.79 75.44 98.79 76.006 L 98.79 78.724 C 98.79 79.29 98.33 79.75 97.764 79.75 L 95.046 79.75 C 94.48 79.75 94.02 79.29 94.02 78.724 L 94.02 76.006 C 94.02 75.44 94.48 74.98 95.046 74.98 Z" style="stroke:none;fill:#EBEBEB;stroke-miterlimit:10;"/><line x1="95.216" y1="71.407" x2="136.523" y2="71.407" vector-effect="non-scaling-stroke" stroke-width="2" stroke="rgb(166,166,166)" stroke-linejoin="miter" stroke-linecap="round" stroke-miterlimit="3"/><line x1="80.92" y1="88.086" x2="132.891" y2="88.086" vector-effect="non-scaling-stroke" stroke-width="2" stroke="rgb(166,166,166)" stroke-linejoin="miter" stroke-linecap="round" stroke-miterlimit="3"/><line x1="80.92" y1="94.043" x2="125" y2="94.043" vector-effect="non-scaling-stroke" stroke-width="2" stroke="rgb(166,166,166)" stroke-linejoin="miter" stroke-linecap="round" stroke-miterlimit="3"/><line x1="80.92" y1="98.809" x2="125" y2="98.809" vector-effect="non-scaling-stroke" stroke-width="2" stroke="rgb(166,166,166)" stroke-linejoin="miter" stroke-linecap="round" stroke-miterlimit="3"/><line x1="80.92" y1="103.574" x2="125" y2="103.574" vector-effect="non-scaling-stroke" stroke-width="2" stroke="rgb(166,166,166)" stroke-linejoin="miter" stroke-linecap="round" stroke-miterlimit="3"/><line x1="80.92" y1="108.34" x2="125" y2="108.34" vector-effect="non-scaling-stroke" stroke-width="2" stroke="rgb(166,166,166)" stroke-linejoin="miter" stroke-linecap="round" stroke-miterlimit="3"/><line x1="80.92" y1="113.105" x2="125" y2="113.105" vector-effect="non-scaling-stroke" stroke-width="2" stroke="rgb(166,166,166)" stroke-linejoin="miter" stroke-linecap="round" stroke-miterlimit="3"/><line x1="80.92" y1="117.87" x2="125" y2="117.87" vector-effect="non-scaling-stroke" stroke-width="2" stroke="rgb(166,166,166)" stroke-linejoin="miter" stroke-linecap="round" stroke-miterlimit="3"/><line x1="80.92" y1="122.636" x2="125" y2="122.636" vector-effect="non-scaling-stroke" stroke-width="2" stroke="rgb(166,166,166)" stroke-linejoin="miter" stroke-linecap="round" stroke-miterlimit="3"/><line x1="80.92" y1="127.401" x2="125" y2="127.401" vector-effect="non-scaling-stroke" stroke-width="2" stroke="rgb(166,166,166)" stroke-linejoin="miter" stroke-linecap="round" stroke-miterlimit="3"/><line x1="102.364" y1="77.364" x2="126.191" y2="77.364" vector-effect="non-scaling-stroke" stroke-width="2" stroke="rgb(166,166,166)" stroke-linejoin="miter" stroke-linecap="round" stroke-miterlimit="3"/><line x1="99.407" y1="37.625" x2="99.407" y2="55.625" vector-effect="non-scaling-stroke" stroke-width="1.5" stroke="rgb(189,189,189)" stroke-linejoin="miter" stroke-linecap="square" stroke-miterlimit="3"/><circle vector-effect="non-scaling-stroke" cx="99.40740740740748" cy="25.5" r="7.5" fill="rgb(189,189,189)"/><g clip-path="url(#_clipPath_68GGMcwtYPfEbxj459wOV6Zq1rOcu45j)"><text transform="matrix(1,0,0,1,96.337,29.379)" style="font-family:'Open Sans';font-weight:700;font-size:10px;font-style:normal;fill:#000000;stroke:none;">c</text></g><defs><clipPath id="_clipPath_68GGMcwtYPfEbxj459wOV6Zq1rOcu45j"><rect x="0" y="0" width="8" height="13.618" transform="matrix(1,0,0,1,95.907,18.691)"/></clipPath></defs><line x1="121.407" y1="37.625" x2="121.407" y2="73.966" vector-effect="non-scaling-stroke" stroke-width="1.5" stroke="rgb(189,189,189)" stroke-linejoin="miter" stroke-linecap="square" stroke-miterlimit="3"/><circle vector-effect="non-scaling-stroke" cx="121.40740740740748" cy="25.5" r="7.5" fill="rgb(189,189,189)"/><g clip-path="url(#_clipPath_QtsTouVVDRVsc4VuC0kG8xAc5kpmd5U8)"><text transform="matrix(1,0,0,1,117.907,29.379)" style="font-family:'Open Sans';font-weight:700;font-size:10px;font-style:normal;fill:#000000;stroke:none;">d</text></g><defs><clipPath id="_clipPath_QtsTouVVDRVsc4VuC0kG8xAc5kpmd5U8"><rect x="0" y="0" width="8" height="13.618" transform="matrix(1,0,0,1,117.907,18.691)"/></clipPath></defs><line x1="184" y1="74.142" x2="202.142" y2="74.142" vector-effect="non-scaling-stroke" stroke-width="1.5" stroke="rgb(189,189,189)" stroke-linejoin="miter" stroke-linecap="square" stroke-miterlimit="3"/><circle vector-effect="non-scaling-stroke" cx="214.5" cy="74.14197530864195" r="7.5" fill="rgb(189,189,189)"/><g clip-path="url(#_clipPath_GjfU3Wjb8TnQXndJelt1Xt9YJem2wMK6)"><text transform="matrix(1,0,0,1,211.046,78.021)" style="font-family:'Open Sans';font-weight:700;font-size:10px;font-style:normal;fill:#000000;stroke:none;">e</text></g><defs><clipPath id="_clipPath_GjfU3Wjb8TnQXndJelt1Xt9YJem2wMK6"><rect x="0" y="0" width="8" height="13.618" transform="matrix(1,0,0,1,211,67.333)"/></clipPath></defs><line x1="184" y1="93.142" x2="202.142" y2="93.142" vector-effect="non-scaling-stroke" stroke-width="1.5" stroke="rgb(189,189,189)" stroke-linejoin="miter" stroke-linecap="square" stroke-miterlimit="3"/><circle vector-effect="non-scaling-stroke" cx="214.5" cy="93.14197530864195" r="7.5" fill="rgb(189,189,189)"/><g clip-path="url(#_clipPath_PbmfBZeuZo05wGh68oziI5u8ALRO6yWw)"><text transform="matrix(1,0,0,1,212.064,97.021)" style="font-family:'Open Sans';font-weight:700;font-size:10px;font-style:normal;fill:#000000;stroke:none;">f</text></g><defs><clipPath id="_clipPath_PbmfBZeuZo05wGh68oziI5u8ALRO6yWw"><rect x="0" y="0" width="8" height="13.618" transform="matrix(1,0,0,1,211,86.333)"/></clipPath></defs><line x1="47.858" y1="97.522" x2="66" y2="97.522" vector-effect="non-scaling-stroke" stroke-width="1.5" stroke="rgb(189,189,189)" stroke-linejoin="miter" stroke-linecap="square" stroke-miterlimit="3"/><circle vector-effect="non-scaling-stroke" cx="35.35752487182617" cy="97.52237654320986" r="7.5" fill="rgb(189,189,189)"/><g clip-path="url(#_clipPath_cm4RlvH5qgg7YUa8srwGCFVksweEfoMB)"><text transform="matrix(1,0,0,1,31.858,101.402)" style="font-family:'Open Sans';font-weight:700;font-size:10px;font-style:normal;fill:#000000;stroke:none;">b</text></g><defs><clipPath id="_clipPath_cm4RlvH5qgg7YUa8srwGCFVksweEfoMB"><rect x="0" y="0" width="8" height="13.618" transform="matrix(1,0,0,1,31.858,90.713)"/></clipPath></defs><line x1="47.858" y1="74.981" x2="66" y2="74.981" vector-effect="non-scaling-stroke" stroke-width="1.5" stroke="rgb(189,189,189)" stroke-linejoin="miter" stroke-linecap="square" stroke-miterlimit="3"/><circle vector-effect="non-scaling-stroke" cx="35.35752487182617" cy="74.98148148148151" r="7.5" fill="rgb(189,189,189)"/><g clip-path="url(#_clipPath_PnlCxY7ERxttKFlXCqxGb4zfiVqiNMRH)"><text transform="matrix(1,0,0,1,31.858,78.861)" style="font-family:'Open Sans';font-weight:700;font-size:10px;font-style:normal;fill:#000000;stroke:none;">a</text></g><defs><clipPath id="_clipPath_PnlCxY7ERxttKFlXCqxGb4zfiVqiNMRH"><rect x="0" y="0" width="8" height="13.618" transform="matrix(1,0,0,1,31.858,68.172)"/></clipPath></defs></g></svg>