<?xml version="1.0" encoding="UTF-8" standalone="no"?><!-- Generator: Gravit.io --><svg xmlns="http://www.w3.org/2000/svg" xmlns:xlink="http://www.w3.org/1999/xlink" style="isolation:isolate" viewBox="0 0 250 120" width="250pt" height="120pt"><defs><clipPath id="_clipPath_YubcesOIXK8ZrsHTgxWzBY9hHlSseiMg"><rect width="250" height="120"/></clipPath></defs><g clip-path="url(#_clipPath_YubcesOIXK8ZrsHTgxWzBY9hHlSseiMg)"><rect width="250" height="120" style="fill:rgb(0,0,0)"/><path d="M 69.051 73.5 L 182.089 73.5 C 186.66 73.5 190.37 77.21 190.37 81.781 L 190.37 89.219 C 190.37 93.79 186.66 97.5 182.089 97.5 L 69.051 97.5 C 64.48 97.5 60.77 93.79 60.77 89.219 L 60.77 81.781 C 60.77 77.21 64.48 73.5 69.051 73.5 Z" style="stroke:none;fill:#3B3B3B;stroke-miterlimit:10;"/><path d="M 69.122 79.1 L 76.418 79.1 C 77.937 79.1 79.17 80.333 79.17 81.852 L 79.17 89.148 C 79.17 90.667 77.937 91.9 76.418 91.9 L 69.122 91.9 C 67.603 91.9 66.37 90.667 66.37 89.148 L 66.37 81.852 C 66.37 80.333 67.603 79.1 69.122 79.1 Z" style="stroke:none;fill:#EBEBEB;stroke-miterlimit:10;"/><line x1="87.695" y1="78.7" x2="143.171" y2="78.7" vector-effect="non-scaling-stroke" stroke-width="2" stroke="rgb(166,166,166)" stroke-linejoin="miter" stroke-linecap="round" stroke-miterlimit="3"/><line x1="170.091" y1="82.7" x2="186.371" y2="82.7" vector-effect="non-scaling-stroke" stroke-width="2" stroke="rgb(166,166,166)" stroke-linejoin="miter" stroke-linecap="round" stroke-miterlimit="3"/><line x1="87.695" y1="85.9" x2="128.194" y2="85.9" vector-effect="non-scaling-stroke" stroke-width="2" stroke="rgb(166,166,166)" stroke-linejoin="miter" stroke-linecap="round" stroke-miterlimit="3"/><line x1="170.091" y1="89.1" x2="181.326" y2="89.1" vector-effect="non-scaling-stroke" stroke-width="2" stroke="rgb(166,166,166)" stroke-linejoin="miter" stroke-linecap="round" stroke-miterlimit="3"/><line x1="87.695" y1="92.3" x2="128.194" y2="92.3" vector-effect="non-scaling-stroke" stroke-width="2" stroke="rgb(166,166,166)" stroke-linejoin="miter" stroke-linecap="round" stroke-miterlimit="3"/><line x1="32.429" y1="85.5" x2="50.571" y2="85.5" vector-effect="non-scaling-stroke" stroke-width="1.5" stroke="rgb(189,189,189)" stroke-linejoin="miter" stroke-linecap="square" stroke-miterlimit="3"/><circle vector-effect="non-scaling-stroke" cx="19.928762435913086" cy="85.5" r="7.5" fill="rgb(189,189,189)"/><g clip-path="url(#_clipPath_yUYPolqDMFYtVzpzTE9puWcDPCEIcHhO)"><text transform="matrix(1,0,0,1,16.429,89.379)" style="font-family:'Open Sans';font-weight:700;font-size:10px;font-style:normal;fill:#000000;stroke:none;">a</text></g><defs><clipPath id="_clipPath_yUYPolqDMFYtVzpzTE9puWcDPCEIcHhO"><rect x="0" y="0" width="8" height="13.618" transform="matrix(1,0,0,1,16.429,78.691)"/></clipPath></defs><line x1="199.571" y1="85.5" x2="217.714" y2="85.5" vector-effect="non-scaling-stroke" stroke-width="1.5" stroke="rgb(189,189,189)" stroke-linejoin="miter" stroke-linecap="square" stroke-miterlimit="3"/><circle vector-effect="non-scaling-stroke" cx="230.07123756408694" cy="85.5" r="7.5" fill="rgb(189,189,189)"/><g clip-path="url(#_clipPath_8MHYqGq66QCiaODjJ0pFJLHHPRl8R9nZ)"><text transform="matrix(1,0,0,1,227,89.379)" style="font-family:'Open Sans';font-weight:700;font-size:10px;font-style:normal;fill:#000000;stroke:none;">c</text></g><defs><clipPath id="_clipPath_8MHYqGq66QCiaODjJ0pFJLHHPRl8R9nZ"><rect x="0" y="0" width="8" height="13.618" transform="matrix(1,0,0,1,226.571,78.691)"/></clipPath></defs><line x1="119.071" y1="61.5" x2="119.071" y2="43.5" vector-effect="non-scaling-stroke" stroke-width="1.5" stroke="rgb(189,189,189)" stroke-linejoin="miter" stroke-linecap="square" stroke-miterlimit="3"/><circle vector-effect="non-scaling-stroke" cx="119.07123756408693" cy="30" r="7.5" fill="rgb(189,189,189)"/><g clip-path="url(#_clipPath_5YJb7xQR8GHCKYPPl8xHLsrD3EiVL3q7)"><text transform="matrix(1,0,0,1,115.907,33.879)" style="font-family:'Open Sans';font-weight:700;font-size:10px;font-style:normal;fill:#000000;stroke:none;">b</text></g><defs><clipPath id="_clipPath_5YJb7xQR8GHCKYPPl8xHLsrD3EiVL3q7"><rect x="0" y="0" width="9" height="13.618" transform="matrix(1,0,0,1,115.571,23.191)"/></clipPath></defs></g></svg>