<?xml version="1.0" encoding="UTF-8" standalone="no"?><!-- Generator: Gravit.io --><svg xmlns="http://www.w3.org/2000/svg" xmlns:xlink="http://www.w3.org/1999/xlink" style="isolation:isolate" viewBox="0 0 250 200" width="250pt" height="200pt"><defs><clipPath id="_clipPath_H2zOClGwPoGEVr0JkOSN4noTghZrrCW7"><rect width="250" height="200"/></clipPath></defs><g clip-path="url(#_clipPath_H2zOClGwPoGEVr0JkOSN4noTghZrrCW7)"><rect width="250" height="200" style="fill:rgb(0,0,0)"/><path d="M 89.919 14 L 160.081 14 C 166.107 14 171 18.893 171 24.919 L 171 175.081 C 171 181.107 166.107 186 160.081 186 L 89.919 186 C 83.893 186 79 181.107 79 175.081 L 79 24.919 C 79 18.893 83.893 14 89.919 14 Z" style="fill:none;stroke:#999989;stroke-width:2;stroke-linecap:square;stroke-miterlimit:2;"/><circle vector-effect="non-scaling-stroke" cx="120.49999999999999" cy="50.49999999999996" r="6.5" fill="rgb(255,131,0)"/><line x1="120.5" y1="50.5" x2="136" y2="50.5" vector-effect="non-scaling-stroke" stroke-width="6" stroke="rgb(255,131,0)" stroke-linejoin="miter" stroke-linecap="round" stroke-miterlimit="3"/><line x1="133.375" y1="70" x2="155.938" y2="70" vector-effect="non-scaling-stroke" stroke-width="8" stroke="rgb(157,84,6)" stroke-linejoin="miter" stroke-linecap="round" stroke-miterlimit="3"/><line x1="94.938" y1="70" x2="135.938" y2="70" vector-effect="non-scaling-stroke" stroke-width="8" stroke="rgb(255,131,0)" stroke-linejoin="miter" stroke-linecap="round" stroke-miterlimit="3"/><line x1="116.859" y1="70" x2="133.891" y2="70" vector-effect="non-scaling-stroke" stroke-width="2" stroke="rgb(166,166,166)" stroke-linejoin="miter" stroke-linecap="round" stroke-miterlimit="3"/><line x1="133.375" y1="81" x2="155.938" y2="81" vector-effect="non-scaling-stroke" stroke-width="8" stroke="rgb(157,84,6)" stroke-linejoin="miter" stroke-linecap="round" stroke-miterlimit="3"/><line x1="94.937" y1="81" x2="135.938" y2="81" vector-effect="non-scaling-stroke" stroke-width="8" stroke="rgb(255,131,0)" stroke-linejoin="miter" stroke-linecap="round" stroke-miterlimit="3"/><line x1="116.859" y1="81" x2="133.891" y2="81" vector-effect="non-scaling-stroke" stroke-width="2" stroke="rgb(166,166,166)" stroke-linejoin="miter" stroke-linecap="round" stroke-miterlimit="3"/><path d="M 99.229 93.5 L 151.651 93.5 C 152.638 93.5 153.44 94.302 153.44 95.289 L 153.44 99.711 C 153.44 100.698 152.638 101.5 151.651 101.5 L 99.229 101.5 C 98.242 101.5 97.44 100.698 97.44 99.711 L 97.44 95.289 C 97.44 94.302 98.242 93.5 99.229 93.5 Z" style="stroke:none;fill:#FF8300;stroke-miterlimit:10;"/><path d="M 114.08 95.5 L 116.36 95.5 C 116.835 95.5 117.22 95.885 117.22 96.36 L 117.22 98.64 C 117.22 99.115 116.835 99.5 116.36 99.5 L 114.08 99.5 C 113.605 99.5 113.22 99.115 113.22 98.64 L 113.22 96.36 C 113.22 95.885 113.605 95.5 114.08 95.5 Z" style="stroke:none;fill:#EBEBEB;stroke-miterlimit:10;"/><line x1="120.624" y1="97.5" x2="137.656" y2="97.5" vector-effect="non-scaling-stroke" stroke-width="2" stroke="rgb(166,166,166)" stroke-linejoin="miter" stroke-linecap="round" stroke-miterlimit="3"/><path d="M 99.229 105.5 L 151.651 105.5 C 152.638 105.5 153.44 106.302 153.44 107.289 L 153.44 111.711 C 153.44 112.698 152.638 113.5 151.651 113.5 L 99.229 113.5 C 98.242 113.5 97.44 112.698 97.44 111.711 L 97.44 107.289 C 97.44 106.302 98.242 105.5 99.229 105.5 Z" style="stroke:none;fill:#FF8300;stroke-miterlimit:10;"/><path d="M 114.08 107.5 L 116.36 107.5 C 116.835 107.5 117.22 107.885 117.22 108.36 L 117.22 110.64 C 117.22 111.115 116.835 111.5 116.36 111.5 L 114.08 111.5 C 113.605 111.5 113.22 111.115 113.22 110.64 L 113.22 108.36 C 113.22 107.885 113.605 107.5 114.08 107.5 Z" style="stroke:none;fill:#EBEBEB;stroke-miterlimit:10;"/><line x1="120.624" y1="109.5" x2="137.656" y2="109.5" vector-effect="non-scaling-stroke" stroke-width="2" stroke="rgb(166,166,166)" stroke-linejoin="miter" stroke-linecap="round" stroke-miterlimit="3"/><path d="M 99.229 117.5 L 151.651 117.5 C 152.638 117.5 153.44 118.302 153.44 119.289 L 153.44 123.711 C 153.44 124.698 152.638 125.5 151.651 125.5 L 99.229 125.5 C 98.242 125.5 97.44 124.698 97.44 123.711 L 97.44 119.289 C 97.44 118.302 98.242 117.5 99.229 117.5 Z" style="stroke:none;fill:#FF8300;stroke-miterlimit:10;"/><path d="M 114.08 119.5 L 116.36 119.5 C 116.835 119.5 117.22 119.885 117.22 120.36 L 117.22 122.64 C 117.22 123.115 116.835 123.5 116.36 123.5 L 114.08 123.5 C 113.605 123.5 113.22 123.115 113.22 122.64 L 113.22 120.36 C 113.22 119.885 113.605 119.5 114.08 119.5 Z" style="stroke:none;fill:#EBEBEB;stroke-miterlimit:10;"/><line x1="120.624" y1="121.5" x2="137.656" y2="121.5" vector-effect="non-scaling-stroke" stroke-width="2" stroke="rgb(166,166,166)" stroke-linejoin="miter" stroke-linecap="round" stroke-miterlimit="3"/><path d="M 99.229 129.5 L 151.651 129.5 C 152.638 129.5 153.44 130.302 153.44 131.289 L 153.44 135.711 C 153.44 136.698 152.638 137.5 151.651 137.5 L 99.229 137.5 C 98.242 137.5 97.44 136.698 97.44 135.711 L 97.44 131.289 C 97.44 130.302 98.242 129.5 99.229 129.5 Z" style="stroke:none;fill:#FF8300;stroke-miterlimit:10;"/><path d="M 114.08 131.5 L 116.36 131.5 C 116.835 131.5 117.22 131.885 117.22 132.36 L 117.22 134.64 C 117.22 135.115 116.835 135.5 116.36 135.5 L 114.08 135.5 C 113.605 135.5 113.22 135.115 113.22 134.64 L 113.22 132.36 C 113.22 131.885 113.605 131.5 114.08 131.5 Z" style="stroke:none;fill:#EBEBEB;stroke-miterlimit:10;"/><line x1="120.624" y1="133.5" x2="137.656" y2="133.5" vector-effect="non-scaling-stroke" stroke-width="2" stroke="rgb(166,166,166)" stroke-linejoin="miter" stroke-linecap="round" stroke-miterlimit="3"/><path d="M 98.789 149 L 151.211 149 C 152.198 149 153 149.802 153 150.789 L 153 155.211 C 153 156.198 152.198 157 151.211 157 L 98.789 157 C 97.802 157 97 156.198 97 155.211 L 97 150.789 C 97 149.802 97.802 149 98.789 149 Z" style="stroke:none;fill:#FF8300;stroke-miterlimit:10;"/><path d="M 113.64 151 L 115.92 151 C 116.395 151 116.78 151.385 116.78 151.86 L 116.78 154.14 C 116.78 154.615 116.395 155 115.92 155 L 113.64 155 C 113.165 155 112.78 154.615 112.78 154.14 L 112.78 151.86 C 112.78 151.385 113.165 151 113.64 151 Z" style="stroke:none;fill:#EBEBEB;stroke-miterlimit:10;"/><line x1="120.186" y1="153" x2="137.219" y2="153" vector-effect="non-scaling-stroke" stroke-width="2" stroke="rgb(166,166,166)" stroke-linejoin="miter" stroke-linecap="round" stroke-miterlimit="3"/><path d="M 98.789 160.5 L 151.211 160.5 C 152.198 160.5 153 161.302 153 162.289 L 153 166.711 C 153 167.698 152.198 168.5 151.211 168.5 L 98.789 168.5 C 97.802 168.5 97 167.698 97 166.711 L 97 162.289 C 97 161.302 97.802 160.5 98.789 160.5 Z" style="stroke:none;fill:#D50000;stroke-miterlimit:10;"/><path d="M 113.64 162.5 L 115.92 162.5 C 116.395 162.5 116.78 162.885 116.78 163.36 L 116.78 165.64 C 116.78 166.115 116.395 166.5 115.92 166.5 L 113.64 166.5 C 113.165 166.5 112.78 166.115 112.78 165.64 L 112.78 163.36 C 112.78 162.885 113.165 162.5 113.64 162.5 Z" style="stroke:none;fill:#EBEBEB;stroke-miterlimit:10;"/><line x1="120.186" y1="164.5" x2="137.219" y2="164.5" vector-effect="non-scaling-stroke" stroke-width="2" stroke="rgb(166,166,166)" stroke-linejoin="miter" stroke-linecap="round" stroke-miterlimit="3"/><line x1="45.114" y1="50" x2="73" y2="50" vector-effect="non-scaling-stroke" stroke-width="1.5" stroke="rgb(189,189,189)" stroke-linejoin="miter" stroke-linecap="square" stroke-miterlimit="3"/><circle vector-effect="non-scaling-stroke" cx="32.5" cy="50.49999999999996" r="7.5" fill="rgb(189,189,189)"/><g clip-path="url(#_clipPath_rCzm2bagiBj1kxTZNOLSEs5UtnBYcZ5N)"><text transform="matrix(1,0,0,1,29.146,54.379)" style="font-family:'Open Sans';font-weight:700;font-size:10px;font-style:normal;fill:#000000;stroke:none;">1</text></g><defs><clipPath id="_clipPath_rCzm2bagiBj1kxTZNOLSEs5UtnBYcZ5N"><rect x="0" y="0" width="8" height="13.618" transform="matrix(1,0,0,1,29,43.691)"/></clipPath></defs><line x1="45.114" y1="80.5" x2="73" y2="80.5" vector-effect="non-scaling-stroke" stroke-width="1.5" stroke="rgb(189,189,189)" stroke-linejoin="miter" stroke-linecap="square" stroke-miterlimit="3"/><circle vector-effect="non-scaling-stroke" cx="32.5" cy="81" r="7.5" fill="rgb(189,189,189)"/><g clip-path="url(#_clipPath_T6SCQuX1z5OOFSqqSYlVr6IZWh2SSypP)"><text transform="matrix(1,0,0,1,29.146,84.879)" style="font-family:'Open Sans';font-weight:700;font-size:10px;font-style:normal;fill:#000000;stroke:none;">3</text></g><defs><clipPath id="_clipPath_T6SCQuX1z5OOFSqqSYlVr6IZWh2SSypP"><rect x="0" y="0" width="8" height="13.618" transform="matrix(1,0,0,1,29,74.191)"/></clipPath></defs><line x1="45.114" y1="109" x2="73" y2="109" vector-effect="non-scaling-stroke" stroke-width="1.5" stroke="rgb(189,189,189)" stroke-linejoin="miter" stroke-linecap="square" stroke-miterlimit="3"/><circle vector-effect="non-scaling-stroke" cx="32.5" cy="109.5" r="7.5" fill="rgb(189,189,189)"/><g clip-path="url(#_clipPath_2uhVZXYgolCXJFkh6avTewhXN6OSwL11)"><text transform="matrix(1,0,0,1,29.146,113.379)" style="font-family:'Open Sans';font-weight:700;font-size:10px;font-style:normal;fill:#000000;stroke:none;">5</text></g><defs><clipPath id="_clipPath_2uhVZXYgolCXJFkh6avTewhXN6OSwL11"><rect x="0" y="0" width="8" height="13.618" transform="matrix(1,0,0,1,29,102.691)"/></clipPath></defs><line x1="45.114" y1="133" x2="73" y2="133" vector-effect="non-scaling-stroke" stroke-width="1.5" stroke="rgb(189,189,189)" stroke-linejoin="miter" stroke-linecap="square" stroke-miterlimit="3"/><circle vector-effect="non-scaling-stroke" cx="32.5" cy="133.5" r="7.5" fill="rgb(189,189,189)"/><g clip-path="url(#_clipPath_9XH7IMjJJNe2lKIgCLgAU1uO3hg1q5lA)"><text transform="matrix(1,0,0,1,29.146,137.379)" style="font-family:'Open Sans';font-weight:700;font-size:10px;font-style:normal;fill:#000000;stroke:none;">7</text></g><defs><clipPath id="_clipPath_9XH7IMjJJNe2lKIgCLgAU1uO3hg1q5lA"><rect x="0" y="0" width="8" height="13.618" transform="matrix(1,0,0,1,29,126.691)"/></clipPath></defs><line x1="45.114" y1="164" x2="73" y2="164" vector-effect="non-scaling-stroke" stroke-width="1.5" stroke="rgb(189,189,189)" stroke-linejoin="miter" stroke-linecap="square" stroke-miterlimit="3"/><circle vector-effect="non-scaling-stroke" cx="32.5" cy="164.50000000000003" r="7.5" fill="rgb(189,189,189)"/><g clip-path="url(#_clipPath_IDC7vxCDtlLSXpD20sH798V5muV2Fpm6)"><text transform="matrix(1,0,0,1,29.146,168.379)" style="font-family:'Open Sans';font-weight:700;font-size:10px;font-style:normal;fill:#000000;stroke:none;">9</text></g><defs><clipPath id="_clipPath_IDC7vxCDtlLSXpD20sH798V5muV2Fpm6"><rect x="0" y="0" width="8" height="13.618" transform="matrix(1,0,0,1,29,157.691)"/></clipPath></defs><line x1="177.114" y1="69.5" x2="205" y2="69.5" vector-effect="non-scaling-stroke" stroke-width="1.5" stroke="rgb(189,189,189)" stroke-linejoin="miter" stroke-linecap="square" stroke-miterlimit="3"/><circle vector-effect="non-scaling-stroke" cx="217.5" cy="69.99999999999999" r="7.5" fill="rgb(189,189,189)"/><g clip-path="url(#_clipPath_dbpk8X5lxvI3yRAf1mUXvVl6kyuJKP6B)"><text transform="matrix(1,0,0,1,214.146,73.879)" style="font-family:'Open Sans';font-weight:700;font-size:10px;font-style:normal;fill:#000000;stroke:none;">2</text></g><defs><clipPath id="_clipPath_dbpk8X5lxvI3yRAf1mUXvVl6kyuJKP6B"><rect x="0" y="0" width="8" height="13.618" transform="matrix(1,0,0,1,214,63.191)"/></clipPath></defs><line x1="177.114" y1="96" x2="205" y2="96" vector-effect="non-scaling-stroke" stroke-width="1.5" stroke="rgb(189,189,189)" stroke-linejoin="miter" stroke-linecap="square" stroke-miterlimit="3"/><circle vector-effect="non-scaling-stroke" cx="217.5" cy="96.5" r="7.5" fill="rgb(189,189,189)"/><g clip-path="url(#_clipPath_170abOuZaL6Bs733jkphF8tzf13bcNGd)"><text transform="matrix(1,0,0,1,214.146,100.379)" style="font-family:'Open Sans';font-weight:700;font-size:10px;font-style:normal;fill:#000000;stroke:none;">4</text></g><defs><clipPath id="_clipPath_170abOuZaL6Bs733jkphF8tzf13bcNGd"><rect x="0" y="0" width="8" height="13.618" transform="matrix(1,0,0,1,214,89.691)"/></clipPath></defs><line x1="177.114" y1="121" x2="205" y2="121" vector-effect="non-scaling-stroke" stroke-width="1.5" stroke="rgb(189,189,189)" stroke-linejoin="miter" stroke-linecap="square" stroke-miterlimit="3"/><circle vector-effect="non-scaling-stroke" cx="217.5" cy="121.5" r="7.5" fill="rgb(189,189,189)"/><g clip-path="url(#_clipPath_1LczS7iDPQPhRCd2Jy5QKIYjmLqfbuue)"><text transform="matrix(1,0,0,1,214.146,125.379)" style="font-family:'Open Sans';font-weight:700;font-size:10px;font-style:normal;fill:#000000;stroke:none;">6</text></g><defs><clipPath id="_clipPath_1LczS7iDPQPhRCd2Jy5QKIYjmLqfbuue"><rect x="0" y="0" width="8" height="13.618" transform="matrix(1,0,0,1,214,114.691)"/></clipPath></defs><line x1="177.114" y1="153" x2="205" y2="153" vector-effect="non-scaling-stroke" stroke-width="1.5" stroke="rgb(189,189,189)" stroke-linejoin="miter" stroke-linecap="square" stroke-miterlimit="3"/><circle vector-effect="non-scaling-stroke" cx="217.5" cy="153.5" r="7.5" fill="rgb(189,189,189)"/><g clip-path="url(#_clipPath_kAUQozk7yqq6TfnTAA37wNJRa4Djk7jg)"><text transform="matrix(1,0,0,1,214.146,157.379)" style="font-family:'Open Sans';font-weight:700;font-size:10px;font-style:normal;fill:#000000;stroke:none;">8</text></g><defs><clipPath id="_clipPath_kAUQozk7yqq6TfnTAA37wNJRa4Djk7jg"><rect x="0" y="0" width="8" height="13.618" transform="matrix(1,0,0,1,214,146.691)"/></clipPath></defs></g></svg>