<?xml version="1.0" encoding="UTF-8" standalone="no"?><!-- Generator: Gravit.io --><svg xmlns="http://www.w3.org/2000/svg" xmlns:xlink="http://www.w3.org/1999/xlink" style="isolation:isolate" viewBox="0 0 200 100" width="200pt" height="100pt"><defs><clipPath id="_clipPath_FodYLMoH9Q9E2XEbz7P77K9RyGYqFrT2"><rect width="200" height="100"/></clipPath></defs><g clip-path="url(#_clipPath_FodYLMoH9Q9E2XEbz7P77K9RyGYqFrT2)"><rect width="200" height="100" style="fill:rgb(0,0,0)"/><path d="M 55.137 56.75 L 144.862 56.75 C 147.67 56.75 149.95 59.03 149.95 61.838 L 149.95 70.163 C 149.95 72.97 147.67 75.25 144.862 75.25 L 55.137 75.25 C 52.33 75.25 50.05 72.97 50.05 70.163 L 50.05 61.838 C 50.05 59.03 52.33 56.75 55.137 56.75 Z" style="stroke:none;fill:#3B3B3B;stroke-miterlimit:10;"/><path d="M 56.359 61.38 L 61.631 61.38 C 62.729 61.38 63.62 62.271 63.62 63.369 L 63.62 68.641 C 63.62 69.739 62.729 70.63 61.631 70.63 L 56.359 70.63 C 55.261 70.63 54.37 69.739 54.37 68.641 L 54.37 63.369 C 54.37 62.271 55.261 61.38 56.359 61.38 Z" style="stroke:none;fill:#EBEBEB;stroke-miterlimit:10;"/><path d="M 139.838 62.26 L 144.102 62.26 C 144.989 62.26 145.71 62.981 145.71 63.868 L 145.71 68.132 C 145.71 69.019 144.989 69.74 144.102 69.74 L 139.838 69.74 C 138.951 69.74 138.23 69.019 138.23 68.132 L 138.23 63.868 C 138.23 62.981 138.951 62.26 139.838 62.26 Z" style="stroke:none;fill:#EBEBEB;stroke-miterlimit:10;"/><line x1="69.167" y1="66" x2="123.433" y2="66" vector-effect="non-scaling-stroke" stroke-width="2" stroke="rgb(166,166,166)" stroke-linejoin="miter" stroke-linecap="round" stroke-miterlimit="3"/><line x1="27" y1="66" x2="45.142" y2="66" vector-effect="non-scaling-stroke" stroke-width="1.5" stroke="rgb(189,189,189)" stroke-linejoin="miter" stroke-linecap="square" stroke-miterlimit="3"/><circle vector-effect="non-scaling-stroke" cx="14.5" cy="66.00000000000003" r="7.5" fill="rgb(189,189,189)"/><g clip-path="url(#_clipPath_QVsLE4rTq1GNEkYOGMZENaHh9XZuMyos)"><text transform="matrix(1,0,0,1,11,69.879)" style="font-family:'Open Sans';font-weight:700;font-size:10px;font-style:normal;fill:#000000;stroke:none;">a</text></g><defs><clipPath id="_clipPath_QVsLE4rTq1GNEkYOGMZENaHh9XZuMyos"><rect x="0" y="0" width="8" height="13.618" transform="matrix(1,0,0,1,11,59.191)"/></clipPath></defs><line x1="154" y1="66" x2="172.142" y2="66" vector-effect="non-scaling-stroke" stroke-width="1.5" stroke="rgb(189,189,189)" stroke-linejoin="miter" stroke-linecap="square" stroke-miterlimit="3"/><circle vector-effect="non-scaling-stroke" cx="184.5" cy="66" r="7.5" fill="rgb(189,189,189)"/><g clip-path="url(#_clipPath_jw27oSZ3XdPe4nEqKNWMuYuaJ1TOfsRf)"><text transform="matrix(1,0,0,1,181.429,69.879)" style="font-family:'Open Sans';font-weight:700;font-size:10px;font-style:normal;fill:#000000;stroke:none;">c</text></g><defs><clipPath id="_clipPath_jw27oSZ3XdPe4nEqKNWMuYuaJ1TOfsRf"><rect x="0" y="0" width="8" height="13.618" transform="matrix(1,0,0,1,181,59.191)"/></clipPath></defs><line x1="100" y1="48" x2="100" y2="33" vector-effect="non-scaling-stroke" stroke-width="1.5" stroke="rgb(189,189,189)" stroke-linejoin="miter" stroke-linecap="square" stroke-miterlimit="3"/><circle vector-effect="non-scaling-stroke" cx="100" cy="21.5" r="7.5" fill="rgb(189,189,189)"/><g clip-path="url(#_clipPath_hSlcmt0BbGVCE8WiqioNhZigtP6mfnNW)"><text transform="matrix(1,0,0,1,96.5,25.379)" style="font-family:'Open Sans';font-weight:700;font-size:10px;font-style:normal;fill:#000000;stroke:none;">b</text></g><defs><clipPath id="_clipPath_hSlcmt0BbGVCE8WiqioNhZigtP6mfnNW"><rect x="0" y="0" width="8" height="13.618" transform="matrix(1,0,0,1,96.5,14.691)"/></clipPath></defs></g></svg>