<?xml version="1.0" encoding="UTF-8" standalone="no"?><!-- Generator: Gravit.io --><svg xmlns="http://www.w3.org/2000/svg" xmlns:xlink="http://www.w3.org/1999/xlink" style="isolation:isolate" viewBox="0 0 250 200" width="250pt" height="200pt"><defs><clipPath id="_clipPath_rrkUgeAoRM12N2PZtvT6jjWzxXtIJYrp"><rect width="250" height="200"/></clipPath></defs><g clip-path="url(#_clipPath_rrkUgeAoRM12N2PZtvT6jjWzxXtIJYrp)"><rect width="250" height="200" style="fill:rgb(0,0,0)"/><path d="M 89.919 14 L 160.081 14 C 166.107 14 171 18.893 171 24.919 L 171 175.081 C 171 181.107 166.107 186 160.081 186 L 89.919 186 C 83.893 186 79 181.107 79 175.081 L 79 24.919 C 79 18.893 83.893 14 89.919 14 Z" style="fill:none;stroke:#999989;stroke-width:2;stroke-linecap:square;stroke-miterlimit:2;"/><line x1="109.573" y1="22" x2="140.427" y2="22" vector-effect="non-scaling-stroke" stroke-width="2" stroke="rgb(166,166,166)" stroke-linejoin="miter" stroke-linecap="round" stroke-miterlimit="3"/><line x1="109.573" y1="104" x2="140.427" y2="104" vector-effect="non-scaling-stroke" stroke-width="2" stroke="rgb(166,166,166)" stroke-linejoin="miter" stroke-linecap="round" stroke-miterlimit="3"/><line x1="84.61" y1="97" x2="165.39" y2="97" vector-effect="non-scaling-stroke" stroke-width="1" stroke="rgb(235,235,235)" stroke-linejoin="miter" stroke-linecap="round" stroke-miterlimit="3"/><path d="M 89.57 172 L 160.43 172 C 161.572 172 162.5 172.928 162.5 174.07 L 162.5 177.93 C 162.5 179.072 161.572 180 160.43 180 L 89.57 180 C 88.428 180 87.5 179.072 87.5 177.93 L 87.5 174.07 C 87.5 172.928 88.428 172 89.57 172 Z" style="stroke:none;fill:#FF8300;stroke-miterlimit:10;"/><line x1="113.594" y1="176" x2="136.406" y2="176" vector-effect="non-scaling-stroke" stroke-width="2" stroke="rgb(235,235,235)" stroke-linejoin="miter" stroke-linecap="round" stroke-miterlimit="3"/><path d="M 86.165 27 L 163.835 27 C 165.03 27 166 27.97 166 29.165 L 166 32.835 C 166 34.03 165.03 35 163.835 35 L 86.165 35 C 84.97 35 84 34.03 84 32.835 L 84 29.165 C 84 27.97 84.97 27 86.165 27 Z" style="stroke:none;fill:#FF8300;stroke-miterlimit:10;"/><path d="M 86.86 29 L 89.14 29 C 89.615 29 90 29.385 90 29.86 L 90 32.14 C 90 32.615 89.615 33 89.14 33 L 86.86 33 C 86.385 33 86 32.615 86 32.14 L 86 29.86 C 86 29.385 86.385 29 86.86 29 Z" style="stroke:none;fill:#EBEBEB;stroke-miterlimit:10;"/><line x1="96.967" y1="31" x2="133" y2="31" vector-effect="non-scaling-stroke" stroke-width="2" stroke="rgb(235,235,235)" stroke-linejoin="miter" stroke-linecap="round" stroke-miterlimit="3"/><path d="M 86.165 38 L 163.835 38 C 165.03 38 166 38.97 166 40.165 L 166 43.835 C 166 45.03 165.03 46 163.835 46 L 86.165 46 C 84.97 46 84 45.03 84 43.835 L 84 40.165 C 84 38.97 84.97 38 86.165 38 Z" style="stroke:none;fill:#FF8300;stroke-miterlimit:10;"/><path d="M 86.86 40 L 89.14 40 C 89.615 40 90 40.385 90 40.86 L 90 43.14 C 90 43.615 89.615 44 89.14 44 L 86.86 44 C 86.385 44 86 43.615 86 43.14 L 86 40.86 C 86 40.385 86.385 40 86.86 40 Z" style="stroke:none;fill:#EBEBEB;stroke-miterlimit:10;"/><line x1="96.967" y1="42" x2="133" y2="42" vector-effect="non-scaling-stroke" stroke-width="2" stroke="rgb(235,235,235)" stroke-linejoin="miter" stroke-linecap="round" stroke-miterlimit="3"/><path d="M 86.165 49 L 163.835 49 C 165.03 49 166 49.97 166 51.165 L 166 54.835 C 166 56.03 165.03 57 163.835 57 L 86.165 57 C 84.97 57 84 56.03 84 54.835 L 84 51.165 C 84 49.97 84.97 49 86.165 49 Z" style="stroke:none;fill:#FF8300;stroke-miterlimit:10;"/><path d="M 86.86 51 L 89.14 51 C 89.615 51 90 51.385 90 51.86 L 90 54.14 C 90 54.615 89.615 55 89.14 55 L 86.86 55 C 86.385 55 86 54.615 86 54.14 L 86 51.86 C 86 51.385 86.385 51 86.86 51 Z" style="stroke:none;fill:#EBEBEB;stroke-miterlimit:10;"/><line x1="96.967" y1="53" x2="133" y2="53" vector-effect="non-scaling-stroke" stroke-width="2" stroke="rgb(235,235,235)" stroke-linejoin="miter" stroke-linecap="round" stroke-miterlimit="3"/><path d="M 86.165 110 L 163.835 110 C 165.03 110 166 110.97 166 112.165 L 166 115.835 C 166 117.03 165.03 118 163.835 118 L 86.165 118 C 84.97 118 84 117.03 84 115.835 L 84 112.165 C 84 110.97 84.97 110 86.165 110 Z" style="stroke:none;fill:#FF8300;stroke-miterlimit:10;"/><path d="M 86.86 112 L 89.14 112 C 89.615 112 90 112.385 90 112.86 L 90 115.14 C 90 115.615 89.615 116 89.14 116 L 86.86 116 C 86.385 116 86 115.615 86 115.14 L 86 112.86 C 86 112.385 86.385 112 86.86 112 Z" style="stroke:none;fill:#EBEBEB;stroke-miterlimit:10;"/><line x1="96.967" y1="114" x2="133" y2="114" vector-effect="non-scaling-stroke" stroke-width="2" stroke="rgb(235,235,235)" stroke-linejoin="miter" stroke-linecap="round" stroke-miterlimit="3"/><path d="M 86.165 121 L 163.835 121 C 165.03 121 166 121.97 166 123.165 L 166 126.835 C 166 128.03 165.03 129 163.835 129 L 86.165 129 C 84.97 129 84 128.03 84 126.835 L 84 123.165 C 84 121.97 84.97 121 86.165 121 Z" style="stroke:none;fill:#FF8300;stroke-miterlimit:10;"/><path d="M 86.86 123 L 89.14 123 C 89.615 123 90 123.385 90 123.86 L 90 126.14 C 90 126.615 89.615 127 89.14 127 L 86.86 127 C 86.385 127 86 126.615 86 126.14 L 86 123.86 C 86 123.385 86.385 123 86.86 123 Z" style="stroke:none;fill:#EBEBEB;stroke-miterlimit:10;"/><line x1="96.967" y1="125" x2="133" y2="125" vector-effect="non-scaling-stroke" stroke-width="2" stroke="rgb(235,235,235)" stroke-linejoin="miter" stroke-linecap="round" stroke-miterlimit="3"/><path d="M 86.165 132 L 163.835 132 C 165.03 132 166 132.97 166 134.165 L 166 137.835 C 166 139.03 165.03 140 163.835 140 L 86.165 140 C 84.97 140 84 139.03 84 137.835 L 84 134.165 C 84 132.97 84.97 132 86.165 132 Z" style="stroke:none;fill:#FF8300;stroke-miterlimit:10;"/><path d="M 86.86 134 L 89.14 134 C 89.615 134 90 134.385 90 134.86 L 90 137.14 C 90 137.615 89.615 138 89.14 138 L 86.86 138 C 86.385 138 86 137.615 86 137.14 L 86 134.86 C 86 134.385 86.385 134 86.86 134 Z" style="stroke:none;fill:#EBEBEB;stroke-miterlimit:10;"/><line x1="96.967" y1="136" x2="133" y2="136" vector-effect="non-scaling-stroke" stroke-width="2" stroke="rgb(235,235,235)" stroke-linejoin="miter" stroke-linecap="round" stroke-miterlimit="3"/><line x1="42.114" y1="30.5" x2="70" y2="30.5" vector-effect="non-scaling-stroke" stroke-width="1.5" stroke="rgb(189,189,189)" stroke-linejoin="miter" stroke-linecap="square" stroke-miterlimit="3"/><circle vector-effect="non-scaling-stroke" cx="29.5" cy="31" r="7.5" fill="rgb(189,189,189)"/><g clip-path="url(#_clipPath_lJO7TeAAmXkhJXECbDwqumXgYW5a0cGR)"><text transform="matrix(1,0,0,1,26.146,34.879)" style="font-family:'Open Sans';font-weight:700;font-size:10px;font-style:normal;fill:#000000;stroke:none;">1</text></g><defs><clipPath id="_clipPath_lJO7TeAAmXkhJXECbDwqumXgYW5a0cGR"><rect x="0" y="0" width="8" height="13.618" transform="matrix(1,0,0,1,26,24.191)"/></clipPath></defs><line x1="42.114" y1="175.5" x2="70" y2="175.5" vector-effect="non-scaling-stroke" stroke-width="1.5" stroke="rgb(189,189,189)" stroke-linejoin="miter" stroke-linecap="square" stroke-miterlimit="3"/><circle vector-effect="non-scaling-stroke" cx="29.5" cy="176" r="7.5" fill="rgb(189,189,189)"/><g clip-path="url(#_clipPath_MNxT1JtREe3hZeQMJDV52H9c9T0qBm3m)"><text transform="matrix(1,0,0,1,26.146,179.879)" style="font-family:'Open Sans';font-weight:700;font-size:10px;font-style:normal;fill:#000000;stroke:none;">3</text></g><defs><clipPath id="_clipPath_MNxT1JtREe3hZeQMJDV52H9c9T0qBm3m"><rect x="0" y="0" width="8" height="13.618" transform="matrix(1,0,0,1,26,169.191)"/></clipPath></defs><line x1="180.057" y1="114" x2="207.943" y2="114" vector-effect="non-scaling-stroke" stroke-width="1.5" stroke="rgb(189,189,189)" stroke-linejoin="miter" stroke-linecap="square" stroke-miterlimit="3"/><circle vector-effect="non-scaling-stroke" cx="220.5" cy="114" r="7.5" fill="rgb(189,189,189)"/><g clip-path="url(#_clipPath_pN5fx97ZvMrKWFeMVWku4woon2dePh1I)"><text transform="matrix(1,0,0,1,217.146,117.879)" style="font-family:'Open Sans';font-weight:700;font-size:10px;font-style:normal;fill:#000000;stroke:none;">2</text></g><defs><clipPath id="_clipPath_pN5fx97ZvMrKWFeMVWku4woon2dePh1I"><rect x="0" y="0" width="8" height="13.618" transform="matrix(1,0,0,1,217,107.191)"/></clipPath></defs></g></svg>