<?xml version="1.0" encoding="UTF-8" standalone="no"?><!-- Generator: Gravit.io --><svg xmlns="http://www.w3.org/2000/svg" xmlns:xlink="http://www.w3.org/1999/xlink" style="isolation:isolate" viewBox="0 0 250 200" width="250pt" height="200pt"><defs><clipPath id="_clipPath_TUaKpuWghF97wyoRQSgGs66VcuVT7rO8"><rect width="250" height="200"/></clipPath></defs><g clip-path="url(#_clipPath_TUaKpuWghF97wyoRQSgGs66VcuVT7rO8)"><rect width="250" height="200" style="fill:rgb(0,0,0)"/><path d="M 89.919 14 L 160.081 14 C 166.107 14 171 18.893 171 24.919 L 171 175.081 C 171 181.107 166.107 186 160.081 186 L 89.919 186 C 83.893 186 79 181.107 79 175.081 L 79 24.919 C 79 18.893 83.893 14 89.919 14 Z" style="fill:none;stroke:#999989;stroke-width:2;stroke-linecap:square;stroke-miterlimit:2;"/><path d="M 87.86 20 L 106.64 20 C 108.494 20 110 21.506 110 23.36 L 110 24.64 C 110 26.494 108.494 28 106.64 28 L 87.86 28 C 86.006 28 84.5 26.494 84.5 24.64 L 84.5 23.36 C 84.5 21.506 86.006 20 87.86 20 Z" style="stroke:none;fill:#FF8300;stroke-miterlimit:10;"/><line x1="87.384" y1="24" x2="107.137" y2="24" vector-effect="non-scaling-stroke" stroke-width="2" stroke="rgb(255,255,255)" stroke-linejoin="miter" stroke-linecap="round" stroke-miterlimit="3"/><path d="M 143.36 20 L 161.64 20 C 163.494 20 165 21.506 165 23.36 L 165 24.64 C 165 26.494 163.494 28 161.64 28 L 143.36 28 C 141.506 28 140 26.494 140 24.64 L 140 23.36 C 140 21.506 141.506 20 143.36 20 Z" style="stroke:none;fill:#FF8300;stroke-miterlimit:10;"/><line x1="143" y1="24" x2="162" y2="24" vector-effect="non-scaling-stroke" stroke-width="2" stroke="rgb(255,255,255)" stroke-linejoin="miter" stroke-linecap="round" stroke-miterlimit="3"/><path d="M 115.86 20 L 134.14 20 C 135.994 20 137.5 21.506 137.5 23.36 L 137.5 24.64 C 137.5 26.494 135.994 28 134.14 28 L 115.86 28 C 114.006 28 112.5 26.494 112.5 24.64 L 112.5 23.36 C 112.5 21.506 114.006 20 115.86 20 Z" style="stroke:none;fill:#FF8300;stroke-miterlimit:10;"/><line x1="115.511" y1="24" x2="134.489" y2="24" vector-effect="non-scaling-stroke" stroke-width="2" stroke="rgb(255,255,255)" stroke-linejoin="miter" stroke-linecap="round" stroke-miterlimit="3"/><path d="M 153.237 163 L 158.763 163 C 161.653 163 164 165.347 164 168.237 L 164 173.763 C 164 176.653 161.653 179 158.763 179 L 153.237 179 C 150.347 179 148 176.653 148 173.763 L 148 168.237 C 148 165.347 150.347 163 153.237 163 Z" style="stroke:none;fill:#FF8300;stroke-miterlimit:10;"/><path d="M 153.857 167.24 L 158.143 167.24 C 159.036 167.24 159.76 167.964 159.76 168.857 L 159.76 173.143 C 159.76 174.036 159.036 174.76 158.143 174.76 L 153.857 174.76 C 152.964 174.76 152.24 174.036 152.24 173.143 L 152.24 168.857 C 152.24 167.964 152.964 167.24 153.857 167.24 Z" style="stroke:none;fill:#EBEBEB;stroke-miterlimit:10;"/><line x1="55" y1="23" x2="73.142" y2="23" vector-effect="non-scaling-stroke" stroke-width="1.5" stroke="rgb(189,189,189)" stroke-linejoin="miter" stroke-linecap="square" stroke-miterlimit="3"/><circle vector-effect="non-scaling-stroke" cx="42.5" cy="22.999999999999993" r="7.5" fill="rgb(189,189,189)"/><g clip-path="url(#_clipPath_VxgzgDEXmwVmohGs2EdokTZHl3y3oVbQ)"><text transform="matrix(1,0,0,1,39.146,26.879)" style="font-family:'Open Sans';font-weight:700;font-size:10px;font-style:normal;fill:#000000;stroke:none;">1</text></g><defs><clipPath id="_clipPath_VxgzgDEXmwVmohGs2EdokTZHl3y3oVbQ"><rect x="0" y="0" width="8" height="13.618" transform="matrix(1,0,0,1,39,16.191)"/></clipPath></defs><line x1="176.858" y1="170.5" x2="195" y2="170.5" vector-effect="non-scaling-stroke" stroke-width="1.5" stroke="rgb(189,189,189)" stroke-linejoin="miter" stroke-linecap="square" stroke-miterlimit="3"/><circle vector-effect="non-scaling-stroke" cx="208.5" cy="170.49999999999997" r="7.5" fill="rgb(189,189,189)"/><g clip-path="url(#_clipPath_Ck5AKQqXsAXHUS7hmcKKuTPWK5lA7oeJ)"><text transform="matrix(1,0,0,1,205.146,174.379)" style="font-family:'Open Sans';font-weight:700;font-size:10px;font-style:normal;fill:#000000;stroke:none;">3</text></g><defs><clipPath id="_clipPath_Ck5AKQqXsAXHUS7hmcKKuTPWK5lA7oeJ"><rect x="0" y="0" width="8" height="13.618" transform="matrix(1,0,0,1,205,163.691)"/></clipPath></defs><path d="M 89.129 32 L 160.871 32 C 163.426 32 165.5 34.074 165.5 36.629 L 165.5 39.371 C 165.5 41.926 163.426 44 160.871 44 L 89.129 44 C 86.574 44 84.5 41.926 84.5 39.371 L 84.5 36.629 C 84.5 34.074 86.574 32 89.129 32 Z" style="stroke:none;fill:#3B3B3B;stroke-miterlimit:10;"/><path d="M 88.344 34.75 L 91.906 34.75 C 92.648 34.75 93.25 35.352 93.25 36.094 L 93.25 39.656 C 93.25 40.398 92.648 41 91.906 41 L 88.344 41 C 87.602 41 87 40.398 87 39.656 L 87 36.094 C 87 35.352 87.602 34.75 88.344 34.75 Z" style="stroke:none;fill:#EBEBEB;stroke-miterlimit:10;"/><line x1="98" y1="36.125" x2="132.672" y2="36.125" vector-effect="non-scaling-stroke" stroke-width="2" stroke="rgb(166,166,166)" stroke-linejoin="miter" stroke-linecap="round" stroke-miterlimit="3"/><line x1="98" y1="39.625" x2="123.312" y2="39.625" vector-effect="non-scaling-stroke" stroke-width="2" stroke="rgb(166,166,166)" stroke-linejoin="miter" stroke-linecap="round" stroke-miterlimit="3"/><path d="M 90.624 47 L 159.376 47 C 162.756 47 165.5 49.744 165.5 53.124 L 165.5 61.876 C 165.5 65.256 162.756 68 159.376 68 L 90.624 68 C 87.244 68 84.5 65.256 84.5 61.876 L 84.5 53.124 C 84.5 49.744 87.244 47 90.624 47 Z" style="stroke:none;fill:#3B3B3B;stroke-miterlimit:10;"/><path d="M 88.344 54.38 L 91.906 54.38 C 92.648 54.38 93.25 54.982 93.25 55.724 L 93.25 59.286 C 93.25 60.028 92.648 60.63 91.906 60.63 L 88.344 60.63 C 87.602 60.63 87 60.028 87 59.286 L 87 55.724 C 87 54.982 87.602 54.38 88.344 54.38 Z" style="stroke:none;fill:#EBEBEB;stroke-miterlimit:10;"/><line x1="98" y1="51.125" x2="132.672" y2="51.125" vector-effect="non-scaling-stroke" stroke-width="2" stroke="rgb(166,166,166)" stroke-linejoin="miter" stroke-linecap="round" stroke-miterlimit="3"/><line x1="98" y1="54.625" x2="123.312" y2="54.625" vector-effect="non-scaling-stroke" stroke-width="2" stroke="rgb(166,166,166)" stroke-linejoin="miter" stroke-linecap="round" stroke-miterlimit="3"/><line x1="98" y1="60" x2="123.312" y2="60" vector-effect="non-scaling-stroke" stroke-width="2" stroke="rgb(166,166,166)" stroke-linejoin="miter" stroke-linecap="round" stroke-miterlimit="3"/><line x1="98" y1="64" x2="123.312" y2="64" vector-effect="non-scaling-stroke" stroke-width="2" stroke="rgb(166,166,166)" stroke-linejoin="miter" stroke-linecap="round" stroke-miterlimit="3"/><path d="M 89.129 71 L 160.871 71 C 163.426 71 165.5 73.074 165.5 75.629 L 165.5 78.371 C 165.5 80.926 163.426 83 160.871 83 L 89.129 83 C 86.574 83 84.5 80.926 84.5 78.371 L 84.5 75.629 C 84.5 73.074 86.574 71 89.129 71 Z" style="stroke:none;fill:#3B3B3B;stroke-miterlimit:10;"/><path d="M 88.344 73.75 L 91.906 73.75 C 92.648 73.75 93.25 74.352 93.25 75.094 L 93.25 78.656 C 93.25 79.398 92.648 80 91.906 80 L 88.344 80 C 87.602 80 87 79.398 87 78.656 L 87 75.094 C 87 74.352 87.602 73.75 88.344 73.75 Z" style="stroke:none;fill:#EBEBEB;stroke-miterlimit:10;"/><line x1="98" y1="75.125" x2="132.672" y2="75.125" vector-effect="non-scaling-stroke" stroke-width="2" stroke="rgb(166,166,166)" stroke-linejoin="miter" stroke-linecap="round" stroke-miterlimit="3"/><line x1="98" y1="78.625" x2="123.312" y2="78.625" vector-effect="non-scaling-stroke" stroke-width="2" stroke="rgb(166,166,166)" stroke-linejoin="miter" stroke-linecap="round" stroke-miterlimit="3"/><path d="M 90.624 86 L 159.376 86 C 162.756 86 165.5 88.744 165.5 92.124 L 165.5 100.876 C 165.5 104.256 162.756 107 159.376 107 L 90.624 107 C 87.244 107 84.5 104.256 84.5 100.876 L 84.5 92.124 C 84.5 88.744 87.244 86 90.624 86 Z" style="stroke:none;fill:#3B3B3B;stroke-miterlimit:10;"/><path d="M 88.344 93.38 L 91.906 93.38 C 92.648 93.38 93.25 93.982 93.25 94.724 L 93.25 98.286 C 93.25 99.028 92.648 99.63 91.906 99.63 L 88.344 99.63 C 87.602 99.63 87 99.028 87 98.286 L 87 94.724 C 87 93.982 87.602 93.38 88.344 93.38 Z" style="stroke:none;fill:#EBEBEB;stroke-miterlimit:10;"/><line x1="98" y1="90.125" x2="132.672" y2="90.125" vector-effect="non-scaling-stroke" stroke-width="2" stroke="rgb(166,166,166)" stroke-linejoin="miter" stroke-linecap="round" stroke-miterlimit="3"/><line x1="98" y1="93.625" x2="123.312" y2="93.625" vector-effect="non-scaling-stroke" stroke-width="2" stroke="rgb(166,166,166)" stroke-linejoin="miter" stroke-linecap="round" stroke-miterlimit="3"/><line x1="98" y1="99" x2="123.312" y2="99" vector-effect="non-scaling-stroke" stroke-width="2" stroke="rgb(166,166,166)" stroke-linejoin="miter" stroke-linecap="round" stroke-miterlimit="3"/><line x1="98" y1="103" x2="123.312" y2="103" vector-effect="non-scaling-stroke" stroke-width="2" stroke="rgb(166,166,166)" stroke-linejoin="miter" stroke-linecap="round" stroke-miterlimit="3"/><line x1="54.929" y1="57.5" x2="73.071" y2="57.5" vector-effect="non-scaling-stroke" stroke-width="1.5" stroke="rgb(189,189,189)" stroke-linejoin="miter" stroke-linecap="square" stroke-miterlimit="3"/><circle vector-effect="non-scaling-stroke" cx="42.428762435913086" cy="57.5" r="7.5" fill="rgb(189,189,189)"/><g clip-path="url(#_clipPath_GwdpGRbNRTQitWqBRDL7IwwcKk3P1zHA)"><text transform="matrix(1,0,0,1,39.075,61.379)" style="font-family:'Open Sans';font-weight:700;font-size:10px;font-style:normal;fill:#000000;stroke:none;">2</text></g><defs><clipPath id="_clipPath_GwdpGRbNRTQitWqBRDL7IwwcKk3P1zHA"><rect x="0" y="0" width="8" height="13.618" transform="matrix(1,0,0,1,38.929,50.691)"/></clipPath></defs></g></svg>