<?xml version="1.0" encoding="UTF-8" standalone="no"?><!-- Generator: Gravit.io --><svg xmlns="http://www.w3.org/2000/svg" xmlns:xlink="http://www.w3.org/1999/xlink" style="isolation:isolate" viewBox="0 0 200 100" width="200pt" height="100pt"><defs><clipPath id="_clipPath_HZ48lVupOueqL4LBX0ypE0xA0xFGtHC0"><rect width="200" height="100"/></clipPath></defs><g clip-path="url(#_clipPath_HZ48lVupOueqL4LBX0ypE0xA0xFGtHC0)"><rect width="200" height="100" style="fill:rgb(0,0,0)"/><path d="M 83.37 28.86 L 117.77 28.86 C 120.143 28.86 122.07 30.787 122.07 33.16 L 122.07 67.56 C 122.07 69.933 120.143 71.86 117.77 71.86 L 83.37 71.86 C 80.997 71.86 79.07 69.933 79.07 67.56 L 79.07 33.16 C 79.07 30.787 80.997 28.86 83.37 28.86 Z" style="stroke:none;fill:#3B3B3B;stroke-miterlimit:10;"/><path d="M 95.668 38.89 L 105.472 38.89 C 107.513 38.89 109.17 40.547 109.17 42.588 L 109.17 52.392 C 109.17 54.433 107.513 56.09 105.472 56.09 L 95.668 56.09 C 93.627 56.09 91.97 54.433 91.97 52.392 L 91.97 42.588 C 91.97 40.547 93.627 38.89 95.668 38.89 Z" style="stroke:none;fill:#E3E3E3;stroke-miterlimit:10;"/><line x1="84.088" y1="66.125" x2="117.055" y2="66.125" vector-effect="non-scaling-stroke" stroke-width="2" stroke="rgb(166,166,166)" stroke-linejoin="miter" stroke-linecap="round" stroke-miterlimit="3"/><circle vector-effect="non-scaling-stroke" cx="84.08790423075354" cy="33.87500000000001" r="2.1500000000000057" fill="rgb(0,255,0)"/><line x1="48.429" y1="33.875" x2="66.571" y2="33.875" vector-effect="non-scaling-stroke" stroke-width="1.5" stroke="rgb(189,189,189)" stroke-linejoin="miter" stroke-linecap="square" stroke-miterlimit="3"/><circle vector-effect="non-scaling-stroke" cx="35.92876243591306" cy="33.875" r="7.5" fill="rgb(189,189,189)"/><g clip-path="url(#_clipPath_cGPI1sy4I0m7BARvtMF29JX3Zo8ASPuq)"><text transform="matrix(1,0,0,1,32.429,37.754)" style="font-family:'Open Sans';font-weight:700;font-size:10px;font-style:normal;fill:#000000;stroke:none;">a</text></g><defs><clipPath id="_clipPath_cGPI1sy4I0m7BARvtMF29JX3Zo8ASPuq"><rect x="0" y="0" width="8" height="13.618" transform="matrix(1,0,0,1,32.429,27.066)"/></clipPath></defs><line x1="48.429" y1="66.125" x2="66.571" y2="66.125" vector-effect="non-scaling-stroke" stroke-width="1.5" stroke="rgb(189,189,189)" stroke-linejoin="miter" stroke-linecap="square" stroke-miterlimit="3"/><circle vector-effect="non-scaling-stroke" cx="35.92876243591306" cy="66.125" r="7.5" fill="rgb(189,189,189)"/><g clip-path="url(#_clipPath_ioDTXkc36EQp2vocnriOQL5Je21KCEuh)"><text transform="matrix(1,0,0,1,32.429,70.004)" style="font-family:'Open Sans';font-weight:700;font-size:10px;font-style:normal;fill:#000000;stroke:none;">b</text></g><defs><clipPath id="_clipPath_ioDTXkc36EQp2vocnriOQL5Je21KCEuh"><rect x="0" y="0" width="8" height="13.618" transform="matrix(1,0,0,1,32.429,59.316)"/></clipPath></defs><line x1="133.571" y1="47.492" x2="151.714" y2="47.492" vector-effect="non-scaling-stroke" stroke-width="1.5" stroke="rgb(189,189,189)" stroke-linejoin="miter" stroke-linecap="square" stroke-miterlimit="3"/><circle vector-effect="non-scaling-stroke" cx="164.07123756408694" cy="47.49166666666666" r="7.5" fill="rgb(189,189,189)"/><g clip-path="url(#_clipPath_MzCA8N6otF4G8sjJmHZax0qvTrVzRYmB)"><text transform="matrix(1,0,0,1,161,51.371)" style="font-family:'Open Sans';font-weight:700;font-size:10px;font-style:normal;fill:#000000;stroke:none;">c</text></g><defs><clipPath id="_clipPath_MzCA8N6otF4G8sjJmHZax0qvTrVzRYmB"><rect x="0" y="0" width="8" height="13.618" transform="matrix(1,0,0,1,160.571,40.683)"/></clipPath></defs></g></svg>