<?xml version="1.0" encoding="UTF-8" standalone="no"?><!-- Generator: Gravit.io --><svg xmlns="http://www.w3.org/2000/svg" xmlns:xlink="http://www.w3.org/1999/xlink" style="isolation:isolate" viewBox="0 0 180 110" width="180pt" height="110pt"><defs><clipPath id="_clipPath_EntjvV7LOpQG0zLxTSDwCkq5GRxrZJ8C"><rect width="180" height="110"/></clipPath></defs><g clip-path="url(#_clipPath_EntjvV7LOpQG0zLxTSDwCkq5GRxrZJ8C)"><rect width="180" height="110" style="fill:rgb(0,0,0)"/><path d="M 67.775 45.5 L 156.065 45.5 C 158.552 45.5 160.57 47.519 160.57 50.005 L 160.57 59.015 C 160.57 61.501 158.552 63.52 156.065 63.52 L 67.775 63.52 C 65.288 63.52 63.27 61.501 63.27 59.015 L 63.27 50.005 C 63.27 47.519 65.288 45.5 67.775 45.5 Z" style="stroke:none;fill:#3B3B3B;stroke-miterlimit:10;"/><path d="M 69.415 50 L 74.545 50 C 75.613 50 76.48 50.868 76.48 51.937 L 76.48 57.073 C 76.48 58.142 75.613 59.01 74.545 59.01 L 69.415 59.01 C 68.347 59.01 67.48 58.142 67.48 57.073 L 67.48 51.937 C 67.48 50.868 68.347 50 69.415 50 Z" style="stroke:none;fill:#EBEBEB;stroke-miterlimit:10;"/><line x1="81.89" y1="52.336" x2="134.745" y2="52.336" vector-effect="non-scaling-stroke" stroke-width="2" stroke="rgb(166,166,166)" stroke-linejoin="miter" stroke-linecap="round" stroke-miterlimit="3"/><line x1="81.89" y1="57.141" x2="108.318" y2="57.141" vector-effect="non-scaling-stroke" stroke-width="2" stroke="rgb(166,166,166)" stroke-linejoin="miter" stroke-linecap="round" stroke-miterlimit="3"/><line x1="39.429" y1="54.509" x2="57.571" y2="54.509" vector-effect="non-scaling-stroke" stroke-width="1.5" stroke="rgb(189,189,189)" stroke-linejoin="miter" stroke-linecap="square" stroke-miterlimit="3"/><circle vector-effect="non-scaling-stroke" cx="26.9287624359131" cy="54.50925925925927" r="7.499999999999998" fill="rgb(189,189,189)"/><g clip-path="url(#_clipPath_WedfUb6bIEGLIJADrxK4WrDWsTGJWmsF)"><text transform="matrix(1,0,0,1,23.429,58.389)" style="font-family:'Open Sans';font-weight:700;font-size:10px;font-style:normal;fill:#000000;stroke:none;">a</text></g><defs><clipPath id="_clipPath_WedfUb6bIEGLIJADrxK4WrDWsTGJWmsF"><rect x="0" y="0" width="8" height="13.618" transform="matrix(1,0,0,1,23.429,47.7)"/></clipPath></defs><line x1="111.921" y1="66.991" x2="111.921" y2="80.991" vector-effect="non-scaling-stroke" stroke-width="1.5" stroke="rgb(189,189,189)" stroke-linejoin="miter" stroke-linecap="square" stroke-miterlimit="3"/><circle vector-effect="non-scaling-stroke" cx="111.92123756408692" cy="93.5" r="7.5" fill="rgb(189,189,189)"/><g clip-path="url(#_clipPath_rSfoD1GmguahiIRsFvt0lzWKcERKnAks)"><text transform="matrix(1,0,0,1,108.85,97.379)" style="font-family:'Open Sans';font-weight:700;font-size:10px;font-style:normal;fill:#000000;stroke:none;">c</text></g><defs><clipPath id="_clipPath_rSfoD1GmguahiIRsFvt0lzWKcERKnAks"><rect x="0" y="0" width="8" height="13.618" transform="matrix(1,0,0,1,108.421,86.691)"/></clipPath></defs><line x1="111.921" y1="28.014" x2="111.921" y2="42.014" vector-effect="non-scaling-stroke" stroke-width="1.5" stroke="rgb(189,189,189)" stroke-linejoin="miter" stroke-linecap="square" stroke-miterlimit="3"/><circle vector-effect="non-scaling-stroke" cx="111.92123756408692" cy="16.5" r="7.5" fill="rgb(189,189,189)"/><g clip-path="url(#_clipPath_JMSf80gbhrOv3KOBcaVUbL3kASftrhA9)"><text transform="matrix(1,0,0,1,108.421,20.379)" style="font-family:'Open Sans';font-weight:700;font-size:10px;font-style:normal;fill:#000000;stroke:none;">b</text></g><defs><clipPath id="_clipPath_JMSf80gbhrOv3KOBcaVUbL3kASftrhA9"><rect x="0" y="0" width="8" height="13.618" transform="matrix(1,0,0,1,108.421,9.691)"/></clipPath></defs></g></svg>