<?xml version="1.0" encoding="UTF-8" standalone="no"?><!-- Generator: Gravit.io --><svg xmlns="http://www.w3.org/2000/svg" xmlns:xlink="http://www.w3.org/1999/xlink" style="isolation:isolate" viewBox="0 0 400 200" width="400pt" height="200pt"><defs><clipPath id="_clipPath_gfuDC7s3jbINuHuQD9Wmh4vvRoRDvhfM"><rect width="400" height="200"/></clipPath></defs><g clip-path="url(#_clipPath_gfuDC7s3jbINuHuQD9Wmh4vvRoRDvhfM)"><rect width="400" height="200" style="fill:rgb(0,0,0)"/><path d="M 73.919 15 L 144.081 15 C 150.107 15 155 19.893 155 25.919 L 155 176.081 C 155 182.107 150.107 187 144.081 187 L 73.919 187 C 67.893 187 63 182.107 63 176.081 L 63 25.919 C 63 19.893 67.893 15 73.919 15 Z" style="fill:none;stroke:#999989;stroke-width:2;stroke-linecap:square;stroke-miterlimit:2;"/><path d="M 257.919 15 L 328.081 15 C 334.107 15 339 19.893 339 25.919 L 339 176.081 C 339 182.107 334.107 187 328.081 187 L 257.919 187 C 251.893 187 247 182.107 247 176.081 L 247 25.919 C 247 19.893 251.893 15 257.919 15 Z" style="fill:none;stroke:#999989;stroke-width:2;stroke-linecap:square;stroke-miterlimit:2;"/><path d="M 72.241 20 L 145.759 20 C 147.824 20 149.5 21.676 149.5 23.741 L 149.5 24.259 C 149.5 26.324 147.824 28 145.759 28 L 72.241 28 C 70.176 28 68.5 26.324 68.5 24.259 L 68.5 23.741 C 68.5 21.676 70.176 20 72.241 20 Z" style="stroke:none;fill:#FF8300;stroke-miterlimit:10;"/><path d="M 69.037 30 L 148.963 30 C 150.087 30 151 30.913 151 32.037 L 151 37.963 C 151 39.087 150.087 40 148.963 40 L 69.037 40 C 67.913 40 67 39.087 67 37.963 L 67 32.037 C 67 30.913 67.913 30 69.037 30 Z" style="stroke:none;fill:#FF8300;stroke-miterlimit:10;"/><line x1="76" y1="24" x2="93.339" y2="24" vector-effect="non-scaling-stroke" stroke-width="2" stroke="rgb(255,255,255)" stroke-linejoin="miter" stroke-linecap="round" stroke-miterlimit="3"/><line x1="77.661" y1="35" x2="95" y2="35" vector-effect="non-scaling-stroke" stroke-width="2" stroke="rgb(255,255,255)" stroke-linejoin="miter" stroke-linecap="round" stroke-miterlimit="3"/><line x1="123.661" y1="35" x2="141" y2="35" vector-effect="non-scaling-stroke" stroke-width="2" stroke="rgb(255,255,255)" stroke-linejoin="miter" stroke-linecap="round" stroke-miterlimit="3"/><line x1="119" y1="24" x2="136.339" y2="24" vector-effect="non-scaling-stroke" stroke-width="2" stroke="rgb(255,255,255)" stroke-linejoin="miter" stroke-linecap="round" stroke-miterlimit="3"/><path d="M 143.271 21.63 L 145.979 21.63 C 146.542 21.63 147 22.088 147 22.651 L 147 25.359 C 147 25.922 146.542 26.38 145.979 26.38 L 143.271 26.38 C 142.708 26.38 142.25 25.922 142.25 25.359 L 142.25 22.651 C 142.25 22.088 142.708 21.63 143.271 21.63 Z" style="stroke:none;fill:#EBEBEB;stroke-miterlimit:10;"/><path d="M 256.241 20 L 329.759 20 C 331.824 20 333.5 21.676 333.5 23.741 L 333.5 24.259 C 333.5 26.324 331.824 28 329.759 28 L 256.241 28 C 254.176 28 252.5 26.324 252.5 24.259 L 252.5 23.741 C 252.5 21.676 254.176 20 256.241 20 Z" style="stroke:none;fill:#FF8300;stroke-miterlimit:10;"/><line x1="260" y1="24" x2="277.339" y2="24" vector-effect="non-scaling-stroke" stroke-width="2" stroke="rgb(255,255,255)" stroke-linejoin="miter" stroke-linecap="round" stroke-miterlimit="3"/><line x1="303" y1="24" x2="320.339" y2="24" vector-effect="non-scaling-stroke" stroke-width="2" stroke="rgb(255,255,255)" stroke-linejoin="miter" stroke-linecap="round" stroke-miterlimit="3"/><path d="M 327.271 21.63 L 329.979 21.63 C 330.542 21.63 331 22.088 331 22.651 L 331 25.359 C 331 25.922 330.542 26.38 329.979 26.38 L 327.271 26.38 C 326.708 26.38 326.25 25.922 326.25 25.359 L 326.25 22.651 C 326.25 22.088 326.708 21.63 327.271 21.63 Z" style="stroke:none;fill:#EBEBEB;stroke-miterlimit:10;"/><line x1="109" y1="39" x2="109" y2="31" vector-effect="non-scaling-stroke" stroke-width="1" stroke="rgb(235,235,235)" stroke-linejoin="miter" stroke-linecap="round" stroke-miterlimit="3"/><path d="M 253.037 30 L 332.963 30 C 334.087 30 335 30.913 335 32.037 L 335 37.963 C 335 39.087 334.087 40 332.963 40 L 253.037 40 C 251.913 40 251 39.087 251 37.963 L 251 32.037 C 251 30.913 251.913 30 253.037 30 Z" style="stroke:none;fill:#FF8300;stroke-miterlimit:10;"/><line x1="261.661" y1="35" x2="279" y2="35" vector-effect="non-scaling-stroke" stroke-width="2" stroke="rgb(255,255,255)" stroke-linejoin="miter" stroke-linecap="round" stroke-miterlimit="3"/><line x1="307.661" y1="35" x2="325" y2="35" vector-effect="non-scaling-stroke" stroke-width="2" stroke="rgb(255,255,255)" stroke-linejoin="miter" stroke-linecap="round" stroke-miterlimit="3"/><line x1="293" y1="39" x2="293" y2="31" vector-effect="non-scaling-stroke" stroke-width="1" stroke="rgb(235,235,235)" stroke-linejoin="miter" stroke-linecap="round" stroke-miterlimit="3"/><path d="M 75.588 43.61 L 142.413 43.61 C 146.324 43.61 149.5 46.786 149.5 50.698 L 149.5 67.912 C 149.5 71.824 146.324 75 142.413 75 L 75.588 75 C 71.676 75 68.5 71.824 68.5 67.912 L 68.5 50.698 C 68.5 46.786 71.676 43.61 75.588 43.61 Z" style="stroke:none;fill:#3B3B3B;stroke-miterlimit:10;"/><line x1="86.219" y1="50.194" x2="131.781" y2="50.194" vector-effect="non-scaling-stroke" stroke-width="2" stroke="rgb(166,166,166)" stroke-linejoin="miter" stroke-linecap="round" stroke-miterlimit="3"/><line x1="73.562" y1="58.294" x2="118.112" y2="58.294" vector-effect="non-scaling-stroke" stroke-width="2" stroke="rgb(166,166,166)" stroke-linejoin="miter" stroke-linecap="round" stroke-miterlimit="3"/><line x1="73.562" y1="63.356" x2="118.112" y2="63.356" vector-effect="non-scaling-stroke" stroke-width="2" stroke="rgb(166,166,166)" stroke-linejoin="miter" stroke-linecap="round" stroke-miterlimit="3"/><line x1="73.562" y1="68.419" x2="118.112" y2="68.419" vector-effect="non-scaling-stroke" stroke-width="2" stroke="rgb(166,166,166)" stroke-linejoin="miter" stroke-linecap="round" stroke-miterlimit="3"/><path d="M 75.084 46.65 L 79.126 46.65 C 79.967 46.65 80.65 47.333 80.65 48.174 L 80.65 52.216 C 80.65 53.057 79.967 53.74 79.126 53.74 L 75.084 53.74 C 74.243 53.74 73.56 53.057 73.56 52.216 L 73.56 48.174 C 73.56 47.333 74.243 46.65 75.084 46.65 Z" style="stroke:none;fill:#EBEBEB;stroke-miterlimit:10;"/><path d="M 75.588 78 L 142.413 78 C 146.324 78 149.5 81.176 149.5 85.088 L 149.5 102.302 C 149.5 106.214 146.324 109.39 142.413 109.39 L 75.588 109.39 C 71.676 109.39 68.5 106.214 68.5 102.302 L 68.5 85.088 C 68.5 81.176 71.676 78 75.588 78 Z" style="stroke:none;fill:#3B3B3B;stroke-miterlimit:10;"/><line x1="86.219" y1="84.581" x2="131.781" y2="84.581" vector-effect="non-scaling-stroke" stroke-width="2" stroke="rgb(166,166,166)" stroke-linejoin="miter" stroke-linecap="round" stroke-miterlimit="3"/><line x1="73.562" y1="92.681" x2="118.112" y2="92.681" vector-effect="non-scaling-stroke" stroke-width="2" stroke="rgb(166,166,166)" stroke-linejoin="miter" stroke-linecap="round" stroke-miterlimit="3"/><line x1="73.562" y1="97.744" x2="118.112" y2="97.744" vector-effect="non-scaling-stroke" stroke-width="2" stroke="rgb(166,166,166)" stroke-linejoin="miter" stroke-linecap="round" stroke-miterlimit="3"/><line x1="73.562" y1="102.806" x2="118.112" y2="102.806" vector-effect="non-scaling-stroke" stroke-width="2" stroke="rgb(166,166,166)" stroke-linejoin="miter" stroke-linecap="round" stroke-miterlimit="3"/><path d="M 75.084 81.04 L 79.126 81.04 C 79.967 81.04 80.65 81.723 80.65 82.564 L 80.65 86.606 C 80.65 87.447 79.967 88.13 79.126 88.13 L 75.084 88.13 C 74.243 88.13 73.56 87.447 73.56 86.606 L 73.56 82.564 C 73.56 81.723 74.243 81.04 75.084 81.04 Z" style="stroke:none;fill:#EBEBEB;stroke-miterlimit:10;"/><path d="M 75.588 112.61 L 142.413 112.61 C 146.324 112.61 149.5 115.786 149.5 119.698 L 149.5 136.912 C 149.5 140.824 146.324 144 142.413 144 L 75.588 144 C 71.676 144 68.5 140.824 68.5 136.912 L 68.5 119.698 C 68.5 115.786 71.676 112.61 75.588 112.61 Z" style="stroke:none;fill:#3B3B3B;stroke-miterlimit:10;"/><line x1="86.219" y1="119.194" x2="131.781" y2="119.194" vector-effect="non-scaling-stroke" stroke-width="2" stroke="rgb(166,166,166)" stroke-linejoin="miter" stroke-linecap="round" stroke-miterlimit="3"/><line x1="73.562" y1="127.294" x2="118.112" y2="127.294" vector-effect="non-scaling-stroke" stroke-width="2" stroke="rgb(166,166,166)" stroke-linejoin="miter" stroke-linecap="round" stroke-miterlimit="3"/><line x1="73.562" y1="132.356" x2="118.112" y2="132.356" vector-effect="non-scaling-stroke" stroke-width="2" stroke="rgb(166,166,166)" stroke-linejoin="miter" stroke-linecap="round" stroke-miterlimit="3"/><line x1="73.562" y1="137.419" x2="118.112" y2="137.419" vector-effect="non-scaling-stroke" stroke-width="2" stroke="rgb(166,166,166)" stroke-linejoin="miter" stroke-linecap="round" stroke-miterlimit="3"/><path d="M 75.084 115.65 L 79.126 115.65 C 79.967 115.65 80.65 116.333 80.65 117.174 L 80.65 121.216 C 80.65 122.057 79.967 122.74 79.126 122.74 L 75.084 122.74 C 74.243 122.74 73.56 122.057 73.56 121.216 L 73.56 117.174 C 73.56 116.333 74.243 115.65 75.084 115.65 Z" style="stroke:none;fill:#EBEBEB;stroke-miterlimit:10;"/><path d="M 255.25 43.61 L 330.75 43.61 C 332.958 43.61 334.75 45.402 334.75 47.61 L 334.75 56.31 C 334.75 58.518 332.958 60.31 330.75 60.31 L 255.25 60.31 C 253.042 60.31 251.25 58.518 251.25 56.31 L 251.25 47.61 C 251.25 45.402 253.042 43.61 255.25 43.61 Z" style="stroke:none;fill:#3B3B3B;stroke-miterlimit:10;"/><line x1="266.906" y1="49.353" x2="302.394" y2="49.353" vector-effect="non-scaling-stroke" stroke-width="2" stroke="rgb(166,166,166)" stroke-linejoin="miter" stroke-linecap="round" stroke-miterlimit="3"/><line x1="318.05" y1="49.353" x2="330.575" y2="49.353" vector-effect="non-scaling-stroke" stroke-width="2" stroke="rgb(166,166,166)" stroke-linejoin="miter" stroke-linecap="round" stroke-miterlimit="3"/><line x1="323.269" y1="54.05" x2="331.619" y2="54.05" vector-effect="non-scaling-stroke" stroke-width="2" stroke="rgb(166,166,166)" stroke-linejoin="miter" stroke-linecap="round" stroke-miterlimit="3"/><line x1="266.906" y1="54.05" x2="291.956" y2="54.05" vector-effect="non-scaling-stroke" stroke-width="2" stroke="rgb(166,166,166)" stroke-linejoin="miter" stroke-linecap="round" stroke-miterlimit="3"/><path d="M 257 48.31 L 261.161 48.31 C 262.027 48.31 262.73 49.014 262.73 49.882 L 262.73 54.048 C 262.73 54.916 262.027 55.62 261.161 55.62 L 257 55.62 C 256.133 55.62 255.43 54.916 255.43 54.048 L 255.43 49.882 C 255.43 49.014 256.133 48.31 257 48.31 Z" style="stroke:none;fill:#EBEBEB;stroke-miterlimit:10;"/><path d="M 255.25 63.36 L 330.75 63.36 C 332.958 63.36 334.75 65.152 334.75 67.36 L 334.75 76.06 C 334.75 78.268 332.958 80.06 330.75 80.06 L 255.25 80.06 C 253.042 80.06 251.25 78.268 251.25 76.06 L 251.25 67.36 C 251.25 65.152 253.042 63.36 255.25 63.36 Z" style="stroke:none;fill:#3B3B3B;stroke-miterlimit:10;"/><line x1="266.906" y1="69.097" x2="302.394" y2="69.097" vector-effect="non-scaling-stroke" stroke-width="2" stroke="rgb(166,166,166)" stroke-linejoin="miter" stroke-linecap="round" stroke-miterlimit="3"/><line x1="318.05" y1="69.097" x2="330.575" y2="69.097" vector-effect="non-scaling-stroke" stroke-width="2" stroke="rgb(166,166,166)" stroke-linejoin="miter" stroke-linecap="round" stroke-miterlimit="3"/><line x1="323.269" y1="73.794" x2="331.619" y2="73.794" vector-effect="non-scaling-stroke" stroke-width="2" stroke="rgb(166,166,166)" stroke-linejoin="miter" stroke-linecap="round" stroke-miterlimit="3"/><line x1="266.906" y1="73.794" x2="291.956" y2="73.794" vector-effect="non-scaling-stroke" stroke-width="2" stroke="rgb(166,166,166)" stroke-linejoin="miter" stroke-linecap="round" stroke-miterlimit="3"/><path d="M 257 68.05 L 261.161 68.05 C 262.027 68.05 262.73 68.754 262.73 69.622 L 262.73 73.788 C 262.73 74.656 262.027 75.36 261.161 75.36 L 257 75.36 C 256.133 75.36 255.43 74.656 255.43 73.788 L 255.43 69.622 C 255.43 68.754 256.133 68.05 257 68.05 Z" style="stroke:none;fill:#EBEBEB;stroke-miterlimit:10;"/><path d="M 255.25 83.3 L 330.75 83.3 C 332.958 83.3 334.75 85.092 334.75 87.3 L 334.75 96 C 334.75 98.208 332.958 100 330.75 100 L 255.25 100 C 253.042 100 251.25 98.208 251.25 96 L 251.25 87.3 C 251.25 85.092 253.042 83.3 255.25 83.3 Z" style="stroke:none;fill:#3B3B3B;stroke-miterlimit:10;"/><line x1="266.906" y1="89.041" x2="302.394" y2="89.041" vector-effect="non-scaling-stroke" stroke-width="2" stroke="rgb(166,166,166)" stroke-linejoin="miter" stroke-linecap="round" stroke-miterlimit="3"/><line x1="318.05" y1="89.041" x2="330.575" y2="89.041" vector-effect="non-scaling-stroke" stroke-width="2" stroke="rgb(166,166,166)" stroke-linejoin="miter" stroke-linecap="round" stroke-miterlimit="3"/><line x1="323.269" y1="93.738" x2="331.619" y2="93.738" vector-effect="non-scaling-stroke" stroke-width="2" stroke="rgb(166,166,166)" stroke-linejoin="miter" stroke-linecap="round" stroke-miterlimit="3"/><line x1="266.906" y1="93.738" x2="291.956" y2="93.738" vector-effect="non-scaling-stroke" stroke-width="2" stroke="rgb(166,166,166)" stroke-linejoin="miter" stroke-linecap="round" stroke-miterlimit="3"/><path d="M 257 88 L 261.161 88 C 262.027 88 262.73 88.703 262.73 89.57 L 262.73 93.731 C 262.73 94.597 262.027 95.3 261.161 95.3 L 257 95.3 C 256.133 95.3 255.43 94.597 255.43 93.731 L 255.43 89.57 C 255.43 88.703 256.133 88 257 88 Z" style="stroke:none;fill:#EBEBEB;stroke-miterlimit:10;"/><line x1="34.858" y1="24" x2="53" y2="24" vector-effect="non-scaling-stroke" stroke-width="1.5" stroke="rgb(189,189,189)" stroke-linejoin="miter" stroke-linecap="square" stroke-miterlimit="3"/><circle vector-effect="non-scaling-stroke" cx="22.357524871826175" cy="24" r="7.5" fill="rgb(189,189,189)"/><g clip-path="url(#_clipPath_fc3KY8QcUl55d2MfAetB5ntCvp8hNjrh)"><text transform="matrix(1,0,0,1,19.004,27.879)" style="font-family:'Open Sans';font-weight:700;font-size:10px;font-style:normal;fill:#000000;stroke:none;">1</text></g><defs><clipPath id="_clipPath_fc3KY8QcUl55d2MfAetB5ntCvp8hNjrh"><rect x="0" y="0" width="8" height="13.618" transform="matrix(1,0,0,1,18.858,17.191)"/></clipPath></defs><line x1="34.858" y1="59" x2="53" y2="59" vector-effect="non-scaling-stroke" stroke-width="1.5" stroke="rgb(189,189,189)" stroke-linejoin="miter" stroke-linecap="square" stroke-miterlimit="3"/><circle vector-effect="non-scaling-stroke" cx="22.357524871826175" cy="59" r="7.5" fill="rgb(189,189,189)"/><g clip-path="url(#_clipPath_8vnAadVgyN3whCYeK6c750pSvvBopm7H)"><text transform="matrix(1,0,0,1,19.004,62.879)" style="font-family:'Open Sans';font-weight:700;font-size:10px;font-style:normal;fill:#000000;stroke:none;">2</text></g><defs><clipPath id="_clipPath_8vnAadVgyN3whCYeK6c750pSvvBopm7H"><rect x="0" y="0" width="8" height="13.618" transform="matrix(1,0,0,1,18.858,52.191)"/></clipPath></defs><line x1="350" y1="35" x2="368.142" y2="35" vector-effect="non-scaling-stroke" stroke-width="1.5" stroke="rgb(189,189,189)" stroke-linejoin="miter" stroke-linecap="square" stroke-miterlimit="3"/><circle vector-effect="non-scaling-stroke" cx="380.5" cy="35" r="7.5" fill="rgb(189,189,189)"/><g clip-path="url(#_clipPath_xLVpbFglsA48LNBIncTLueB7JETp1tda)"><text transform="matrix(1,0,0,1,377.146,38.879)" style="font-family:'Open Sans';font-weight:700;font-size:10px;font-style:normal;fill:#000000;stroke:none;">4</text></g><defs><clipPath id="_clipPath_xLVpbFglsA48LNBIncTLueB7JETp1tda"><rect x="0" y="0" width="8" height="13.618" transform="matrix(1,0,0,1,377,28.191)"/></clipPath></defs><line x1="167" y1="34.309" x2="185.142" y2="34.309" vector-effect="non-scaling-stroke" stroke-width="1.5" stroke="rgb(189,189,189)" stroke-linejoin="miter" stroke-linecap="square" stroke-miterlimit="3"/><circle vector-effect="non-scaling-stroke" cx="197.50000000000006" cy="34.30908203125" r="7.5" fill="rgb(189,189,189)"/><g clip-path="url(#_clipPath_mezMGCHDVRrXx1HmC7NZvBfL7GL1M9Eg)"><text transform="matrix(1,0,0,1,194.146,38.188)" style="font-family:'Open Sans';font-weight:700;font-size:10px;font-style:normal;fill:#000000;stroke:none;">3</text></g><defs><clipPath id="_clipPath_mezMGCHDVRrXx1HmC7NZvBfL7GL1M9Eg"><rect x="0" y="0" width="8" height="13.618" transform="matrix(1,0,0,1,194,27.5)"/></clipPath></defs><line x1="350" y1="72" x2="368.142" y2="72" vector-effect="non-scaling-stroke" stroke-width="1.5" stroke="rgb(189,189,189)" stroke-linejoin="miter" stroke-linecap="square" stroke-miterlimit="3"/><circle vector-effect="non-scaling-stroke" cx="380.5" cy="72" r="7.5" fill="rgb(189,189,189)"/><g clip-path="url(#_clipPath_ZrT1NP4jrh5LIuimm1OlIfuGQ4YDJS9C)"><text transform="matrix(1,0,0,1,377.146,75.879)" style="font-family:'Open Sans';font-weight:700;font-size:10px;font-style:normal;fill:#000000;stroke:none;">5</text></g><defs><clipPath id="_clipPath_ZrT1NP4jrh5LIuimm1OlIfuGQ4YDJS9C"><rect x="0" y="0" width="8" height="13.618" transform="matrix(1,0,0,1,377,65.191)"/></clipPath></defs></g></svg>