<?xml version="1.0" encoding="UTF-8" standalone="no"?><!-- Generator: Gravit.io --><svg xmlns="http://www.w3.org/2000/svg" xmlns:xlink="http://www.w3.org/1999/xlink" style="isolation:isolate" viewBox="0 0 250 200" width="250pt" height="200pt"><defs><clipPath id="_clipPath_NDPGvslDuDX8MGFOTRI0UDkIB35rs7kd"><rect width="250" height="200"/></clipPath></defs><g clip-path="url(#_clipPath_NDPGvslDuDX8MGFOTRI0UDkIB35rs7kd)"><rect width="250" height="200" style="fill:rgb(0,0,0)"/><path d="M 89.919 14 L 160.081 14 C 166.107 14 171 18.893 171 24.919 L 171 175.081 C 171 181.107 166.107 186 160.081 186 L 89.919 186 C 83.893 186 79 181.107 79 175.081 L 79 24.919 C 79 18.893 83.893 14 89.919 14 Z" style="fill:none;stroke:#999989;stroke-width:4;stroke-linecap:square;stroke-miterlimit:2;"/><line x1="155.114" y1="142.191" x2="183" y2="142.191" vector-effect="non-scaling-stroke" stroke-width="1.5" stroke="rgb(189,189,189)" stroke-linejoin="miter" stroke-linecap="square" stroke-miterlimit="3"/><circle vector-effect="non-scaling-stroke" cx="195.5" cy="142.69091796875" r="7.5" fill="rgb(189,189,189)"/><g clip-path="url(#_clipPath_GYjpCEMxX3uJGSx4BSKJqDuA91XQSkaT)"><text transform="matrix(1,0,0,1,192.146,146.57)" style="font-family:'Open Sans';font-weight:700;font-size:10px;font-style:normal;fill:#000000;stroke:none;">2</text></g><defs><clipPath id="_clipPath_GYjpCEMxX3uJGSx4BSKJqDuA91XQSkaT"><rect x="0" y="0" width="8" height="13.618" transform="matrix(1,0,0,1,192,135.882)"/></clipPath></defs><radialGradient id="_rgradient_0" fx="0.5" fy="0.5" cx="0.5" cy="0.5" r="0.5" gradientTransform="matrix(62.75,0,0,62.75,93.625,31.75)" gradientUnits="userSpaceOnUse"><stop offset="2.5%" stop-opacity="1" style="stop-color:rgb(255,255,255)"/><stop offset="98.75%" stop-opacity="1" style="stop-color:rgb(255,131,0)"/></radialGradient><circle vector-effect="non-scaling-stroke" cx="125.00000000000009" cy="63.12500000000004" r="31.375" fill="url(#_rgradient_0)"/><path d="M 93.51 144 L 101.37 144 C 105.581 144 109 147.42 109 151.633 L 109 159.497 C 109 163.71 105.581 167.13 101.37 167.13 L 93.51 167.13 C 89.299 167.13 85.88 163.71 85.88 159.497 L 85.88 151.633 C 85.88 147.42 89.299 144 93.51 144 Z" style="stroke:none;fill:#FF8300;stroke-miterlimit:10;"/><path d="M 121.07 144 L 128.93 144 C 133.141 144 136.56 147.42 136.56 151.633 L 136.56 159.497 C 136.56 163.71 133.141 167.13 128.93 167.13 L 121.07 167.13 C 116.859 167.13 113.44 163.71 113.44 159.497 L 113.44 151.633 C 113.44 147.42 116.859 144 121.07 144 Z" style="stroke:none;fill:#FF8300;stroke-miterlimit:10;"/><path d="M 148.633 144 L 156.497 144 C 160.71 144 164.13 147.42 164.13 151.633 L 164.13 159.497 C 164.13 163.71 160.71 167.13 156.497 167.13 L 148.633 167.13 C 144.42 167.13 141 163.71 141 159.497 L 141 151.633 C 141 147.42 144.42 144 148.633 144 Z" style="stroke:none;fill:#FF8300;stroke-miterlimit:10;"/><path d="M 93.51 116.94 L 101.37 116.94 C 105.581 116.94 109 120.36 109 124.573 L 109 132.437 C 109 136.65 105.581 140.07 101.37 140.07 L 93.51 140.07 C 89.299 140.07 85.88 136.65 85.88 132.437 L 85.88 124.573 C 85.88 120.36 89.299 116.94 93.51 116.94 Z" style="stroke:none;fill:#FF8300;stroke-miterlimit:10;"/><path d="M 94.732 123.76 L 100.148 123.76 C 101.275 123.76 102.19 124.674 102.19 125.8 L 102.19 131.21 C 102.19 132.336 101.275 133.25 100.148 133.25 L 94.732 133.25 C 93.605 133.25 92.69 132.336 92.69 131.21 L 92.69 125.8 C 92.69 124.674 93.605 123.76 94.732 123.76 Z" style="stroke:none;fill:#EBEBEB;stroke-miterlimit:10;"/><path d="M 121.07 116.94 L 128.93 116.94 C 133.141 116.94 136.56 120.36 136.56 124.573 L 136.56 132.437 C 136.56 136.65 133.141 140.07 128.93 140.07 L 121.07 140.07 C 116.859 140.07 113.44 136.65 113.44 132.437 L 113.44 124.573 C 113.44 120.36 116.859 116.94 121.07 116.94 Z" style="stroke:none;fill:#FF8300;stroke-miterlimit:10;"/><path d="M 148.633 116.94 L 156.497 116.94 C 160.71 116.94 164.13 120.36 164.13 124.573 L 164.13 132.437 C 164.13 136.65 160.71 140.07 156.497 140.07 L 148.633 140.07 C 144.42 140.07 141 136.65 141 132.437 L 141 124.573 C 141 120.36 144.42 116.94 148.633 116.94 Z" style="stroke:none;fill:#FF8300;stroke-miterlimit:10;"/><line x1="72" y1="64" x2="99.886" y2="64" vector-effect="non-scaling-stroke" stroke-width="1.5" stroke="rgb(189,189,189)" stroke-linejoin="miter" stroke-linecap="square" stroke-miterlimit="3"/><circle vector-effect="non-scaling-stroke" cx="59.385818481445284" cy="64.50000000000003" r="7.5" fill="rgb(189,189,189)"/><g clip-path="url(#_clipPath_8QxhiFu9A9Y8tqXNuGxTBfZPKRfGFlCE)"><text transform="matrix(1,0,0,1,56.032,68.379)" style="font-family:'Open Sans';font-weight:700;font-size:10px;font-style:normal;fill:#000000;stroke:none;">1</text></g><defs><clipPath id="_clipPath_8QxhiFu9A9Y8tqXNuGxTBfZPKRfGFlCE"><rect x="0" y="0" width="8" height="13.618" transform="matrix(1,0,0,1,55.886,57.691)"/></clipPath></defs><path d="M 122.292 123.76 L 127.708 123.76 C 128.835 123.76 129.75 124.674 129.75 125.8 L 129.75 131.21 C 129.75 132.336 128.835 133.25 127.708 133.25 L 122.293 133.25 C 121.165 133.25 120.25 132.336 120.25 131.21 L 120.25 125.8 C 120.25 124.674 121.165 123.76 122.292 123.76 Z" style="stroke:none;fill:#EBEBEB;stroke-miterlimit:10;"/><path d="M 149.853 123.76 L 155.268 123.76 C 156.395 123.76 157.31 124.674 157.31 125.8 L 157.31 131.21 C 157.31 132.336 156.395 133.25 155.268 133.25 L 149.853 133.25 C 148.725 133.25 147.81 132.336 147.81 131.21 L 147.81 125.8 C 147.81 124.674 148.725 123.76 149.853 123.76 Z" style="stroke:none;fill:#EBEBEB;stroke-miterlimit:10;"/><path d="M 94.732 150.81 L 100.148 150.81 C 101.275 150.81 102.19 151.725 102.19 152.853 L 102.19 158.268 C 102.19 159.395 101.275 160.31 100.148 160.31 L 94.732 160.31 C 93.605 160.31 92.69 159.395 92.69 158.268 L 92.69 152.853 C 92.69 151.725 93.605 150.81 94.732 150.81 Z" style="stroke:none;fill:#EBEBEB;stroke-miterlimit:10;"/><path d="M 122.292 150.81 L 127.708 150.81 C 128.835 150.81 129.75 151.725 129.75 152.853 L 129.75 158.268 C 129.75 159.395 128.835 160.31 127.708 160.31 L 122.293 160.31 C 121.165 160.31 120.25 159.395 120.25 158.268 L 120.25 152.853 C 120.25 151.725 121.165 150.81 122.292 150.81 Z" style="stroke:none;fill:#EBEBEB;stroke-miterlimit:10;"/><path d="M 149.853 150.81 L 155.268 150.81 C 156.395 150.81 157.31 151.725 157.31 152.853 L 157.31 158.268 C 157.31 159.395 156.395 160.31 155.268 160.31 L 149.853 160.31 C 148.725 160.31 147.81 159.395 147.81 158.268 L 147.81 152.853 C 147.81 151.725 148.725 150.81 149.853 150.81 Z" style="stroke:none;fill:#EBEBEB;stroke-miterlimit:10;"/></g></svg>