<?xml version="1.0" encoding="UTF-8" standalone="no"?><!-- Generator: Gravit.io --><svg xmlns="http://www.w3.org/2000/svg" xmlns:xlink="http://www.w3.org/1999/xlink" style="isolation:isolate" viewBox="0 0 200 100" width="200pt" height="100pt"><defs><clipPath id="_clipPath_SDHGpYAQeqWwBs8JcVHSdO90ixDkvkUn"><rect width="200" height="100"/></clipPath></defs><g clip-path="url(#_clipPath_SDHGpYAQeqWwBs8JcVHSdO90ixDkvkUn)"><rect width="200" height="100" style="fill:rgb(0,0,0)"/><path d="M 30.286 41.73 L 127.714 41.73 C 131.183 41.73 134 44.546 134 48.014 L 134 51.736 C 134 55.204 131.183 58.02 127.714 58.02 L 30.286 58.02 C 26.817 58.02 24 55.204 24 51.736 L 24 48.014 C 24 44.546 26.817 41.73 30.286 41.73 Z" style="stroke:none;fill:#3B3B3B;stroke-miterlimit:10;"/><path d="M 29.223 45.46 L 34.057 45.46 C 35.063 45.46 35.88 46.278 35.88 47.285 L 35.88 52.125 C 35.88 53.132 35.063 53.95 34.057 53.95 L 29.223 53.95 C 28.217 53.95 27.4 53.132 27.4 52.125 L 27.4 47.285 C 27.4 46.278 28.217 45.46 29.223 45.46 Z" style="stroke:none;fill:#EBEBEB;stroke-miterlimit:10;"/><line x1="42.333" y1="47.327" x2="89.419" y2="47.327" vector-effect="non-scaling-stroke" stroke-width="2" stroke="rgb(166,166,166)" stroke-linejoin="miter" stroke-linecap="round" stroke-miterlimit="3"/><line x1="122.457" y1="49.873" x2="129.247" y2="49.873" vector-effect="non-scaling-stroke" stroke-width="2" stroke="rgb(166,166,166)" stroke-linejoin="miter" stroke-linecap="round" stroke-miterlimit="3"/><line x1="42.333" y1="52.08" x2="76.707" y2="52.08" vector-effect="non-scaling-stroke" stroke-width="2" stroke="rgb(166,166,166)" stroke-linejoin="miter" stroke-linecap="round" stroke-miterlimit="3"/><line x1="138" y1="49.873" x2="156.142" y2="49.873" vector-effect="non-scaling-stroke" stroke-width="1.5" stroke="rgb(189,189,189)" stroke-linejoin="miter" stroke-linecap="square" stroke-miterlimit="3"/><circle vector-effect="non-scaling-stroke" cx="168.5" cy="49.87323676215278" r="7.5" fill="rgb(189,189,189)"/><g clip-path="url(#_clipPath_iNF0FpkWBOfO9GUzhdFRGrxuK89hRwKr)"><text transform="matrix(1,0,0,1,165.429,53.753)" style="font-family:'Open Sans';font-weight:700;font-size:10px;font-style:normal;fill:#000000;stroke:none;">c</text></g><defs><clipPath id="_clipPath_iNF0FpkWBOfO9GUzhdFRGrxuK89hRwKr"><rect x="0" y="0" width="8" height="13.618" transform="matrix(1,0,0,1,165,43.064)"/></clipPath></defs><line x1="58.5" y1="37.873" x2="58.5" y2="22.873" vector-effect="non-scaling-stroke" stroke-width="1.5" stroke="rgb(189,189,189)" stroke-linejoin="miter" stroke-linecap="square" stroke-miterlimit="3"/><circle vector-effect="non-scaling-stroke" cx="58.500000000000014" cy="11.373236762152771" r="7.5" fill="rgb(189,189,189)"/><g clip-path="url(#_clipPath_idVIR9xsGiXuFwKmrrCfBrqn9RjEK5v9)"><text transform="matrix(1,0,0,1,55,15.253)" style="font-family:'Open Sans';font-weight:700;font-size:10px;font-style:normal;fill:#000000;stroke:none;">a</text></g><defs><clipPath id="_clipPath_idVIR9xsGiXuFwKmrrCfBrqn9RjEK5v9"><rect x="0" y="0" width="8" height="13.618" transform="matrix(1,0,0,1,55,4.564)"/></clipPath></defs><line x1="58.5" y1="76.398" x2="58.5" y2="61.398" vector-effect="non-scaling-stroke" stroke-width="1.5" stroke="rgb(189,189,189)" stroke-linejoin="miter" stroke-linecap="square" stroke-miterlimit="3"/><circle vector-effect="non-scaling-stroke" cx="58.500000000000014" cy="88.62676323784723" r="7.5" fill="rgb(189,189,189)"/><g clip-path="url(#_clipPath_SRsoxeglx840pWhA3ggXnujrUJ7dZsoP)"><text transform="matrix(1,0,0,1,55,92.506)" style="font-family:'Open Sans';font-weight:700;font-size:10px;font-style:normal;fill:#000000;stroke:none;">b</text></g><defs><clipPath id="_clipPath_SRsoxeglx840pWhA3ggXnujrUJ7dZsoP"><rect x="0" y="0" width="8" height="13.618" transform="matrix(1,0,0,1,55,81.818)"/></clipPath></defs></g></svg>