<?xml version="1.0" encoding="UTF-8" standalone="no"?><!-- Generator: Gravit.io --><svg xmlns="http://www.w3.org/2000/svg" xmlns:xlink="http://www.w3.org/1999/xlink" style="isolation:isolate" viewBox="0 0 250 200" width="250pt" height="200pt"><defs><clipPath id="_clipPath_adP8ZKw7KLBuuWtPBPhUOnk6JpZbFVrj"><rect width="250" height="200"/></clipPath></defs><g clip-path="url(#_clipPath_adP8ZKw7KLBuuWtPBPhUOnk6JpZbFVrj)"><rect width="250" height="200" style="fill:rgb(0,0,0)"/><path d="M 89.919 14 L 160.081 14 C 166.107 14 171 18.893 171 24.919 L 171 175.081 C 171 181.107 166.107 186 160.081 186 L 89.919 186 C 83.893 186 79 181.107 79 175.081 L 79 24.919 C 79 18.893 83.893 14 89.919 14 Z" style="fill:none;stroke:#999989;stroke-width:2;stroke-linecap:square;stroke-miterlimit:2;"/><path d="M 141.499 166 L 158.831 166 C 162.418 166 165.33 168.913 165.33 172.5 L 165.33 172.5 C 165.33 176.087 162.418 179 158.831 179 L 141.499 179 C 137.912 179 135 176.087 135 172.5 L 135 172.5 C 135 168.913 137.912 166 141.499 166 Z" style="stroke:none;fill:#FF8300;stroke-miterlimit:10;"/><path d="M 141.05 168.5 L 145.61 168.5 C 146.559 168.5 147.33 169.271 147.33 170.22 L 147.33 174.78 C 147.33 175.729 146.559 176.5 145.61 176.5 L 141.05 176.5 C 140.101 176.5 139.33 175.729 139.33 174.78 L 139.33 170.22 C 139.33 169.271 140.101 168.5 141.05 168.5 Z" style="stroke:none;fill:#EBEBEB;stroke-miterlimit:10;"/><line x1="151.333" y1="172.5" x2="161.066" y2="172.5" vector-effect="non-scaling-stroke" stroke-width="2" stroke="rgb(235,235,235)" stroke-linejoin="miter" stroke-linecap="round" stroke-miterlimit="3"/><line x1="177" y1="172.5" x2="195.142" y2="172.5" vector-effect="non-scaling-stroke" stroke-width="1.5" stroke="rgb(189,189,189)" stroke-linejoin="miter" stroke-linecap="square" stroke-miterlimit="3"/><circle vector-effect="non-scaling-stroke" cx="207.5" cy="172.49999999999994" r="7.5" fill="rgb(189,189,189)"/><g clip-path="url(#_clipPath_pdMN3rV0x6J71LvMBc1Ocmp7o0c1oY0D)"><text transform="matrix(1,0,0,1,204.146,176.379)" style="font-family:'Open Sans';font-weight:700;font-size:10px;font-style:normal;fill:#000000;stroke:none;">2</text></g><defs><clipPath id="_clipPath_pdMN3rV0x6J71LvMBc1Ocmp7o0c1oY0D"><rect x="0" y="0" width="8" height="13.618" transform="matrix(1,0,0,1,204,165.691)"/></clipPath></defs><path d="M 88.625 20 L 161.375 20 C 163.652 20 165.5 21.848 165.5 24.125 L 165.5 30.875 C 165.5 33.152 163.652 35 161.375 35 L 88.625 35 C 86.348 35 84.5 33.152 84.5 30.875 L 84.5 24.125 C 84.5 21.848 86.348 20 88.625 20 Z" style="stroke:none;fill:#3B3B3B;stroke-miterlimit:10;"/><path d="M 89.612 23.75 L 93.887 23.75 C 94.777 23.75 95.5 24.473 95.5 25.363 L 95.5 29.638 C 95.5 30.527 94.777 31.25 93.887 31.25 L 89.612 31.25 C 88.723 31.25 88 30.527 88 29.638 L 88 25.363 C 88 24.473 88.723 23.75 89.612 23.75 Z" style="stroke:none;fill:#EBEBEB;stroke-miterlimit:10;"/><path d="M 157.305 24.47 L 160.765 24.47 C 161.485 24.47 162.07 25.054 162.07 25.773 L 162.07 29.227 C 162.07 29.946 161.485 30.53 160.765 30.53 L 157.305 30.53 C 156.585 30.53 156 29.946 156 29.227 L 156 25.773 C 156 25.054 156.585 24.47 157.305 24.47 Z" style="stroke:none;fill:#EBEBEB;stroke-miterlimit:10;"/><line x1="100" y1="27.5" x2="144" y2="27.5" vector-effect="non-scaling-stroke" stroke-width="2" stroke="rgb(166,166,166)" stroke-linejoin="miter" stroke-linecap="round" stroke-miterlimit="3"/><path d="M 88.625 38 L 161.375 38 C 163.652 38 165.5 39.848 165.5 42.125 L 165.5 48.875 C 165.5 51.152 163.652 53 161.375 53 L 88.625 53 C 86.348 53 84.5 51.152 84.5 48.875 L 84.5 42.125 C 84.5 39.848 86.348 38 88.625 38 Z" style="stroke:none;fill:#3B3B3B;stroke-miterlimit:10;"/><path d="M 89.612 41.75 L 93.887 41.75 C 94.777 41.75 95.5 42.473 95.5 43.363 L 95.5 47.638 C 95.5 48.527 94.777 49.25 93.887 49.25 L 89.612 49.25 C 88.723 49.25 88 48.527 88 47.638 L 88 43.363 C 88 42.473 88.723 41.75 89.612 41.75 Z" style="stroke:none;fill:#EBEBEB;stroke-miterlimit:10;"/><path d="M 157.305 42.47 L 160.765 42.47 C 161.485 42.47 162.07 43.054 162.07 43.773 L 162.07 47.227 C 162.07 47.946 161.485 48.53 160.765 48.53 L 157.305 48.53 C 156.585 48.53 156 47.946 156 47.227 L 156 43.773 C 156 43.054 156.585 42.47 157.305 42.47 Z" style="stroke:none;fill:#EBEBEB;stroke-miterlimit:10;"/><line x1="100" y1="45.5" x2="144" y2="45.5" vector-effect="non-scaling-stroke" stroke-width="2" stroke="rgb(166,166,166)" stroke-linejoin="miter" stroke-linecap="round" stroke-miterlimit="3"/><path d="M 88.625 56 L 161.375 56 C 163.652 56 165.5 57.848 165.5 60.125 L 165.5 66.875 C 165.5 69.152 163.652 71 161.375 71 L 88.625 71 C 86.348 71 84.5 69.152 84.5 66.875 L 84.5 60.125 C 84.5 57.848 86.348 56 88.625 56 Z" style="stroke:none;fill:#3B3B3B;stroke-miterlimit:10;"/><path d="M 89.612 59.75 L 93.887 59.75 C 94.777 59.75 95.5 60.473 95.5 61.363 L 95.5 65.638 C 95.5 66.527 94.777 67.25 93.887 67.25 L 89.612 67.25 C 88.723 67.25 88 66.527 88 65.638 L 88 61.363 C 88 60.473 88.723 59.75 89.612 59.75 Z" style="stroke:none;fill:#EBEBEB;stroke-miterlimit:10;"/><path d="M 157.305 60.47 L 160.765 60.47 C 161.485 60.47 162.07 61.054 162.07 61.773 L 162.07 65.227 C 162.07 65.946 161.485 66.53 160.765 66.53 L 157.305 66.53 C 156.585 66.53 156 65.946 156 65.227 L 156 61.773 C 156 61.054 156.585 60.47 157.305 60.47 Z" style="stroke:none;fill:#EBEBEB;stroke-miterlimit:10;"/><line x1="100" y1="63.5" x2="144" y2="63.5" vector-effect="non-scaling-stroke" stroke-width="2" stroke="rgb(166,166,166)" stroke-linejoin="miter" stroke-linecap="round" stroke-miterlimit="3"/><line x1="56.858" y1="27.5" x2="75" y2="27.5" vector-effect="non-scaling-stroke" stroke-width="1.5" stroke="rgb(189,189,189)" stroke-linejoin="miter" stroke-linecap="square" stroke-miterlimit="3"/><circle vector-effect="non-scaling-stroke" cx="44.35752487182617" cy="27.5" r="7.5" fill="rgb(189,189,189)"/><g clip-path="url(#_clipPath_9EMyolJzjErNUYJbHorUH85QFCZ5ijWa)"><text transform="matrix(1,0,0,1,41.004,31.379)" style="font-family:'Open Sans';font-weight:700;font-size:10px;font-style:normal;fill:#000000;stroke:none;">1</text></g><defs><clipPath id="_clipPath_9EMyolJzjErNUYJbHorUH85QFCZ5ijWa"><rect x="0" y="0" width="8" height="13.618" transform="matrix(1,0,0,1,40.858,20.691)"/></clipPath></defs></g></svg>