<?xml version="1.0" encoding="UTF-8" standalone="no"?><!-- Generator: Gravit.io --><svg xmlns="http://www.w3.org/2000/svg" xmlns:xlink="http://www.w3.org/1999/xlink" style="isolation:isolate" viewBox="0 0 1400 500" width="1400pt" height="500pt"><defs><clipPath id="_clipPath_2JZpg5ftnk56bjD30EKj9mmIOXP2IZx0"><rect width="1400" height="500"/></clipPath></defs><g clip-path="url(#_clipPath_2JZpg5ftnk56bjD30EKj9mmIOXP2IZx0)"><line x1="607.678" y1="233.354" x2="722.815" y2="278.454" vector-effect="non-scaling-stroke" stroke-width="5" stroke="rgb(206,206,206)" stroke-linejoin="miter" stroke-linecap="round" stroke-miterlimit="3"/><path d="M 687.792 148.73 L 712.208 148.73 C 757.301 148.73 793.91 185.339 793.91 230.432 L 793.91 254.848 C 793.91 299.941 757.301 336.55 712.208 336.55 L 687.792 336.55 C 642.699 336.55 606.09 299.941 606.09 254.848 L 606.09 230.432 C 606.09 185.339 642.699 148.73 687.792 148.73 Z" style="fill:none;stroke:#8C8C8C;stroke-width:10;stroke-linecap:square;stroke-miterlimit:2;"/><g clip-path="url(#_clipPath_TNegIyO1Y4sLdnsZec6wipRbLLYsAUMM)"><text transform="matrix(0.796,0,0,0.796,623.561,391.46)" style="font-family:'Open Sans';font-weight:700;font-size:20px;font-style:normal;fill:#000000;stroke:none;">Aruba Access Point</text></g><defs><clipPath id="_clipPath_TNegIyO1Y4sLdnsZec6wipRbLLYsAUMM"><rect x="0" y="0" width="267" height="35.25" transform="matrix(0.796,0,0,0.796,593.75,371.257)"/></clipPath></defs><g clip-path="url(#_clipPath_LzhqKYo0JXY3AbvAv5E5b1zuYSwdxlY8)"><text transform="matrix(0.796,0,0,0.796,1178.131,391.46)" style="font-family:'Open Sans';font-weight:700;font-size:20px;font-style:normal;fill:#000000;stroke:none;">BLE-Device</text></g><defs><clipPath id="_clipPath_LzhqKYo0JXY3AbvAv5E5b1zuYSwdxlY8"><rect x="0" y="0" width="267" height="35.25" transform="matrix(0.796,0,0,0.796,1115.883,371.257)"/></clipPath></defs><path d="M 138.8 161.53 L 216.85 161.53 C 225.945 161.53 233.33 168.914 233.33 178.01 L 233.33 334.45 C 233.33 343.546 225.945 350.93 216.85 350.93 L 138.8 350.93 C 129.705 350.93 122.32 343.546 122.32 334.45 L 122.32 178.01 C 122.32 168.914 129.705 161.53 138.8 161.53 Z" style="fill:none;stroke:#000000;stroke-width:13;stroke-linecap:square;stroke-miterlimit:2;"/><line x1="166.86" y1="177.974" x2="187.787" y2="177.974" vector-effect="non-scaling-stroke" stroke-width="9" stroke="rgb(0,0,0)" stroke-linejoin="miter" stroke-linecap="round" stroke-miterlimit="3"/><g clip-path="url(#_clipPath_QqoxGYEcsqZDMX8xqNy8Y6Yflaua7031)"><text transform="matrix(0.786,0,0,0.786,57.758,391.796)" style="font-family:'Open Sans';font-weight:700;font-size:20px;font-style:normal;fill:#000000;stroke:none;">Smartphone / IoT-Utilities App</text></g><defs><clipPath id="_clipPath_QqoxGYEcsqZDMX8xqNy8Y6Yflaua7031"><rect x="0" y="0" width="327.461" height="36.75" transform="matrix(0.786,0,0,0.786,48.647,371.257)"/></clipPath></defs><path d=" M 227.787 142.489 C 227.944 142.486 228.1 142.485 228.257 142.485 C 242.088 142.485 253.381 153.439 253.921 167.138" fill="none" vector-effect="non-scaling-stroke" stroke-width="12" stroke="rgb(0,0,0)" stroke-linejoin="miter" stroke-linecap="square" stroke-miterlimit="3"/><path d=" M 227.787 123.888 C 228.06 123.883 228.333 123.881 228.607 123.881 C 252.715 123.881 272.399 142.975 273.341 166.854" fill="none" vector-effect="non-scaling-stroke" stroke-width="12" stroke="rgb(0,0,0)" stroke-linejoin="miter" stroke-linecap="square" stroke-miterlimit="3"/><path d=" M 227.787 105.533 C 228.172 105.527 228.557 105.524 228.944 105.524 C 262.945 105.524 290.706 132.453 292.035 166.13" fill="none" vector-effect="non-scaling-stroke" stroke-width="12" stroke="rgb(0,0,0)" stroke-linejoin="miter" stroke-linecap="square" stroke-miterlimit="3"/><line x1="150.578" y1="210.186" x2="204.069" y2="210.186" vector-effect="non-scaling-stroke" stroke-width="4" stroke="rgb(0,0,0)" stroke-linejoin="miter" stroke-linecap="round" stroke-miterlimit="3"/><line x1="150.578" y1="253.709" x2="204.069" y2="253.709" vector-effect="non-scaling-stroke" stroke-width="4" stroke="rgb(0,0,0)" stroke-linejoin="miter" stroke-linecap="round" stroke-miterlimit="3"/><line x1="150.578" y1="232.4" x2="204.069" y2="232.4" vector-effect="non-scaling-stroke" stroke-width="4" stroke="rgb(0,0,0)" stroke-linejoin="miter" stroke-linecap="round" stroke-miterlimit="3"/><line x1="150.578" y1="275.924" x2="204.069" y2="275.924" vector-effect="non-scaling-stroke" stroke-width="4" stroke="rgb(0,0,0)" stroke-linejoin="miter" stroke-linecap="round" stroke-miterlimit="3"/><line x1="150.578" y1="221.127" x2="204.069" y2="221.127" vector-effect="non-scaling-stroke" stroke-width="4" stroke="rgb(0,0,0)" stroke-linejoin="miter" stroke-linecap="round" stroke-miterlimit="3"/><line x1="150.578" y1="264.651" x2="204.069" y2="264.651" vector-effect="non-scaling-stroke" stroke-width="4" stroke="rgb(0,0,0)" stroke-linejoin="miter" stroke-linecap="round" stroke-miterlimit="3"/><line x1="150.578" y1="243.341" x2="204.069" y2="243.341" vector-effect="non-scaling-stroke" stroke-width="4" stroke="rgb(0,0,0)" stroke-linejoin="miter" stroke-linecap="round" stroke-miterlimit="3"/><line x1="150.578" y1="286.865" x2="204.069" y2="286.865" vector-effect="non-scaling-stroke" stroke-width="4" stroke="rgb(0,0,0)" stroke-linejoin="miter" stroke-linecap="round" stroke-miterlimit="3"/><circle vector-effect="non-scaling-stroke" cx="177.32352865353803" cy="321.2297028405836" r="13.231200169296244" fill="none" stroke-width="3" stroke="rgb(255,131,0)" stroke-linejoin="miter" stroke-linecap="square" stroke-miterlimit="3"/><line x1="294.809" y1="249.444" x2="566.75" y2="250.781" vector-effect="non-scaling-stroke" stroke-width="10" stroke="rgb(255,131,0)" stroke-linejoin="miter" stroke-linecap="round" stroke-miterlimit="3"/><line x1="572" y1="250.492" x2="540.129" y2="229.7" vector-effect="non-scaling-stroke" stroke-width="10" stroke="rgb(255,131,0)" stroke-linejoin="miter" stroke-linecap="round" stroke-miterlimit="3"/><line x1="571.996" y1="251.136" x2="539.867" y2="271.525" vector-effect="non-scaling-stroke" stroke-width="10" stroke="rgb(255,131,0)" stroke-linejoin="miter" stroke-linecap="round" stroke-miterlimit="3"/><line x1="288.061" y1="252.493" x2="321.779" y2="270.132" vector-effect="non-scaling-stroke" stroke-width="10" stroke="rgb(255,131,0)" stroke-linejoin="miter" stroke-linecap="round" stroke-miterlimit="3"/><line x1="288.003" y1="251.852" x2="318.028" y2="228.475" vector-effect="non-scaling-stroke" stroke-width="10" stroke="rgb(255,131,0)" stroke-linejoin="miter" stroke-linecap="round" stroke-miterlimit="3"/><g clip-path="url(#_clipPath_PICTAo2vsDsPqAn9rYoPf9j9aoyDlYzq)"><text transform="matrix(1,0,0,1,325.441,171.529)" style="font-family:'Open Sans';font-weight:700;font-size:22px;font-style:italic;fill:#ff8300;stroke:none;">Sending actions and </text><text transform="matrix(1,0,0,1,344.374,201.489)" style="font-family:'Open Sans';font-weight:700;font-size:22px;font-style:italic;fill:#ff8300;stroke:none;">receiving results</text></g><defs><clipPath id="_clipPath_PICTAo2vsDsPqAn9rYoPf9j9aoyDlYzq"><rect x="0" y="0" width="297.333" height="91.333" transform="matrix(1,0,0,1,282.113,132.307)"/></clipPath></defs><line x1="838.696" y1="249.444" x2="1110.637" y2="250.781" vector-effect="non-scaling-stroke" stroke-width="10" stroke="rgb(255,131,0)" stroke-linejoin="miter" stroke-linecap="round" stroke-miterlimit="3"/><line x1="1115.887" y1="250.492" x2="1084.016" y2="229.7" vector-effect="non-scaling-stroke" stroke-width="10" stroke="rgb(255,131,0)" stroke-linejoin="miter" stroke-linecap="round" stroke-miterlimit="3"/><line x1="1115.883" y1="251.136" x2="1083.754" y2="271.525" vector-effect="non-scaling-stroke" stroke-width="10" stroke="rgb(255,131,0)" stroke-linejoin="miter" stroke-linecap="round" stroke-miterlimit="3"/><line x1="831.948" y1="252.493" x2="865.666" y2="270.132" vector-effect="non-scaling-stroke" stroke-width="10" stroke="rgb(255,131,0)" stroke-linejoin="miter" stroke-linecap="round" stroke-miterlimit="3"/><line x1="831.89" y1="251.852" x2="861.916" y2="228.475" vector-effect="non-scaling-stroke" stroke-width="10" stroke="rgb(255,131,0)" stroke-linejoin="miter" stroke-linecap="round" stroke-miterlimit="3"/><g clip-path="url(#_clipPath_2PzpZM23T1M6CDQJfbXqPQkqhU4vvx6k)"><text transform="matrix(1,0,0,1,832.847,171.529)" style="font-family:'Open Sans';font-weight:700;font-size:22px;font-style:italic;fill:#ff8300;stroke:none;">Executing GATT-Commands </text><text transform="matrix(1,0,0,1,861.857,201.489)" style="font-family:'Open Sans';font-weight:700;font-size:22px;font-style:italic;fill:#ff8300;stroke:none;">and retrieving results</text></g><defs><clipPath id="_clipPath_2PzpZM23T1M6CDQJfbXqPQkqhU4vvx6k"><rect x="0" y="0" width="297.333" height="91.333" transform="matrix(1,0,0,1,826,132.307)"/></clipPath></defs><path d=" M 1259.118 230.39 C 1259.255 230.522 1259.391 230.656 1259.526 230.791 C 1271.42 242.685 1271.711 261.817 1260.395 274.063" fill="none" vector-effect="non-scaling-stroke" stroke-width="8" stroke="rgb(0,0,0)" stroke-linejoin="miter" stroke-linecap="square" stroke-miterlimit="3"/><path d=" M 1273.02 214.164 C 1273.259 214.394 1273.496 214.627 1273.732 214.863 C 1294.464 235.595 1294.971 268.943 1275.246 290.289" fill="none" vector-effect="non-scaling-stroke" stroke-width="8" stroke="rgb(0,0,0)" stroke-linejoin="miter" stroke-linecap="square" stroke-miterlimit="3"/><path d=" M 1289.67 201.804 C 1289.99 202.114 1290.308 202.426 1290.624 202.742 C 1318.43 230.547 1319.11 275.272 1292.656 303.9" fill="none" vector-effect="non-scaling-stroke" stroke-width="8" stroke="rgb(0,0,0)" stroke-linejoin="miter" stroke-linecap="square" stroke-miterlimit="3"/><line x1="1160.193" y1="294.095" x2="1234.784" y2="219.504" vector-effect="non-scaling-stroke" stroke-width="10" stroke="rgb(0,0,0)" stroke-linejoin="miter" stroke-linecap="square" stroke-miterlimit="3"/><line x1="1159.18" y1="218.363" x2="1234.784" y2="286.09" vector-effect="non-scaling-stroke" stroke-width="10" stroke="rgb(0,0,0)" stroke-linejoin="miter" stroke-linecap="square" stroke-miterlimit="3"/><line x1="1200.332" y1="188.291" x2="1200.295" y2="317.413" vector-effect="non-scaling-stroke" stroke-width="10" stroke="rgb(0,0,0)" stroke-linejoin="miter" stroke-linecap="square" stroke-miterlimit="3"/><line x1="1202.098" y1="186.561" x2="1234.784" y2="219.504" vector-effect="non-scaling-stroke" stroke-width="10" stroke="rgb(0,0,0)" stroke-linejoin="miter" stroke-linecap="butt" stroke-miterlimit="3"/><line x1="1202.098" y1="319.033" x2="1234.784" y2="286.09" vector-effect="non-scaling-stroke" stroke-width="10" stroke="rgb(0,0,0)" stroke-linejoin="miter" stroke-linecap="butt" stroke-miterlimit="3"/><line x1="1202.098" y1="186.561" x2="1234.784" y2="219.504" vector-effect="non-scaling-stroke" stroke-width="10" stroke="rgb(0,0,0)" stroke-linejoin="miter" stroke-linecap="butt" stroke-miterlimit="3"/><line x1="1201.988" y1="319.143" x2="1234.784" y2="286.09" vector-effect="non-scaling-stroke" stroke-width="10" stroke="rgb(0,0,0)" stroke-linejoin="miter" stroke-linecap="butt" stroke-miterlimit="3"/></g></svg>