<?xml version="1.0" encoding="UTF-8" standalone="no"?><!-- Generator: Gravit.io --><svg xmlns="http://www.w3.org/2000/svg" xmlns:xlink="http://www.w3.org/1999/xlink" style="isolation:isolate" viewBox="0 0 200 120" width="200pt" height="120pt"><defs><clipPath id="_clipPath_x3j40Cv51ETN0xML2RQjvgcdqR83wZNX"><rect width="200" height="120"/></clipPath></defs><g clip-path="url(#_clipPath_x3j40Cv51ETN0xML2RQjvgcdqR83wZNX)"><rect width="200" height="120" style="fill:rgb(0,0,0)"/><mask id="_mask_bb9aZO2dCUvavYRkoeYHvWSs3dVJ342F"><path d=" M 64 101.25 L 64 33.331 C 64 25.283 71.523 18.75 80.79 18.75 L 120.21 18.75 C 129.477 18.75 137 25.283 137 33.331 L 137 101.25" fill="white" stroke="none"/></mask><path d=" M 64 101.25 L 64 33.331 C 64 25.283 71.523 18.75 80.79 18.75 L 120.21 18.75 C 129.477 18.75 137 25.283 137 33.331 L 137 101.25" fill="none"/><path d=" M 64 101.25 L 64 33.331 C 64 25.283 71.523 18.75 80.79 18.75 L 120.21 18.75 C 129.477 18.75 137 25.283 137 33.331 L 137 101.25" fill="none" mask="url(#_mask_bb9aZO2dCUvavYRkoeYHvWSs3dVJ342F)" vector-effect="non-scaling-stroke" stroke-width="4" stroke="rgb(153,153,137)" stroke-linejoin="miter" stroke-linecap="square" stroke-miterlimit="3"/><line x1="65" y1="101.25" x2="136" y2="101.25" vector-effect="non-scaling-stroke" stroke-width="2" stroke="rgb(153,153,137)" stroke-linejoin="miter" stroke-linecap="square" stroke-miterlimit="3"/><line x1="84.258" y1="28.25" x2="116.742" y2="28.25" vector-effect="non-scaling-stroke" stroke-width="2" stroke="rgb(166,166,166)" stroke-linejoin="miter" stroke-linecap="round" stroke-miterlimit="3"/><line x1="73.016" y1="65.75" x2="105.5" y2="65.75" vector-effect="non-scaling-stroke" stroke-width="2" stroke="rgb(166,166,166)" stroke-linejoin="miter" stroke-linecap="round" stroke-miterlimit="3"/><line x1="119.287" y1="65.75" x2="126" y2="65.75" vector-effect="non-scaling-stroke" stroke-width="2" stroke="rgb(255,131,0)" stroke-linejoin="miter" stroke-linecap="round" stroke-miterlimit="3"/><line x1="94.926" y1="24.25" x2="106.074" y2="24.25" vector-effect="non-scaling-stroke" stroke-width="1.5" stroke="rgb(166,166,166)" stroke-linejoin="miter" stroke-linecap="round" stroke-miterlimit="3"/><path d="M 74.601 34.54 L 126.399 34.54 C 128.541 34.54 130.28 36.279 130.28 38.422 L 130.28 42.368 C 130.28 44.511 128.541 46.25 126.399 46.25 L 74.601 46.25 C 72.459 46.25 70.72 44.511 70.72 42.368 L 70.72 38.422 C 70.72 36.279 72.459 34.54 74.601 34.54 Z" style="stroke:none;fill:#3B3B3B;stroke-miterlimit:10;"/><path d="M 74.601 34.54 L 126.399 34.54 C 128.541 34.54 130.28 36.279 130.28 38.422 L 130.28 42.368 C 130.28 44.511 128.541 46.25 126.399 46.25 L 74.601 46.25 C 72.459 46.25 70.72 44.511 70.72 42.368 L 70.72 38.422 C 70.72 36.279 72.459 34.54 74.601 34.54 Z" style="fill:none;stroke:#999989;stroke-width:1
;stroke-linecap:square;stroke-miterlimit:2;"/><path d="M 74.601 48.54 L 126.399 48.54 C 128.541 48.54 130.28 50.279 130.28 52.422 L 130.28 56.368 C 130.28 58.511 128.541 60.25 126.399 60.25 L 74.601 60.25 C 72.459 60.25 70.72 58.511 70.72 56.368 L 70.72 52.422 C 70.72 50.279 72.459 48.54 74.601 48.54 Z" style="stroke:none;fill:#3B3B3B;stroke-miterlimit:10;"/><path d="M 74.601 48.54 L 126.399 48.54 C 128.541 48.54 130.28 50.279 130.28 52.422 L 130.28 56.368 C 130.28 58.511 128.541 60.25 126.399 60.25 L 74.601 60.25 C 72.459 60.25 70.72 58.511 70.72 56.368 L 70.72 52.422 C 70.72 50.279 72.459 48.54 74.601 48.54 Z" style="fill:none;stroke:#999989;stroke-width:1;stroke-linecap:square;stroke-miterlimit:2;"/><path d="M 74.196 70.54 L 115.024 70.54 C 116.942 70.54 118.5 72.098 118.5 74.017 L 118.5 78.773 C 118.5 80.692 116.942 82.25 115.024 82.25 L 74.196 82.25 C 72.278 82.25 70.72 80.692 70.72 78.773 L 70.72 74.017 C 70.72 72.098 72.278 70.54 74.196 70.54 Z" style="stroke:none;fill:#3B3B3B;stroke-miterlimit:10;"/><path d="M 74.196 70.54 L 115.024 70.54 C 116.942 70.54 118.5 72.098 118.5 74.017 L 118.5 78.773 C 118.5 80.692 116.942 82.25 115.024 82.25 L 74.196 82.25 C 72.278 82.25 70.72 80.692 70.72 78.773 L 70.72 74.017 C 70.72 72.098 72.278 70.54 74.196 70.54 Z" style="fill:none;stroke:#999989;stroke-width:1;stroke-linecap:square;stroke-miterlimit:2;"/><path d="M 123.79 73.4 L 127.21 73.4 C 127.922 73.4 128.5 73.978 128.5 74.69 L 128.5 78.11 C 128.5 78.822 127.922 79.4 127.21 79.4 L 123.79 79.4 C 123.078 79.4 122.5 78.822 122.5 78.11 L 122.5 74.69 C 122.5 73.978 123.078 73.4 123.79 73.4 Z" style="stroke:none;fill:#EBEBEB;stroke-miterlimit:10;"/><path d="M 71.002 88.25 L 129.998 88.25 C 131.655 88.25 133 89.595 133 91.252 L 133 91.668 C 133 93.325 131.655 94.67 129.998 94.67 L 71.002 94.67 C 69.345 94.67 68 93.325 68 91.668 L 68 91.252 C 68 89.595 69.345 88.25 71.002 88.25 Z" style="stroke:none;fill:#00C853;stroke-miterlimit:10;"/><line x1="75.351" y1="91.46" x2="125.702" y2="91.46" vector-effect="non-scaling-stroke" stroke-width="1.5" stroke="rgb(255,255,255)" stroke-linejoin="miter" stroke-linecap="round" stroke-miterlimit="3"/><circle vector-effect="non-scaling-stroke" cx="125.99999999999994" cy="65.74999999999997" r="2.5" fill="rgb(255,131,0)"/><line x1="37.5" y1="40.396" x2="55.642" y2="40.396" vector-effect="non-scaling-stroke" stroke-width="1.5" stroke="rgb(189,189,189)" stroke-linejoin="miter" stroke-linecap="square" stroke-miterlimit="3"/><circle vector-effect="non-scaling-stroke" cx="24.99999999999997" cy="40.39623585453737" r="7.5" fill="rgb(189,189,189)"/><g clip-path="url(#_clipPath_Li01DMB8BBKOxbgcOLMsU4MOxOMYjHcA)"><text transform="matrix(1,0,0,1,21.5,44.276)" style="font-family:'Open Sans';font-weight:700;font-size:10px;font-style:normal;fill:#000000;stroke:none;">a</text></g><defs><clipPath id="_clipPath_Li01DMB8BBKOxbgcOLMsU4MOxOMYjHcA"><rect x="0" y="0" width="8" height="13.618" transform="matrix(1,0,0,1,21.5,33.587)"/></clipPath></defs><line x1="37.5" y1="65.75" x2="55.642" y2="65.75" vector-effect="non-scaling-stroke" stroke-width="1.5" stroke="rgb(189,189,189)" stroke-linejoin="miter" stroke-linecap="square" stroke-miterlimit="3"/><circle vector-effect="non-scaling-stroke" cx="24.99999999999998" cy="65.75" r="7.5" fill="rgb(189,189,189)"/><g clip-path="url(#_clipPath_m8ihM6LwwP6P0eW3BUL6gUWSV9R7bQ6V)"><text transform="matrix(1,0,0,1,21.836,69.629)" style="font-family:'Open Sans';font-weight:700;font-size:10px;font-style:normal;fill:#000000;stroke:none;">b</text></g><defs><clipPath id="_clipPath_m8ihM6LwwP6P0eW3BUL6gUWSV9R7bQ6V"><rect x="0" y="0" width="9" height="13.618" transform="matrix(1,0,0,1,21.5,58.941)"/></clipPath></defs><line x1="37.5" y1="91.46" x2="55.642" y2="91.46" vector-effect="non-scaling-stroke" stroke-width="1.5" stroke="rgb(189,189,189)" stroke-linejoin="miter" stroke-linecap="square" stroke-miterlimit="3"/><circle vector-effect="non-scaling-stroke" cx="24.99999999999998" cy="91.45987654320987" r="7.5" fill="rgb(189,189,189)"/><g clip-path="url(#_clipPath_eu7cSTKAANZS7iguJo9TXHFS6pNIIZVR)"><text transform="matrix(1,0,0,1,21.929,95.339)" style="font-family:'Open Sans';font-weight:700;font-size:10px;font-style:normal;fill:#000000;stroke:none;">c</text></g><defs><clipPath id="_clipPath_eu7cSTKAANZS7iguJo9TXHFS6pNIIZVR"><rect x="0" y="0" width="8" height="13.618" transform="matrix(1,0,0,1,21.5,84.651)"/></clipPath></defs><line x1="144.5" y1="54.396" x2="162.642" y2="54.396" vector-effect="non-scaling-stroke" stroke-width="1.5" stroke="rgb(189,189,189)" stroke-linejoin="miter" stroke-linecap="square" stroke-miterlimit="3"/><circle vector-effect="non-scaling-stroke" cx="175" cy="54.3962358545374" r="7.5" fill="rgb(189,189,189)"/><g clip-path="url(#_clipPath_PT43THD7SsPCTZB2I2fo0fwvYZiPPcOw)"><text transform="matrix(1,0,0,1,171.5,58.276)" style="font-family:'Open Sans';font-weight:700;font-size:10px;font-style:normal;fill:#000000;stroke:none;">d</text></g><defs><clipPath id="_clipPath_PT43THD7SsPCTZB2I2fo0fwvYZiPPcOw"><rect x="0" y="0" width="8" height="13.618" transform="matrix(1,0,0,1,171.5,47.587)"/></clipPath></defs><line x1="144.5" y1="76.396" x2="162.642" y2="76.396" vector-effect="non-scaling-stroke" stroke-width="1.5" stroke="rgb(189,189,189)" stroke-linejoin="miter" stroke-linecap="square" stroke-miterlimit="3"/><circle vector-effect="non-scaling-stroke" cx="175" cy="76.39623585453742" r="7.5" fill="rgb(189,189,189)"/><g clip-path="url(#_clipPath_9CCwAZQYrSyfxhgFqAljm0VnYcFFcgVx)"><text transform="matrix(1,0,0,1,171.546,80.276)" style="font-family:'Open Sans';font-weight:700;font-size:10px;font-style:normal;fill:#000000;stroke:none;">e</text></g><defs><clipPath id="_clipPath_9CCwAZQYrSyfxhgFqAljm0VnYcFFcgVx"><rect x="0" y="0" width="8" height="13.618" transform="matrix(1,0,0,1,171.5,69.587)"/></clipPath></defs></g></svg>