<?xml version="1.0" encoding="UTF-8" standalone="no"?><!-- Generator: Gravit.io --><svg xmlns="http://www.w3.org/2000/svg" xmlns:xlink="http://www.w3.org/1999/xlink" style="isolation:isolate" viewBox="0 0 250 200" width="250pt" height="200pt"><defs><clipPath id="_clipPath_H4vjUD8QA5scjqC3HI3eajaK4OXPyTrU"><rect width="250" height="200"/></clipPath></defs><g clip-path="url(#_clipPath_H4vjUD8QA5scjqC3HI3eajaK4OXPyTrU)"><rect width="250" height="200" style="fill:rgb(0,0,0)"/><path d="M 89.919 14 L 160.081 14 C 166.107 14 171 18.893 171 24.919 L 171 175.081 C 171 181.107 166.107 186 160.081 186 L 89.919 186 C 83.893 186 79 181.107 79 175.081 L 79 24.919 C 79 18.893 83.893 14 89.919 14 Z" style="fill:none;stroke:#999989;stroke-width:2;stroke-linecap:square;stroke-miterlimit:2;"/><path d="M 88.241 20 L 161.759 20 C 163.824 20 165.5 21.676 165.5 23.741 L 165.5 24.259 C 165.5 26.324 163.824 28 161.759 28 L 88.241 28 C 86.176 28 84.5 26.324 84.5 24.259 L 84.5 23.741 C 84.5 21.676 86.176 20 88.241 20 Z" style="stroke:none;fill:#FF8300;stroke-miterlimit:10;"/><line x1="93.661" y1="24" x2="156.405" y2="24" vector-effect="non-scaling-stroke" stroke-width="2" stroke="rgb(255,255,255)" stroke-linejoin="miter" stroke-linecap="round" stroke-miterlimit="3"/><path d="M 89.675 31 L 160.325 31 C 163.181 31 165.5 33.319 165.5 36.175 L 165.5 40.825 C 165.5 43.681 163.181 46 160.325 46 L 89.675 46 C 86.819 46 84.5 43.681 84.5 40.825 L 84.5 36.175 C 84.5 33.319 86.819 31 89.675 31 Z" style="stroke:none;fill:#3B3B3B;stroke-miterlimit:10;"/><path d="M 89.72 34.5 L 94.28 34.5 C 95.229 34.5 96 35.271 96 36.22 L 96 40.78 C 96 41.729 95.229 42.5 94.28 42.5 L 89.72 42.5 C 88.771 42.5 88 41.729 88 40.78 L 88 36.22 C 88 35.271 88.771 34.5 89.72 34.5 Z" style="stroke:none;fill:#EBEBEB;stroke-miterlimit:10;"/><line x1="101.328" y1="34.25" x2="136" y2="34.25" vector-effect="non-scaling-stroke" stroke-width="2" stroke="rgb(166,166,166)" stroke-linejoin="miter" stroke-linecap="round" stroke-miterlimit="3"/><line x1="152.825" y1="36.75" x2="163" y2="36.75" vector-effect="non-scaling-stroke" stroke-width="2" stroke="rgb(166,166,166)" stroke-linejoin="miter" stroke-linecap="round" stroke-miterlimit="3"/><line x1="101.328" y1="38.75" x2="126.64" y2="38.75" vector-effect="non-scaling-stroke" stroke-width="2" stroke="rgb(166,166,166)" stroke-linejoin="miter" stroke-linecap="round" stroke-miterlimit="3"/><line x1="152.825" y1="40.75" x2="159.847" y2="40.75" vector-effect="non-scaling-stroke" stroke-width="2" stroke="rgb(166,166,166)" stroke-linejoin="miter" stroke-linecap="round" stroke-miterlimit="3"/><line x1="101.328" y1="42.75" x2="126.64" y2="42.75" vector-effect="non-scaling-stroke" stroke-width="2" stroke="rgb(166,166,166)" stroke-linejoin="miter" stroke-linecap="round" stroke-miterlimit="3"/><path d="M 89.675 49 L 160.325 49 C 163.181 49 165.5 51.319 165.5 54.175 L 165.5 58.825 C 165.5 61.681 163.181 64 160.325 64 L 89.675 64 C 86.819 64 84.5 61.681 84.5 58.825 L 84.5 54.175 C 84.5 51.319 86.819 49 89.675 49 Z" style="stroke:none;fill:#3B3B3B;stroke-miterlimit:10;"/><path d="M 89.72 52.5 L 94.28 52.5 C 95.229 52.5 96 53.271 96 54.22 L 96 58.78 C 96 59.729 95.229 60.5 94.28 60.5 L 89.72 60.5 C 88.771 60.5 88 59.729 88 58.78 L 88 54.22 C 88 53.271 88.771 52.5 89.72 52.5 Z" style="stroke:none;fill:#EBEBEB;stroke-miterlimit:10;"/><line x1="101.328" y1="52.25" x2="136" y2="52.25" vector-effect="non-scaling-stroke" stroke-width="2" stroke="rgb(166,166,166)" stroke-linejoin="miter" stroke-linecap="round" stroke-miterlimit="3"/><line x1="152.825" y1="54.75" x2="163" y2="54.75" vector-effect="non-scaling-stroke" stroke-width="2" stroke="rgb(166,166,166)" stroke-linejoin="miter" stroke-linecap="round" stroke-miterlimit="3"/><line x1="101.328" y1="56.75" x2="126.64" y2="56.75" vector-effect="non-scaling-stroke" stroke-width="2" stroke="rgb(166,166,166)" stroke-linejoin="miter" stroke-linecap="round" stroke-miterlimit="3"/><line x1="152.825" y1="58.75" x2="159.847" y2="58.75" vector-effect="non-scaling-stroke" stroke-width="2" stroke="rgb(166,166,166)" stroke-linejoin="miter" stroke-linecap="round" stroke-miterlimit="3"/><line x1="101.328" y1="60.75" x2="126.64" y2="60.75" vector-effect="non-scaling-stroke" stroke-width="2" stroke="rgb(166,166,166)" stroke-linejoin="miter" stroke-linecap="round" stroke-miterlimit="3"/><path d="M 89.675 67 L 160.325 67 C 163.181 67 165.5 69.319 165.5 72.175 L 165.5 76.825 C 165.5 79.681 163.181 82 160.325 82 L 89.675 82 C 86.819 82 84.5 79.681 84.5 76.825 L 84.5 72.175 C 84.5 69.319 86.819 67 89.675 67 Z" style="stroke:none;fill:#3B3B3B;stroke-miterlimit:10;"/><path d="M 89.72 70.5 L 94.28 70.5 C 95.229 70.5 96 71.271 96 72.22 L 96 76.78 C 96 77.729 95.229 78.5 94.28 78.5 L 89.72 78.5 C 88.771 78.5 88 77.729 88 76.78 L 88 72.22 C 88 71.271 88.771 70.5 89.72 70.5 Z" style="stroke:none;fill:#EBEBEB;stroke-miterlimit:10;"/><line x1="101.328" y1="70.25" x2="136" y2="70.25" vector-effect="non-scaling-stroke" stroke-width="2" stroke="rgb(166,166,166)" stroke-linejoin="miter" stroke-linecap="round" stroke-miterlimit="3"/><line x1="152.825" y1="72.75" x2="163" y2="72.75" vector-effect="non-scaling-stroke" stroke-width="2" stroke="rgb(166,166,166)" stroke-linejoin="miter" stroke-linecap="round" stroke-miterlimit="3"/><line x1="101.328" y1="74.75" x2="126.64" y2="74.75" vector-effect="non-scaling-stroke" stroke-width="2" stroke="rgb(166,166,166)" stroke-linejoin="miter" stroke-linecap="round" stroke-miterlimit="3"/><line x1="152.825" y1="76.75" x2="159.847" y2="76.75" vector-effect="non-scaling-stroke" stroke-width="2" stroke="rgb(166,166,166)" stroke-linejoin="miter" stroke-linecap="round" stroke-miterlimit="3"/><line x1="101.328" y1="78.75" x2="126.64" y2="78.75" vector-effect="non-scaling-stroke" stroke-width="2" stroke="rgb(166,166,166)" stroke-linejoin="miter" stroke-linecap="round" stroke-miterlimit="3"/><path d="M 89.675 85 L 160.325 85 C 163.181 85 165.5 87.319 165.5 90.175 L 165.5 94.825 C 165.5 97.681 163.181 100 160.325 100 L 89.675 100 C 86.819 100 84.5 97.681 84.5 94.825 L 84.5 90.175 C 84.5 87.319 86.819 85 89.675 85 Z" style="stroke:none;fill:#3B3B3B;stroke-miterlimit:10;"/><path d="M 89.72 88.5 L 94.28 88.5 C 95.229 88.5 96 89.271 96 90.22 L 96 94.78 C 96 95.729 95.229 96.5 94.28 96.5 L 89.72 96.5 C 88.771 96.5 88 95.729 88 94.78 L 88 90.22 C 88 89.271 88.771 88.5 89.72 88.5 Z" style="stroke:none;fill:#EBEBEB;stroke-miterlimit:10;"/><line x1="101.328" y1="88.25" x2="136" y2="88.25" vector-effect="non-scaling-stroke" stroke-width="2" stroke="rgb(166,166,166)" stroke-linejoin="miter" stroke-linecap="round" stroke-miterlimit="3"/><line x1="152.825" y1="90.75" x2="163" y2="90.75" vector-effect="non-scaling-stroke" stroke-width="2" stroke="rgb(166,166,166)" stroke-linejoin="miter" stroke-linecap="round" stroke-miterlimit="3"/><line x1="101.328" y1="92.75" x2="126.64" y2="92.75" vector-effect="non-scaling-stroke" stroke-width="2" stroke="rgb(166,166,166)" stroke-linejoin="miter" stroke-linecap="round" stroke-miterlimit="3"/><line x1="152.825" y1="94.75" x2="159.847" y2="94.75" vector-effect="non-scaling-stroke" stroke-width="2" stroke="rgb(166,166,166)" stroke-linejoin="miter" stroke-linecap="round" stroke-miterlimit="3"/><line x1="101.328" y1="96.75" x2="126.64" y2="96.75" vector-effect="non-scaling-stroke" stroke-width="2" stroke="rgb(166,166,166)" stroke-linejoin="miter" stroke-linecap="round" stroke-miterlimit="3"/><line x1="55" y1="24" x2="73.142" y2="24" vector-effect="non-scaling-stroke" stroke-width="1.5" stroke="rgb(189,189,189)" stroke-linejoin="miter" stroke-linecap="square" stroke-miterlimit="3"/><circle vector-effect="non-scaling-stroke" cx="42.5" cy="23.999999999999993" r="7.5" fill="rgb(189,189,189)"/><g clip-path="url(#_clipPath_Oj0OYoDdbqbvYTY7LZdQiJZun9WbY3mM)"><text transform="matrix(1,0,0,1,39.146,27.879)" style="font-family:'Open Sans';font-weight:700;font-size:10px;font-style:normal;fill:#000000;stroke:none;">1</text></g><defs><clipPath id="_clipPath_Oj0OYoDdbqbvYTY7LZdQiJZun9WbY3mM"><rect x="0" y="0" width="8" height="13.618" transform="matrix(1,0,0,1,39,17.191)"/></clipPath></defs><line x1="55" y1="56.5" x2="73.142" y2="56.5" vector-effect="non-scaling-stroke" stroke-width="1.5" stroke="rgb(189,189,189)" stroke-linejoin="miter" stroke-linecap="square" stroke-miterlimit="3"/><circle vector-effect="non-scaling-stroke" cx="42.5" cy="56.50000000000003" r="7.5" fill="rgb(189,189,189)"/><g clip-path="url(#_clipPath_AOdOtXtTTXEeWI9sci6TrRfVYBbB4YX7)"><text transform="matrix(1,0,0,1,39.146,60.379)" style="font-family:'Open Sans';font-weight:700;font-size:10px;font-style:normal;fill:#000000;stroke:none;">2</text></g><defs><clipPath id="_clipPath_AOdOtXtTTXEeWI9sci6TrRfVYBbB4YX7"><rect x="0" y="0" width="8" height="13.618" transform="matrix(1,0,0,1,39,49.691)"/></clipPath></defs><path d="M 141.499 166 L 158.831 166 C 162.418 166 165.33 168.913 165.33 172.5 L 165.33 172.5 C 165.33 176.087 162.418 179 158.831 179 L 141.499 179 C 137.912 179 135 176.087 135 172.5 L 135 172.5 C 135 168.913 137.912 166 141.499 166 Z" style="stroke:none;fill:#FF8300;stroke-miterlimit:10;"/><path d="M 141.05 168.5 L 145.61 168.5 C 146.559 168.5 147.33 169.271 147.33 170.22 L 147.33 174.78 C 147.33 175.729 146.559 176.5 145.61 176.5 L 141.05 176.5 C 140.101 176.5 139.33 175.729 139.33 174.78 L 139.33 170.22 C 139.33 169.271 140.101 168.5 141.05 168.5 Z" style="stroke:none;fill:#EBEBEB;stroke-miterlimit:10;"/><line x1="151.333" y1="172.5" x2="161.066" y2="172.5" vector-effect="non-scaling-stroke" stroke-width="2" stroke="rgb(235,235,235)" stroke-linejoin="miter" stroke-linecap="round" stroke-miterlimit="3"/><line x1="178" y1="172.5" x2="196.142" y2="172.5" vector-effect="non-scaling-stroke" stroke-width="1.5" stroke="rgb(189,189,189)" stroke-linejoin="miter" stroke-linecap="square" stroke-miterlimit="3"/><circle vector-effect="non-scaling-stroke" cx="208.50000000000006" cy="172.49999999999994" r="7.5" fill="rgb(189,189,189)"/><g clip-path="url(#_clipPath_5He48N8emi0T61La8cV7nqrYNbO4WMTW)"><text transform="matrix(1,0,0,1,205.146,176.379)" style="font-family:'Open Sans';font-weight:700;font-size:10px;font-style:normal;fill:#000000;stroke:none;">3</text></g><defs><clipPath id="_clipPath_5He48N8emi0T61La8cV7nqrYNbO4WMTW"><rect x="0" y="0" width="8" height="13.618" transform="matrix(1,0,0,1,205,165.691)"/></clipPath></defs></g></svg>