<?xml version="1.0" encoding="UTF-8" standalone="no"?><!-- Generator: Gravit.io --><svg xmlns="http://www.w3.org/2000/svg" xmlns:xlink="http://www.w3.org/1999/xlink" style="isolation:isolate" viewBox="0 0 250 120" width="250pt" height="120pt"><defs><clipPath id="_clipPath_OxvaSuB0gXxLF4ryLAvPyOPzhRrU21nC"><rect width="250" height="120"/></clipPath></defs><g clip-path="url(#_clipPath_OxvaSuB0gXxLF4ryLAvPyOPzhRrU21nC)"><rect width="250" height="120" style="fill:rgb(0,0,0)"/><path d="M 75.616 72.75 L 174.524 72.75 C 178.523 72.75 181.77 75.997 181.77 79.996 L 181.77 86.504 C 181.77 90.503 178.523 93.75 174.524 93.75 L 75.616 93.75 C 71.617 93.75 68.37 90.503 68.37 86.504 L 68.37 79.996 C 68.37 75.997 71.617 72.75 75.616 72.75 Z" style="stroke:none;fill:#3B3B3B;stroke-miterlimit:10;"/><path d="M 75.678 77.65 L 82.062 77.65 C 83.391 77.65 84.47 78.729 84.47 80.058 L 84.47 86.442 C 84.47 87.771 83.391 88.85 82.062 88.85 L 75.678 88.85 C 74.349 88.85 73.27 87.771 73.27 86.442 L 73.27 80.058 C 73.27 78.729 74.349 77.65 75.678 77.65 Z" style="stroke:none;fill:#EBEBEB;stroke-miterlimit:10;"/><line x1="91.93" y1="77.3" x2="140.471" y2="77.3" vector-effect="non-scaling-stroke" stroke-width="2" stroke="rgb(166,166,166)" stroke-linejoin="miter" stroke-linecap="round" stroke-miterlimit="3"/><line x1="91.93" y1="83.6" x2="127.367" y2="83.6" vector-effect="non-scaling-stroke" stroke-width="2" stroke="rgb(166,166,166)" stroke-linejoin="miter" stroke-linecap="round" stroke-miterlimit="3"/><line x1="91.93" y1="89.2" x2="127.367" y2="89.2" vector-effect="non-scaling-stroke" stroke-width="2" stroke="rgb(166,166,166)" stroke-linejoin="miter" stroke-linecap="round" stroke-miterlimit="3"/><line x1="158.943" y1="83.25" x2="171.364" y2="83.25" vector-effect="non-scaling-stroke" stroke-width="3" stroke="rgb(255,131,0)" stroke-linejoin="miter" stroke-linecap="round" stroke-miterlimit="3"/><circle vector-effect="non-scaling-stroke" cx="171.3638028320374" cy="83.25000000000003" r="4.199999999999989" fill="rgb(255,131,0)"/><line x1="38.929" y1="83.25" x2="57.071" y2="83.25" vector-effect="non-scaling-stroke" stroke-width="1.5" stroke="rgb(189,189,189)" stroke-linejoin="miter" stroke-linecap="square" stroke-miterlimit="3"/><circle vector-effect="non-scaling-stroke" cx="26.428762435913058" cy="83.25000000000003" r="7.5" fill="rgb(189,189,189)"/><g clip-path="url(#_clipPath_SdxENg6ddqOPA0WBHGBUsv24YObvHy96)"><text transform="matrix(1,0,0,1,22.929,87.129)" style="font-family:'Open Sans';font-weight:700;font-size:10px;font-style:normal;fill:#000000;stroke:none;">a</text></g><defs><clipPath id="_clipPath_SdxENg6ddqOPA0WBHGBUsv24YObvHy96"><rect x="0" y="0" width="8" height="13.618" transform="matrix(1,0,0,1,22.929,76.441)"/></clipPath></defs><line x1="193.071" y1="83.25" x2="211.214" y2="83.25" vector-effect="non-scaling-stroke" stroke-width="1.5" stroke="rgb(189,189,189)" stroke-linejoin="miter" stroke-linecap="square" stroke-miterlimit="3"/><circle vector-effect="non-scaling-stroke" cx="223.57123756408697" cy="83.25000000000003" r="7.5" fill="rgb(189,189,189)"/><g clip-path="url(#_clipPath_Ys541jYSywfW6lOeDHaKYFa6P18dvzIg)"><text transform="matrix(1,0,0,1,220.5,87.129)" style="font-family:'Open Sans';font-weight:700;font-size:10px;font-style:normal;fill:#000000;stroke:none;">c</text></g><defs><clipPath id="_clipPath_Ys541jYSywfW6lOeDHaKYFa6P18dvzIg"><rect x="0" y="0" width="8" height="13.618" transform="matrix(1,0,0,1,220.071,76.441)"/></clipPath></defs><line x1="112.571" y1="46.25" x2="112.571" y2="63.25" vector-effect="non-scaling-stroke" stroke-width="1.5" stroke="rgb(189,189,189)" stroke-linejoin="miter" stroke-linecap="square" stroke-miterlimit="3"/><circle vector-effect="non-scaling-stroke" cx="112.57123756408689" cy="33.75" r="7.5" fill="rgb(189,189,189)"/><g clip-path="url(#_clipPath_pDdRm4s0XqM8Hd8mkZMNjAHitm278Uwq)"><text transform="matrix(1,0,0,1,109.071,37.629)" style="font-family:'Open Sans';font-weight:700;font-size:10px;font-style:normal;fill:#000000;stroke:none;">b</text></g><defs><clipPath id="_clipPath_pDdRm4s0XqM8Hd8mkZMNjAHitm278Uwq"><rect x="0" y="0" width="8" height="13.618" transform="matrix(1,0,0,1,109.071,26.941)"/></clipPath></defs></g></svg>