<?xml version="1.0" encoding="UTF-8" standalone="no"?><!-- Generator: Gravit.io --><svg xmlns="http://www.w3.org/2000/svg" xmlns:xlink="http://www.w3.org/1999/xlink" style="isolation:isolate" viewBox="0 0 250 200" width="250pt" height="200pt"><defs><clipPath id="_clipPath_wLapcjkgyio14k1jZCcOAq6dt9JSA264"><rect width="250" height="200"/></clipPath></defs><g clip-path="url(#_clipPath_wLapcjkgyio14k1jZCcOAq6dt9JSA264)"><rect width="250" height="200" style="fill:rgb(0,0,0)"/><path d="M 77.75 28.5 L 172.25 28.5 C 175.562 28.5 178.25 31.189 178.25 34.5 L 178.25 165.5 C 178.25 168.811 175.562 171.5 172.25 171.5 L 77.75 171.5 C 74.438 171.5 71.75 168.811 71.75 165.5 L 71.75 34.5 C 71.75 31.189 74.438 28.5 77.75 28.5 Z" style="stroke:none;fill:#3B3B3B;stroke-miterlimit:10;"/><path d="M 80.906 60 L 169.094 60 C 171.763 60 173.93 62.167 173.93 64.836 L 173.93 84.164 C 173.93 86.833 171.763 89 169.094 89 L 80.906 89 C 78.237 89 76.07 86.833 76.07 84.164 L 76.07 64.836 C 76.07 62.167 78.237 60 80.906 60 Z" style="stroke:none;fill:#5B5B5B;stroke-miterlimit:10;"/><path d="M 169.064 38.95 L 172.546 38.95 C 173.271 38.95 173.86 39.538 173.86 40.262 L 173.86 43.739 C 173.86 44.462 173.271 45.05 172.546 45.05 L 169.064 45.05 C 168.339 45.05 167.75 44.462 167.75 43.739 L 167.75 40.262 C 167.75 39.538 168.339 38.95 169.064 38.95 Z" style="stroke:none;fill:#EBEBEB;stroke-miterlimit:10;"/><path d="M 164.442 70.45 L 169.059 70.45 C 170.02 70.45 170.8 71.23 170.8 72.192 L 170.8 76.809 C 170.8 77.77 170.02 78.55 169.058 78.55 L 164.442 78.55 C 163.48 78.55 162.7 77.77 162.7 76.809 L 162.7 72.192 C 162.7 71.23 163.48 70.45 164.442 70.45 Z" style="stroke:none;fill:#EBEBEB;stroke-miterlimit:10;"/><path d="M 153.634 70.45 L 158.256 70.45 C 159.219 70.45 160 71.23 160 72.192 L 160 76.809 C 160 77.77 159.219 78.55 158.256 78.55 L 153.634 78.55 C 152.671 78.55 151.89 77.77 151.89 76.809 L 151.89 72.192 C 151.89 71.23 152.671 70.45 153.634 70.45 Z" style="stroke:none;fill:#EBEBEB;stroke-miterlimit:10;"/><line x1="78.714" y1="34.929" x2="138.767" y2="34.929" vector-effect="non-scaling-stroke" stroke-width="2" stroke="rgb(166,166,166)" stroke-linejoin="miter" stroke-linecap="round" stroke-miterlimit="3"/><line x1="82" y1="66" x2="142.052" y2="66" vector-effect="non-scaling-stroke" stroke-width="2" stroke="rgb(166,166,166)" stroke-linejoin="miter" stroke-linecap="round" stroke-miterlimit="3"/><line x1="78.714" y1="42" x2="123.897" y2="42" vector-effect="non-scaling-stroke" stroke-width="2" stroke="rgb(166,166,166)" stroke-linejoin="miter" stroke-linecap="round" stroke-miterlimit="3"/><line x1="82" y1="72.5" x2="127.183" y2="72.5" vector-effect="non-scaling-stroke" stroke-width="2" stroke="rgb(166,166,166)" stroke-linejoin="miter" stroke-linecap="round" stroke-miterlimit="3"/><line x1="82" y1="78" x2="127.183" y2="78" vector-effect="non-scaling-stroke" stroke-width="2" stroke="rgb(166,166,166)" stroke-linejoin="miter" stroke-linecap="round" stroke-miterlimit="3"/><line x1="82" y1="83" x2="127.183" y2="83" vector-effect="non-scaling-stroke" stroke-width="2" stroke="rgb(166,166,166)" stroke-linejoin="miter" stroke-linecap="round" stroke-miterlimit="3"/><path d="M 80.906 93 L 169.094 93 C 171.763 93 173.93 95.167 173.93 97.836 L 173.93 117.164 C 173.93 119.833 171.763 122 169.094 122 L 80.906 122 C 78.237 122 76.07 119.833 76.07 117.164 L 76.07 97.836 C 76.07 95.167 78.237 93 80.906 93 Z" style="stroke:none;fill:#5B5B5B;stroke-miterlimit:10;"/><path d="M 164.442 103.45 L 169.059 103.45 C 170.02 103.45 170.8 104.23 170.8 105.191 L 170.8 109.808 C 170.8 110.77 170.02 111.55 169.058 111.55 L 164.442 111.55 C 163.48 111.55 162.7 110.77 162.7 109.808 L 162.7 105.191 C 162.7 104.23 163.48 103.45 164.442 103.45 Z" style="stroke:none;fill:#EBEBEB;stroke-miterlimit:10;"/><path d="M 153.634 103.45 L 158.256 103.45 C 159.219 103.45 160 104.23 160 105.191 L 160 109.808 C 160 110.77 159.219 111.55 158.256 111.55 L 153.634 111.55 C 152.671 111.55 151.89 110.77 151.89 109.808 L 151.89 105.191 C 151.89 104.23 152.671 103.45 153.634 103.45 Z" style="stroke:none;fill:#EBEBEB;stroke-miterlimit:10;"/><line x1="82" y1="99" x2="142.052" y2="99" vector-effect="non-scaling-stroke" stroke-width="2" stroke="rgb(166,166,166)" stroke-linejoin="miter" stroke-linecap="round" stroke-miterlimit="3"/><line x1="82" y1="105.5" x2="127.183" y2="105.5" vector-effect="non-scaling-stroke" stroke-width="2" stroke="rgb(166,166,166)" stroke-linejoin="miter" stroke-linecap="round" stroke-miterlimit="3"/><line x1="82" y1="111" x2="127.183" y2="111" vector-effect="non-scaling-stroke" stroke-width="2" stroke="rgb(166,166,166)" stroke-linejoin="miter" stroke-linecap="round" stroke-miterlimit="3"/><line x1="82" y1="116" x2="127.183" y2="116" vector-effect="non-scaling-stroke" stroke-width="2" stroke="rgb(166,166,166)" stroke-linejoin="miter" stroke-linecap="round" stroke-miterlimit="3"/><path d="M 80.906 126 L 169.094 126 C 171.763 126 173.93 128.167 173.93 130.836 L 173.93 150.164 C 173.93 152.833 171.763 155 169.094 155 L 80.906 155 C 78.237 155 76.07 152.833 76.07 150.164 L 76.07 130.836 C 76.07 128.167 78.237 126 80.906 126 Z" style="stroke:none;fill:#5B5B5B;stroke-miterlimit:10;"/><path d="M 164.442 136.45 L 169.059 136.45 C 170.02 136.45 170.8 137.23 170.8 138.192 L 170.8 142.809 C 170.8 143.77 170.02 144.55 169.058 144.55 L 164.442 144.55 C 163.48 144.55 162.7 143.77 162.7 142.809 L 162.7 138.192 C 162.7 137.23 163.48 136.45 164.442 136.45 Z" style="stroke:none;fill:#EBEBEB;stroke-miterlimit:10;"/><path d="M 153.634 136.45 L 158.256 136.45 C 159.219 136.45 160 137.23 160 138.192 L 160 142.809 C 160 143.77 159.219 144.55 158.256 144.55 L 153.634 144.55 C 152.671 144.55 151.89 143.77 151.89 142.809 L 151.89 138.192 C 151.89 137.23 152.671 136.45 153.634 136.45 Z" style="stroke:none;fill:#EBEBEB;stroke-miterlimit:10;"/><line x1="82" y1="132" x2="142.052" y2="132" vector-effect="non-scaling-stroke" stroke-width="2" stroke="rgb(166,166,166)" stroke-linejoin="miter" stroke-linecap="round" stroke-miterlimit="3"/><line x1="82" y1="138.5" x2="127.183" y2="138.5" vector-effect="non-scaling-stroke" stroke-width="2" stroke="rgb(166,166,166)" stroke-linejoin="miter" stroke-linecap="round" stroke-miterlimit="3"/><line x1="82" y1="144" x2="127.183" y2="144" vector-effect="non-scaling-stroke" stroke-width="2" stroke="rgb(166,166,166)" stroke-linejoin="miter" stroke-linecap="round" stroke-miterlimit="3"/><line x1="82" y1="149" x2="127.183" y2="149" vector-effect="non-scaling-stroke" stroke-width="2" stroke="rgb(166,166,166)" stroke-linejoin="miter" stroke-linecap="round" stroke-miterlimit="3"/><line x1="78.714" y1="48" x2="123.897" y2="48" vector-effect="non-scaling-stroke" stroke-width="2" stroke="rgb(166,166,166)" stroke-linejoin="miter" stroke-linecap="round" stroke-miterlimit="3"/><line x1="75.038" y1="54" x2="174.962" y2="54" vector-effect="non-scaling-stroke" stroke-width="1" stroke="rgb(235,235,235)" stroke-linejoin="miter" stroke-linecap="round" stroke-miterlimit="3"/><line x1="42" y1="42" x2="60.142" y2="42" vector-effect="non-scaling-stroke" stroke-width="1.5" stroke="rgb(189,189,189)" stroke-linejoin="miter" stroke-linecap="square" stroke-miterlimit="3"/><circle vector-effect="non-scaling-stroke" cx="29.5" cy="42.00000000000003" r="7.5" fill="rgb(189,189,189)"/><g clip-path="url(#_clipPath_pjiR82navEsy5aw713vjN8RNTVSEE70E)"><text transform="matrix(1,0,0,1,26,45.879)" style="font-family:'Open Sans';font-weight:700;font-size:10px;font-style:normal;fill:#000000;stroke:none;">a</text></g><defs><clipPath id="_clipPath_pjiR82navEsy5aw713vjN8RNTVSEE70E"><rect x="0" y="0" width="8" height="13.618" transform="matrix(1,0,0,1,26,35.191)"/></clipPath></defs><line x1="189" y1="42" x2="207.142" y2="42" vector-effect="non-scaling-stroke" stroke-width="1.5" stroke="rgb(189,189,189)" stroke-linejoin="miter" stroke-linecap="square" stroke-miterlimit="3"/><circle vector-effect="non-scaling-stroke" cx="219.5" cy="42.00000000000003" r="7.5" fill="rgb(189,189,189)"/><g clip-path="url(#_clipPath_PbHgW6vLY3LsJh0FbG542Yysva8emBSK)"><text transform="matrix(1,0,0,1,216,45.879)" style="font-family:'Open Sans';font-weight:700;font-size:10px;font-style:normal;fill:#000000;stroke:none;">d</text></g><defs><clipPath id="_clipPath_PbHgW6vLY3LsJh0FbG542Yysva8emBSK"><rect x="0" y="0" width="8" height="13.618" transform="matrix(1,0,0,1,216,35.191)"/></clipPath></defs><line x1="181.863" y1="74.5" x2="207.142" y2="74.5" vector-effect="non-scaling-stroke" stroke-width="1.5" stroke="rgb(189,189,189)" stroke-linejoin="miter" stroke-linecap="square" stroke-miterlimit="3"/><circle vector-effect="non-scaling-stroke" cx="219.5" cy="74.5" r="7.5" fill="rgb(189,189,189)"/><g clip-path="url(#_clipPath_Bn6zbCFn5KhKN8cx0uPowwv6yo2dpDDM)"><text transform="matrix(1,0,0,1,216.046,78.379)" style="font-family:'Open Sans';font-weight:700;font-size:10px;font-style:normal;fill:#000000;stroke:none;">e</text></g><defs><clipPath id="_clipPath_Bn6zbCFn5KhKN8cx0uPowwv6yo2dpDDM"><rect x="0" y="0" width="8" height="13.618" transform="matrix(1,0,0,1,216,67.691)"/></clipPath></defs><line x1="42" y1="74.5" x2="60.142" y2="74.5" vector-effect="non-scaling-stroke" stroke-width="1.5" stroke="rgb(189,189,189)" stroke-linejoin="miter" stroke-linecap="square" stroke-miterlimit="3"/><circle vector-effect="non-scaling-stroke" cx="29.5" cy="74.5" r="7.5" fill="rgb(189,189,189)"/><g clip-path="url(#_clipPath_3oNeV2VZQADYrKXJFCC0U8Rc3LIk8gYM)"><text transform="matrix(1,0,0,1,26,78.379)" style="font-family:'Open Sans';font-weight:700;font-size:10px;font-style:normal;fill:#000000;stroke:none;">b</text></g><defs><clipPath id="_clipPath_3oNeV2VZQADYrKXJFCC0U8Rc3LIk8gYM"><rect x="0" y="0" width="8" height="13.618" transform="matrix(1,0,0,1,26,67.691)"/></clipPath></defs><line x1="42" y1="107.5" x2="66.401" y2="107.5" vector-effect="non-scaling-stroke" stroke-width="1.5" stroke="rgb(189,189,189)" stroke-linejoin="miter" stroke-linecap="square" stroke-miterlimit="3"/><circle vector-effect="non-scaling-stroke" cx="29.5" cy="107.5" r="7.5" fill="rgb(189,189,189)"/><g clip-path="url(#_clipPath_8PkyQXdtq5YxfFV81m2XLtKmj0HW1rro)"><text transform="matrix(1,0,0,1,26.429,111.379)" style="font-family:'Open Sans';font-weight:700;font-size:10px;font-style:normal;fill:#000000;stroke:none;">c</text></g><defs><clipPath id="_clipPath_8PkyQXdtq5YxfFV81m2XLtKmj0HW1rro"><rect x="0" y="0" width="8" height="13.618" transform="matrix(1,0,0,1,26,100.691)"/></clipPath></defs></g></svg>