<?xml version="1.0" encoding="UTF-8" standalone="no"?><!-- Generator: Gravit.io --><svg xmlns="http://www.w3.org/2000/svg" xmlns:xlink="http://www.w3.org/1999/xlink" style="isolation:isolate" viewBox="0 0 250 200" width="250pt" height="200pt"><defs><clipPath id="_clipPath_mtyNz3cFuMYVkxpP7U20JWaADvXHKM9Q"><rect width="250" height="200"/></clipPath></defs><g clip-path="url(#_clipPath_mtyNz3cFuMYVkxpP7U20JWaADvXHKM9Q)"><rect width="250" height="200" style="fill:rgb(0,0,0)"/><path d="M 89.919 14 L 160.081 14 C 166.107 14 171 18.893 171 24.919 L 171 175.081 C 171 181.107 166.107 186 160.081 186 L 89.919 186 C 83.893 186 79 181.107 79 175.081 L 79 24.919 C 79 18.893 83.893 14 89.919 14 Z" style="fill:none;stroke:#999989;stroke-width:2;stroke-linecap:square;stroke-miterlimit:2;"/><path d="M 89.203 19 L 160.797 19 C 163.393 19 165.5 21.107 165.5 23.703 L 165.5 37.297 C 165.5 39.893 163.393 42 160.797 42 L 89.203 42 C 86.607 42 84.5 39.893 84.5 37.297 L 84.5 23.703 C 84.5 21.107 86.607 19 89.203 19 Z" style="stroke:none;fill:#3B3B3B;stroke-miterlimit:10;"/><line x1="90.328" y1="25" x2="147" y2="25" vector-effect="non-scaling-stroke" stroke-width="2" stroke="rgb(166,166,166)" stroke-linejoin="miter" stroke-linecap="round" stroke-miterlimit="3"/><line x1="90.328" y1="31" x2="134" y2="31" vector-effect="non-scaling-stroke" stroke-width="2" stroke="rgb(166,166,166)" stroke-linejoin="miter" stroke-linecap="round" stroke-miterlimit="3"/><line x1="90.328" y1="36" x2="134" y2="36" vector-effect="non-scaling-stroke" stroke-width="2" stroke="rgb(166,166,166)" stroke-linejoin="miter" stroke-linecap="round" stroke-miterlimit="3"/><path d="M 89.203 46 L 160.797 46 C 163.393 46 165.5 48.107 165.5 50.703 L 165.5 64.297 C 165.5 66.893 163.393 69 160.797 69 L 89.203 69 C 86.607 69 84.5 66.893 84.5 64.297 L 84.5 50.703 C 84.5 48.107 86.607 46 89.203 46 Z" style="stroke:none;fill:#3B3B3B;stroke-miterlimit:10;"/><line x1="90.328" y1="52" x2="147" y2="52" vector-effect="non-scaling-stroke" stroke-width="2" stroke="rgb(166,166,166)" stroke-linejoin="miter" stroke-linecap="round" stroke-miterlimit="3"/><line x1="90.328" y1="58" x2="134" y2="58" vector-effect="non-scaling-stroke" stroke-width="2" stroke="rgb(166,166,166)" stroke-linejoin="miter" stroke-linecap="round" stroke-miterlimit="3"/><line x1="90.328" y1="63" x2="134" y2="63" vector-effect="non-scaling-stroke" stroke-width="2" stroke="rgb(166,166,166)" stroke-linejoin="miter" stroke-linecap="round" stroke-miterlimit="3"/><path d="M 89.203 73 L 160.797 73 C 163.393 73 165.5 75.107 165.5 77.703 L 165.5 91.297 C 165.5 93.893 163.393 96 160.797 96 L 89.203 96 C 86.607 96 84.5 93.893 84.5 91.297 L 84.5 77.703 C 84.5 75.107 86.607 73 89.203 73 Z" style="stroke:none;fill:#3B3B3B;stroke-miterlimit:10;"/><line x1="90.328" y1="79" x2="147" y2="79" vector-effect="non-scaling-stroke" stroke-width="2" stroke="rgb(166,166,166)" stroke-linejoin="miter" stroke-linecap="round" stroke-miterlimit="3"/><line x1="90.328" y1="85" x2="134" y2="85" vector-effect="non-scaling-stroke" stroke-width="2" stroke="rgb(166,166,166)" stroke-linejoin="miter" stroke-linecap="round" stroke-miterlimit="3"/><line x1="90.328" y1="90" x2="134" y2="90" vector-effect="non-scaling-stroke" stroke-width="2" stroke="rgb(166,166,166)" stroke-linejoin="miter" stroke-linecap="round" stroke-miterlimit="3"/><line x1="48" y1="30.5" x2="66.142" y2="30.5" vector-effect="non-scaling-stroke" stroke-width="1.5" stroke="rgb(189,189,189)" stroke-linejoin="miter" stroke-linecap="square" stroke-miterlimit="3"/><circle vector-effect="non-scaling-stroke" cx="35.5" cy="30.499999999999993" r="7.5" fill="rgb(189,189,189)"/><g clip-path="url(#_clipPath_Px34qIsMPjwXMo1of8apRgCRBxvmZt9F)"><text transform="matrix(1,0,0,1,32.146,34.379)" style="font-family:'Open Sans';font-weight:700;font-size:10px;font-style:normal;fill:#000000;stroke:none;">1</text></g><defs><clipPath id="_clipPath_Px34qIsMPjwXMo1of8apRgCRBxvmZt9F"><rect x="0" y="0" width="8" height="13.618" transform="matrix(1,0,0,1,32,23.691)"/></clipPath></defs></g></svg>