<?xml version="1.0" encoding="UTF-8" standalone="no"?><!-- Generator: Gravit.io --><svg xmlns="http://www.w3.org/2000/svg" xmlns:xlink="http://www.w3.org/1999/xlink" style="isolation:isolate" viewBox="0 0 24 24" width="24pt" height="24pt"><defs><clipPath id="_clipPath_abnyVdTAOcYuYms9O96Rl2a8nCILFP0A"><rect width="24" height="24"/></clipPath></defs><g clip-path="url(#_clipPath_abnyVdTAOcYuYms9O96Rl2a8nCILFP0A)"><circle vector-effect="non-scaling-stroke" cx="11.999999999999996" cy="11.70556640625" r="2.4443359375" fill="rgb(0,0,0)"/><path d=" M 2.508 11.331 C 2.508 6.092 6.761 1.838 12 1.838 C 17.239 1.838 21.492 6.092 21.492 11.331" fill="none" vector-effect="non-scaling-stroke" stroke-width="2" stroke="rgb(0,0,0)" stroke-linejoin="miter" stroke-linecap="square" stroke-miterlimit="3"/><path d=" M 6.211 11.331 C 6.211 8.135 8.805 5.542 12 5.542 C 15.195 5.542 17.789 8.135 17.789 11.331" fill="none" vector-effect="non-scaling-stroke" stroke-width="2" stroke="rgb(0,0,0)" stroke-linejoin="miter" stroke-linecap="square" stroke-miterlimit="3"/><path d=" M 5.437 22.571 L 4.607 22.571 L 4.607 15.433 L 5.437 15.433 L 5.437 22.571 Z  M 12.972 15.433 L 12.972 22.571 L 12.024 22.571 L 8.123 16.58 L 8.084 16.58 L 8.084 16.58 Q 8.162 17.635 8.162 18.514 L 8.162 18.514 L 8.162 22.571 L 7.396 22.571 L 7.396 15.433 L 8.333 15.433 L 12.225 21.399 L 12.264 21.399 L 12.264 21.399 Q 12.254 21.268 12.22 20.552 L 12.22 20.552 L 12.22 20.552 Q 12.186 19.837 12.195 19.529 L 12.195 19.529 L 12.195 15.433 L 12.972 15.433 Z  M 17.132 16.17 L 17.132 22.571 L 16.302 22.571 L 16.302 16.17 L 14.041 16.17 L 14.041 15.433 L 19.393 15.433 L 19.393 16.17 L 17.132 16.17 Z " fill="rgb(0,0,0)" vector-effect="non-scaling-stroke" stroke-width="0.5" stroke="rgb(0,0,0)" stroke-linejoin="miter" stroke-linecap="square" stroke-miterlimit="3"/></g></svg>