<?xml version="1.0" encoding="UTF-8" standalone="no"?><!-- Generator: Gravit.io --><svg xmlns="http://www.w3.org/2000/svg" xmlns:xlink="http://www.w3.org/1999/xlink" style="isolation:isolate" viewBox="0 0 250 200" width="250pt" height="200pt"><defs><clipPath id="_clipPath_CSUhp742uOCavcTiOwXEpG1n5VsYfv3T"><rect width="250" height="200"/></clipPath></defs><g clip-path="url(#_clipPath_CSUhp742uOCavcTiOwXEpG1n5VsYfv3T)"><rect width="250" height="200" style="fill:rgb(0,0,0)"/><path d="M 89.919 14 L 160.081 14 C 166.107 14 171 18.893 171 24.919 L 171 175.081 C 171 181.107 166.107 186 160.081 186 L 89.919 186 C 83.893 186 79 181.107 79 175.081 L 79 24.919 C 79 18.893 83.893 14 89.919 14 Z" style="fill:none;stroke:#999989;stroke-width:2;stroke-linecap:square;stroke-miterlimit:2;"/><path d="M 90.07 20 L 160.93 20 C 163.176 20 165 21.824 165 24.07 L 165 30.93 C 165 33.176 163.176 35 160.93 35 L 90.07 35 C 87.824 35 86 33.176 86 30.93 L 86 24.07 C 86 21.824 87.824 20 90.07 20 Z" style="stroke:none;fill:#3B3B3B;stroke-miterlimit:10;"/><path d="M 90.07 20 L 160.93 20 C 163.176 20 165 21.824 165 24.07 L 165 30.93 C 165 33.176 163.176 35 160.93 35 L 90.07 35 C 87.824 35 86 33.176 86 30.93 L 86 24.07 C 86 21.824 87.824 20 90.07 20 Z" style="fill:none;stroke:#999989;stroke-width:2;stroke-linecap:square;stroke-miterlimit:2;"/><path d="M 89.57 75 L 160.43 75 C 162.676 75 164.5 76.824 164.5 79.07 L 164.5 85.93 C 164.5 88.176 162.676 90 160.43 90 L 89.57 90 C 87.324 90 85.5 88.176 85.5 85.93 L 85.5 79.07 C 85.5 76.824 87.324 75 89.57 75 Z" style="stroke:none;fill:#3B3B3B;stroke-miterlimit:10;"/><path d="M 89.57 75 L 160.43 75 C 162.676 75 164.5 76.824 164.5 79.07 L 164.5 85.93 C 164.5 88.176 162.676 90 160.43 90 L 89.57 90 C 87.324 90 85.5 88.176 85.5 85.93 L 85.5 79.07 C 85.5 76.824 87.324 75 89.57 75 Z" style="fill:none;stroke:#999989;stroke-width:2;stroke-linecap:square;stroke-miterlimit:2;"/><path d="M 89.57 96 L 160.43 96 C 162.676 96 164.5 97.824 164.5 100.07 L 164.5 106.93 C 164.5 109.176 162.676 111 160.43 111 L 89.57 111 C 87.324 111 85.5 109.176 85.5 106.93 L 85.5 100.07 C 85.5 97.824 87.324 96 89.57 96 Z" style="stroke:none;fill:#3B3B3B;stroke-miterlimit:10;"/><path d="M 89.57 96 L 160.43 96 C 162.676 96 164.5 97.824 164.5 100.07 L 164.5 106.93 C 164.5 109.176 162.676 111 160.43 111 L 89.57 111 C 87.324 111 85.5 109.176 85.5 106.93 L 85.5 100.07 C 85.5 97.824 87.324 96 89.57 96 Z" style="fill:none;stroke:#999989;stroke-width:2;stroke-linecap:square;stroke-miterlimit:2;"/><path d="M 89.57 117 L 160.43 117 C 162.676 117 164.5 118.824 164.5 121.07 L 164.5 127.93 C 164.5 130.176 162.676 132 160.43 132 L 89.57 132 C 87.324 132 85.5 130.176 85.5 127.93 L 85.5 121.07 C 85.5 118.824 87.324 117 89.57 117 Z" style="stroke:none;fill:#3B3B3B;stroke-miterlimit:10;"/><path d="M 89.57 117 L 160.43 117 C 162.676 117 164.5 118.824 164.5 121.07 L 164.5 127.93 C 164.5 130.176 162.676 132 160.43 132 L 89.57 132 C 87.324 132 85.5 130.176 85.5 127.93 L 85.5 121.07 C 85.5 118.824 87.324 117 89.57 117 Z" style="fill:none;stroke:#999989;stroke-width:2;stroke-linecap:square;stroke-miterlimit:2;"/><line x1="100.516" y1="44" x2="162.784" y2="44" vector-effect="non-scaling-stroke" stroke-width="2" stroke="rgb(166,166,166)" stroke-linejoin="miter" stroke-linecap="round" stroke-miterlimit="3"/><line x1="99.944" y1="69" x2="151.056" y2="69" vector-effect="non-scaling-stroke" stroke-width="2" stroke="rgb(166,166,166)" stroke-linejoin="miter" stroke-linecap="round" stroke-miterlimit="3"/><path d="M 89.29 41 L 92.71 41 C 93.422 41 94 41.578 94 42.29 L 94 45.71 C 94 46.422 93.422 47 92.71 47 L 89.29 47 C 88.578 47 88 46.422 88 45.71 L 88 42.29 C 88 41.578 88.578 41 89.29 41 Z" style="stroke:none;fill:#EBEBEB;stroke-miterlimit:10;"/><line x1="100.516" y1="54" x2="162.784" y2="54" vector-effect="non-scaling-stroke" stroke-width="2" stroke="rgb(166,166,166)" stroke-linejoin="miter" stroke-linecap="round" stroke-miterlimit="3"/><path d="M 89.29 51 L 92.71 51 C 93.422 51 94 51.578 94 52.29 L 94 55.71 C 94 56.422 93.422 57 92.71 57 L 89.29 57 C 88.578 57 88 56.422 88 55.71 L 88 52.29 C 88 51.578 88.578 51 89.29 51 Z" style="stroke:none;fill:#EBEBEB;stroke-miterlimit:10;"/><line x1="84.181" y1="63" x2="165.819" y2="63" vector-effect="non-scaling-stroke" stroke-width="1" stroke="rgb(235,235,235)" stroke-linejoin="miter" stroke-linecap="round" stroke-miterlimit="3"/><path d="M 88.741 171 L 162.259 171 C 164.324 171 166 172.676 166 174.741 L 166 175.259 C 166 177.324 164.324 179 162.259 179 L 88.741 179 C 86.676 179 85 177.324 85 175.259 L 85 174.741 C 85 172.676 86.676 171 88.741 171 Z" style="stroke:none;fill:#00C853;stroke-miterlimit:10;"/><line x1="94.161" y1="175" x2="156.905" y2="175" vector-effect="non-scaling-stroke" stroke-width="1.5" stroke="rgb(255,255,255)" stroke-linejoin="miter" stroke-linecap="round" stroke-miterlimit="3"/><line x1="50" y1="27.5" x2="68.142" y2="27.5" vector-effect="non-scaling-stroke" stroke-width="1.5" stroke="rgb(189,189,189)" stroke-linejoin="miter" stroke-linecap="square" stroke-miterlimit="3"/><circle vector-effect="non-scaling-stroke" cx="37.5" cy="27.499999999999993" r="7.5" fill="rgb(189,189,189)"/><g clip-path="url(#_clipPath_Ipw4W9aPrKGZPJHBl8Ih9yRES5vGaYaU)"><text transform="matrix(1,0,0,1,34.146,31.379)" style="font-family:'Open Sans';font-weight:700;font-size:10px;font-style:normal;fill:#000000;stroke:none;">1</text></g><defs><clipPath id="_clipPath_Ipw4W9aPrKGZPJHBl8Ih9yRES5vGaYaU"><rect x="0" y="0" width="8" height="13.618" transform="matrix(1,0,0,1,34,20.691)"/></clipPath></defs><line x1="50" y1="54" x2="68.142" y2="54" vector-effect="non-scaling-stroke" stroke-width="1.5" stroke="rgb(189,189,189)" stroke-linejoin="miter" stroke-linecap="square" stroke-miterlimit="3"/><circle vector-effect="non-scaling-stroke" cx="37.5" cy="53.99999999999999" r="7.5" fill="rgb(189,189,189)"/><g clip-path="url(#_clipPath_cVMBc3STkKOllvTEPZoPrqm4wRnoC89t)"><text transform="matrix(1,0,0,1,34.146,57.879)" style="font-family:'Open Sans';font-weight:700;font-size:10px;font-style:normal;fill:#000000;stroke:none;">3</text></g><defs><clipPath id="_clipPath_cVMBc3STkKOllvTEPZoPrqm4wRnoC89t"><rect x="0" y="0" width="8" height="13.618" transform="matrix(1,0,0,1,34,47.191)"/></clipPath></defs><line x1="50" y1="103.5" x2="68.142" y2="103.5" vector-effect="non-scaling-stroke" stroke-width="1.5" stroke="rgb(189,189,189)" stroke-linejoin="miter" stroke-linecap="square" stroke-miterlimit="3"/><circle vector-effect="non-scaling-stroke" cx="37.5" cy="103.5" r="7.5" fill="rgb(189,189,189)"/><g clip-path="url(#_clipPath_24KOGTwGSwmeK0ocFEYF1SEI5Q5nuhCu)"><text transform="matrix(1,0,0,1,34.146,107.379)" style="font-family:'Open Sans';font-weight:700;font-size:10px;font-style:normal;fill:#000000;stroke:none;">5</text></g><defs><clipPath id="_clipPath_24KOGTwGSwmeK0ocFEYF1SEI5Q5nuhCu"><rect x="0" y="0" width="8" height="13.618" transform="matrix(1,0,0,1,34,96.691)"/></clipPath></defs><line x1="50" y1="175" x2="68.142" y2="175" vector-effect="non-scaling-stroke" stroke-width="1.5" stroke="rgb(189,189,189)" stroke-linejoin="miter" stroke-linecap="square" stroke-miterlimit="3"/><circle vector-effect="non-scaling-stroke" cx="37.5" cy="175" r="7.5" fill="rgb(189,189,189)"/><g clip-path="url(#_clipPath_xUyBOTUkfUEw2dZgpNAw8q6zb5Hqc2EV)"><text transform="matrix(1,0,0,1,34.146,178.879)" style="font-family:'Open Sans';font-weight:700;font-size:10px;font-style:normal;fill:#000000;stroke:none;">7</text></g><defs><clipPath id="_clipPath_xUyBOTUkfUEw2dZgpNAw8q6zb5Hqc2EV"><rect x="0" y="0" width="8" height="13.618" transform="matrix(1,0,0,1,34,168.191)"/></clipPath></defs><line x1="182" y1="44" x2="200.142" y2="44" vector-effect="non-scaling-stroke" stroke-width="1.5" stroke="rgb(189,189,189)" stroke-linejoin="miter" stroke-linecap="square" stroke-miterlimit="3"/><circle vector-effect="non-scaling-stroke" cx="212.5" cy="43.99999999999999" r="7.5" fill="rgb(189,189,189)"/><g clip-path="url(#_clipPath_7i8qUVkuQzfk44XDoxw4LrZazt6shx01)"><text transform="matrix(1,0,0,1,209.146,47.879)" style="font-family:'Open Sans';font-weight:700;font-size:10px;font-style:normal;fill:#000000;stroke:none;">2</text></g><defs><clipPath id="_clipPath_7i8qUVkuQzfk44XDoxw4LrZazt6shx01"><rect x="0" y="0" width="8" height="13.618" transform="matrix(1,0,0,1,209,37.191)"/></clipPath></defs><line x1="182" y1="82.5" x2="200.142" y2="82.5" vector-effect="non-scaling-stroke" stroke-width="1.5" stroke="rgb(189,189,189)" stroke-linejoin="miter" stroke-linecap="square" stroke-miterlimit="3"/><circle vector-effect="non-scaling-stroke" cx="212.5" cy="82.5" r="7.5" fill="rgb(189,189,189)"/><g clip-path="url(#_clipPath_iHjiSc9kFccQhcEYYdEUzHJn6S7enk87)"><text transform="matrix(1,0,0,1,209.146,86.379)" style="font-family:'Open Sans';font-weight:700;font-size:10px;font-style:normal;fill:#000000;stroke:none;">4</text></g><defs><clipPath id="_clipPath_iHjiSc9kFccQhcEYYdEUzHJn6S7enk87"><rect x="0" y="0" width="8" height="13.618" transform="matrix(1,0,0,1,209,75.691)"/></clipPath></defs><line x1="182" y1="124.5" x2="200.142" y2="124.5" vector-effect="non-scaling-stroke" stroke-width="1.5" stroke="rgb(189,189,189)" stroke-linejoin="miter" stroke-linecap="square" stroke-miterlimit="3"/><circle vector-effect="non-scaling-stroke" cx="212.5" cy="124.5" r="7.5" fill="rgb(189,189,189)"/><g clip-path="url(#_clipPath_oTyXSUizBk8If5YlcKtabFWmV0ELE1uP)"><text transform="matrix(1,0,0,1,209.146,128.379)" style="font-family:'Open Sans';font-weight:700;font-size:10px;font-style:normal;fill:#000000;stroke:none;">6</text></g><defs><clipPath id="_clipPath_oTyXSUizBk8If5YlcKtabFWmV0ELE1uP"><rect x="0" y="0" width="8" height="13.618" transform="matrix(1,0,0,1,209,117.691)"/></clipPath></defs></g></svg>