<?xml version="1.0" encoding="UTF-8" standalone="no"?><!-- Generator: Gravit.io --><svg xmlns="http://www.w3.org/2000/svg" xmlns:xlink="http://www.w3.org/1999/xlink" style="isolation:isolate" viewBox="0 0 250 110" width="250pt" height="110pt"><defs><clipPath id="_clipPath_WCR3xbWMPgslKbu6oh0d3Ydl66VEsW4e"><rect width="250" height="110"/></clipPath></defs><g clip-path="url(#_clipPath_WCR3xbWMPgslKbu6oh0d3Ydl66VEsW4e)"><rect width="250" height="110" style="fill:rgb(0,0,0)"/><path d="M 82.069 60.44 L 168.931 60.44 C 173.031 60.44 176.36 63.769 176.36 67.87 L 176.36 78.13 C 176.36 82.231 173.031 85.56 168.931 85.56 L 82.069 85.56 C 77.969 85.56 74.64 82.231 74.64 78.13 L 74.64 67.87 C 74.64 63.769 77.969 60.44 82.069 60.44 Z" style="stroke:none;fill:#3B3B3B;stroke-miterlimit:10;"/><path d="M 81.326 67.66 L 87.414 67.66 C 88.681 67.66 89.71 68.689 89.71 69.956 L 89.71 76.044 C 89.71 77.311 88.681 78.34 87.414 78.34 L 81.326 78.34 C 80.059 78.34 79.03 77.311 79.03 76.044 L 79.03 69.956 C 79.03 68.689 80.059 67.66 81.326 67.66 Z" style="stroke:none;fill:#EBEBEB;stroke-miterlimit:10;"/><path d="M 166.051 69.23 L 170.349 69.23 C 171.244 69.23 171.97 69.956 171.97 70.851 L 171.97 75.149 C 171.97 76.044 171.244 76.77 170.349 76.77 L 166.051 76.77 C 165.156 76.77 164.43 76.044 164.43 75.149 L 164.43 70.851 C 164.43 69.956 165.156 69.23 166.051 69.23 Z" style="stroke:none;fill:#EBEBEB;stroke-miterlimit:10;"/><line x1="95.359" y1="67.663" x2="143.508" y2="67.663" vector-effect="non-scaling-stroke" stroke-width="2" stroke="rgb(166,166,166)" stroke-linejoin="miter" stroke-linecap="round" stroke-miterlimit="3"/><line x1="95.359" y1="73" x2="130.523" y2="73" vector-effect="non-scaling-stroke" stroke-width="2" stroke="rgb(166,166,166)" stroke-linejoin="miter" stroke-linecap="round" stroke-miterlimit="3"/><line x1="95.359" y1="78.337" x2="130.523" y2="78.337" vector-effect="non-scaling-stroke" stroke-width="2" stroke="rgb(166,166,166)" stroke-linejoin="miter" stroke-linecap="round" stroke-miterlimit="3"/><line x1="47.5" y1="73" x2="65.642" y2="73" vector-effect="non-scaling-stroke" stroke-width="1.5" stroke="rgb(189,189,189)" stroke-linejoin="miter" stroke-linecap="square" stroke-miterlimit="3"/><circle vector-effect="non-scaling-stroke" cx="35" cy="73.00000000000003" r="7.5" fill="rgb(189,189,189)"/><g clip-path="url(#_clipPath_sSnEsdi4xvHajFougglzsvafsbiX60iN)"><text transform="matrix(1,0,0,1,31.5,76.879)" style="font-family:'Open Sans';font-weight:700;font-size:10px;font-style:normal;fill:#000000;stroke:none;">a</text></g><defs><clipPath id="_clipPath_sSnEsdi4xvHajFougglzsvafsbiX60iN"><rect x="0" y="0" width="8" height="13.618" transform="matrix(1,0,0,1,31.5,66.191)"/></clipPath></defs><line x1="125.5" y1="34.625" x2="125.5" y2="52.625" vector-effect="non-scaling-stroke" stroke-width="1.5" stroke="rgb(189,189,189)" stroke-linejoin="miter" stroke-linecap="square" stroke-miterlimit="3"/><circle vector-effect="non-scaling-stroke" cx="125.5" cy="22.5" r="7.500000000000007" fill="rgb(189,189,189)"/><g clip-path="url(#_clipPath_0OsZS4aSTxYgG64WHvQMxmZB5Z3PNfP7)"><text transform="matrix(1,0,0,1,122,26.379)" style="font-family:'Open Sans';font-weight:700;font-size:10px;font-style:normal;fill:#000000;stroke:none;">b</text></g><defs><clipPath id="_clipPath_0OsZS4aSTxYgG64WHvQMxmZB5Z3PNfP7"><rect x="0" y="0" width="8" height="13.618" transform="matrix(1,0,0,1,122,15.691)"/></clipPath></defs><line x1="184.5" y1="73" x2="202.642" y2="73" vector-effect="non-scaling-stroke" stroke-width="1.5" stroke="rgb(189,189,189)" stroke-linejoin="miter" stroke-linecap="square" stroke-miterlimit="3"/><circle vector-effect="non-scaling-stroke" cx="215.00000000000003" cy="73" r="7.5" fill="rgb(189,189,189)"/><g clip-path="url(#_clipPath_UPFFWS05nQFOohPjIEIyYbilbwrPFcM6)"><text transform="matrix(1,0,0,1,211.929,76.879)" style="font-family:'Open Sans';font-weight:700;font-size:10px;font-style:normal;fill:#000000;stroke:none;">c</text></g><defs><clipPath id="_clipPath_UPFFWS05nQFOohPjIEIyYbilbwrPFcM6"><rect x="0" y="0" width="8" height="13.618" transform="matrix(1,0,0,1,211.5,66.191)"/></clipPath></defs></g></svg>