<?xml version="1.0" encoding="UTF-8" standalone="no"?><!-- Generator: Gravit.io --><svg xmlns="http://www.w3.org/2000/svg" xmlns:xlink="http://www.w3.org/1999/xlink" style="isolation:isolate" viewBox="0 0 400 200" width="400pt" height="200pt"><defs><clipPath id="_clipPath_wTIc5asALgPlzxjimOYpQvrm2kkoamvN"><rect width="400" height="200"/></clipPath></defs><g clip-path="url(#_clipPath_wTIc5asALgPlzxjimOYpQvrm2kkoamvN)"><rect width="400" height="200" style="fill:rgb(0,0,0)"/><path d="M 78.919 14 L 149.081 14 C 155.107 14 160 18.893 160 24.919 L 160 175.081 C 160 181.107 155.107 186 149.081 186 L 78.919 186 C 72.893 186 68 181.107 68 175.081 L 68 24.919 C 68 18.893 72.893 14 78.919 14 Z" style="fill:none;stroke:#999989;stroke-width:2;stroke-linecap:square;stroke-miterlimit:2;"/><path d="M 79.561 31 L 148.439 31 C 151.784 31 154.5 33.716 154.5 37.061 L 154.5 45.939 C 154.5 49.284 151.784 52 148.439 52 L 79.561 52 C 76.216 52 73.5 49.284 73.5 45.939 L 73.5 37.061 C 73.5 33.716 76.216 31 79.561 31 Z" style="stroke:none;fill:#3B3B3B;stroke-miterlimit:10;"/><line x1="91" y1="35" x2="137.707" y2="35" vector-effect="non-scaling-stroke" stroke-width="2" stroke="rgb(166,166,166)" stroke-linejoin="miter" stroke-linecap="round" stroke-miterlimit="3"/><line x1="91" y1="48" x2="124.44" y2="48" vector-effect="non-scaling-stroke" stroke-width="2" stroke="rgb(166,166,166)" stroke-linejoin="miter" stroke-linecap="round" stroke-miterlimit="3"/><line x1="97.233" y1="41.5" x2="102.821" y2="41.5" vector-effect="non-scaling-stroke" stroke-width="2" stroke="rgb(166,166,166)" stroke-linejoin="miter" stroke-linecap="round" stroke-miterlimit="3"/><path d="M 145.505 38 L 149.495 38 C 150.326 38 151 38.674 151 39.505 L 151 43.495 C 151 44.326 150.326 45 149.495 45 L 145.505 45 C 144.674 45 144 44.326 144 43.495 L 144 39.505 C 144 38.674 144.674 38 145.505 38 Z" style="stroke:none;fill:#EBEBEB;stroke-miterlimit:10;"/><path d="M 91.021 39.13 L 93.729 39.13 C 94.292 39.13 94.75 39.588 94.75 40.151 L 94.75 42.859 C 94.75 43.422 94.292 43.88 93.729 43.88 L 91.021 43.88 C 90.458 43.88 90 43.422 90 42.859 L 90 40.151 C 90 39.588 90.458 39.13 91.021 39.13 Z" style="stroke:none;fill:#EBEBEB;stroke-miterlimit:10;"/><line x1="114.233" y1="41.5" x2="119.821" y2="41.5" vector-effect="non-scaling-stroke" stroke-width="2" stroke="rgb(166,166,166)" stroke-linejoin="miter" stroke-linecap="round" stroke-miterlimit="3"/><path d="M 108.021 39.13 L 110.729 39.13 C 111.292 39.13 111.75 39.588 111.75 40.151 L 111.75 42.859 C 111.75 43.422 111.292 43.88 110.729 43.88 L 108.021 43.88 C 107.458 43.88 107 43.422 107 42.859 L 107 40.151 C 107 39.588 107.458 39.13 108.021 39.13 Z" style="stroke:none;fill:#EBEBEB;stroke-miterlimit:10;"/><line x1="131.233" y1="41.5" x2="136.821" y2="41.5" vector-effect="non-scaling-stroke" stroke-width="2" stroke="rgb(166,166,166)" stroke-linejoin="miter" stroke-linecap="round" stroke-miterlimit="3"/><path d="M 125.021 39.13 L 127.729 39.13 C 128.292 39.13 128.75 39.588 128.75 40.151 L 128.75 42.859 C 128.75 43.422 128.292 43.88 127.729 43.88 L 125.021 43.88 C 124.458 43.88 124 43.422 124 42.859 L 124 40.151 C 124 39.588 124.458 39.13 125.021 39.13 Z" style="stroke:none;fill:#EBEBEB;stroke-miterlimit:10;"/><path d="M 77.241 20 L 150.759 20 C 152.824 20 154.5 21.676 154.5 23.741 L 154.5 24.259 C 154.5 26.324 152.824 28 150.759 28 L 77.241 28 C 75.176 28 73.5 26.324 73.5 24.259 L 73.5 23.741 C 73.5 21.676 75.176 20 77.241 20 Z" style="stroke:none;fill:#FF8300;stroke-miterlimit:10;"/><line x1="82.661" y1="24" x2="145.405" y2="24" vector-effect="non-scaling-stroke" stroke-width="2" stroke="rgb(255,255,255)" stroke-linejoin="miter" stroke-linecap="round" stroke-miterlimit="3"/><circle vector-effect="non-scaling-stroke" cx="81.74999999999994" cy="39.25" r="4.75" fill="rgb(34,166,82)"/><path d="M 221.061 11.5 L 289.939 11.5 C 293.284 11.5 296 14.216 296 17.561 L 296 26.439 C 296 29.784 293.284 32.5 289.939 32.5 L 221.061 32.5 C 217.716 32.5 215 29.784 215 26.439 L 215 17.561 C 215 14.216 217.716 11.5 221.061 11.5 Z" style="stroke:none;fill:#3B3B3B;stroke-miterlimit:10;"/><line x1="232.5" y1="15.5" x2="279.207" y2="15.5" vector-effect="non-scaling-stroke" stroke-width="2" stroke="rgb(166,166,166)" stroke-linejoin="miter" stroke-linecap="round" stroke-miterlimit="3"/><line x1="232.5" y1="28.5" x2="265.94" y2="28.5" vector-effect="non-scaling-stroke" stroke-width="2" stroke="rgb(166,166,166)" stroke-linejoin="miter" stroke-linecap="round" stroke-miterlimit="3"/><line x1="238.733" y1="22" x2="244.321" y2="22" vector-effect="non-scaling-stroke" stroke-width="2" stroke="rgb(166,166,166)" stroke-linejoin="miter" stroke-linecap="round" stroke-miterlimit="3"/><path d="M 287.005 18.5 L 290.995 18.5 C 291.826 18.5 292.5 19.174 292.5 20.005 L 292.5 23.995 C 292.5 24.826 291.826 25.5 290.995 25.5 L 287.005 25.5 C 286.174 25.5 285.5 24.826 285.5 23.995 L 285.5 20.005 C 285.5 19.174 286.174 18.5 287.005 18.5 Z" style="stroke:none;fill:#EBEBEB;stroke-miterlimit:10;"/><path d="M 232.521 19.63 L 235.229 19.63 C 235.792 19.63 236.25 20.088 236.25 20.651 L 236.25 23.359 C 236.25 23.922 235.792 24.38 235.229 24.38 L 232.521 24.38 C 231.958 24.38 231.5 23.922 231.5 23.359 L 231.5 20.651 C 231.5 20.088 231.958 19.63 232.521 19.63 Z" style="stroke:none;fill:#EBEBEB;stroke-miterlimit:10;"/><line x1="255.733" y1="22" x2="261.321" y2="22" vector-effect="non-scaling-stroke" stroke-width="2" stroke="rgb(166,166,166)" stroke-linejoin="miter" stroke-linecap="round" stroke-miterlimit="3"/><path d="M 249.521 19.63 L 252.229 19.63 C 252.792 19.63 253.25 20.088 253.25 20.651 L 253.25 23.359 C 253.25 23.922 252.792 24.38 252.229 24.38 L 249.521 24.38 C 248.958 24.38 248.5 23.922 248.5 23.359 L 248.5 20.651 C 248.5 20.088 248.958 19.63 249.521 19.63 Z" style="stroke:none;fill:#EBEBEB;stroke-miterlimit:10;"/><line x1="272.733" y1="22" x2="278.321" y2="22" vector-effect="non-scaling-stroke" stroke-width="2" stroke="rgb(166,166,166)" stroke-linejoin="miter" stroke-linecap="round" stroke-miterlimit="3"/><path d="M 266.521 19.63 L 269.229 19.63 C 269.792 19.63 270.25 20.088 270.25 20.651 L 270.25 23.359 C 270.25 23.922 269.792 24.38 269.229 24.38 L 266.521 24.38 C 265.958 24.38 265.5 23.922 265.5 23.359 L 265.5 20.651 C 265.5 20.088 265.958 19.63 266.521 19.63 Z" style="stroke:none;fill:#EBEBEB;stroke-miterlimit:10;"/><circle vector-effect="non-scaling-stroke" cx="223.2499999999997" cy="19.749999999999993" r="4.75" fill="rgb(34,166,82)"/><path d="M 221.061 37.25 L 289.939 37.25 C 293.284 37.25 296 39.966 296 43.311 L 296 52.189 C 296 55.534 293.284 58.25 289.939 58.25 L 221.061 58.25 C 217.716 58.25 215 55.534 215 52.189 L 215 43.311 C 215 39.966 217.716 37.25 221.061 37.25 Z" style="stroke:none;fill:#3B3B3B;stroke-miterlimit:10;"/><line x1="232.5" y1="41.25" x2="279.207" y2="41.25" vector-effect="non-scaling-stroke" stroke-width="2" stroke="rgb(166,166,166)" stroke-linejoin="miter" stroke-linecap="round" stroke-miterlimit="3"/><line x1="232.5" y1="54.25" x2="265.94" y2="54.25" vector-effect="non-scaling-stroke" stroke-width="2" stroke="rgb(166,166,166)" stroke-linejoin="miter" stroke-linecap="round" stroke-miterlimit="3"/><line x1="238.733" y1="47.75" x2="244.321" y2="47.75" vector-effect="non-scaling-stroke" stroke-width="2" stroke="rgb(166,166,166)" stroke-linejoin="miter" stroke-linecap="round" stroke-miterlimit="3"/><path d="M 287.005 44.25 L 290.995 44.25 C 291.826 44.25 292.5 44.924 292.5 45.755 L 292.5 49.745 C 292.5 50.576 291.826 51.25 290.995 51.25 L 287.005 51.25 C 286.174 51.25 285.5 50.576 285.5 49.745 L 285.5 45.755 C 285.5 44.924 286.174 44.25 287.005 44.25 Z" style="stroke:none;fill:#EBEBEB;stroke-miterlimit:10;"/><path d="M 232.521 45.38 L 235.229 45.38 C 235.792 45.38 236.25 45.838 236.25 46.401 L 236.25 49.109 C 236.25 49.672 235.792 50.13 235.229 50.13 L 232.521 50.13 C 231.958 50.13 231.5 49.672 231.5 49.109 L 231.5 46.401 C 231.5 45.838 231.958 45.38 232.521 45.38 Z" style="stroke:none;fill:#EBEBEB;stroke-miterlimit:10;"/><line x1="255.733" y1="47.75" x2="261.321" y2="47.75" vector-effect="non-scaling-stroke" stroke-width="2" stroke="rgb(166,166,166)" stroke-linejoin="miter" stroke-linecap="round" stroke-miterlimit="3"/><path d="M 249.521 45.38 L 252.229 45.38 C 252.792 45.38 253.25 45.838 253.25 46.401 L 253.25 49.109 C 253.25 49.672 252.792 50.13 252.229 50.13 L 249.521 50.13 C 248.958 50.13 248.5 49.672 248.5 49.109 L 248.5 46.401 C 248.5 45.838 248.958 45.38 249.521 45.38 Z" style="stroke:none;fill:#EBEBEB;stroke-miterlimit:10;"/><line x1="272.733" y1="47.75" x2="278.321" y2="47.75" vector-effect="non-scaling-stroke" stroke-width="2" stroke="rgb(166,166,166)" stroke-linejoin="miter" stroke-linecap="round" stroke-miterlimit="3"/><path d="M 266.521 45.38 L 269.229 45.38 C 269.792 45.38 270.25 45.838 270.25 46.401 L 270.25 49.109 C 270.25 49.672 269.792 50.13 269.229 50.13 L 266.521 50.13 C 265.958 50.13 265.5 49.672 265.5 49.109 L 265.5 46.401 C 265.5 45.838 265.958 45.38 266.521 45.38 Z" style="stroke:none;fill:#EBEBEB;stroke-miterlimit:10;"/><circle vector-effect="non-scaling-stroke" cx="223.2499999999997" cy="45.5" r="4.75" fill="rgb(255,131,0)"/><path d="M 221.061 63 L 289.939 63 C 293.284 63 296 65.716 296 69.061 L 296 77.939 C 296 81.284 293.284 84 289.939 84 L 221.061 84 C 217.716 84 215 81.284 215 77.939 L 215 69.061 C 215 65.716 217.716 63 221.061 63 Z" style="stroke:none;fill:#3B3B3B;stroke-miterlimit:10;"/><line x1="232.5" y1="67" x2="279.207" y2="67" vector-effect="non-scaling-stroke" stroke-width="2" stroke="rgb(166,166,166)" stroke-linejoin="miter" stroke-linecap="round" stroke-miterlimit="3"/><line x1="232.5" y1="80" x2="265.94" y2="80" vector-effect="non-scaling-stroke" stroke-width="2" stroke="rgb(166,166,166)" stroke-linejoin="miter" stroke-linecap="round" stroke-miterlimit="3"/><line x1="238.733" y1="73.5" x2="244.321" y2="73.5" vector-effect="non-scaling-stroke" stroke-width="2" stroke="rgb(166,166,166)" stroke-linejoin="miter" stroke-linecap="round" stroke-miterlimit="3"/><path d="M 287.005 70 L 290.995 70 C 291.826 70 292.5 70.674 292.5 71.505 L 292.5 75.495 C 292.5 76.326 291.826 77 290.995 77 L 287.005 77 C 286.174 77 285.5 76.326 285.5 75.495 L 285.5 71.505 C 285.5 70.674 286.174 70 287.005 70 Z" style="stroke:none;fill:#EBEBEB;stroke-miterlimit:10;"/><path d="M 232.521 71.13 L 235.229 71.13 C 235.792 71.13 236.25 71.588 236.25 72.151 L 236.25 74.859 C 236.25 75.422 235.792 75.88 235.229 75.88 L 232.521 75.88 C 231.958 75.88 231.5 75.422 231.5 74.859 L 231.5 72.151 C 231.5 71.588 231.958 71.13 232.521 71.13 Z" style="stroke:none;fill:#EBEBEB;stroke-miterlimit:10;"/><line x1="255.733" y1="73.5" x2="261.321" y2="73.5" vector-effect="non-scaling-stroke" stroke-width="2" stroke="rgb(166,166,166)" stroke-linejoin="miter" stroke-linecap="round" stroke-miterlimit="3"/><path d="M 249.521 71.13 L 252.229 71.13 C 252.792 71.13 253.25 71.588 253.25 72.151 L 253.25 74.859 C 253.25 75.422 252.792 75.88 252.229 75.88 L 249.521 75.88 C 248.958 75.88 248.5 75.422 248.5 74.859 L 248.5 72.151 C 248.5 71.588 248.958 71.13 249.521 71.13 Z" style="stroke:none;fill:#EBEBEB;stroke-miterlimit:10;"/><line x1="272.733" y1="73.5" x2="278.321" y2="73.5" vector-effect="non-scaling-stroke" stroke-width="2" stroke="rgb(166,166,166)" stroke-linejoin="miter" stroke-linecap="round" stroke-miterlimit="3"/><path d="M 266.521 71.13 L 269.229 71.13 C 269.792 71.13 270.25 71.588 270.25 72.151 L 270.25 74.859 C 270.25 75.422 269.792 75.88 269.229 75.88 L 266.521 75.88 C 265.958 75.88 265.5 75.422 265.5 74.859 L 265.5 72.151 C 265.5 71.588 265.958 71.13 266.521 71.13 Z" style="stroke:none;fill:#EBEBEB;stroke-miterlimit:10;"/><circle vector-effect="non-scaling-stroke" cx="223.2499999999997" cy="71.25000000000003" r="4.75" fill="rgb(213,0,0)"/><path d="M 221.061 88.75 L 289.939 88.75 C 293.284 88.75 296 91.466 296 94.811 L 296 103.689 C 296 107.034 293.284 109.75 289.939 109.75 L 221.061 109.75 C 217.716 109.75 215 107.034 215 103.689 L 215 94.811 C 215 91.466 217.716 88.75 221.061 88.75 Z" style="stroke:none;fill:#3B3B3B;stroke-miterlimit:10;"/><line x1="232.5" y1="92.75" x2="279.207" y2="92.75" vector-effect="non-scaling-stroke" stroke-width="2" stroke="rgb(166,166,166)" stroke-linejoin="miter" stroke-linecap="round" stroke-miterlimit="3"/><line x1="232.5" y1="105.75" x2="265.94" y2="105.75" vector-effect="non-scaling-stroke" stroke-width="2" stroke="rgb(166,166,166)" stroke-linejoin="miter" stroke-linecap="round" stroke-miterlimit="3"/><line x1="238.733" y1="99.25" x2="244.321" y2="99.25" vector-effect="non-scaling-stroke" stroke-width="2" stroke="rgb(166,166,166)" stroke-linejoin="miter" stroke-linecap="round" stroke-miterlimit="3"/><path d="M 287.005 95.75 L 290.995 95.75 C 291.826 95.75 292.5 96.424 292.5 97.255 L 292.5 101.245 C 292.5 102.076 291.826 102.75 290.995 102.75 L 287.005 102.75 C 286.174 102.75 285.5 102.076 285.5 101.245 L 285.5 97.255 C 285.5 96.424 286.174 95.75 287.005 95.75 Z" style="stroke:none;fill:#EBEBEB;stroke-miterlimit:10;"/><path d="M 232.521 96.88 L 235.229 96.88 C 235.792 96.88 236.25 97.338 236.25 97.901 L 236.25 100.609 C 236.25 101.172 235.792 101.63 235.229 101.63 L 232.521 101.63 C 231.958 101.63 231.5 101.172 231.5 100.609 L 231.5 97.901 C 231.5 97.338 231.958 96.88 232.521 96.88 Z" style="stroke:none;fill:#EBEBEB;stroke-miterlimit:10;"/><line x1="255.733" y1="99.25" x2="261.321" y2="99.25" vector-effect="non-scaling-stroke" stroke-width="2" stroke="rgb(166,166,166)" stroke-linejoin="miter" stroke-linecap="round" stroke-miterlimit="3"/><path d="M 249.521 96.88 L 252.229 96.88 C 252.792 96.88 253.25 97.338 253.25 97.901 L 253.25 100.609 C 253.25 101.172 252.792 101.63 252.229 101.63 L 249.521 101.63 C 248.958 101.63 248.5 101.172 248.5 100.609 L 248.5 97.901 C 248.5 97.338 248.958 96.88 249.521 96.88 Z" style="stroke:none;fill:#EBEBEB;stroke-miterlimit:10;"/><line x1="272.733" y1="99.25" x2="278.321" y2="99.25" vector-effect="non-scaling-stroke" stroke-width="2" stroke="rgb(166,166,166)" stroke-linejoin="miter" stroke-linecap="round" stroke-miterlimit="3"/><path d="M 266.521 96.88 L 269.229 96.88 C 269.792 96.88 270.25 97.338 270.25 97.901 L 270.25 100.609 C 270.25 101.172 269.792 101.63 269.229 101.63 L 266.521 101.63 C 265.958 101.63 265.5 101.172 265.5 100.609 L 265.5 97.901 C 265.5 97.338 265.958 96.88 266.521 96.88 Z" style="stroke:none;fill:#EBEBEB;stroke-miterlimit:10;"/><path d="M 221.061 114.5 L 289.939 114.5 C 293.284 114.5 296 117.216 296 120.561 L 296 129.439 C 296 132.784 293.284 135.5 289.939 135.5 L 221.061 135.5 C 217.716 135.5 215 132.784 215 129.439 L 215 120.561 C 215 117.216 217.716 114.5 221.061 114.5 Z" style="stroke:none;fill:#3B3B3B;stroke-miterlimit:10;"/><line x1="232.5" y1="118.5" x2="279.207" y2="118.5" vector-effect="non-scaling-stroke" stroke-width="2" stroke="rgb(166,166,166)" stroke-linejoin="miter" stroke-linecap="round" stroke-miterlimit="3"/><line x1="232.5" y1="131.5" x2="265.94" y2="131.5" vector-effect="non-scaling-stroke" stroke-width="2" stroke="rgb(166,166,166)" stroke-linejoin="miter" stroke-linecap="round" stroke-miterlimit="3"/><line x1="238.733" y1="125" x2="244.321" y2="125" vector-effect="non-scaling-stroke" stroke-width="2" stroke="rgb(166,166,166)" stroke-linejoin="miter" stroke-linecap="round" stroke-miterlimit="3"/><path d="M 287.005 121.5 L 290.995 121.5 C 291.826 121.5 292.5 122.174 292.5 123.005 L 292.5 126.995 C 292.5 127.826 291.826 128.5 290.995 128.5 L 287.005 128.5 C 286.174 128.5 285.5 127.826 285.5 126.995 L 285.5 123.005 C 285.5 122.174 286.174 121.5 287.005 121.5 Z" style="stroke:none;fill:#EBEBEB;stroke-miterlimit:10;"/><path d="M 232.521 122.63 L 235.229 122.63 C 235.792 122.63 236.25 123.088 236.25 123.651 L 236.25 126.359 C 236.25 126.922 235.792 127.38 235.229 127.38 L 232.521 127.38 C 231.958 127.38 231.5 126.922 231.5 126.359 L 231.5 123.651 C 231.5 123.088 231.958 122.63 232.521 122.63 Z" style="stroke:none;fill:#EBEBEB;stroke-miterlimit:10;"/><line x1="255.733" y1="125" x2="261.321" y2="125" vector-effect="non-scaling-stroke" stroke-width="2" stroke="rgb(166,166,166)" stroke-linejoin="miter" stroke-linecap="round" stroke-miterlimit="3"/><path d="M 249.521 122.63 L 252.229 122.63 C 252.792 122.63 253.25 123.088 253.25 123.651 L 253.25 126.359 C 253.25 126.922 252.792 127.38 252.229 127.38 L 249.521 127.38 C 248.958 127.38 248.5 126.922 248.5 126.359 L 248.5 123.651 C 248.5 123.088 248.958 122.63 249.521 122.63 Z" style="stroke:none;fill:#EBEBEB;stroke-miterlimit:10;"/><line x1="272.733" y1="125" x2="278.321" y2="125" vector-effect="non-scaling-stroke" stroke-width="2" stroke="rgb(166,166,166)" stroke-linejoin="miter" stroke-linecap="round" stroke-miterlimit="3"/><path d="M 266.521 122.63 L 269.229 122.63 C 269.792 122.63 270.25 123.088 270.25 123.651 L 270.25 126.359 C 270.25 126.922 269.792 127.38 269.229 127.38 L 266.521 127.38 C 265.958 127.38 265.5 126.922 265.5 126.359 L 265.5 123.651 C 265.5 123.088 265.958 122.63 266.521 122.63 Z" style="stroke:none;fill:#EBEBEB;stroke-miterlimit:10;"/><path d="M 221.061 141.13 L 289.939 141.13 C 293.284 141.13 296 143.846 296 147.191 L 296 156.069 C 296 159.414 293.284 162.13 289.939 162.13 L 221.061 162.13 C 217.716 162.13 215 159.414 215 156.069 L 215 147.191 C 215 143.846 217.716 141.13 221.061 141.13 Z" style="stroke:none;fill:#3B3B3B;stroke-miterlimit:10;"/><line x1="232.5" y1="145.125" x2="279.207" y2="145.125" vector-effect="non-scaling-stroke" stroke-width="2" stroke="rgb(166,166,166)" stroke-linejoin="miter" stroke-linecap="round" stroke-miterlimit="3"/><line x1="232.5" y1="158.125" x2="265.94" y2="158.125" vector-effect="non-scaling-stroke" stroke-width="2" stroke="rgb(166,166,166)" stroke-linejoin="miter" stroke-linecap="round" stroke-miterlimit="3"/><line x1="238.733" y1="151.625" x2="244.321" y2="151.625" vector-effect="non-scaling-stroke" stroke-width="2" stroke="rgb(166,166,166)" stroke-linejoin="miter" stroke-linecap="round" stroke-miterlimit="3"/><path d="M 287.005 148.13 L 290.995 148.13 C 291.826 148.13 292.5 148.804 292.5 149.635 L 292.5 153.625 C 292.5 154.456 291.826 155.13 290.995 155.13 L 287.005 155.13 C 286.174 155.13 285.5 154.456 285.5 153.625 L 285.5 149.635 C 285.5 148.804 286.174 148.13 287.005 148.13 Z" style="stroke:none;fill:#EBEBEB;stroke-miterlimit:10;"/><path d="M 232.521 149.25 L 235.229 149.25 C 235.792 149.25 236.25 149.708 236.25 150.271 L 236.25 152.979 C 236.25 153.542 235.792 154 235.229 154 L 232.521 154 C 231.958 154 231.5 153.542 231.5 152.979 L 231.5 150.271 C 231.5 149.708 231.958 149.25 232.521 149.25 Z" style="stroke:none;fill:#EBEBEB;stroke-miterlimit:10;"/><line x1="255.733" y1="151.625" x2="261.321" y2="151.625" vector-effect="non-scaling-stroke" stroke-width="2" stroke="rgb(166,166,166)" stroke-linejoin="miter" stroke-linecap="round" stroke-miterlimit="3"/><path d="M 249.521 149.25 L 252.229 149.25 C 252.792 149.25 253.25 149.708 253.25 150.271 L 253.25 152.979 C 253.25 153.542 252.792 154 252.229 154 L 249.521 154 C 248.958 154 248.5 153.542 248.5 152.979 L 248.5 150.271 C 248.5 149.708 248.958 149.25 249.521 149.25 Z" style="stroke:none;fill:#EBEBEB;stroke-miterlimit:10;"/><line x1="272.733" y1="151.625" x2="278.321" y2="151.625" vector-effect="non-scaling-stroke" stroke-width="2" stroke="rgb(166,166,166)" stroke-linejoin="miter" stroke-linecap="round" stroke-miterlimit="3"/><path d="M 266.521 149.25 L 269.229 149.25 C 269.792 149.25 270.25 149.708 270.25 150.271 L 270.25 152.979 C 270.25 153.542 269.792 154 269.229 154 L 266.521 154 C 265.958 154 265.5 153.542 265.5 152.979 L 265.5 150.271 C 265.5 149.708 265.958 149.25 266.521 149.25 Z" style="stroke:none;fill:#EBEBEB;stroke-miterlimit:10;"/><path d="M 221.061 167 L 289.939 167 C 293.284 167 296 169.716 296 173.061 L 296 181.939 C 296 185.284 293.284 188 289.939 188 L 221.061 188 C 217.716 188 215 185.284 215 181.939 L 215 173.061 C 215 169.716 217.716 167 221.061 167 Z" style="stroke:none;fill:#3B3B3B;stroke-miterlimit:10;"/><line x1="232.5" y1="171" x2="279.207" y2="171" vector-effect="non-scaling-stroke" stroke-width="2" stroke="rgb(166,166,166)" stroke-linejoin="miter" stroke-linecap="round" stroke-miterlimit="3"/><line x1="232.5" y1="184" x2="265.94" y2="184" vector-effect="non-scaling-stroke" stroke-width="2" stroke="rgb(166,166,166)" stroke-linejoin="miter" stroke-linecap="round" stroke-miterlimit="3"/><line x1="238.733" y1="177.5" x2="244.321" y2="177.5" vector-effect="non-scaling-stroke" stroke-width="2" stroke="rgb(166,166,166)" stroke-linejoin="miter" stroke-linecap="round" stroke-miterlimit="3"/><path d="M 287.005 174 L 290.995 174 C 291.826 174 292.5 174.674 292.5 175.505 L 292.5 179.495 C 292.5 180.326 291.826 181 290.995 181 L 287.005 181 C 286.174 181 285.5 180.326 285.5 179.495 L 285.5 175.505 C 285.5 174.674 286.174 174 287.005 174 Z" style="stroke:none;fill:#EBEBEB;stroke-miterlimit:10;"/><path d="M 232.521 175.13 L 235.229 175.13 C 235.792 175.13 236.25 175.588 236.25 176.151 L 236.25 178.859 C 236.25 179.422 235.792 179.88 235.229 179.88 L 232.521 179.88 C 231.958 179.88 231.5 179.422 231.5 178.859 L 231.5 176.151 C 231.5 175.588 231.958 175.13 232.521 175.13 Z" style="stroke:none;fill:#EBEBEB;stroke-miterlimit:10;"/><line x1="255.733" y1="177.5" x2="261.321" y2="177.5" vector-effect="non-scaling-stroke" stroke-width="2" stroke="rgb(166,166,166)" stroke-linejoin="miter" stroke-linecap="round" stroke-miterlimit="3"/><path d="M 249.521 175.13 L 252.229 175.13 C 252.792 175.13 253.25 175.588 253.25 176.151 L 253.25 178.859 C 253.25 179.422 252.792 179.88 252.229 179.88 L 249.521 179.88 C 248.958 179.88 248.5 179.422 248.5 178.859 L 248.5 176.151 C 248.5 175.588 248.958 175.13 249.521 175.13 Z" style="stroke:none;fill:#EBEBEB;stroke-miterlimit:10;"/><line x1="272.733" y1="177.5" x2="278.321" y2="177.5" vector-effect="non-scaling-stroke" stroke-width="2" stroke="rgb(166,166,166)" stroke-linejoin="miter" stroke-linecap="round" stroke-miterlimit="3"/><path d="M 266.521 175.13 L 269.229 175.13 C 269.792 175.13 270.25 175.588 270.25 176.151 L 270.25 178.859 C 270.25 179.422 269.792 179.88 269.229 179.88 L 266.521 179.88 C 265.958 179.88 265.5 179.422 265.5 178.859 L 265.5 176.151 C 265.5 175.588 265.958 175.13 266.521 175.13 Z" style="stroke:none;fill:#EBEBEB;stroke-miterlimit:10;"/><path d="M 79.791 135 L 148.669 135 C 152.014 135 154.73 137.716 154.73 141.061 L 154.73 149.939 C 154.73 153.284 152.014 156 148.669 156 L 79.791 156 C 76.446 156 73.73 153.284 73.73 149.939 L 73.73 141.061 C 73.73 137.716 76.446 135 79.791 135 Z" style="stroke:none;fill:#3B3B3B;stroke-miterlimit:10;"/><line x1="91.233" y1="139" x2="137.94" y2="139" vector-effect="non-scaling-stroke" stroke-width="2" stroke="rgb(166,166,166)" stroke-linejoin="miter" stroke-linecap="round" stroke-miterlimit="3"/><line x1="91.233" y1="152" x2="124.673" y2="152" vector-effect="non-scaling-stroke" stroke-width="2" stroke="rgb(166,166,166)" stroke-linejoin="miter" stroke-linecap="round" stroke-miterlimit="3"/><line x1="97.465" y1="145.5" x2="103.053" y2="145.5" vector-effect="non-scaling-stroke" stroke-width="2" stroke="rgb(166,166,166)" stroke-linejoin="miter" stroke-linecap="round" stroke-miterlimit="3"/><path d="M 145.735 142 L 149.725 142 C 150.556 142 151.23 142.674 151.23 143.505 L 151.23 147.495 C 151.23 148.326 150.556 149 149.725 149 L 145.735 149 C 144.904 149 144.23 148.326 144.23 147.495 L 144.23 143.505 C 144.23 142.674 144.904 142 145.735 142 Z" style="stroke:none;fill:#EBEBEB;stroke-miterlimit:10;"/><path d="M 91.251 143.13 L 93.959 143.13 C 94.522 143.13 94.98 143.588 94.98 144.151 L 94.98 146.859 C 94.98 147.422 94.522 147.88 93.959 147.88 L 91.251 147.88 C 90.688 147.88 90.23 147.422 90.23 146.859 L 90.23 144.151 C 90.23 143.588 90.688 143.13 91.251 143.13 Z" style="stroke:none;fill:#EBEBEB;stroke-miterlimit:10;"/><line x1="114.465" y1="145.5" x2="120.053" y2="145.5" vector-effect="non-scaling-stroke" stroke-width="2" stroke="rgb(166,166,166)" stroke-linejoin="miter" stroke-linecap="round" stroke-miterlimit="3"/><path d="M 108.251 143.13 L 110.959 143.13 C 111.522 143.13 111.98 143.588 111.98 144.151 L 111.98 146.859 C 111.98 147.422 111.522 147.88 110.959 147.88 L 108.251 147.88 C 107.688 147.88 107.23 147.422 107.23 146.859 L 107.23 144.151 C 107.23 143.588 107.688 143.13 108.251 143.13 Z" style="stroke:none;fill:#EBEBEB;stroke-miterlimit:10;"/><line x1="131.465" y1="145.5" x2="137.053" y2="145.5" vector-effect="non-scaling-stroke" stroke-width="2" stroke="rgb(166,166,166)" stroke-linejoin="miter" stroke-linecap="round" stroke-miterlimit="3"/><path d="M 125.251 143.13 L 127.959 143.13 C 128.522 143.13 128.98 143.588 128.98 144.151 L 128.98 146.859 C 128.98 147.422 128.522 147.88 127.959 147.88 L 125.251 147.88 C 124.688 147.88 124.23 147.422 124.23 146.859 L 124.23 144.151 C 124.23 143.588 124.688 143.13 125.251 143.13 Z" style="stroke:none;fill:#EBEBEB;stroke-miterlimit:10;"/><circle vector-effect="non-scaling-stroke" cx="81.98268318176267" cy="143.25" r="4.75" fill="rgb(34,166,82)"/><path d="M 79.5 55 L 148.5 55 C 151.811 55 154.5 57.689 154.5 61 L 154.5 126 C 154.5 129.311 151.811 132 148.5 132 L 79.5 132 C 76.189 132 73.5 129.311 73.5 126 L 73.5 61 C 73.5 57.689 76.189 55 79.5 55 Z" style="stroke:none;fill:#3B3B3B;stroke-miterlimit:10;"/><line x1="91" y1="59" x2="137.707" y2="59" vector-effect="non-scaling-stroke" stroke-width="2" stroke="rgb(166,166,166)" stroke-linejoin="miter" stroke-linecap="round" stroke-miterlimit="3"/><line x1="104.162" y1="128" x2="123.838" y2="128" vector-effect="non-scaling-stroke" stroke-width="2" stroke="rgb(255,131,0)" stroke-linejoin="miter" stroke-linecap="round" stroke-miterlimit="3"/><line x1="76.655" y1="82" x2="123.362" y2="82" vector-effect="non-scaling-stroke" stroke-width="2" stroke="rgb(166,166,166)" stroke-linejoin="miter" stroke-linecap="round" stroke-miterlimit="3"/><line x1="78" y1="86" x2="107.398" y2="86" vector-effect="non-scaling-stroke" stroke-width="2" stroke="rgb(166,166,166)" stroke-linejoin="miter" stroke-linecap="round" stroke-miterlimit="3"/><line x1="78.301" y1="90" x2="107.699" y2="90" vector-effect="non-scaling-stroke" stroke-width="2" stroke="rgb(166,166,166)" stroke-linejoin="miter" stroke-linecap="round" stroke-miterlimit="3"/><line x1="76.655" y1="96" x2="123.362" y2="96" vector-effect="non-scaling-stroke" stroke-width="2" stroke="rgb(166,166,166)" stroke-linejoin="miter" stroke-linecap="round" stroke-miterlimit="3"/><line x1="78" y1="100" x2="107.398" y2="100" vector-effect="non-scaling-stroke" stroke-width="2" stroke="rgb(166,166,166)" stroke-linejoin="miter" stroke-linecap="round" stroke-miterlimit="3"/><line x1="78.301" y1="104" x2="107.699" y2="104" vector-effect="non-scaling-stroke" stroke-width="2" stroke="rgb(166,166,166)" stroke-linejoin="miter" stroke-linecap="round" stroke-miterlimit="3"/><line x1="76.655" y1="110" x2="123.362" y2="110" vector-effect="non-scaling-stroke" stroke-width="2" stroke="rgb(166,166,166)" stroke-linejoin="miter" stroke-linecap="round" stroke-miterlimit="3"/><line x1="78" y1="114" x2="107.398" y2="114" vector-effect="non-scaling-stroke" stroke-width="2" stroke="rgb(166,166,166)" stroke-linejoin="miter" stroke-linecap="round" stroke-miterlimit="3"/><line x1="78.301" y1="118" x2="107.699" y2="118" vector-effect="non-scaling-stroke" stroke-width="2" stroke="rgb(166,166,166)" stroke-linejoin="miter" stroke-linecap="round" stroke-miterlimit="3"/><line x1="91" y1="72" x2="124.44" y2="72" vector-effect="non-scaling-stroke" stroke-width="2" stroke="rgb(166,166,166)" stroke-linejoin="miter" stroke-linecap="round" stroke-miterlimit="3"/><line x1="75.655" y1="77" x2="152.209" y2="77" vector-effect="non-scaling-stroke" stroke-width="1" stroke="rgb(235,235,235)" stroke-linejoin="miter" stroke-linecap="round" stroke-miterlimit="3"/><line x1="97.233" y1="65.5" x2="102.821" y2="65.5" vector-effect="non-scaling-stroke" stroke-width="2" stroke="rgb(166,166,166)" stroke-linejoin="miter" stroke-linecap="round" stroke-miterlimit="3"/><path d="M 145.505 62 L 149.495 62 C 150.326 62 151 62.674 151 63.505 L 151 67.495 C 151 68.326 150.326 69 149.495 69 L 145.505 69 C 144.674 69 144 68.326 144 67.495 L 144 63.505 C 144 62.674 144.674 62 145.505 62 Z" style="stroke:none;fill:#EBEBEB;stroke-miterlimit:10;"/><path d="M 91.021 63.13 L 93.729 63.13 C 94.292 63.13 94.75 63.588 94.75 64.151 L 94.75 66.859 C 94.75 67.422 94.292 67.88 93.729 67.88 L 91.021 67.88 C 90.458 67.88 90 67.422 90 66.859 L 90 64.151 C 90 63.588 90.458 63.13 91.021 63.13 Z" style="stroke:none;fill:#EBEBEB;stroke-miterlimit:10;"/><line x1="114.233" y1="65.5" x2="119.821" y2="65.5" vector-effect="non-scaling-stroke" stroke-width="2" stroke="rgb(166,166,166)" stroke-linejoin="miter" stroke-linecap="round" stroke-miterlimit="3"/><path d="M 108.021 63.13 L 110.729 63.13 C 111.292 63.13 111.75 63.588 111.75 64.151 L 111.75 66.859 C 111.75 67.422 111.292 67.88 110.729 67.88 L 108.021 67.88 C 107.458 67.88 107 67.422 107 66.859 L 107 64.151 C 107 63.588 107.458 63.13 108.021 63.13 Z" style="stroke:none;fill:#EBEBEB;stroke-miterlimit:10;"/><line x1="131.233" y1="65.5" x2="136.821" y2="65.5" vector-effect="non-scaling-stroke" stroke-width="2" stroke="rgb(166,166,166)" stroke-linejoin="miter" stroke-linecap="round" stroke-miterlimit="3"/><path d="M 125.021 63.13 L 127.729 63.13 C 128.292 63.13 128.75 63.588 128.75 64.151 L 128.75 66.859 C 128.75 67.422 128.292 67.88 127.729 67.88 L 125.021 67.88 C 124.458 67.88 124 67.422 124 66.859 L 124 64.151 C 124 63.588 124.458 63.13 125.021 63.13 Z" style="stroke:none;fill:#EBEBEB;stroke-miterlimit:10;"/><path d="M 148.751 79.25 L 151.459 79.25 C 152.022 79.25 152.48 79.708 152.48 80.271 L 152.48 82.979 C 152.48 83.542 152.022 84 151.459 84 L 148.751 84 C 148.188 84 147.73 83.542 147.73 82.979 L 147.73 80.271 C 147.73 79.708 148.188 79.25 148.751 79.25 Z" style="stroke:none;fill:#EBEBEB;stroke-miterlimit:10;"/><circle vector-effect="non-scaling-stroke" cx="81.74999999999996" cy="63.25" r="4.75" fill="rgb(34,166,82)"/><line x1="42.858" y1="23" x2="61" y2="23" vector-effect="non-scaling-stroke" stroke-width="1.5" stroke="rgb(189,189,189)" stroke-linejoin="miter" stroke-linecap="square" stroke-miterlimit="3"/><circle vector-effect="non-scaling-stroke" cx="30.357524871826172" cy="22.999999999999986" r="7.499999999999998" fill="rgb(189,189,189)"/><g clip-path="url(#_clipPath_lPzNio4tI2WQsrV6hYJvpy1oDcHcf8J4)"><text transform="matrix(1,0,0,1,27.004,26.879)" style="font-family:'Open Sans';font-weight:700;font-size:10px;font-style:normal;fill:#000000;stroke:none;">1</text></g><defs><clipPath id="_clipPath_lPzNio4tI2WQsrV6hYJvpy1oDcHcf8J4"><rect x="0" y="0" width="8" height="13.618" transform="matrix(1,0,0,1,26.858,16.191)"/></clipPath></defs><line x1="42.858" y1="65.5" x2="61" y2="65.5" vector-effect="non-scaling-stroke" stroke-width="1.5" stroke="rgb(189,189,189)" stroke-linejoin="miter" stroke-linecap="square" stroke-miterlimit="3"/><circle vector-effect="non-scaling-stroke" cx="30.357524871826172" cy="65.5" r="7.499999999999998" fill="rgb(189,189,189)"/><g clip-path="url(#_clipPath_ptCk3PvESitN0VQjHlQRmXl4WPCAb5Sl)"><text transform="matrix(1,0,0,1,27.004,69.379)" style="font-family:'Open Sans';font-weight:700;font-size:10px;font-style:normal;fill:#000000;stroke:none;">2</text></g><defs><clipPath id="_clipPath_ptCk3PvESitN0VQjHlQRmXl4WPCAb5Sl"><rect x="0" y="0" width="8" height="13.618" transform="matrix(1,0,0,1,26.858,58.691)"/></clipPath></defs><path d=" M 219 98.009 C 219 95.521 221.016 93.5 223.5 93.5 C 225.984 93.5 228 95.521 228 98.009 C 228 100.36 226.201 102.292 223.909 102.5" fill="none" vector-effect="non-scaling-stroke" stroke-width="1.5" stroke="rgb(255,131,0)" stroke-linejoin="miter" stroke-linecap="square" stroke-miterlimit="3"/><g clip-path="url(#_clipPath_rj7gpfsorugR9xChGzY7tyP5Afra34hs)"><text transform="matrix(1,0,0,1,218.397,124.828)" style="font-family:'Open Sans';font-weight:700;font-size:4px;font-style:normal;fill:#0091ea;stroke:none;">HTTP</text></g><defs><clipPath id="_clipPath_rj7gpfsorugR9xChGzY7tyP5Afra34hs"><rect x="0" y="0" width="14" height="5.447" transform="matrix(1,0,0,1,217.5,120.553)"/></clipPath></defs><path d="M 220.91 150 L 226.09 150 C 226.868 150 227.5 150.632 227.5 151.41 L 227.5 154.59 C 227.5 155.368 226.868 156 226.09 156 L 220.91 156 C 220.132 156 219.5 155.368 219.5 154.59 L 219.5 151.41 C 219.5 150.632 220.132 150 220.91 150 Z" style="stroke:none;fill:#00C853;stroke-miterlimit:10;"/><path d=" M 221 150 C 221 148.068 222.12 146.5 223.5 146.5 C 224.88 146.5 226 148.068 226 150" fill="none" vector-effect="non-scaling-stroke" stroke-width="1" stroke="rgb(0,195,83)" stroke-linejoin="miter" stroke-linecap="square" stroke-miterlimit="3"/><path d="M 220.91 176 L 226.09 176 C 226.868 176 227.5 176.632 227.5 177.41 L 227.5 180.59 C 227.5 181.368 226.868 182 226.09 182 L 220.91 182 C 220.132 182 219.5 181.368 219.5 180.59 L 219.5 177.41 C 219.5 176.632 220.132 176 220.91 176 Z" style="stroke:none;fill:#D50000;stroke-miterlimit:10;"/><path d=" M 221 176 C 221 174.068 222.12 172.5 223.5 172.5 C 224.88 172.5 226 174.068 226 176" fill="none" vector-effect="non-scaling-stroke" stroke-width="1" stroke="rgb(213,0,0)" stroke-linejoin="miter" stroke-linecap="square" stroke-miterlimit="3"/><line x1="304.142" y1="22.5" x2="322.285" y2="22.5" vector-effect="non-scaling-stroke" stroke-width="1.5" stroke="rgb(189,189,189)" stroke-linejoin="miter" stroke-linecap="square" stroke-miterlimit="3"/><circle vector-effect="non-scaling-stroke" cx="334.5" cy="21.999999999999993" r="7.5" fill="rgb(189,189,189)"/><g clip-path="url(#_clipPath_IF1XF5VZP2wAhGlKy2Ca6ZEJZXaA9GP2)"><text transform="matrix(1,0,0,1,329.037,25.104)" style="font-family:'Open Sans';font-weight:700;font-size:8px;font-style:normal;fill:#000000;stroke:none;">*1</text></g><defs><clipPath id="_clipPath_IF1XF5VZP2wAhGlKy2Ca6ZEJZXaA9GP2"><rect x="0" y="0" width="15" height="15" transform="matrix(1,0,0,1,327,14.5)"/></clipPath></defs><line x1="304.142" y1="48" x2="322.285" y2="48" vector-effect="non-scaling-stroke" stroke-width="1.5" stroke="rgb(189,189,189)" stroke-linejoin="miter" stroke-linecap="square" stroke-miterlimit="3"/><circle vector-effect="non-scaling-stroke" cx="334.5" cy="47.5" r="7.5" fill="rgb(189,189,189)"/><g clip-path="url(#_clipPath_PESSlXD0v5JVIJSfnrZocORikri9kOUX)"><text transform="matrix(1,0,0,1,329.037,50.604)" style="font-family:'Open Sans';font-weight:700;font-size:8px;font-style:normal;fill:#000000;stroke:none;">*2</text></g><defs><clipPath id="_clipPath_PESSlXD0v5JVIJSfnrZocORikri9kOUX"><rect x="0" y="0" width="15" height="15" transform="matrix(1,0,0,1,327,40)"/></clipPath></defs><line x1="304.142" y1="74" x2="322.285" y2="74" vector-effect="non-scaling-stroke" stroke-width="1.5" stroke="rgb(189,189,189)" stroke-linejoin="miter" stroke-linecap="square" stroke-miterlimit="3"/><circle vector-effect="non-scaling-stroke" cx="334.5" cy="73.50000000000003" r="7.5" fill="rgb(189,189,189)"/><g clip-path="url(#_clipPath_s0zkqvz7ENWTDQs4rWthuWhgvnndRAKp)"><text transform="matrix(1,0,0,1,329.037,76.604)" style="font-family:'Open Sans';font-weight:700;font-size:8px;font-style:normal;fill:#000000;stroke:none;">*3</text></g><defs><clipPath id="_clipPath_s0zkqvz7ENWTDQs4rWthuWhgvnndRAKp"><rect x="0" y="0" width="15" height="15" transform="matrix(1,0,0,1,327,66)"/></clipPath></defs><line x1="304.142" y1="100.5" x2="322.285" y2="100.5" vector-effect="non-scaling-stroke" stroke-width="1.5" stroke="rgb(189,189,189)" stroke-linejoin="miter" stroke-linecap="square" stroke-miterlimit="3"/><circle vector-effect="non-scaling-stroke" cx="334.5" cy="100.00000000000001" r="7.5" fill="rgb(189,189,189)"/><g clip-path="url(#_clipPath_RzardODdhHSEcYllqyEIujKRSCDwqxi0)"><text transform="matrix(1,0,0,1,329.037,103.104)" style="font-family:'Open Sans';font-weight:700;font-size:8px;font-style:normal;fill:#000000;stroke:none;">*4</text></g><defs><clipPath id="_clipPath_RzardODdhHSEcYllqyEIujKRSCDwqxi0"><rect x="0" y="0" width="15" height="15" transform="matrix(1,0,0,1,327,92.5)"/></clipPath></defs><line x1="304.142" y1="125" x2="322.285" y2="125" vector-effect="non-scaling-stroke" stroke-width="1.5" stroke="rgb(189,189,189)" stroke-linejoin="miter" stroke-linecap="square" stroke-miterlimit="3"/><circle vector-effect="non-scaling-stroke" cx="334.5" cy="124.5" r="7.5" fill="rgb(189,189,189)"/><g clip-path="url(#_clipPath_xJUHFbf2cvyDIb8PckOidCEbVTqT6SZf)"><text transform="matrix(1,0,0,1,329.037,127.604)" style="font-family:'Open Sans';font-weight:700;font-size:8px;font-style:normal;fill:#000000;stroke:none;">*5</text></g><defs><clipPath id="_clipPath_xJUHFbf2cvyDIb8PckOidCEbVTqT6SZf"><rect x="0" y="0" width="15" height="15" transform="matrix(1,0,0,1,327,117)"/></clipPath></defs><line x1="304.142" y1="152.125" x2="322.285" y2="152.125" vector-effect="non-scaling-stroke" stroke-width="1.5" stroke="rgb(189,189,189)" stroke-linejoin="miter" stroke-linecap="square" stroke-miterlimit="3"/><circle vector-effect="non-scaling-stroke" cx="334.5" cy="151.625" r="7.5" fill="rgb(189,189,189)"/><g clip-path="url(#_clipPath_JsJL4EwWBEGA2VXeeS0I5T5yizhKRvyd)"><text transform="matrix(1,0,0,1,329.037,154.729)" style="font-family:'Open Sans';font-weight:700;font-size:8px;font-style:normal;fill:#000000;stroke:none;">*6</text></g><defs><clipPath id="_clipPath_JsJL4EwWBEGA2VXeeS0I5T5yizhKRvyd"><rect x="0" y="0" width="15" height="15" transform="matrix(1,0,0,1,327,144.125)"/></clipPath></defs><line x1="304.142" y1="178" x2="322.285" y2="178" vector-effect="non-scaling-stroke" stroke-width="1.5" stroke="rgb(189,189,189)" stroke-linejoin="miter" stroke-linecap="square" stroke-miterlimit="3"/><circle vector-effect="non-scaling-stroke" cx="334.5" cy="177.5" r="7.5" fill="rgb(189,189,189)"/><g clip-path="url(#_clipPath_LL9Vc870nPzBNyl2K7gU8sOqDnSUxtjv)"><text transform="matrix(1,0,0,1,329.037,180.604)" style="font-family:'Open Sans';font-weight:700;font-size:8px;font-style:normal;fill:#000000;stroke:none;">*7</text></g><defs><clipPath id="_clipPath_LL9Vc870nPzBNyl2K7gU8sOqDnSUxtjv"><rect x="0" y="0" width="15" height="15" transform="matrix(1,0,0,1,327,170)"/></clipPath></defs></g></svg>