<?xml version="1.0" encoding="UTF-8" standalone="no"?><!-- Generator: Gravit.io --><svg xmlns="http://www.w3.org/2000/svg" xmlns:xlink="http://www.w3.org/1999/xlink" style="isolation:isolate" viewBox="0 0 250 200" width="250pt" height="200pt"><defs><clipPath id="_clipPath_Ox0jU1uggfcxUufPIxa5d7fssGjkE7NF"><rect width="250" height="200"/></clipPath></defs><g clip-path="url(#_clipPath_Ox0jU1uggfcxUufPIxa5d7fssGjkE7NF)"><rect width="250" height="200" style="fill:rgb(0,0,0)"/><path d="M 90.5 61.5 L 159.5 61.5 C 162.811 61.5 165.5 64.189 165.5 67.5 L 165.5 132.5 C 165.5 135.811 162.811 138.5 159.5 138.5 L 90.5 138.5 C 87.189 138.5 84.5 135.811 84.5 132.5 L 84.5 67.5 C 84.5 64.189 87.189 61.5 90.5 61.5 Z" style="stroke:none;fill:#3B3B3B;stroke-miterlimit:10;"/><line x1="102" y1="65.5" x2="148.707" y2="65.5" vector-effect="non-scaling-stroke" stroke-width="2" stroke="rgb(166,166,166)" stroke-linejoin="miter" stroke-linecap="round" stroke-miterlimit="3"/><line x1="115.162" y1="134.5" x2="134.838" y2="134.5" vector-effect="non-scaling-stroke" stroke-width="2" stroke="rgb(255,131,0)" stroke-linejoin="miter" stroke-linecap="round" stroke-miterlimit="3"/><line x1="87.655" y1="88.5" x2="134.362" y2="88.5" vector-effect="non-scaling-stroke" stroke-width="2" stroke="rgb(166,166,166)" stroke-linejoin="miter" stroke-linecap="round" stroke-miterlimit="3"/><line x1="89" y1="92.5" x2="118.398" y2="92.5" vector-effect="non-scaling-stroke" stroke-width="2" stroke="rgb(166,166,166)" stroke-linejoin="miter" stroke-linecap="round" stroke-miterlimit="3"/><line x1="89.301" y1="96.5" x2="118.699" y2="96.5" vector-effect="non-scaling-stroke" stroke-width="2" stroke="rgb(166,166,166)" stroke-linejoin="miter" stroke-linecap="round" stroke-miterlimit="3"/><line x1="87.655" y1="102.5" x2="134.362" y2="102.5" vector-effect="non-scaling-stroke" stroke-width="2" stroke="rgb(166,166,166)" stroke-linejoin="miter" stroke-linecap="round" stroke-miterlimit="3"/><line x1="89" y1="106.5" x2="118.398" y2="106.5" vector-effect="non-scaling-stroke" stroke-width="2" stroke="rgb(166,166,166)" stroke-linejoin="miter" stroke-linecap="round" stroke-miterlimit="3"/><line x1="89.301" y1="110.5" x2="118.699" y2="110.5" vector-effect="non-scaling-stroke" stroke-width="2" stroke="rgb(166,166,166)" stroke-linejoin="miter" stroke-linecap="round" stroke-miterlimit="3"/><line x1="87.655" y1="116.5" x2="134.362" y2="116.5" vector-effect="non-scaling-stroke" stroke-width="2" stroke="rgb(166,166,166)" stroke-linejoin="miter" stroke-linecap="round" stroke-miterlimit="3"/><line x1="89" y1="120.5" x2="118.398" y2="120.5" vector-effect="non-scaling-stroke" stroke-width="2" stroke="rgb(166,166,166)" stroke-linejoin="miter" stroke-linecap="round" stroke-miterlimit="3"/><line x1="89.301" y1="124.5" x2="118.699" y2="124.5" vector-effect="non-scaling-stroke" stroke-width="2" stroke="rgb(166,166,166)" stroke-linejoin="miter" stroke-linecap="round" stroke-miterlimit="3"/><line x1="102" y1="78.5" x2="135.44" y2="78.5" vector-effect="non-scaling-stroke" stroke-width="2" stroke="rgb(166,166,166)" stroke-linejoin="miter" stroke-linecap="round" stroke-miterlimit="3"/><line x1="86.655" y1="83.5" x2="163.209" y2="83.5" vector-effect="non-scaling-stroke" stroke-width="1" stroke="rgb(235,235,235)" stroke-linejoin="miter" stroke-linecap="round" stroke-miterlimit="3"/><line x1="108.233" y1="72" x2="113.821" y2="72" vector-effect="non-scaling-stroke" stroke-width="2" stroke="rgb(166,166,166)" stroke-linejoin="miter" stroke-linecap="round" stroke-miterlimit="3"/><path d="M 156.505 68.5 L 160.495 68.5 C 161.326 68.5 162 69.174 162 70.005 L 162 73.995 C 162 74.826 161.326 75.5 160.495 75.5 L 156.505 75.5 C 155.674 75.5 155 74.826 155 73.995 L 155 70.005 C 155 69.174 155.674 68.5 156.505 68.5 Z" style="stroke:none;fill:#EBEBEB;stroke-miterlimit:10;"/><path d="M 102.021 69.63 L 104.729 69.63 C 105.292 69.63 105.75 70.088 105.75 70.651 L 105.75 73.359 C 105.75 73.922 105.292 74.38 104.729 74.38 L 102.021 74.38 C 101.458 74.38 101 73.922 101 73.359 L 101 70.651 C 101 70.088 101.458 69.63 102.021 69.63 Z" style="stroke:none;fill:#EBEBEB;stroke-miterlimit:10;"/><line x1="125.233" y1="72" x2="130.821" y2="72" vector-effect="non-scaling-stroke" stroke-width="2" stroke="rgb(166,166,166)" stroke-linejoin="miter" stroke-linecap="round" stroke-miterlimit="3"/><path d="M 119.021 69.63 L 121.729 69.63 C 122.292 69.63 122.75 70.088 122.75 70.651 L 122.75 73.359 C 122.75 73.922 122.292 74.38 121.729 74.38 L 119.021 74.38 C 118.458 74.38 118 73.922 118 73.359 L 118 70.651 C 118 70.088 118.458 69.63 119.021 69.63 Z" style="stroke:none;fill:#EBEBEB;stroke-miterlimit:10;"/><line x1="142.233" y1="72" x2="147.821" y2="72" vector-effect="non-scaling-stroke" stroke-width="2" stroke="rgb(166,166,166)" stroke-linejoin="miter" stroke-linecap="round" stroke-miterlimit="3"/><path d="M 136.021 69.63 L 138.729 69.63 C 139.292 69.63 139.75 70.088 139.75 70.651 L 139.75 73.359 C 139.75 73.922 139.292 74.38 138.729 74.38 L 136.021 74.38 C 135.458 74.38 135 73.922 135 73.359 L 135 70.651 C 135 70.088 135.458 69.63 136.021 69.63 Z" style="stroke:none;fill:#EBEBEB;stroke-miterlimit:10;"/><path d="M 159.751 85.75 L 162.459 85.75 C 163.022 85.75 163.48 86.208 163.48 86.771 L 163.48 89.479 C 163.48 90.042 163.022 90.5 162.459 90.5 L 159.751 90.5 C 159.188 90.5 158.73 90.042 158.73 89.479 L 158.73 86.771 C 158.73 86.208 159.188 85.75 159.751 85.75 Z" style="stroke:none;fill:#EBEBEB;stroke-miterlimit:10;"/><circle vector-effect="non-scaling-stroke" cx="92.74999999999996" cy="69.75" r="4.75" fill="rgb(34,166,82)"/><line x1="62.858" y1="69.75" x2="81" y2="69.75" vector-effect="non-scaling-stroke" stroke-width="1.5" stroke="rgb(189,189,189)" stroke-linejoin="miter" stroke-linecap="square" stroke-miterlimit="3"/><circle vector-effect="non-scaling-stroke" cx="50.35752487182617" cy="69.75" r="7.5" fill="rgb(189,189,189)"/><g clip-path="url(#_clipPath_VGPiPNhEU4ZGpPec3sQ6rXU7B8rqhoWQ)"><text transform="matrix(1,0,0,1,46.858,73.629)" style="font-family:'Open Sans';font-weight:700;font-size:10px;font-style:normal;fill:#000000;stroke:none;">a</text></g><defs><clipPath id="_clipPath_VGPiPNhEU4ZGpPec3sQ6rXU7B8rqhoWQ"><rect x="0" y="0" width="8" height="13.618" transform="matrix(1,0,0,1,46.858,62.941)"/></clipPath></defs><line x1="62.858" y1="92.5" x2="81" y2="92.5" vector-effect="non-scaling-stroke" stroke-width="1.5" stroke="rgb(189,189,189)" stroke-linejoin="miter" stroke-linecap="square" stroke-miterlimit="3"/><circle vector-effect="non-scaling-stroke" cx="50.35752487182617" cy="92.5" r="7.5" fill="rgb(189,189,189)"/><g clip-path="url(#_clipPath_hvNn380S8YbKB8Z907JxDAjfBZnGwI6R)"><text transform="matrix(1,0,0,1,46.903,96.379)" style="font-family:'Open Sans';font-weight:700;font-size:10px;font-style:normal;fill:#000000;stroke:none;">e</text></g><defs><clipPath id="_clipPath_hvNn380S8YbKB8Z907JxDAjfBZnGwI6R"><rect x="0" y="0" width="8" height="13.618" transform="matrix(1,0,0,1,46.858,85.691)"/></clipPath></defs><line x1="170" y1="69.125" x2="188.142" y2="69.125" vector-effect="non-scaling-stroke" stroke-width="1.5" stroke="rgb(189,189,189)" stroke-linejoin="miter" stroke-linecap="square" stroke-miterlimit="3"/><circle vector-effect="non-scaling-stroke" cx="200.5" cy="69.125" r="7.5" fill="rgb(189,189,189)"/><g clip-path="url(#_clipPath_daIgPNC9oIfksyQ9U35vrKB5RQJAdn0A)"><text transform="matrix(1,0,0,1,197,73.004)" style="font-family:'Open Sans';font-weight:700;font-size:10px;font-style:normal;fill:#000000;stroke:none;">d</text></g><defs><clipPath id="_clipPath_daIgPNC9oIfksyQ9U35vrKB5RQJAdn0A"><rect x="0" y="0" width="8" height="13.618" transform="matrix(1,0,0,1,197,62.316)"/></clipPath></defs><line x1="170" y1="88.125" x2="188.142" y2="88.125" vector-effect="non-scaling-stroke" stroke-width="1.5" stroke="rgb(189,189,189)" stroke-linejoin="miter" stroke-linecap="square" stroke-miterlimit="3"/><circle vector-effect="non-scaling-stroke" cx="200.5" cy="88.125" r="7.5" fill="rgb(189,189,189)"/><g clip-path="url(#_clipPath_zcjv1yBvRiz7yaTaBu4z1UiKuSUILP6B)"><text transform="matrix(1,0,0,1,198.064,92.004)" style="font-family:'Open Sans';font-weight:700;font-size:10px;font-style:normal;fill:#000000;stroke:none;">f</text></g><defs><clipPath id="_clipPath_zcjv1yBvRiz7yaTaBu4z1UiKuSUILP6B"><rect x="0" y="0" width="8" height="13.618" transform="matrix(1,0,0,1,197,81.316)"/></clipPath></defs><line x1="125" y1="141" x2="125" y2="159" vector-effect="non-scaling-stroke" stroke-width="1.5" stroke="rgb(189,189,189)" stroke-linejoin="miter" stroke-linecap="square" stroke-miterlimit="3"/><circle vector-effect="non-scaling-stroke" cx="125" cy="170.5" r="7.5" fill="rgb(189,189,189)"/><g clip-path="url(#_clipPath_ec5vU2b9SVSEkwbRPrVbSgJ6RmytAyUb)"><text transform="matrix(1,0,0,1,121.675,174.379)" style="font-family:'Open Sans';font-weight:700;font-size:10px;font-style:normal;fill:#000000;stroke:none;">g</text></g><defs><clipPath id="_clipPath_ec5vU2b9SVSEkwbRPrVbSgJ6RmytAyUb"><rect x="0" y="0" width="8" height="13.618" transform="matrix(1,0,0,1,121.5,163.691)"/></clipPath></defs><line x1="112.5" y1="39.625" x2="112.5" y2="57.625" vector-effect="non-scaling-stroke" stroke-width="1.5" stroke="rgb(189,189,189)" stroke-linejoin="miter" stroke-linecap="square" stroke-miterlimit="3"/><circle vector-effect="non-scaling-stroke" cx="112.5" cy="27.5" r="7.5" fill="rgb(189,189,189)"/><g clip-path="url(#_clipPath_v4GevZEk3dU6UStb3EEGkRPB3oLt8yef)"><text transform="matrix(1,0,0,1,109,31.379)" style="font-family:'Open Sans';font-weight:700;font-size:10px;font-style:normal;fill:#000000;stroke:none;">b</text></g><defs><clipPath id="_clipPath_v4GevZEk3dU6UStb3EEGkRPB3oLt8yef"><rect x="0" y="0" width="8" height="13.618" transform="matrix(1,0,0,1,109,20.691)"/></clipPath></defs><line x1="137" y1="39.316" x2="137" y2="72" vector-effect="non-scaling-stroke" stroke-width="1.5" stroke="rgb(189,189,189)" stroke-linejoin="miter" stroke-linecap="square" stroke-miterlimit="3"/><circle vector-effect="non-scaling-stroke" cx="137" cy="27.19091796875" r="7.5" fill="rgb(189,189,189)"/><g clip-path="url(#_clipPath_laSE4mwsVQ6z5EwiCMH9YMQWgcyZx0nP)"><text transform="matrix(1,0,0,1,133.929,31.07)" style="font-family:'Open Sans';font-weight:700;font-size:10px;font-style:normal;fill:#000000;stroke:none;">c</text></g><defs><clipPath id="_clipPath_laSE4mwsVQ6z5EwiCMH9YMQWgcyZx0nP"><rect x="0" y="0" width="8" height="13.618" transform="matrix(1,0,0,1,133.5,20.382)"/></clipPath></defs></g></svg>