<?xml version="1.0" encoding="UTF-8" standalone="no"?><!-- Generator: Gravit.io --><svg xmlns="http://www.w3.org/2000/svg" xmlns:xlink="http://www.w3.org/1999/xlink" style="isolation:isolate" viewBox="0 0 250 200" width="250pt" height="200pt"><defs><clipPath id="_clipPath_VQ33wAJvCK4xvknNZ5pADqOb6AaqEjsN"><rect width="250" height="200"/></clipPath></defs><g clip-path="url(#_clipPath_VQ33wAJvCK4xvknNZ5pADqOb6AaqEjsN)"><rect width="250" height="200" style="fill:rgb(0,0,0)"/><path d="M 89.919 14 L 160.081 14 C 166.107 14 171 18.893 171 24.919 L 171 175.081 C 171 181.107 166.107 186 160.081 186 L 89.919 186 C 83.893 186 79 181.107 79 175.081 L 79 24.919 C 79 18.893 83.893 14 89.919 14 Z" style="fill:none;stroke:#000000;stroke-width:4;stroke-linecap:square;stroke-miterlimit:2;"/><path d="M 91.32 26.5 L 118.68 26.5 C 121.064 26.5 123 28.436 123 30.82 L 123 46.18 C 123 48.564 121.064 50.5 118.68 50.5 L 91.32 50.5 C 88.936 50.5 87 48.564 87 46.18 L 87 30.82 C 87 28.436 88.936 26.5 91.32 26.5 Z" style="stroke:none;fill:#3B3B3B;stroke-miterlimit:10;"/><path d="M 91.32 82.5 L 124.68 82.5 C 127.064 82.5 129 84.436 129 86.82 L 129 102.18 C 129 104.564 127.064 106.5 124.68 106.5 L 91.32 106.5 C 88.936 106.5 87 104.564 87 102.18 L 87 86.82 C 87 84.436 88.936 82.5 91.32 82.5 Z" style="stroke:none;fill:#3B3B3B;stroke-miterlimit:10;"/><path d="M 93.54 110.5 L 156.46 110.5 C 160.07 110.5 163 113.43 163 117.04 L 163 143.96 C 163 147.57 160.07 150.5 156.46 150.5 L 93.54 150.5 C 89.93 150.5 87 147.57 87 143.96 L 87 117.04 C 87 113.43 89.93 110.5 93.54 110.5 Z" style="stroke:none;fill:#3B3B3B;stroke-miterlimit:10;"/><path d="M 91.624 153.5 L 158.376 153.5 C 160.928 153.5 163 155.572 163 158.124 L 163 168.876 C 163 171.428 160.928 173.5 158.376 173.5 L 91.624 173.5 C 89.072 173.5 87 171.428 87 168.876 L 87 158.124 C 87 155.572 89.072 153.5 91.624 153.5 Z" style="stroke:none;fill:#3B3B3B;stroke-miterlimit:10;"/><path d="M 137.32 82.5 L 158.68 82.5 C 161.064 82.5 163 84.436 163 86.82 L 163 102.18 C 163 104.564 161.064 106.5 158.68 106.5 L 137.32 106.5 C 134.936 106.5 133 104.564 133 102.18 L 133 86.82 C 133 84.436 134.936 82.5 137.32 82.5 Z" style="stroke:none;fill:#3B3B3B;stroke-miterlimit:10;"/><path d="M 131.32 26.5 L 158.68 26.5 C 161.064 26.5 163 28.436 163 30.82 L 163 46.18 C 163 48.564 161.064 50.5 158.68 50.5 L 131.32 50.5 C 128.936 50.5 127 48.564 127 46.18 L 127 30.82 C 127 28.436 128.936 26.5 131.32 26.5 Z" style="stroke:none;fill:#3B3B3B;stroke-miterlimit:10;"/><path d="M 91.145 54.5 L 105.885 54.5 C 108.173 54.5 110.03 56.357 110.03 58.645 L 110.03 74.355 C 110.03 76.643 108.173 78.5 105.885 78.5 L 91.145 78.5 C 88.857 78.5 87 76.643 87 74.355 L 87 58.645 C 87 56.357 88.857 54.5 91.145 54.5 Z" style="stroke:none;fill:#3B3B3B;stroke-miterlimit:10;"/><path d="M 117.634 54.5 L 132.366 54.5 C 134.653 54.5 136.51 56.357 136.51 58.645 L 136.51 74.355 C 136.51 76.643 134.653 78.5 132.366 78.5 L 117.634 78.5 C 115.347 78.5 113.49 76.643 113.49 74.355 L 113.49 58.645 C 113.49 56.357 115.347 54.5 117.634 54.5 Z" style="stroke:none;fill:#3B3B3B;stroke-miterlimit:10;"/><path d="M 144.115 54.5 L 158.855 54.5 C 161.143 54.5 163 56.357 163 58.645 L 163 74.355 C 163 76.643 161.143 78.5 158.855 78.5 L 144.115 78.5 C 141.827 78.5 139.97 76.643 139.97 74.355 L 139.97 58.645 C 139.97 56.357 141.827 54.5 144.115 54.5 Z" style="stroke:none;fill:#3B3B3B;stroke-miterlimit:10;"/><circle vector-effect="non-scaling-stroke" cx="104.99999999999997" cy="33.75" r="4.75" fill="rgb(34,166,82)"/><line x1="91" y1="42" x2="119" y2="42" vector-effect="non-scaling-stroke" stroke-width="2" stroke="rgb(166,166,166)" stroke-linejoin="miter" stroke-linecap="round" stroke-miterlimit="3"/><line x1="91" y1="46" x2="119" y2="46" vector-effect="non-scaling-stroke" stroke-width="2" stroke="rgb(166,166,166)" stroke-linejoin="miter" stroke-linecap="round" stroke-miterlimit="3"/><line x1="91" y1="74" x2="106.322" y2="74" vector-effect="non-scaling-stroke" stroke-width="2" stroke="rgb(166,166,166)" stroke-linejoin="miter" stroke-linecap="round" stroke-miterlimit="3"/><line x1="98.661" y1="90" x2="125.544" y2="90" vector-effect="non-scaling-stroke" stroke-width="2" stroke="rgb(166,166,166)" stroke-linejoin="miter" stroke-linecap="round" stroke-miterlimit="3"/><line x1="98.661" y1="99" x2="125.544" y2="99" vector-effect="non-scaling-stroke" stroke-width="2" stroke="rgb(166,166,166)" stroke-linejoin="miter" stroke-linecap="round" stroke-miterlimit="3"/><line x1="105.137" y1="119.5" x2="157.684" y2="119.5" vector-effect="non-scaling-stroke" stroke-width="2" stroke="rgb(166,166,166)" stroke-linejoin="miter" stroke-linecap="round" stroke-miterlimit="3"/><line x1="145.983" y1="90" x2="159.148" y2="90" vector-effect="non-scaling-stroke" stroke-width="2" stroke="rgb(166,166,166)" stroke-linejoin="miter" stroke-linecap="round" stroke-miterlimit="3"/><line x1="145.835" y1="99" x2="159" y2="99" vector-effect="non-scaling-stroke" stroke-width="2" stroke="rgb(166,166,166)" stroke-linejoin="miter" stroke-linecap="round" stroke-miterlimit="3"/><circle vector-effect="non-scaling-stroke" cx="145" cy="33.75" r="4.75" fill="rgb(255,153,0)"/><line x1="131" y1="42" x2="159" y2="42" vector-effect="non-scaling-stroke" stroke-width="2" stroke="rgb(166,166,166)" stroke-linejoin="miter" stroke-linecap="round" stroke-miterlimit="3"/><line x1="131" y1="46" x2="159" y2="46" vector-effect="non-scaling-stroke" stroke-width="2" stroke="rgb(166,166,166)" stroke-linejoin="miter" stroke-linecap="round" stroke-miterlimit="3"/><path d="M 95.945 60 L 101.075 60 C 102.143 60 103.01 60.867 103.01 61.935 L 103.01 67.065 C 103.01 68.133 102.143 69 101.075 69 L 95.945 69 C 94.877 69 94.01 68.133 94.01 67.065 L 94.01 61.935 C 94.01 60.867 94.877 60 95.945 60 Z" style="stroke:none;fill:#EBEBEB;stroke-miterlimit:10;"/><line x1="117.339" y1="74" x2="132.661" y2="74" vector-effect="non-scaling-stroke" stroke-width="2" stroke="rgb(166,166,166)" stroke-linejoin="miter" stroke-linecap="round" stroke-miterlimit="3"/><path d="M 122.285 60 L 127.415 60 C 128.483 60 129.35 60.867 129.35 61.935 L 129.35 67.065 C 129.35 68.133 128.483 69 127.415 69 L 122.285 69 C 121.217 69 120.35 68.133 120.35 67.065 L 120.35 61.935 C 120.35 60.867 121.217 60 122.285 60 Z" style="stroke:none;fill:#EBEBEB;stroke-miterlimit:10;"/><path d="M 138.26 87 L 141.68 87 C 142.392 87 142.97 87.578 142.97 88.29 L 142.97 91.71 C 142.97 92.422 142.392 93 141.68 93 L 138.26 93 C 137.548 93 136.97 92.422 136.97 91.71 L 136.97 88.29 C 136.97 87.578 137.548 87 138.26 87 Z" style="stroke:none;fill:#EBEBEB;stroke-miterlimit:10;"/><path d="M 138.26 96 L 141.68 96 C 142.392 96 142.97 96.578 142.97 97.29 L 142.97 100.71 C 142.97 101.422 142.392 102 141.68 102 L 138.26 102 C 137.548 102 136.97 101.422 136.97 100.71 L 136.97 97.29 C 136.97 96.578 137.548 96 138.26 96 Z" style="stroke:none;fill:#EBEBEB;stroke-miterlimit:10;"/><path d="M 91.29 87 L 94.71 87 C 95.422 87 96 87.578 96 88.29 L 96 91.71 C 96 92.422 95.422 93 94.71 93 L 91.29 93 C 90.578 93 90 92.422 90 91.71 L 90 88.29 C 90 87.578 90.578 87 91.29 87 Z" style="stroke:none;fill:#EBEBEB;stroke-miterlimit:10;"/><path d="M 91.29 96 L 94.71 96 C 95.422 96 96 96.578 96 97.29 L 96 100.71 C 96 101.422 95.422 102 94.71 102 L 91.29 102 C 90.578 102 90 101.422 90 100.71 L 90 97.29 C 90 96.578 90.578 96 91.29 96 Z" style="stroke:none;fill:#EBEBEB;stroke-miterlimit:10;"/><path d="M 93.74 115.5 L 98.3 115.5 C 99.249 115.5 100.02 116.271 100.02 117.22 L 100.02 121.78 C 100.02 122.729 99.249 123.5 98.3 123.5 L 93.74 123.5 C 92.791 123.5 92.02 122.729 92.02 121.78 L 92.02 117.22 C 92.02 116.271 92.791 115.5 93.74 115.5 Z" style="stroke:none;fill:#EBEBEB;stroke-miterlimit:10;"/><line x1="105.137" y1="130.5" x2="157.684" y2="130.5" vector-effect="non-scaling-stroke" stroke-width="2" stroke="rgb(166,166,166)" stroke-linejoin="miter" stroke-linecap="round" stroke-miterlimit="3"/><path d="M 93.74 126.5 L 98.3 126.5 C 99.249 126.5 100.02 127.271 100.02 128.22 L 100.02 132.78 C 100.02 133.729 99.249 134.5 98.3 134.5 L 93.74 134.5 C 92.791 134.5 92.02 133.729 92.02 132.78 L 92.02 128.22 C 92.02 127.271 92.791 126.5 93.74 126.5 Z" style="stroke:none;fill:#EBEBEB;stroke-miterlimit:10;"/><line x1="105.137" y1="141.5" x2="157.684" y2="141.5" vector-effect="non-scaling-stroke" stroke-width="2" stroke="rgb(166,166,166)" stroke-linejoin="miter" stroke-linecap="round" stroke-miterlimit="3"/><path d="M 93.74 137.5 L 98.3 137.5 C 99.249 137.5 100.02 138.271 100.02 139.22 L 100.02 143.78 C 100.02 144.729 99.249 145.5 98.3 145.5 L 93.74 145.5 C 92.791 145.5 92.02 144.729 92.02 143.78 L 92.02 139.22 C 92.02 138.271 92.791 137.5 93.74 137.5 Z" style="stroke:none;fill:#EBEBEB;stroke-miterlimit:10;"/><line x1="105.285" y1="163.5" x2="157.832" y2="163.5" vector-effect="non-scaling-stroke" stroke-width="2" stroke="rgb(166,166,166)" stroke-linejoin="miter" stroke-linecap="round" stroke-miterlimit="3"/><path d="M 93.89 159.5 L 98.45 159.5 C 99.399 159.5 100.17 160.271 100.17 161.22 L 100.17 165.78 C 100.17 166.729 99.399 167.5 98.45 167.5 L 93.89 167.5 C 92.941 167.5 92.17 166.729 92.17 165.78 L 92.17 161.22 C 92.17 160.271 92.941 159.5 93.89 159.5 Z" style="stroke:none;fill:#EBEBEB;stroke-miterlimit:10;"/><line x1="143.826" y1="74" x2="159.148" y2="74" vector-effect="non-scaling-stroke" stroke-width="2" stroke="rgb(166,166,166)" stroke-linejoin="miter" stroke-linecap="round" stroke-miterlimit="3"/><path d="M 148.775 60 L 153.905 60 C 154.973 60 155.84 60.867 155.84 61.935 L 155.84 67.065 C 155.84 68.133 154.973 69 153.905 69 L 148.775 69 C 147.707 69 146.84 68.133 146.84 67.065 L 146.84 61.935 C 146.84 60.867 147.707 60 148.775 60 Z" style="stroke:none;fill:#EBEBEB;stroke-miterlimit:10;"/><line x1="36" y1="38.5" x2="73" y2="38.5" vector-effect="non-scaling-stroke" stroke-width="1.5" stroke="rgb(189,189,189)" stroke-linejoin="miter" stroke-linecap="square" stroke-miterlimit="3"/><line x1="36" y1="66.5" x2="73" y2="66.5" vector-effect="non-scaling-stroke" stroke-width="1.5" stroke="rgb(189,189,189)" stroke-linejoin="miter" stroke-linecap="square" stroke-miterlimit="3"/><line x1="178" y1="39.191" x2="215" y2="39.191" vector-effect="non-scaling-stroke" stroke-width="1.5" stroke="rgb(189,189,189)" stroke-linejoin="miter" stroke-linecap="square" stroke-miterlimit="3"/><line x1="178" y1="95.191" x2="215" y2="95.191" vector-effect="non-scaling-stroke" stroke-width="1.5" stroke="rgb(189,189,189)" stroke-linejoin="miter" stroke-linecap="square" stroke-miterlimit="3"/><line x1="36" y1="96" x2="73" y2="96" vector-effect="non-scaling-stroke" stroke-width="1.5" stroke="rgb(189,189,189)" stroke-linejoin="miter" stroke-linecap="square" stroke-miterlimit="3"/><line x1="36" y1="130.5" x2="73" y2="130.5" vector-effect="non-scaling-stroke" stroke-width="1.5" stroke="rgb(189,189,189)" stroke-linejoin="miter" stroke-linecap="square" stroke-miterlimit="3"/><line x1="178" y1="164.191" x2="215" y2="164.191" vector-effect="non-scaling-stroke" stroke-width="1.5" stroke="rgb(189,189,189)" stroke-linejoin="miter" stroke-linecap="square" stroke-miterlimit="3"/><circle vector-effect="non-scaling-stroke" cx="23.5" cy="38.5" r="7.5" fill="rgb(189,189,189)"/><circle vector-effect="non-scaling-stroke" cx="23.5" cy="66.50000000000001" r="7.5" fill="rgb(189,189,189)"/><circle vector-effect="non-scaling-stroke" cx="226.99999999999997" cy="39.19091796875" r="7.5" fill="rgb(189,189,189)"/><circle vector-effect="non-scaling-stroke" cx="226.99999999999997" cy="95.19091796875" r="7.5" fill="rgb(189,189,189)"/><circle vector-effect="non-scaling-stroke" cx="23.5" cy="96.00000000000001" r="7.5" fill="rgb(189,189,189)"/><circle vector-effect="non-scaling-stroke" cx="23.5" cy="130.5" r="7.5" fill="rgb(189,189,189)"/><circle vector-effect="non-scaling-stroke" cx="226.99999999999997" cy="164.19091796875" r="7.5" fill="rgb(189,189,189)"/><g clip-path="url(#_clipPath_WkF7MXRPpVRL9bIyjmVhTiQQlgY1zEJO)"><text transform="matrix(1,0,0,1,20.146,42.379)" style="font-family:'Open Sans';font-weight:700;font-size:10px;font-style:normal;fill:#000000;stroke:none;">1</text></g><defs><clipPath id="_clipPath_WkF7MXRPpVRL9bIyjmVhTiQQlgY1zEJO"><rect x="0" y="0" width="8" height="13.618" transform="matrix(1,0,0,1,20,31.691)"/></clipPath></defs><g clip-path="url(#_clipPath_L8RnYyHhPrEzSDKNZdNbj02tmp9bKXL4)"><text transform="matrix(1,0,0,1,20.146,70.379)" style="font-family:'Open Sans';font-weight:700;font-size:10px;font-style:normal;fill:#000000;stroke:none;">3</text></g><defs><clipPath id="_clipPath_L8RnYyHhPrEzSDKNZdNbj02tmp9bKXL4"><rect x="0" y="0" width="8" height="13.618" transform="matrix(1,0,0,1,20,59.691)"/></clipPath></defs><g clip-path="url(#_clipPath_2jyPm2xNasWX5HWTMY4FemVhCGpclPbR)"><text transform="matrix(1,0,0,1,223.646,43.07)" style="font-family:'Open Sans';font-weight:700;font-size:10px;font-style:normal;fill:#000000;stroke:none;">2</text></g><defs><clipPath id="_clipPath_2jyPm2xNasWX5HWTMY4FemVhCGpclPbR"><rect x="0" y="0" width="8" height="13.618" transform="matrix(1,0,0,1,223.5,32.382)"/></clipPath></defs><g clip-path="url(#_clipPath_iHEuUXMTJzv1woq9uFeDhozWNzgRpASj)"><text transform="matrix(1,0,0,1,223.646,99.07)" style="font-family:'Open Sans';font-weight:700;font-size:10px;font-style:normal;fill:#000000;stroke:none;">5</text></g><defs><clipPath id="_clipPath_iHEuUXMTJzv1woq9uFeDhozWNzgRpASj"><rect x="0" y="0" width="8" height="13.618" transform="matrix(1,0,0,1,223.5,88.382)"/></clipPath></defs><g clip-path="url(#_clipPath_PoNJMqdNVgsJKBeMvk3jVpe9kBNy7VDR)"><text transform="matrix(1,0,0,1,20.146,99.879)" style="font-family:'Open Sans';font-weight:700;font-size:10px;font-style:normal;fill:#000000;stroke:none;">4</text></g><defs><clipPath id="_clipPath_PoNJMqdNVgsJKBeMvk3jVpe9kBNy7VDR"><rect x="0" y="0" width="8" height="13.618" transform="matrix(1,0,0,1,20,89.191)"/></clipPath></defs><g clip-path="url(#_clipPath_1KDWAEFDfkIRYDBKEiSs1Z42vK5uGmOS)"><text transform="matrix(1,0,0,1,20.146,134.379)" style="font-family:'Open Sans';font-weight:700;font-size:10px;font-style:normal;fill:#000000;stroke:none;">6</text></g><defs><clipPath id="_clipPath_1KDWAEFDfkIRYDBKEiSs1Z42vK5uGmOS"><rect x="0" y="0" width="8" height="13.618" transform="matrix(1,0,0,1,20,123.691)"/></clipPath></defs><g clip-path="url(#_clipPath_XrQ9rORkVv2kFWB03kb3UyG06u3FOGXr)"><text transform="matrix(1,0,0,1,223.646,168.07)" style="font-family:'Open Sans';font-weight:700;font-size:10px;font-style:normal;fill:#000000;stroke:none;">7</text></g><defs><clipPath id="_clipPath_XrQ9rORkVv2kFWB03kb3UyG06u3FOGXr"><rect x="0" y="0" width="8" height="13.618" transform="matrix(1,0,0,1,223.5,157.382)"/></clipPath></defs></g></svg>