<?xml version="1.0" encoding="UTF-8" standalone="no"?><!-- Generator: Gravit.io --><svg xmlns="http://www.w3.org/2000/svg" xmlns:xlink="http://www.w3.org/1999/xlink" style="isolation:isolate" viewBox="0 0 24 24" width="24pt" height="24pt"><defs><clipPath id="_clipPath_j8cioux6yISyQX7IZK7AMhZZplJrEAC2"><rect width="24" height="24"/></clipPath></defs><g clip-path="url(#_clipPath_j8cioux6yISyQX7IZK7AMhZZplJrEAC2)"><circle vector-effect="non-scaling-stroke" cx="11.999999999999996" cy="11.70556640625" r="2.4443359375" fill="rgb(0,0,0)"/><path d=" M 2.508 11.331 C 2.508 6.092 6.761 1.838 12 1.838 C 17.239 1.838 21.492 6.092 21.492 11.331" fill="none" vector-effect="non-scaling-stroke" stroke-width="2" stroke="rgb(0,0,0)" stroke-linejoin="miter" stroke-linecap="square" stroke-miterlimit="3"/><path d=" M 6.211 11.331 C 6.211 8.135 8.805 5.542 12 5.542 C 15.195 5.542 17.789 8.135 17.789 11.331" fill="none" vector-effect="non-scaling-stroke" stroke-width="2" stroke="rgb(0,0,0)" stroke-linejoin="miter" stroke-linecap="square" stroke-miterlimit="3"/><path d=" M 8.084 21.759 L 8.084 22.501 L 4.104 22.501 L 4.104 15.362 L 8.084 15.362 L 8.084 16.1 L 4.935 16.1 L 4.935 18.399 L 7.894 18.399 L 7.894 19.132 L 4.935 19.132 L 4.935 21.759 L 8.084 21.759 Z  M 12.034 18.741 L 14.417 22.501 L 13.475 22.501 L 11.556 19.361 L 9.603 22.501 L 8.724 22.501 L 11.097 18.771 L 8.885 15.362 L 9.803 15.362 L 11.575 18.189 L 13.362 15.362 L 14.246 15.362 L 12.034 18.741 Z  M 17.635 16.1 L 17.635 22.501 L 16.805 22.501 L 16.805 16.1 L 14.544 16.1 L 14.544 15.362 L 19.896 15.362 L 19.896 16.1 L 17.635 16.1 Z " fill="rgb(0,0,0)" vector-effect="non-scaling-stroke" stroke-width="0.5" stroke="rgb(0,0,0)" stroke-linejoin="miter" stroke-linecap="square" stroke-miterlimit="3"/></g></svg>