<?xml version="1.0" encoding="UTF-8" standalone="no"?><!-- Generator: Gravit.io --><svg xmlns="http://www.w3.org/2000/svg" xmlns:xlink="http://www.w3.org/1999/xlink" style="isolation:isolate" viewBox="0 0 250 200" width="250pt" height="200pt"><defs><clipPath id="_clipPath_GGsI3PayzqWSZwg2GAMXnath8JxGPNbb"><rect width="250" height="200"/></clipPath></defs><g clip-path="url(#_clipPath_GGsI3PayzqWSZwg2GAMXnath8JxGPNbb)"><rect width="250" height="200" style="fill:rgb(0,0,0)"/><path d="M 89.919 14 L 160.081 14 C 166.107 14 171 18.893 171 24.919 L 171 175.081 C 171 181.107 166.107 186 160.081 186 L 89.919 186 C 83.893 186 79 181.107 79 175.081 L 79 24.919 C 79 18.893 83.893 14 89.919 14 Z" style="fill:none;stroke:#999989;stroke-width:2;stroke-linecap:square;stroke-miterlimit:2;"/><path d="M 89.675 20 L 160.325 20 C 163.181 20 165.5 22.319 165.5 25.175 L 165.5 29.825 C 165.5 32.681 163.181 35 160.325 35 L 89.675 35 C 86.819 35 84.5 32.681 84.5 29.825 L 84.5 25.175 C 84.5 22.319 86.819 20 89.675 20 Z" style="stroke:none;fill:#3B3B3B;stroke-miterlimit:10;"/><path d="M 89.72 23.5 L 94.28 23.5 C 95.229 23.5 96 24.271 96 25.22 L 96 29.78 C 96 30.729 95.229 31.5 94.28 31.5 L 89.72 31.5 C 88.771 31.5 88 30.729 88 29.78 L 88 25.22 C 88 24.271 88.771 23.5 89.72 23.5 Z" style="stroke:none;fill:#EBEBEB;stroke-miterlimit:10;"/><line x1="101.328" y1="23.25" x2="136" y2="23.25" vector-effect="non-scaling-stroke" stroke-width="2" stroke="rgb(166,166,166)" stroke-linejoin="miter" stroke-linecap="round" stroke-miterlimit="3"/><line x1="101.328" y1="27.75" x2="126.64" y2="27.75" vector-effect="non-scaling-stroke" stroke-width="2" stroke="rgb(166,166,166)" stroke-linejoin="miter" stroke-linecap="round" stroke-miterlimit="3"/><line x1="101.328" y1="31.75" x2="126.64" y2="31.75" vector-effect="non-scaling-stroke" stroke-width="2" stroke="rgb(166,166,166)" stroke-linejoin="miter" stroke-linecap="round" stroke-miterlimit="3"/><line x1="55" y1="28" x2="73.142" y2="28" vector-effect="non-scaling-stroke" stroke-width="1.5" stroke="rgb(189,189,189)" stroke-linejoin="miter" stroke-linecap="square" stroke-miterlimit="3"/><circle vector-effect="non-scaling-stroke" cx="42.5" cy="28" r="7.5" fill="rgb(189,189,189)"/><g clip-path="url(#_clipPath_vBsuOA4HPCt2Zyu2YsXicNIloPKaQuNX)"><text transform="matrix(1,0,0,1,39.146,31.879)" style="font-family:'Open Sans';font-weight:700;font-size:10px;font-style:normal;fill:#000000;stroke:none;">1</text></g><defs><clipPath id="_clipPath_vBsuOA4HPCt2Zyu2YsXicNIloPKaQuNX"><rect x="0" y="0" width="8" height="13.618" transform="matrix(1,0,0,1,39,21.191)"/></clipPath></defs><path d="M 141.499 166 L 158.831 166 C 162.418 166 165.33 168.913 165.33 172.5 L 165.33 172.5 C 165.33 176.087 162.418 179 158.831 179 L 141.499 179 C 137.912 179 135 176.087 135 172.5 L 135 172.5 C 135 168.913 137.912 166 141.499 166 Z" style="stroke:none;fill:#FF8300;stroke-miterlimit:10;"/><path d="M 141.05 168.5 L 145.61 168.5 C 146.559 168.5 147.33 169.271 147.33 170.22 L 147.33 174.78 C 147.33 175.729 146.559 176.5 145.61 176.5 L 141.05 176.5 C 140.101 176.5 139.33 175.729 139.33 174.78 L 139.33 170.22 C 139.33 169.271 140.101 168.5 141.05 168.5 Z" style="stroke:none;fill:#EBEBEB;stroke-miterlimit:10;"/><line x1="151.333" y1="172.5" x2="161.066" y2="172.5" vector-effect="non-scaling-stroke" stroke-width="2" stroke="rgb(235,235,235)" stroke-linejoin="miter" stroke-linecap="round" stroke-miterlimit="3"/><line x1="178" y1="172.5" x2="196.142" y2="172.5" vector-effect="non-scaling-stroke" stroke-width="1.5" stroke="rgb(189,189,189)" stroke-linejoin="miter" stroke-linecap="square" stroke-miterlimit="3"/><circle vector-effect="non-scaling-stroke" cx="208.50000000000006" cy="172.49999999999994" r="7.5" fill="rgb(189,189,189)"/><g clip-path="url(#_clipPath_etYkaFWbC2jPpK3umRpCOB4I4gI2wOwF)"><text transform="matrix(1,0,0,1,205.146,176.379)" style="font-family:'Open Sans';font-weight:700;font-size:10px;font-style:normal;fill:#000000;stroke:none;">2</text></g><defs><clipPath id="_clipPath_etYkaFWbC2jPpK3umRpCOB4I4gI2wOwF"><rect x="0" y="0" width="8" height="13.618" transform="matrix(1,0,0,1,205,165.691)"/></clipPath></defs><line x1="149.194" y1="27.5" x2="158.066" y2="27.5" vector-effect="non-scaling-stroke" stroke-width="3" stroke="rgb(255,131,0)" stroke-linejoin="miter" stroke-linecap="round" stroke-miterlimit="3"/><circle vector-effect="non-scaling-stroke" cx="158.06611804853605" cy="27.49999999999998" r="3" fill="rgb(255,131,0)"/><path d="M 89.675 38 L 160.325 38 C 163.181 38 165.5 40.319 165.5 43.175 L 165.5 47.825 C 165.5 50.681 163.181 53 160.325 53 L 89.675 53 C 86.819 53 84.5 50.681 84.5 47.825 L 84.5 43.175 C 84.5 40.319 86.819 38 89.675 38 Z" style="stroke:none;fill:#3B3B3B;stroke-miterlimit:10;"/><path d="M 89.72 41.5 L 94.28 41.5 C 95.229 41.5 96 42.271 96 43.22 L 96 47.78 C 96 48.729 95.229 49.5 94.28 49.5 L 89.72 49.5 C 88.771 49.5 88 48.729 88 47.78 L 88 43.22 C 88 42.271 88.771 41.5 89.72 41.5 Z" style="stroke:none;fill:#EBEBEB;stroke-miterlimit:10;"/><line x1="101.328" y1="41.25" x2="136" y2="41.25" vector-effect="non-scaling-stroke" stroke-width="2" stroke="rgb(166,166,166)" stroke-linejoin="miter" stroke-linecap="round" stroke-miterlimit="3"/><line x1="101.328" y1="45.75" x2="126.64" y2="45.75" vector-effect="non-scaling-stroke" stroke-width="2" stroke="rgb(166,166,166)" stroke-linejoin="miter" stroke-linecap="round" stroke-miterlimit="3"/><line x1="101.328" y1="49.75" x2="126.64" y2="49.75" vector-effect="non-scaling-stroke" stroke-width="2" stroke="rgb(166,166,166)" stroke-linejoin="miter" stroke-linecap="round" stroke-miterlimit="3"/><line x1="149.194" y1="45.5" x2="158.066" y2="45.5" vector-effect="non-scaling-stroke" stroke-width="3" stroke="rgb(255,131,0)" stroke-linejoin="miter" stroke-linecap="round" stroke-miterlimit="3"/><circle vector-effect="non-scaling-stroke" cx="158.06611804853605" cy="45.5" r="3" fill="rgb(255,131,0)"/><path d="M 89.675 56 L 160.325 56 C 163.181 56 165.5 58.319 165.5 61.175 L 165.5 65.825 C 165.5 68.681 163.181 71 160.325 71 L 89.675 71 C 86.819 71 84.5 68.681 84.5 65.825 L 84.5 61.175 C 84.5 58.319 86.819 56 89.675 56 Z" style="stroke:none;fill:#3B3B3B;stroke-miterlimit:10;"/><path d="M 89.72 59.5 L 94.28 59.5 C 95.229 59.5 96 60.271 96 61.22 L 96 65.78 C 96 66.729 95.229 67.5 94.28 67.5 L 89.72 67.5 C 88.771 67.5 88 66.729 88 65.78 L 88 61.22 C 88 60.271 88.771 59.5 89.72 59.5 Z" style="stroke:none;fill:#EBEBEB;stroke-miterlimit:10;"/><line x1="101.328" y1="59.25" x2="136" y2="59.25" vector-effect="non-scaling-stroke" stroke-width="2" stroke="rgb(166,166,166)" stroke-linejoin="miter" stroke-linecap="round" stroke-miterlimit="3"/><line x1="101.328" y1="63.75" x2="126.64" y2="63.75" vector-effect="non-scaling-stroke" stroke-width="2" stroke="rgb(166,166,166)" stroke-linejoin="miter" stroke-linecap="round" stroke-miterlimit="3"/><line x1="101.328" y1="67.75" x2="126.64" y2="67.75" vector-effect="non-scaling-stroke" stroke-width="2" stroke="rgb(166,166,166)" stroke-linejoin="miter" stroke-linecap="round" stroke-miterlimit="3"/><line x1="149.194" y1="63.5" x2="158.066" y2="63.5" vector-effect="non-scaling-stroke" stroke-width="3" stroke="rgb(255,131,0)" stroke-linejoin="miter" stroke-linecap="round" stroke-miterlimit="3"/><circle vector-effect="non-scaling-stroke" cx="158.0661180485361" cy="63.5" r="3" fill="rgb(255,131,0)"/><path d="M 89.505 74 L 160.155 74 C 163.011 74 165.33 76.319 165.33 79.175 L 165.33 83.825 C 165.33 86.681 163.011 89 160.155 89 L 89.505 89 C 86.649 89 84.33 86.681 84.33 83.825 L 84.33 79.175 C 84.33 76.319 86.649 74 89.505 74 Z" style="stroke:none;fill:#3B3B3B;stroke-miterlimit:10;"/><path d="M 89.55 77.5 L 94.11 77.5 C 95.059 77.5 95.83 78.271 95.83 79.22 L 95.83 83.78 C 95.83 84.729 95.059 85.5 94.11 85.5 L 89.55 85.5 C 88.601 85.5 87.83 84.729 87.83 83.78 L 87.83 79.22 C 87.83 78.271 88.601 77.5 89.55 77.5 Z" style="stroke:none;fill:#EBEBEB;stroke-miterlimit:10;"/><line x1="101.161" y1="77.25" x2="135.833" y2="77.25" vector-effect="non-scaling-stroke" stroke-width="2" stroke="rgb(166,166,166)" stroke-linejoin="miter" stroke-linecap="round" stroke-miterlimit="3"/><line x1="101.161" y1="81.75" x2="126.473" y2="81.75" vector-effect="non-scaling-stroke" stroke-width="2" stroke="rgb(166,166,166)" stroke-linejoin="miter" stroke-linecap="round" stroke-miterlimit="3"/><line x1="101.161" y1="85.75" x2="126.473" y2="85.75" vector-effect="non-scaling-stroke" stroke-width="2" stroke="rgb(166,166,166)" stroke-linejoin="miter" stroke-linecap="round" stroke-miterlimit="3"/><line x1="149.028" y1="81.5" x2="157.899" y2="81.5" vector-effect="non-scaling-stroke" stroke-width="3" stroke="rgb(255,131,0)" stroke-linejoin="miter" stroke-linecap="round" stroke-miterlimit="3"/><circle vector-effect="non-scaling-stroke" cx="157.89945138186914" cy="81.5" r="3" fill="rgb(255,131,0)"/></g></svg>